<svg xmlns="http://www.w3.org/2000/svg" version="1.1" xmlns:xlink="http://www.w3.org/1999/xlink" width="512" height="512" x="0" y="0" viewBox="0 0 512 512" style="enable-background:new 0 0 512 512" xml:space="preserve" class=""><g><path fill="#443043" d="M511.995 488.769h-40.902l-63.124-19.987-63.927 19.987h-102.14l78.904-115.379 8.181-5.773 40.033-60.813c3.815-5.578 12.044-5.578 15.859 0l42.18 62.652 6.033 3.934z" opacity="1" data-original="#b3dafe" class=""></path><path fill="#2b102a" d="M512 488.769h-24.591l-74.255-108.581-45.724-67.144a114.485 114.485 0 0 0-1.336-1.796l5.651-7.102c3.814-5.572 9.309-2.914 13.134 2.658l39.481 61.733 8.728 4.856z" opacity="1" data-original="#8ac9fe" class=""></path><path fill="#3d0049" d="M433.092 373.39a28.85 28.85 0 0 1-10.485 1.955c-8.097 0-15.415-3.325-20.676-8.678a3.012 3.012 0 0 0-4.305 0c-5.261 5.353-12.579 8.678-20.676 8.678s-15.415-3.325-20.676-8.678a3.012 3.012 0 0 0-4.305 0c-5.261 5.353-12.579 8.678-20.676 8.678-3.696 0-7.237-.691-10.486-1.955l48.213-70.499c3.815-5.578 12.044-5.578 15.859 0z" opacity="1" data-original="#f8f6f6" class=""></path><path fill="#503957" d="M433.088 373.392a28.855 28.855 0 0 1-10.486 1.953 28.78 28.78 0 0 1-16.109-4.893l-41.553-60.757a5.95 5.95 0 0 0-.298-.401l4.379-6.405c3.814-5.572 12.038-5.572 15.863 0z" opacity="1" data-original="#ebebeb" class=""></path><path fill="#443043" d="m173.906 240.43-42.903 65.892-9.237 4.389L0 488.773h61.69l116.266-12.295 124.025 12.295h42.061l9.573-3.09 10.056 3.09L241.9 310.702l-6.453-2.848-45.681-67.424c-3.815-5.579-12.045-5.579-15.86 0z" opacity="1" data-original="#b3dafe" class=""></path><path fill="#2b102a" d="m363.675 488.769-11.082-2.281-8.55 2.281h-5.258L171.499 244.128l2.411-5.792c3.814-5.572 12.038-5.572 15.852 0l45.684 69.519 6.453 2.848z" opacity="1" data-original="#8ac9fe" class=""></path><path fill="#3d0049" d="M126.948 419.035c23.482 0 44.054 12.409 55.546 31.022 2.565 4.155 7.161 6.613 12.035 6.306 4.688-.295 7.474-.328 7.474-.328s72.049.847 99.975 32.739H61.69v-4.481c0-36.041 29.217-65.258 65.258-65.258z" opacity="1" data-original="#f8f6f6" class=""></path><path fill="#503957" d="M301.982 488.769h-25.989c-34.511-19.749-88.055-18.349-88.055-18.349s-2.93.041-7.854.35c-5.13.319-9.962-2.262-12.655-6.631-12.079-19.564-33.007-34.636-57.69-34.636-8.553 0-16.736 1.563-24.282 4.431 11.278-9.304 25.732-14.896 41.492-14.896 23.48 0 44.051 12.408 55.545 31.016 2.57 4.164 7.165 6.621 12.038 6.312 4.688-.298 7.474-.329 7.474-.329s72.044.842 99.976 32.732z" opacity="1" data-original="#ebebeb" class=""></path><path fill="#3d0049" d="M241.902 310.701a28.724 28.724 0 0 1-14.405 3.842c-8.097 0-15.415-3.325-20.676-8.678a3.012 3.012 0 0 0-4.305 0c-5.261 5.353-12.579 8.678-20.676 8.678s-15.415-3.325-20.676-8.678a3.012 3.012 0 0 0-4.305 0c-5.261 5.353-12.579 8.678-20.676 8.678a28.8 28.8 0 0 1-14.415-3.832l52.143-76.247c3.815-5.579 12.045-5.578 15.86 0z" opacity="1" data-original="#f8f6f6" class=""></path><path fill="#503957" d="M241.903 310.702a28.77 28.77 0 0 1-14.403 3.845 28.78 28.78 0 0 1-8.779-1.357l-49.325-72.138 4.513-6.59c3.454-5.048 10.537-5.521 14.67-1.419a9.2 9.2 0 0 1 1.182 1.419z" opacity="1" data-original="#ebebeb" class=""></path><path fill="#3d0049" d="M344.043 488.769c0-24.977 20.248-45.225 45.225-45.225s45.225 20.248 45.225 45.225z" opacity="1" data-original="#f8f6f6" class=""></path><path fill="#503957" d="M434.496 488.769h-23.357c-1.48-21.599-18.135-39.024-39.394-41.707a45.244 45.244 0 0 1 17.528-3.516c24.971 0 45.223 20.242 45.223 45.223z" opacity="1" data-original="#ebebeb" class=""></path><g fill="#e2e2e2"><path d="M124.139 133.007a7.712 7.712 0 0 0-10.532-2.822l-4.721 2.725v-5.451a7.71 7.71 0 0 0-7.71-7.71 7.71 7.71 0 0 0-7.71 7.71v5.45l-4.72-2.725a7.708 7.708 0 0 0-10.532 2.822 7.71 7.71 0 0 0 2.822 10.532l4.72 2.725-4.72 2.725a7.71 7.71 0 0 0 7.71 13.354l4.72-2.725v5.45a7.71 7.71 0 0 0 7.71 7.71 7.71 7.71 0 0 0 7.71-7.71v-5.451l4.721 2.725a7.705 7.705 0 0 0 10.532-2.822 7.71 7.71 0 0 0-2.822-10.532l-4.72-2.725 4.72-2.725a7.708 7.708 0 0 0 2.822-10.53zM475.765 228.121l-4.721-2.726 4.721-2.726a7.71 7.71 0 1 0-7.71-13.354l-4.72 2.725v-5.45a7.71 7.71 0 0 0-15.42 0v5.45l-4.721-2.726a7.71 7.71 0 0 0-7.71 13.354l4.721 2.726-4.721 2.726a7.71 7.71 0 0 0 7.71 13.354l4.721-2.726v5.45a7.71 7.71 0 0 0 15.42 0v-5.45l4.72 2.725a7.706 7.706 0 0 0 10.532-2.822 7.707 7.707 0 0 0-2.822-10.53zM330.642 88.863a7.712 7.712 0 0 0-10.532-2.822l-4.721 2.726v-5.45a7.71 7.71 0 0 0-7.71-7.71 7.71 7.71 0 0 0-7.71 7.71v5.45l-4.72-2.725a7.71 7.71 0 0 0-7.71 13.354l4.721 2.726-4.721 2.726a7.71 7.71 0 1 0 7.71 13.354l4.72-2.725v5.45a7.71 7.71 0 0 0 7.71 7.71 7.71 7.71 0 0 0 7.71-7.71v-5.45l4.721 2.726a7.706 7.706 0 0 0 10.532-2.822 7.71 7.71 0 0 0-2.822-10.532l-4.721-2.726 4.721-2.726a7.711 7.711 0 0 0 2.822-10.534z" fill="#391346" opacity="1" data-original="#e2e2e2" class=""></path></g><path fill="#391346" d="M407.97 488.769c0-17.431 14.131-31.562 31.562-31.562s31.562 14.131 31.562 31.562z" opacity="1" data-original="#e2e2e2" class=""></path><path fill="#3c1c42" d="M471.094 488.769h-18.916c-1.696-14.536-13.262-26.061-27.819-27.675a31.386 31.386 0 0 1 15.174-3.886c17.426 0 31.561 14.125 31.561 31.561z" opacity="1" data-original="#cecece" class=""></path><circle cx="254.193" cy="198.127" r="18.747" fill="#3d0049" opacity="1" data-original="#f8f6f6" class=""></circle><path fill="#503957" d="M272.935 198.132c0 10.351-8.383 18.746-18.746 18.746-6.747 0-12.651-3.557-15.959-8.905.498.035 1.008.059 1.518.059 10.351 0 18.746-8.395 18.746-18.746 0-3.616-1.02-6.984-2.786-9.841 9.65.771 17.227 8.833 17.227 18.687z" opacity="1" data-original="#ebebeb" class=""></path><circle cx="376.949" cy="41.973" r="18.747" fill="#3d0049" opacity="1" data-original="#f8f6f6" class=""></circle><path fill="#503957" d="M395.69 41.978c0 10.351-8.383 18.746-18.746 18.746-6.747 0-12.651-3.557-15.959-8.905.498.035 1.008.059 1.518.059 10.351 0 18.746-8.395 18.746-18.746 0-3.616-1.02-6.984-2.786-9.841 9.65.771 17.227 8.834 17.227 18.687z" opacity="1" data-original="#ebebeb" class=""></path><circle cx="395.69" cy="146.264" r="18.747" fill="#3d0049" opacity="1" data-original="#f8f6f6" class=""></circle><path fill="#503957" d="M414.432 146.269c0 10.351-8.383 18.746-18.746 18.746-6.747 0-12.651-3.557-15.959-8.905.498.035 1.008.059 1.518.059 10.351 0 18.746-8.395 18.746-18.746 0-3.616-1.02-6.984-2.786-9.841 9.65.771 17.227 8.834 17.227 18.687z" opacity="1" data-original="#ebebeb" class=""></path><circle cx="193.719" cy="72.022" r="18.747" fill="#3d0049" opacity="1" data-original="#f8f6f6" class=""></circle><path fill="#503957" d="M212.461 72.027c0 10.351-8.383 18.746-18.746 18.746-6.747 0-12.651-3.557-15.959-8.905.498.035 1.008.059 1.518.059 10.351 0 18.746-8.395 18.746-18.746 0-3.616-1.02-6.984-2.786-9.841 9.65.771 17.227 8.833 17.227 18.687z" opacity="1" data-original="#ebebeb" class=""></path><circle cx="74.985" cy="232.955" r="18.747" fill="#3d0049" opacity="1" data-original="#f8f6f6" class=""></circle><path fill="#503957" d="M93.726 232.96c0 10.351-8.383 18.746-18.746 18.746-6.747 0-12.651-3.557-15.959-8.905.498.035 1.008.059 1.518.059 10.351 0 18.746-8.395 18.746-18.746 0-3.616-1.02-6.984-2.786-9.841 9.65.771 17.227 8.834 17.227 18.687z" opacity="1" data-original="#ebebeb" class=""></path><circle cx="41.964" cy="53.273" r="18.747" fill="#3d0049" opacity="1" data-original="#f8f6f6" class=""></circle><path fill="#503957" d="M60.706 53.278c0 10.351-8.383 18.746-18.746 18.746-6.747 0-12.651-3.557-15.959-8.905.498.035 1.008.059 1.518.059 10.351 0 18.746-8.395 18.746-18.746 0-3.616-1.02-6.984-2.786-9.841 9.65.771 17.227 8.834 17.227 18.687z" opacity="1" data-original="#ebebeb" class=""></path><circle cx="489.841" cy="288.053" r="18.747" fill="#3d0049" opacity="1" data-original="#f8f6f6" class=""></circle><path fill="#503957" d="M508.582 288.057c0 10.351-8.383 18.746-18.746 18.746-6.747 0-12.651-3.557-15.959-8.905.498.035 1.008.059 1.518.059 10.351 0 18.746-8.395 18.746-18.746 0-3.616-1.02-6.984-2.786-9.841 9.651.771 17.227 8.834 17.227 18.687z" opacity="1" data-original="#ebebeb" class=""></path></g></svg>