<?xml version="1.0" encoding="UTF-8" standalone="no"?>
<!-- Created with Inkscape (http://www.inkscape.org/) -->

<svg
   width="135.46666mm"
   height="135.46669mm"
   viewBox="0 0 135.46666 135.46669"
   version="1.1"
   id="svg1"
   xml:space="preserve"
   xmlns="http://www.w3.org/2000/svg"
   xmlns:svg="http://www.w3.org/2000/svg"><defs
     id="defs1"><filter
       style="color-interpolation-filters:sRGB"
       id="filter1"
       x="0"
       y="0"
       width="1"
       height="1"><feColorMatrix
         values="1.18315 0 0 -0.475815 -0.0915751 0 1.18315 0 -0.475815 -0.0915751 0 0 1.18315 -0.475815 -0.0915751 0 0 0 1 0"
         id="feColorMatrix1" /></filter></defs><g
     id="layer1"
     transform="translate(-37.306248,-80.697929)"><g
       id="g11"
       transform="matrix(0.26458333,0,0,0.26458333,37.306251,80.697918)"
       style="filter:url(#filter1)"><path
         id="Layer"
         class="shp0"
         d="M 120,251.55 223.86,375.27 121.27,451.24 9.73,362 Z" /><path
         id="path1"
         class="shp1"
         d="M 5.77,358.54 C 2.34,355.79 0,351.74 0,347 v -90 c 0,-8.29 6.71,-15 15,-15 h 90 c 4.62,0 8.59,2.2 11.34,5.48 l 3.66,4.07 V 347 c 0,8.28 -6.72,15 -15,15 H 9.73 Z" /><path
         id="path2"
         class="shp2"
         d="M 392,251.55 287.14,375.27 390.73,451.24 502.27,362 Z" /><path
         id="path3"
         class="shp0"
         d="m 506.23,358.54 c 3.43,-2.75 5.77,-6.8 5.77,-11.54 v -90 c 0,-8.29 -6.71,-15 -15,-15 h -90 c -4.62,0 -8.59,2.2 -11.34,5.48 L 392,251.55 V 347 c 0,8.28 6.72,15 15,15 h 95.27 z" /><path
         id="path4"
         class="shp1"
         d="M 361.4,107.7 311.3,386.6 H 200.7 L 150.6,107.7 c -0.6,-2.4 -0.3,-4.8 0.3,-7.2 h 210.2 c 0.6,2.4 0.9,4.8 0.3,7.2 z" /><path
         id="path5"
         class="shp0"
         d="M 311.3,386.6 H 256 V 100.5 h 105.1 c 0.6,2.4 0.9,4.8 0.3,7.2 z" /><path
         id="path6"
         class="shp3"
         d="M 450.2,494 H 61.8 c 8.1,-39.6 41.7,-68.7 81.3,-71.7 25.2,-37.5 68.2,-60.3 112.9,-60.3 45,0 88,23.1 112.9,60.6 40.5,3.6 73.5,32.4 81.3,71.4 z" /><path
         id="path7"
         class="shp4"
         d="M 450.2,494 H 256 V 362 c 45,0 88,23.1 112.9,60.6 40.5,3.6 73.5,32.4 81.3,71.4 z" /><path
         id="path8"
         class="shp5"
         d="m 361.1,100.5 -94.6,105 c -2.7,3 -6.6,5.5 -10.5,5.5 -3.9,0 -7.8,-2.5 -10.5,-5.5 l -94.6,-105 c 0.6,-2.1 1.8,-4.2 3.6,-6 l 91,-90 c 2.7,-3 6.6,-4.5 10.5,-4.5 3.9,0 7.8,1.5 10.5,4.5 l 91,90 c 1.8,1.8 3,3.9 3.6,6 z" /><path
         id="path9"
         class="shp1"
         d="m 266.5,205.5 c -2.7,3 -6.6,5.5 -10.5,5.5 V 0 c 3.9,0 7.8,1.5 10.5,4.5 l 91,90 c 1.8,1.8 3,3.9 3.6,6 z" /><path
         id="path10"
         class="shp6"
         d="m 482,497 c 0,8.4 -6.6,15 -15,15 H 45 c -8.4,0 -15,-6.6 -15,-15 0,-8.4 6.6,-15 15,-15 h 422 c 8.4,0 15,6.6 15,15 z" /><path
         id="path11"
         class="shp3"
         d="m 482,497 c 0,8.4 -6.6,15 -15,15 H 256 v -30 h 211 c 8.4,0 15,6.6 15,15 z" /></g></g><style
     id="style1">
		tspan { white-space:pre }
		.shp0 { fill: #838383 } 
		.shp1 { fill: #979797 } 
		.shp2 { fill: #757575 } 
		.shp3 { fill: #b4b4b4 } 
		.shp4 { fill: #969696 } 
		.shp5 { fill: #a1a1a1 } 
		.shp6 { fill: #c6c6c6 } 
	</style></svg>
