<svg id="Capa_1" enable-background="new 0 0 512 512" height="512" viewBox="0 0 512 512" width="512" xmlns="http://www.w3.org/2000/svg"><g><g><g><g><path d="m58.13 490.269 170.923-170.923c5.032-5.032 5.032-13.189 0-18.221l-18.178-18.178c-5.032-5.032-13.189-5.032-18.221 0l-170.923 170.923z" fill="#fcc16d"/><g fill="#fca62f"><path d="m203.735 344.664 25.318-25.318c5.032-5.032 5.032-13.189 0-18.221l-18.178-18.178c-5.032-5.032-13.189-5.032-18.221 0l-25.392 25.392c12.195 12.07 24.319 24.213 36.473 36.325z"/><path d="m229.054 319.344-170.925 170.926-17.988-17.988 170.925-170.925c4.585-4.585 4.987-11.773 1.216-16.81.493.361.97.772 1.421 1.224l15.35 15.35c5.037 5.037 5.029 13.195.001 18.223z"/></g></g><g><path d="m33.432 505.962-27.394-27.395c-8.051-8.051-8.051-21.103 0-29.154l5.77-5.77c5.032-5.032 13.189-5.032 18.221 0l38.327 38.327c5.032 5.032 5.032 13.19 0 18.221l-5.77 5.77c-8.05 8.051-21.103 8.051-29.154.001z" fill="#b9acac"/><path d="m68.357 500.186-5.776 5.776c-8.052 8.052-21.099 8.052-29.15 0l-20.812-20.812c8.052 8.052 21.099 8.052 29.15 0l5.776-5.776c5.028-5.028 5.028-13.179-.008-18.215l20.811 20.811c5.037 5.037 5.037 13.187.009 18.216z" fill="#9e9797"/></g><g><path d="m216.195 323.199-27.394-27.394c-8.051-8.051-8.051-21.103 0-29.154l14.881-14.881 56.548 56.548-14.881 14.881c-8.05 8.05-21.103 8.05-29.154 0z" fill="#9e9797"/><path d="m260.223 308.319-14.879 14.879c-8.05 8.05-21.101 8.05-29.15 0l-20.811-20.811c8.052 8.052 21.099 8.052 29.15 0l5.776-5.776c5.028-5.028 5.028-13.179-.008-18.215z" fill="#756f6f"/></g><g><path d="m430.313 109.081-27.395-27.394c-8.051-8.051-21.103-8.051-29.154 0l-14.881 14.881 56.548 56.548 14.881-14.881c8.051-8.051 8.051-21.103.001-29.154z" fill="#b9acac"/><path d="m415.433 153.109 14.879-14.879c8.05-8.05 8.05-21.101 0-29.15l-20.811-20.811c8.052 8.052 8.052 21.099 0 29.15l-5.776 5.776c-5.028 5.028-13.179 5.028-18.215-.008z" fill="#9e9797"/></g><g><g><path d="m113.464 434.942-13.392 13.393-62.213-10.601 13.403-13.402z" fill="#f2982c"/></g><g><path d="m146.183 402.214-13.393 13.392-62.202-10.601 13.392-13.382z" fill="#f2982c"/></g><g><path d="m178.912 369.485-13.393 13.402-62.202-10.6 13.392-13.393z" fill="#f2982c"/></g><g><path d="m211.63 336.766-13.392 13.403-62.203-10.611 13.403-13.392z" fill="#f2982c"/></g></g></g><g><path d="m277.15 6.943 14.896 14.896-163.16 163.171-14.896-14.897c-1.875-1.865-3.049-4.317-3.338-6.943l-3.544-32.008c-.381-3.513.845-7.005 3.338-9.498l118.254-118.265c2.503-2.493 5.996-3.719 9.498-3.327l32.018 3.544c2.628.288 5.069 1.462 6.934 3.327z" fill="#f3eae6"/><path d="m508.388 241.785c-.29-2.624-1.466-5.072-3.333-6.939l-8.192-8.192c-12.416 12.321-121.421 120.874-163.453 162.884l8.477 8.477c1.867 1.867 4.314 3.042 6.938 3.333l32.017 3.542c3.506.388 6.999-.838 9.494-3.333l118.262-118.262c2.494-2.494 3.721-5.987 3.333-9.493z" fill="#e0d3ce"/><path d="m194.142 41.329h230.755v322.302h-230.755z" fill="#e0d3ce" transform="matrix(.707 -.707 .707 .707 -52.519 278.169)"/><path d="m294.964 284.734h230.755v37.136h-230.755z" fill="#cdbfbb" transform="matrix(.707 -.707 .707 .707 -94.28 378.99)"/></g><circle cx="309.52" cy="202.48" fill="#9e9797" r="86.834"/><path d="m370.915 263.881c-33.908 33.908-88.889 33.908-122.797 0-4.092-4.092-7.69-8.495-10.788-13.137 33.743 22.619 79.843 19.012 109.651-10.796 29.816-29.816 33.423-75.916 10.804-109.659 4.642 3.097 9.046 6.696 13.137 10.788 33.909 33.907 33.909 88.888-.007 122.804z" fill="#756f6f"/><circle cx="309.52" cy="202.48" fill="#fcc16d" r="52.616"/><g><g><g id="XMLID_248_"><path d="m458.057 244.065c-1.985 0-3.969-.76-5.479-2.279l-.085-.086c-3.009-3.026-2.994-7.918.032-10.927 3.026-3.008 7.919-2.994 10.927.032l.085.086c3.009 3.026 2.994 7.918-.032 10.927-1.508 1.499-3.479 2.247-5.448 2.247z" fill="#9e9797"/></g><g id="XMLID_250_"><path d="m339.919 362.203c-1.993 0-3.985-.766-5.496-2.295l-.085-.086c-2.999-3.035-2.971-7.927.064-10.927 3.036-2.999 7.928-2.97 10.927.064l.085.086c3 3.035 2.971 7.927-.064 10.927-1.506 1.488-3.469 2.231-5.431 2.231z" fill="#9e9797"/></g></g><g><g id="XMLID_252_"><path d="m275.746 61.755c-1.985 0-3.969-.76-5.479-2.279l-.085-.086c-3.009-3.026-2.994-7.918.032-10.927 3.026-3.008 7.919-2.994 10.927.032l.085.086c3.009 3.026 2.994 7.918-.032 10.927-1.508 1.498-3.478 2.247-5.448 2.247z" fill="#9e9797"/></g><g id="XMLID_251_"><path d="m157.609 179.892c-1.985 0-3.969-.76-5.479-2.279l-.085-.086c-3.009-3.026-2.994-7.918.032-10.927 3.026-3.008 7.919-2.994 10.927.032l.085.086c3.009 3.026 2.994 7.918-.032 10.927-1.508 1.499-3.479 2.247-5.448 2.247z" fill="#9e9797"/></g></g></g></g><g><g id="XMLID_257_"><path d="m320.612 199.254c-1.865 0-3.734-.671-5.217-2.029-3.146-2.882-3.36-7.77-.478-10.917l.198-.216c2.883-3.146 7.77-3.36 10.917-.478 3.146 2.882 3.36 7.77.478 10.917l-.198.216c-1.524 1.663-3.609 2.507-5.7 2.507z" fill="#9e9797"/></g><g id="XMLID_255_"><path d="m298.225 221.445c-1.867 0-3.74-.673-5.224-2.035-3.143-2.886-3.351-7.774-.465-10.917l.198-.215c2.886-3.142 7.774-3.352 10.917-.465 3.143 2.886 3.351 7.774.465 10.917l-.198.215c-1.523 1.659-3.605 2.5-5.693 2.5z" fill="#9e9797"/></g><g id="XMLID_254_"><path d="m320.776 221.517c-1.852 0-3.71-.662-5.19-2.005l-.212-.193c-3.16-2.868-3.396-7.754-.529-10.914 2.867-3.159 7.754-3.397 10.914-.529l.212.193c3.16 2.868 3.396 7.754.529 10.914-1.525 1.681-3.621 2.534-5.724 2.534z" fill="#9e9797"/></g><g id="XMLID_253_"><path d="m298.471 199.16c-1.852 0-3.71-.662-5.19-2.005l-.212-.193c-3.16-2.868-3.396-7.754-.529-10.914s7.754-3.396 10.914-.529l.212.193c3.16 2.868 3.396 7.754.529 10.914-1.525 1.68-3.621 2.534-5.724 2.534z" fill="#9e9797"/></g></g></g></svg>