<svg id="Layer_1" enable-background="new 0 0 512 512" height="512" viewBox="0 0 512 512" width="512" xmlns="http://www.w3.org/2000/svg"><g><g fill="#ffeed1"><path d="m255.67 318.738h-139.85v-315.763h11.595c70.833 0 128.255 57.422 128.255 128.255z"/><path d="m256.33 318.738h139.85v-315.763h-11.595c-70.833 0-128.255 57.422-128.255 128.255z"/></g><g fill="#edd8b6"><path d="m262.142 348.106h-206.846v-308.118h59.139c81.576 0 147.707 66.131 147.707 147.707z"/><path d="m249.858 348.106h206.846v-308.118h-59.139c-81.576 0-147.707 66.131-147.707 147.707z"/></g><g fill="#e8c692"><path d="m294.506 379.945h-256.704v-319.886h26.43c127.177 0 230.275 103.097 230.275 230.275v89.611z"/><path d="m238.297 379.945h235.901v-319.886h-30.836c-113.254 0-205.065 91.811-205.065 205.065z"/></g><path d="m256 150.625-228.502-83.265c-7.713 5.398-10.49 7.342-18.203 12.74v260.553h493.408v-260.553c-7.712-5.398-10.49-7.342-18.203-12.74z" fill="#01282b"/><path d="m484.502 67.36-51.133 18.633c0 14.594-9.125 27.632-22.837 32.628v222.032h92.173v-260.553c-7.713-5.398-10.491-7.342-18.203-12.74z" fill="#014a4f"/><path d="m87.855 122.735v217.918h147.613v-197.51l-116.249-42.361c-15.24-5.553-31.364 5.732-31.364 21.953z" fill="#014a4f"/><path d="m240.06 501.524-221.102-82.433c-7.729-2.882-12.91-10.7-12.91-19.481v-300.93c0-10.099 9.281-17.183 18.17-13.869l215.842 80.472z" fill="#02383c"/><g><path d="m271.94 501.524 221.102-82.433c7.729-2.882 12.91-10.7 12.91-19.481v-300.93c0-10.099-9.281-17.183-18.17-13.869l-215.842 80.472z" fill="#02383c"/></g><path d="m285.529 161.484c0-6.824-3.642-13.098-9.729-18.074l-19.8 7.215-39.192-14.281c-13.303 5.104-22.218 14.451-22.218 25.14v318.286c0 1.727.246 3.415.692 5.059l44.778 16.694v-160.87h45.469z" fill="#13070c" opacity=".25"/><path d="m256 132.229c-25.112 0-45.469 13.098-45.469 29.255v318.286c0 16.157 20.357 29.255 45.469 29.255s45.469-13.098 45.469-29.255v-318.286c0-16.157-20.357-29.255-45.469-29.255z" fill="#01282b"/><path d="m293.244 478.586c-25.112 0-45.469-13.098-45.469-29.255v-316.615c-21.183 2.492-37.244 14.419-37.244 28.769v318.285c0 16.157 20.357 29.255 45.469 29.255s45.469-13.098 45.469-29.255v-1.671c-2.669.314-5.415.487-8.225.487z" fill="#011f21"/><path d="m60.849 91.911-43.622-16.212c-1.638-.611-3.318-.439-4.71.27v-.005l-9.03 3.575v8.976h5.809v52.297c0 2.394 1.485 4.536 3.728 5.372 2.653.989 6.403 2.388 10.177 3.795v3.175h9.369c.016.001.032-.001.048 0h.503v-.007c2.482-.138 4.544-1.915 5.036-4.681 2.169-12.184 8.885-14.183 19.54-12.408 3.826.638 6.975-2.087 6.975-5.966 0-8.208 0-25.504 0-32.682.001-2.454-1.524-4.642-3.823-5.499z" fill="#bf4105"/><path d="m56.946 124.173v-22.398c0-2.394-1.487-4.536-3.731-5.373l-45.477-16.96c-3.747-1.397-7.738 1.374-7.738 5.373v55.996c0 2.394 1.487 4.536 3.731 5.373l17.51 6.53c3.557 1.326 6.964-.658 7.647-4.392 2.254-12.326 10.817-19.578 21.749-18.451 3.375.348 6.309-2.305 6.309-5.698z" fill="#ff981a"/><g><ellipse cx="21.852" cy="113.942" fill="#bf4105" rx="9.65" ry="11.644"/></g><path d="m19.564 110.086c0-2.993.944-5.713 2.482-7.776-.065-.002-.129-.012-.194-.012-5.33 0-9.651 5.213-9.651 11.644s4.321 11.644 9.651 11.644c2.849 0 5.402-1.499 7.169-3.869-5.24-.125-9.457-5.279-9.457-11.631z" fill="#963304"/><g fill="#ffc278"><path d="m29.052 87.391-6.651-2.48c-3.365-1.255-6.949 1.234-6.949 4.825 0 2.15 1.336 4.074 3.35 4.825l6.651 2.48c3.365 1.255 6.949-1.234 6.949-4.825 0-2.15-1.336-4.074-3.35-4.825z"/><path d="m53.216 96.402-10.067-3.754c-3.365-1.255-6.949 1.234-6.949 4.825 0 2.15 1.336 4.074 3.35 4.825l7.097 2.647v6.006c0 2.844 2.306 5.15 5.15 5.15 2.844 0 5.15-2.306 5.15-5.15v-9.177c-.001-2.394-1.488-4.536-3.731-5.372z"/></g><g><g><g><path d="m359.164 336.553c-1.134 0-2.241-.474-3.026-1.348-1.102-1.225-1.356-2.993-.644-4.479l48.398-100.999c.618-1.292 1.872-2.164 3.3-2.294 1.435-.133 2.818.503 3.66 1.661l48.398 66.655c.754 1.038.973 2.37.593 3.595-.38 1.226-1.316 2.2-2.525 2.629l-96.795 34.345c-.446.158-.905.235-1.359.235zm49.115-97.154-41.19 85.957 82.379-29.23z" fill="#ff981a"/></g><g><path d="m407.56 347.323c-1.295 0-2.523-.618-3.292-1.678l-48.398-66.655c-.753-1.038-.973-2.37-.593-3.595.38-1.226 1.316-2.2 2.525-2.629l96.795-34.346c1.555-.553 3.284-.111 4.384 1.114 1.102 1.224 1.356 2.993.644 4.478l-48.398 101.001c-.618 1.292-1.872 2.162-3.3 2.292-.122.013-.245.018-.367.018zm-41.908-68.709 41.189 56.727 41.19-85.958z" fill="#ff981a"/></g><g fill="#ffc278"><path d="m427.146 262.528c3.323 0 5.245-3.769 3.292-6.458l-19.586-26.975c-.842-1.159-2.225-1.794-3.66-1.661-1.428.13-2.682 1.001-3.3 2.294l-13.647 28.478c-1.294 2.7.674 5.826 3.668 5.826 1.565 0 2.992-.898 3.668-2.31l10.697-22.323 15.575 21.451c.767 1.054 1.991 1.678 3.293 1.678z"/><path d="m459.182 295.656-19.005-26.174c-.765-1.054-1.989-1.678-3.292-1.678-3.323 0-5.245 3.769-3.292 6.458l15.874 21.863-44.568 15.814c-1.623.576-2.708 2.112-2.708 3.834 0 2.81 2.781 4.773 5.428 3.834l49.698-17.634c1.687-.598 2.842-2.256 2.698-4.182-.057-.773-.377-1.507-.833-2.135z"/></g><g fill="#ed5107"><path d="m382.049 301.197-7.27-10.013c-.765-1.054-1.989-1.678-3.292-1.678-3.323 0-5.245 3.769-3.292 6.458l7.27 10.013c.765 1.054 1.989 1.678 3.292 1.678 3.324.001 5.245-3.768 3.292-6.458z"/><path d="m410.08 328.583-3.239 6.759-14.45-19.902c-.765-1.054-1.989-1.678-3.292-1.678-3.323 0-5.244 3.769-3.292 6.458l18.461 25.425c.769 1.059 1.997 1.678 3.292 1.678.122 0 .245-.005.368-.017 1.427-.13 2.682-1 3.3-2.292l6.189-12.915c1.294-2.7-.674-5.826-3.669-5.826-1.565 0-2.992.898-3.668 2.31z"/></g></g><g><path d="m388.519 351.966c-9.317 0-17.882-2.492-24.841-7.406-11.123-7.857-17.249-20.976-17.249-36.942 0-33.049 26.813-69.45 59.771-81.144 16.912-6.003 33.405-4.653 45.241 3.707 11.123 7.856 17.249 20.976 17.249 36.942 0 33.049-26.813 69.45-59.77 81.144-6.971 2.474-13.871 3.699-20.401 3.699zm38.192-121.12c-5.592 0-11.584 1.094-17.791 3.295-29.971 10.635-54.355 43.597-54.355 73.477 0 13.249 4.904 24.008 13.808 30.296 9.787 6.914 23.222 7.867 37.828 2.687 29.971-10.635 54.354-43.597 54.354-73.477 0-13.249-4.904-24.008-13.806-30.296-5.631-3.977-12.468-5.982-20.038-5.982z" fill="#ff981a"/></g><g fill="#ffc278"><path d="m435.32 223.562c-8.922-1.597-19.109-.601-28.883 2.833-1.623.57-2.714 2.102-2.714 3.822v.071c0 2.77 2.727 4.724 5.343 3.814 5.854-2.034 12.108-3.257 17.644-3.257 2.499 0 4.913.226 7.232.669 2.475.472 4.759-1.445 4.759-3.965.001-1.977-1.435-3.638-3.381-3.987z"/><path d="m449.468 237.155v.137c0 1.041.389 2.055 1.126 2.791 6.453 6.443 9.96 15.849 9.96 27.04 0 7.403-1.5 14.995-4.21 22.39-.968 2.642.955 5.444 3.769 5.444 1.7 0 3.207-1.072 3.798-2.667 3.074-8.303 4.779-16.841 4.779-25.168 0-13.442-4.289-24.871-12.372-32.857-2.537-2.506-6.85-.677-6.85 2.89z"/></g><path d="m382.833 346.805c0-1.88-1.328-3.461-3.159-3.885-4.132-.959-7.934-2.627-11.302-5.006-8.904-6.287-13.808-17.047-13.808-30.296 0-9.64 2.547-19.598 6.995-29.025 1.246-2.642-.652-5.681-3.573-5.681h-.117c-1.548 0-2.943.906-3.606 2.306-4.98 10.51-7.835 21.632-7.835 32.401 0 15.966 6.126 29.085 17.249 36.942 4.25 3.001 9.101 5.095 14.355 6.272 2.464.552 4.8-1.362 4.8-3.888v-.14z" fill="#ed5107"/></g><g><path d="m321.63 456.819c-.685 0-1.363-.208-1.94-.609-.908-.634-1.45-1.672-1.45-2.781v-275.958c0-1.421.886-2.691 2.219-3.181l166.716-61.37c1.038-.383 2.201-.234 3.111.401.908.634 1.45 1.672 1.45 2.78v275.959c0 1.421-.886 2.691-2.219 3.181l-166.717 61.369c-.38.14-.776.209-1.17.209zm3.39-276.984v268.734l159.936-58.875v-268.733zm163.326 212.224h.013z" fill="#04757d"/></g><path d="m508.513 79.539-9.03-3.576v.005c-1.392-.709-3.072-.88-4.71-.27l-43.622 16.212c-2.299.857-3.824 3.045-3.824 5.499v32.682c0 3.879 3.148 6.604 6.975 5.966 10.655-1.776 17.372.223 19.54 12.408.492 2.767 2.555 4.544 5.036 4.681v.007h.5c.017-.001.034.001.052 0h9.369v-3.175c3.773-1.407 7.523-2.806 10.177-3.795 2.243-.836 3.729-2.978 3.729-5.372v-52.296h5.809v-8.976z" fill="#bf4105"/><path d="m455.054 124.173v-22.398c0-2.394 1.487-4.536 3.731-5.373l45.478-16.959c3.747-1.397 7.738 1.374 7.738 5.373v55.996c0 2.394-1.487 4.536-3.731 5.373l-17.51 6.53c-3.557 1.326-6.964-.658-7.647-4.392-2.254-12.326-10.817-19.578-21.749-18.451-3.376.347-6.31-2.306-6.31-5.699z" fill="#ff981a"/><g><ellipse cx="490.148" cy="113.942" fill="#bf4105" rx="11.644" ry="9.65" transform="matrix(.048 -.999 .999 .048 352.712 598.029)"/></g><path d="m490.709 102.312c-.06-.003-.118.004-.177.002 1.766 2.211 2.795 5.271 2.634 8.611-.307 6.352-4.777 11.302-10.024 11.163 1.631 2.042 3.889 3.362 6.444 3.485 5.324.257 9.891-4.742 10.201-11.166.31-6.423-3.754-11.839-9.078-12.095z" fill="#963304"/><g fill="#ffc278"><path d="m479.212 88.784-5.654 2.108c-2.015.751-3.35 2.675-3.35 4.825 0 3.592 3.584 6.08 6.949 4.825l5.654-2.108c2.015-.751 3.35-2.675 3.35-4.825 0-3.591-3.584-6.08-6.949-4.825z"/><path d="m504.262 79.442-11.507 4.291c-2.015.751-3.35 2.675-3.35 4.825 0 3.592 3.584 6.08 6.949 4.825l5.347-1.994v8.372c0 2.844 2.306 5.15 5.15 5.15 2.844 0 5.15-2.306 5.15-5.15v-14.946c-.001-3.999-3.992-6.77-7.739-5.373z"/></g><path d="m508.94 363.615-6.34-3.64c-.243-.165-.499-.308-.763-.438l-.07-.04v.008c-1.489-.714-3.263-.869-4.991-.214l-18.286 5.963c-2.678.873-4.56 3.32-4.642 6.136-.484 16.606-4.913 31.681-26.235 39.995-1.425.556-2.362 1.931-2.362 3.461v25.713c0 1.534.905 2.783 2.147 3.368v.006l6.232 3.608v-4.683l46.101-16.452c3.411-1.293 5.668-4.562 5.668-8.21v-47.629h3.542v-6.952z" fill="#bf4105"/><path d="m451.852 418.657v25.713c0 2.583 2.559 4.376 4.991 3.508l49.489-17.661c3.411-1.293 5.668-4.562 5.668-8.21v-52.954c0-4.454-4.457-7.531-8.622-5.952l-18.286 5.963c-2.678.873-4.56 3.32-4.642 6.136-.484 16.606-4.913 31.681-26.235 39.995-1.426.556-2.363 1.932-2.363 3.462z" fill="#ff981a"/><path d="m490.35 377.867 11.65-3.8v6.716c0 2.749 2.229 4.978 4.978 4.978h.044c2.749 0 4.978-2.229 4.978-4.978v-11.732c0-4.454-4.457-7.531-8.622-5.952l-18.286 5.963c-2.703.882-4.56 3.366-4.645 6.208-.311 10.411-2.186 20.216-8.809 28.127-.74.884-1.138 2.006-1.138 3.16 0 4.693 5.855 6.742 8.853 3.131 8.349-10.056 10.486-21.955 10.997-31.821z" fill="#ffc278"/><g><ellipse cx="490.148" cy="407.64" fill="#bf4105" rx="9.65" ry="11.644"/></g><path d="m492.319 396.302c.697 1.61 1.097 3.438 1.097 5.38 0 6.431-4.321 11.644-9.651 11.644-.748 0-1.472-.113-2.171-.307 1.611 3.721 4.834 6.264 8.554 6.264 5.33 0 9.651-5.213 9.651-11.644 0-5.528-3.197-10.147-7.48-11.337z" fill="#963304"/><g><ellipse cx="111.513" cy="286.853" fill="#ff981a" rx="22.776" ry="31.98" transform="matrix(.764 -.645 .645 .764 -158.713 139.551)"/></g><path d="m111.513 206.095c-9.988-3.406-18.702-11.808-23.369-21.464-2.298 3.187-3.619 7.342-3.619 12.26 0 14.905 12.083 31.109 26.988 36.192s26.988-2.879 26.988-17.784c0-4.917-1.322-9.974-3.619-14.728-4.667 6.473-13.381 8.93-23.369 5.524z" fill="#ff981a"/><path d="m111.513 367.61c-9.988-3.406-18.702-.948-23.369 5.524-2.298-4.754-3.619-9.811-3.619-14.728 0-14.905 12.083-22.867 26.988-17.784s26.988 21.287 26.988 36.192c0 4.917-1.322 9.073-3.619 12.26-4.667-9.656-13.381-18.058-23.369-21.464z" fill="#ff981a"/><path d="m321.63 400.06c-1.872 0-3.39 1.518-3.39 3.39v49.884c0 .728.185 1.461.612 2.05.679.938 1.721 1.434 2.779 1.434.395 0 .791-.069 1.171-.209l76.403-28.125c1.333-.491 2.219-1.761 2.219-3.181 0-2.358-2.348-3.996-4.561-3.181l-71.842 26.446v-45.118c-.001-1.872-1.519-3.39-3.391-3.39z" fill="#05a4b0"/><g fill="#05a4b0"><path d="m358.173 162.771c0 2.358 2.348 3.996 4.561 3.181l36.469-13.425c1.333-.491 2.219-1.761 2.219-3.181 0-2.358-2.348-3.996-4.561-3.181l-36.469 13.425c-1.333.49-2.219 1.76-2.219 3.181z"/><path d="m341.867 166.409-21.409 7.881c-1.333.491-2.219 1.761-2.219 3.181v103.903c0 1.872 1.518 3.39 3.39 3.39 1.872 0 3.39-1.518 3.39-3.39v-101.539l19.19-7.064c1.333-.491 2.219-1.761 2.219-3.181.001-2.358-2.347-3.996-4.561-3.181z"/></g><path d="m116.915 209.885c0-1.414-.99-2.61-2.368-2.925-.996-.227-2.008-.515-3.033-.865-3.944-1.345-7.685-3.472-11.058-6.147-1.945-1.542-4.817-.101-4.817 2.381v.01c0 .904.4 1.772 1.11 2.333 3.937 3.108 8.28 5.55 12.828 7.102 1.232.42 2.46.768 3.681 1.044 1.874.424 3.657-1.011 3.657-2.933z" fill="#ffc278"/><g><path d="m132.051 210.776c.298 1.542.451 3.059.451 4.524 0 .911-.06 1.782-.175 2.611-.252 1.811 1.135 3.426 2.964 3.426 1.514 0 2.778-1.126 2.984-2.625.15-1.091.228-2.229.228-3.412 0-4.917-1.322-9.974-3.619-14.728-2.816 3.906-7.11 6.341-12.265 6.914-1.507.168-2.638 1.458-2.638 2.975 0 1.79 1.559 3.197 3.338 2.992 3.138-.362 6.09-1.274 8.732-2.677z" fill="#ffc278"/><path d="m120.66 231.449c0-1.526-1.147-2.79-2.663-2.973-1.471-.177-2.973-.535-4.547-1.071-8.435-2.876-15.966-10.241-19.942-18.521-.494-1.029-1.542-1.674-2.684-1.674h-.031c-2.229 0-3.649 2.332-2.683 4.341 4.657 9.686 13.391 18.119 23.403 21.534 1.996.681 3.941 1.126 5.813 1.353 1.777.213 3.334-1.199 3.334-2.989z" fill="#bf4105"/></g><path d="m120.66 309.604c0-2.194-1.747-3.971-3.94-4.038-1.645-.05-3.392-.368-5.206-.987-6.981-2.381-13.006-8.477-15.895-15.328-.62-1.472-2.096-2.399-3.693-2.399-2.964 0-4.97 3.105-3.663 5.766 4.693 9.555 13.346 17.844 23.251 21.222 1.514.516 2.999.898 4.445 1.15 2.46.43 4.701-1.502 4.701-3.999z" fill="#bf4105"/><g fill="#ffc278"><path d="m126.417 279.209c3.274 0 5.135-3.803 3.077-6.349-3.823-4.73-8.623-8.72-13.971-11.332-2.58-1.26-5.586.678-5.586 3.549v.747c0 1.603.972 3.054 2.466 3.632 4.263 1.651 8.044 4.64 10.976 8.298.738.921 1.856 1.455 3.038 1.455z"/><path d="m132.131 283.805c-2.339 0-3.99 2.199-3.451 4.475.365 1.54.559 3.089.559 4.619v.039c-.005 1.99 1.538 3.633 3.529 3.633h1.959c2.126 0 3.818-1.846 3.564-3.957-.256-2.131-.741-4.268-1.427-6.377-.474-1.458-1.856-2.432-3.389-2.432z"/></g><path d="m124.277 369.125c0-1.027-.532-1.973-1.392-2.535-2.99-1.956-6.158-3.541-9.435-4.658-3.606-1.23-7.188-1.854-10.644-1.854-4.299 0-8.336.996-11.83 2.852-.298-1.542-.451-3.059-.451-4.523 0-.009 0-.018 0-.026.002-1.366-1.065-2.49-2.431-2.49h-1.133c-1.32 0-2.427 1.05-2.435 2.369v.147c0 4.917 1.322 9.974 3.619 14.728 4.667-6.473 13.381-8.931 23.369-5.524 2.817.961 5.53 2.322 8.079 3.996 2.012 1.32 4.684-.074 4.684-2.482z" fill="#bf4105"/><g fill="#ffc278"><path d="m114.957 343.866c0-1.142-.689-2.178-1.747-2.608-.561-.228-1.127-.441-1.697-.636-3.095-1.055-6.067-1.547-8.835-1.532-1.543.009-2.785 1.275-2.785 2.818v.4c0 1.572 1.301 2.783 2.873 2.78h.031c2.139 0 4.419.408 6.779 1.213.5.17.996.357 1.489.559 1.857.761 3.892-.583 3.892-2.59z"/><path d="m118.915 349.705v.52c0 .835.381 1.614 1.014 2.159 2.997 2.577 5.631 5.668 7.703 9.01.503.812 1.407 1.288 2.362 1.288h.477c2.212 0 3.539-2.425 2.383-4.311-2.483-4.049-5.67-7.765-9.329-10.835-1.824-1.531-4.61-.211-4.61 2.169z"/></g><g><g><path d="m280.497 339.347c-16.16 2.412-32.774 2.143-48.939-.039-1.617-.218-2.816-1.614-2.816-3.245 0-10.865 0-21.729 0-32.594 0-1.985 1.752-3.494 3.721-3.237 15.566 2.03 31.532 2.277 47.095.056 1.958-.279 3.701 1.26 3.701 3.238v32.585c-.001 1.61-1.17 2.998-2.762 3.236z" fill="#ff981a"/></g></g><g><g><path d="m280.497 269.99c-16.16 2.412-32.774 2.143-48.939-.039-1.617-.218-2.816-1.614-2.816-3.245 0-10.865 0-21.729 0-32.594 0-1.985 1.752-3.494 3.721-3.237 15.566 2.03 31.532 2.278 47.095.056 1.958-.279 3.701 1.26 3.701 3.238v32.585c-.001 1.61-1.17 2.998-2.762 3.236z" fill="#ff981a"/></g></g><path d="m279.557 230.931c-15.563 2.221-31.529 1.974-47.095-.056-1.969-.257-3.721 1.252-3.721 3.237v7.9c13.102 1.192 26.392 1.065 39.399-.791 1.958-.279 3.701 1.26 3.701 3.238v26.564c2.896-.264 5.783-.604 8.655-1.032 1.592-.238 2.762-1.626 2.762-3.236 0-10.862 0-21.724 0-32.585 0-1.979-1.743-3.519-3.701-3.239z" fill="#ed5107"/><path d="m279.557 300.288c-15.563 2.221-31.529 1.974-47.095-.056-1.969-.257-3.721 1.252-3.721 3.237v8.413c13.491 1.312 27.197 1.234 40.603-.679 1.958-.279 3.701 1.26 3.701 3.238v25.822c2.492-.246 4.977-.545 7.451-.915 1.592-.238 2.762-1.626 2.762-3.236 0-10.862 0-21.724 0-32.585 0-1.979-1.743-3.519-3.701-3.239z" fill="#ed5107"/><g><g><path d="m280.497 408.703c-16.16 2.412-32.774 2.143-48.939-.039-1.617-.218-2.816-1.614-2.816-3.245 0-10.865 0-21.729 0-32.594 0-1.985 1.752-3.494 3.721-3.237 15.566 2.03 31.532 2.277 47.095.056 1.958-.279 3.701 1.26 3.701 3.238v32.585c-.001 1.611-1.17 2.999-2.762 3.236z" fill="#ff981a"/></g></g><path d="m279.557 369.644c-15.563 2.221-31.529 1.974-47.095-.056-1.969-.257-3.721 1.252-3.721 3.237v9.1c13.102 1.192 26.392 1.065 39.399-.791 1.958-.279 3.701 1.26 3.701 3.238v25.365c2.896-.264 5.783-.604 8.655-1.032 1.592-.238 2.762-1.626 2.762-3.236 0-10.862 0-21.724 0-32.585 0-1.979-1.743-3.519-3.701-3.24z" fill="#ed5107"/><path d="m177.255 463.708c0-4.176-2.594-7.912-6.507-9.37l-144.505-53.876c-.084-.149-.195-.44-.195-.852v-125.578c0-5.523-4.477-10-10-10-5.523 0-10 4.477-10 10v125.578c0 8.781 5.181 16.6 12.91 19.481l144.803 53.987c6.535 2.436 13.494-2.396 13.494-9.37z" fill="#022e30"/><path d="m64.388 411.387c-21.322-8.315-25.751-23.39-26.235-39.995-.082-2.816-1.964-5.263-4.642-6.136l-18.286-5.963c-1.728-.655-3.502-.5-4.991.214v-.008l-.07.04c-.263.13-.519.273-.762.437l-6.341 3.64v6.953h3.542v47.629c0 3.648 2.256 6.917 5.668 8.21l46.101 16.452v4.683l6.232-3.608v-.006c1.242-.585 2.147-1.834 2.147-3.368 0-7.31 0-20.219 0-25.713-.001-1.53-.938-2.905-2.363-3.461z" fill="#bf4105"/><path d="m60.148 418.657v25.713c0 2.583-2.559 4.376-4.991 3.508l-49.489-17.662c-3.412-1.293-5.668-4.561-5.668-8.21v-52.954c0-4.454 4.457-7.531 8.622-5.952l18.286 5.963c2.678.873 4.56 3.32 4.642 6.136.484 16.606 4.913 31.681 26.235 39.995 1.426.557 2.363 1.933 2.363 3.463z" fill="#ff981a"/><g fill="#ffc278"><path d="m32.007 394.826c-3.689 0-6.142 3.907-4.444 7.182 1.971 3.802 4.579 7.492 8.034 10.898.938.924 2.2 1.452 3.517 1.452h.04c4.49 0 6.613-5.423 3.411-8.572-2.611-2.568-4.628-5.372-6.179-8.363-.841-1.619-2.555-2.597-4.379-2.597z"/><path d="m27.38 389.975c3.064 0 5.383-2.731 4.927-5.761-.439-2.914-.664-5.911-.755-8.962-.084-2.835-1.947-5.309-4.644-6.189l-8.156-2.66c-3.232-1.054-6.55 1.355-6.55 4.754 0 2.164 1.392 4.083 3.45 4.754l5.999 1.957c.13 2.51.371 5.153.79 7.863.376 2.438 2.472 4.244 4.939 4.244z"/></g><g><ellipse cx="21.852" cy="407.64" fill="#bf4105" rx="9.65" ry="11.644"/></g><path d="m29.266 413.264c-5.33 0-9.65-5.213-9.65-11.644 0-2.009.422-3.898 1.164-5.548-4.824.644-8.578 5.575-8.578 11.568 0 6.431 4.321 11.644 9.651 11.644 3.665 0 6.853-2.465 8.487-6.097-.354.048-.711.077-1.074.077z" fill="#963304"/></g></svg>