<svg id="Capa_1" enable-background="new 0 0 512 512" height="512" viewBox="0 0 512 512" width="512" xmlns="http://www.w3.org/2000/svg"><g><g><path d="m-21.717 297.284h440.45v32.416h-440.45z" fill="#ba7c65" transform="matrix(.707 -.707 .707 .707 -163.531 232.186)"/><path d="m333.115 150.307h24.738v32.416h-24.738z" fill="#a96a53" transform="matrix(.707 -.707 .707 .707 -16.554 293.066)"/><path d="m61.312 473.603-36.889 36.889c-2.01 2.01-5.27 2.01-7.28 0l-15.635-15.635c-2.01-2.01-2.01-5.27 0-7.28l36.889-36.889z" fill="#faf7f7"/><g><path d="m296.135 191.937h15.45v32.416h-15.45z" fill="#faf7f7" transform="matrix(.707 -.707 .707 .707 -58.214 275.655)"/></g><g><path d="m315.353 172.719h15.451v32.416h-15.451z" fill="#faf7f7" transform="matrix(.707 -.707 .707 .707 -38.92 283.957)"/></g><g><path d="m511.875 6.255c-2.462 11.167-7.139 31.163-10.59 38.333-10.168 21.211-35.284 51.736-42.341 60.122-1.154 1.37-2.936 2.05-4.708 1.782l-19.862-2.998c-1.617-.237-3.255.299-4.409 1.453l-16.184 16.184 25.178 25.178c2.009 2.009 2.009 5.264 0 7.273l-1.38 1.391-80.55-80.55 1.391-1.38c2.009-2.009 5.264-2.009 7.273 0l25.178 25.178 16.184-16.184c1.154-1.154 1.69-2.792 1.453-4.409l-2.998-19.862c-.268-1.772.412-3.554 1.782-4.708 8.386-7.057 38.91-32.173 60.122-42.341 7.17-3.451 27.166-8.128 38.333-10.59 3.665-.815 6.941 2.461 6.128 6.128z" fill="#cdbfbb"/><path d="m511.873 6.257c-2.462 11.167-7.139 31.163-10.59 38.333-10.168 21.217-35.286 51.732-42.344 60.121-1.155 1.372-2.937 2.045-4.71 1.777l-19.849-2.995c-1.618-.244-3.255.295-4.412 1.452l-16.179 16.188h-.01l-15.782-15.793 16.18-16.18c1.156-1.156 2.792-1.695 4.409-1.451l19.852 2.987c1.773.267 3.554-.406 4.708-1.777 7.057-8.387 32.178-38.904 42.355-60.122 2.349-4.904 5.285-15.803 7.685-25.775 4.615-1.113 9.024-2.112 12.558-2.895 3.667-.814 6.943 2.462 6.129 6.13z" fill="#b9acac"/><path d="m438.96 153.587-8.924 8.924c-3.843 3.843-10.103 3.901-13.939.051-12.046-12.105-31.626-12.119-43.694-.051l-10.86 10.86-22.913-22.913 10.86-10.86c12.068-12.068 12.054-31.648-.051-43.694-3.85-3.836-3.792-10.096.051-13.939l8.924-8.924c2.009-2.009 5.27-2.009 7.279 0l73.268 73.268c2.008 2.008 2.008 5.269-.001 7.278z" fill="#faf7f7"/><path d="m438.957 153.583-8.921 8.932c-3.843 3.843-10.106 3.894-13.938.052-12.043-12.105-31.626-12.125-43.69-.052l-10.868 10.858-17.256-17.256 10.858-10.868c12.074-12.063 31.657-12.053 43.7.052 3.832 3.853 10.096 3.791 13.938-.052l8.921-8.921c2.009-2.009 2.009-5.264 0-7.273l17.256 17.256c2.009 2.007 2.009 5.263 0 7.272z" fill="#efe2dd"/><path d="m475.097 47.823-38.364 38.374 3.111 18.121-5.47-.824c-1.617-.237-3.255.299-4.409 1.453l-4.852 4.852-3.358-19.553-19.553-3.358 4.852-4.852c1.154-1.154 1.69-2.792 1.453-4.409l-.824-5.47 18.121 3.111 38.374-38.364c3.018-3.018 7.901-3.018 10.92 0 3.017 3.017 3.017 7.9-.001 10.919z" fill="#afa1a1"/></g><g><path d="m63.186 424.877h15.458v32.416h-15.458z" fill="#faf7f7" transform="matrix(.707 -.707 .707 .707 -291.124 179.335)"/></g></g><g id="XMLID_83_"><path d="m382.564 137.216h-.107c-4.268 0-7.726-3.459-7.726-7.726s3.459-7.726 7.726-7.726h.107c4.268 0 7.726 3.459 7.726 7.726.001 4.267-3.458 7.726-7.726 7.726z" fill="#cdbfbb"/></g></g></svg>