<svg id="Flat" height="512" viewBox="0 0 128 128" width="512" xmlns="http://www.w3.org/2000/svg"><path d="m117.589 117.582a4.826 4.826 0 0 1 -6.828 0l-64.4-64.4 6.821-6.821 64.405 64.4a4.828 4.828 0 0 1 .002 6.821z" fill="#d49960"/><path d="m39.381 31.116-8.267 8.268-4.735-4.744a.874.874 0 0 1 0-1.24l7.028-7.028a.891.891 0 0 1 1.24 0z" fill="#d49960"/><g opacity=".08"><path d="m118.834 115.417a4.756 4.756 0 0 1 -1.246 2.164 4.827 4.827 0 0 1 -6.828.007l-64.4-64.4 3.417-3.418 64.4 64.4a4.789 4.789 0 0 0 4.657 1.247z"/><path d="m29.8 29.985a.879.879 0 0 0 -.007 1.245l4.74 4.74-3.417 3.417-4.733-4.746a.872.872 0 0 1 0-1.239z"/></g><path d="m57.226 42.317-4.045 4.045-6.821 6.821-4.046 4.046a1.586 1.586 0 0 1 -2.244 0l-.6-.6-10.679-10.69-.01.01-.994-.994a1.586 1.586 0 0 1 0-2.244l3.327-3.327 8.267-8.268 3.319-3.316a1.6 1.6 0 0 1 2.254 0l.994.994 11.28 11.28a1.586 1.586 0 0 1 -.002 2.243z" fill="#a7adaf"/><path d="m39.47 56.628-10.689-10.679.01-.01z" fill="none"/><path d="m96.755 9.1c-13.121 4.211-34.263 21.12-40.129 30.372l-10.68-10.679c11.9-11.909 30.454-20.827 50.809-19.693z" fill="#c3cfd7"/><g opacity=".08"><path d="m96.757 9.1a46.971 46.971 0 0 0 -7.057 3.033c-15.688 1.867-30.707 10.453-40.43 19.981l-3.32-3.32c11.895-11.908 30.45-20.83 50.807-19.694z"/></g><path d="m39.47 56.628c-9.242 5.857-26.162 27-30.375 40.119-1.122-20.335 7.786-38.888 19.686-50.8z" fill="#c3cfd7"/><g opacity=".08"><path d="m9.105 96.75a46.927 46.927 0 0 1 3.035-7.057c1.865-15.688 10.453-30.707 19.981-40.43l-3.321-3.32c-11.907 11.894-20.829 30.449-19.695 50.807z"/></g></svg>