<svg id="color" enable-background="new 0 0 256 256" height="512" viewBox="0 0 256 256" width="512" xmlns="http://www.w3.org/2000/svg" xmlns:xlink="http://www.w3.org/1999/xlink"><clipPath id="SVGID_2_"><path id="SVGID_1_" d="m138.2986 27.1298-24.1673 41.405c-3.9728 6.7895-1.7804 15.5098 4.9311 19.613h.0001c6.8972 4.2167 15.9123 1.95 19.9951-5.0272l24.1682-41.4063c3.1499-5.383 1.3386-12.3004-4.0451-15.4488l-5.4371-3.1797c-5.3819-3.1476-12.2962-1.3371-15.445 4.044z"/></clipPath><clipPath id="SVGID_4_"><path id="SVGID_3_" d="m166.2474 37.256-23.68 38.5995c-3.9729 6.7895-.6313 15.481 6.0803 19.5841 6.8972 4.2167 15.9123 1.9501 19.9951-5.0272l22.5317-38.5719c3.1499-5.383 1.3387-12.3004-4.0451-15.4489l-5.4371-3.1797c-5.3818-3.1475-12.2962-1.337-15.4449 4.0441z"/></clipPath><clipPath id="SVGID_6_"><path id="SVGID_5_" d="m198.5163 124.9164c6.8896 4.0315 15.7432 1.7082 19.7656-5.1867l16.9393-29.0161c3.1498-5.383 1.3387-12.3004-4.0452-15.4488l-5.4371-3.1797c-5.3819-3.1474-12.2962-1.3369-15.4449 4.0442l-16.9578 29.0478c-4.0147 6.8819-1.6967 15.7153 5.1801 19.7393z"/></clipPath><clipPath id="SVGID_8_"><path id="SVGID_7_" d="m191.0934 51.8035-21.4018 36.615c-3.9729 6.7895-1.7804 15.5098 4.9311 19.613h.0001c6.8973 4.2167 15.9123 1.95 19.9951-5.0272l21.4027-36.6163c3.1498-5.383 1.3386-12.3004-4.0451-15.4488l-5.4371-3.1798c-5.3819-3.1475-12.2962-1.337-15.445 4.0441z"/></clipPath><clipPath id="SVGID_10_"><path id="SVGID_9_" d="m140.9528 144.4337 7.7697-13.2191c9.4522-16.1437 4.0276-36.8932-12.116-46.3454l-5.1603-3.0214c-2.6906-1.5753-3.5947-5.0336-2.0194-7.7242l1.2653-2.1407c1.5761-2.6919 5.0365-3.5953 7.7274-2.0175l7.8744 4.7493c7.8341 4.5936 17.9088 1.9631 22.4974-5.8739l.0001-.0001c4.5865-7.8334 1.9544-17.9019-5.8791-22.4885l-16.8306-9.974c-13.4666-7.8847-30.7759-3.3465-38.6414 10.1314l-13.7676 23.6113c-2.7801 4.7481-4.1118 10.2052-3.8315 15.7002l1.8769 36.7961c.2908 5.7019 3.4349 10.8734 8.3629 13.7561l9.7811 5.7213"/></clipPath><clipPath id="SVGID_12_"><path id="SVGID_11_" d="m36.9585 236.8931 63.4207-109.8481 65.2658 37.6814-41.6654 72.1667z"/></clipPath><g><g><g><g><path d="m142.287 161.0115 9.8291 5.7628c13.4523 7.8691 30.7366 3.3467 38.6112-10.1025l25.0779-42.8312-109.044-66.0738-13.0885 22.3541c-2.7801 4.7481-4.1118 10.2052-3.8315 15.7002l1.8769 36.7961c.2908 5.7019 3.4349 10.8734 8.3629 13.7561l9.7811 5.7213" fill="#fedfae"/></g></g></g><g><g><g><g><path d="m166.2474 37.256-23.68 38.5995c-3.9729 6.7895-.6313 15.481 6.0803 19.5841 6.8972 4.2167 15.9123 1.9501 19.9951-5.0272l22.5317-38.5719c3.1499-5.383 1.3387-12.3004-4.0451-15.4489l-5.4371-3.1797c-5.3818-3.1475-12.2962-1.337-15.4449 4.0441z" fill="#fedfae"/></g></g></g></g><g><g><g><path d="m191.0934 51.8035-21.4018 36.615c-3.9729 6.7895-1.7804 15.5098 4.9311 19.613h.0001c6.8973 4.2167 15.9123 1.95 19.9951-5.0272l21.4027-36.6163c3.1498-5.383 1.3386-12.3004-4.0451-15.4488l-5.4371-3.1798c-5.3819-3.1475-12.2962-1.337-15.445 4.0441z" fill="#fedfae"/></g></g></g><g><g><g><g><path d="m198.5163 124.9164c6.8896 4.0315 15.7432 1.7082 19.7656-5.1867l16.9393-29.0161c3.1498-5.383 1.3387-12.3004-4.0452-15.4488l-5.4371-3.1797c-5.3819-3.1474-12.2962-1.3369-15.4449 4.0442l-16.9578 29.0478c-4.0147 6.8819-1.6967 15.7153 5.1801 19.7393z" fill="#fedfae"/></g></g></g></g><g><g clip-path="url(#SVGID_2_)"><g><g><g><path d="m138.2986 27.1298-24.1673 41.405c-3.9728 6.7895-1.7804 15.5098 4.9311 19.613h.0001c6.8972 4.2167 15.9123 1.95 19.9951-5.0272l24.1682-41.4063c3.1499-5.383 1.3386-12.3004-4.0451-15.4488l-5.4371-3.1797c-5.3819-3.1476-12.2962-1.3371-15.445 4.044z" fill="#fedfae"/></g></g></g></g><g clip-path="url(#SVGID_2_)"><g><g><g><path d="m131.4425 92.3483c-3.6314 0-7.3487-1.0194-10.5145-2.9547-7.7435-4.7335-10.1094-15.3066-5.2749-23.5689l24.1656-41.402c.0005-.0011.0011-.0016.0016-.0027 3.9719-6.789 12.2112-9.1072 18.7596-5.2782l5.4372 3.1797c3.1909 1.8664 5.6482 5.1042 6.7412 8.8827 1.1183 3.864.688 7.9105-1.1795 11.1026l-24.1511 42.4768c-2.0539 3.51-5.4361 5.9952-9.5412 7.027-1.4357.361-2.9325.5377-4.444.5377zm13.1254-65.1514-24.1662 41.4031c-3.3338 5.6971-1.81 12.9191 3.395 16.1015 3.2496 1.9862 7.2676 2.6501 10.7487 1.7751 1.8826-.4732 4.472-1.628 6.1182-4.4414l24.1512-42.4768c1.1268-1.926 1.3616-4.4032.6606-6.825-.7058-2.438-2.2488-4.5026-4.2351-5.6638l-5.4372-3.1797c-3.9504-2.3112-8.7801-.8894-11.2352 3.307z" fill="#facc8b"/></g></g></g></g></g><g><g clip-path="url(#SVGID_4_)"><g><g><g><path d="m159.9936 99.7679c-3.1222 0-6.1928-.8583-8.9305-2.5319-12.6543-7.9744-11.1638-16.7208-7.6903-22.6574.0108-.0183.0215-.0365.0328-.0548l24.4739-39.6784c3.9172-6.6575 12.5179-8.9026 19.1899-5.0005l5.4371 3.1797c3.2388 1.8944 5.5258 5.0338 6.4394 8.8403.883 3.6824.3191 7.6243-1.5479 10.8147l-22.5307 38.5703c-2.3515 4.0186-6.1322 6.8557-10.646 7.9906-1.4025.3528-2.8205.5268-4.2277.5274zm-11.8894-22.3846c-2.4256 4.1583-3.6105 9.2119 5.8599 15.1792 2.6683 1.6317 5.8464 2.1168 8.916 1.3439 3.0696-.7713 5.6407-2.7011 7.2392-5.4328l22.5306-38.5699c1.158-1.9792 1.5029-4.4403.9475-6.7552-.5602-2.3359-1.9341-4.2453-3.8677-5.3759l-5.4372-3.1797c-4.0627-2.3773-9.3048-1.0049-11.6832 3.0594-.0107.0183-.0215.0365-.0327.0548z" fill="#facc8b"/></g></g></g></g></g><g><g clip-path="url(#SVGID_6_)"><g><g><g><path d="m209.6295 129.1005c-3.0029.0005-5.964-.7933-8.627-2.3461l-1.3648-.7621c-.0161-.0086-.0322-.0177-.0478-.0274-8.4648-4.9521-10.8109-13.0211-6.1219-21.0579l18.0941-30.923c3.9182-6.6972 12.9658-9.0003 19.757-5.0289l5.4371 3.1797c3.2398 1.8949 5.493 5.0037 6.3448 8.7543.8266 3.6384.2385 7.4255-1.6564 10.6638l-16.9377 29.0131c-2.316 3.9692-6.0392 6.7982-10.4849 7.9648-1.4539.3812-2.9283.5697-4.3925.5697zm-7.2853-7.896 1.3627.7611c.0161.0091.0322.0183.0483.0274 2.6968 1.5786 5.8475 2.0109 8.8709 1.2176 3.0229-.7933 5.5553-2.7173 7.1306-5.4168l16.9393-29.0162c1.1709-2.0013 1.5501-4.4317 1.042-6.6703-.5113-2.251-1.8461-4.1062-3.7587-5.2245l-5.4372-3.1797c-4.1454-2.4245-9.8613-.9953-12.2332 3.0588l-18.0926 30.9198c-4.1936 7.1886.7736 11.5537 4.1279 13.5228z" fill="#facc8b"/></g></g></g></g></g><g><g clip-path="url(#SVGID_8_)"><g><g><g><path d="m186.7073 112.5092c-3.0374 0-6.129-.8841-8.9891-2.6028-4.7131-2.2505-8.0378-5.8411-9.3688-10.1245-1.1773-3.7888-.652-7.881 1.4787-11.5232l22.4968-38.8056c.0016-.0032.0033-.0065.0054-.0097 3.9096-6.6806 12.5259-8.9359 19.2065-5.029l6.2154 3.5944c3.2495 1.9003 5.5558 4.9414 6.506 8.5701.9507 3.6287.4302 7.4105-1.4642 10.6482l-22.5237 37.2018c-2.2703 3.8801-5.7734 6.6-9.8436 7.6232-1.2165.3056-2.4636.4571-3.7194.4571zm10.3727-60.2921-22.4995 38.8099c-1.3659 2.3349-1.7021 4.7942-.9786 7.1226.8798 2.8311 3.22 5.261 6.5893 6.8423.0913.043.1805.0908.2664.1434 2.8048 1.715 5.8695 2.2768 8.6281 1.5828 2.664-.6697 4.8974-2.4341 6.4587-5.1025l22.5237-37.2018c1.1317-1.9341 1.448-4.234.8696-6.4415-.5779-2.207-1.9808-4.0573-3.9504-5.2089l-6.2154-3.5943c-4.0736-2.3811-9.3125-1.0126-11.6919 3.048z" fill="#facc8b"/></g></g></g></g></g><g><g><g><path d="m36.9585 236.8931 63.4207-109.8481 65.2658 37.6814-41.6654 72.1667z" fill="#fedfae"/></g></g></g><g><g><g><g><path d="m94.1093 69.3637 13.331-22.8539c7.8655-13.4779 25.1749-18.0161 38.6414-10.1314l16.8306 9.974c7.8335 4.5866 10.4656 14.655 5.8791 22.4885l-.0001.0001c-4.5886 7.837-14.6633 10.4675-22.4974 5.8739l-7.8744-4.7493c-2.6909-1.5778-6.1512-.6744-7.7274 2.0175l-1.2653 2.1407c-1.5754 2.6906-.6712 6.1489 2.0194 7.7242l5.1603 3.0214c16.1437 9.4522 21.5682 30.2017 12.116 46.3454l-5.9902 10.2307" fill="#fedfae"/></g></g></g></g><g><g><g><g><g><path d="m25.23 155.015h8.682v5.5h-8.682z" fill="#177ca0" transform="matrix(.5 -.866 .866 .5 -121.842 104.49)"/></g></g></g></g><g><g><g><path d="m29.312 108.991h53.66v5.5h-53.66z" fill="#177ca0" transform="matrix(.5 -.866 .866 .5 -68.7 104.49)"/></g></g></g><g><g><g><path d="m32.873 141.775h8.682v5.5h-8.682z" fill="#177ca0" transform="matrix(.5 -.866 .866 .5 -106.555 104.49)"/></g></g></g></g><g><g><g><g><g><path d="m18.774 204.764h8.681v5.5h-8.681z" fill="#3fa2b7" transform="matrix(.5 -.866 .866 .5 -168.154 123.773)"/></g></g></g></g><g><g><g><path d="m22.856 158.74h53.66v5.5h-53.66z" fill="#3fa2b7" transform="matrix(.5 -.866 .866 .5 -115.012 123.774)"/></g></g></g><g><g><g><path d="m26.417 191.524h8.682v5.5h-8.682z" fill="#3fa2b7" transform="matrix(.5 -.866 .866 .5 -152.867 123.774)"/></g></g></g></g><g><g><g><g><g><g><path d="m192.442 207.404h8.682v5.5h-8.682z" fill="#3fa2b7" transform="matrix(.5 -.866 .866 .5 -83.608 275.493)"/></g></g></g></g><g><g><g><path d="m196.524 161.38h53.66v5.5h-53.66z" fill="#3fa2b7" transform="matrix(.5 -.866 .866 .5 -30.464 275.495)"/></g></g></g><g><g><g><path d="m200.086 194.164h8.681v5.5h-8.681z" fill="#3fa2b7" transform="matrix(.5 -.866 .866 .5 -68.32 275.493)"/></g></g></g></g></g><g><g><g><g><g><g><path d="m157.632 229.128h8.682v5.5h-8.682z" fill="#177ca0" transform="matrix(.5 -.866 .866 .5 -119.826 256.211)"/></g></g></g></g><g><g><g><path d="m161.714 183.105h53.66v5.5h-53.66z" fill="#177ca0" transform="matrix(.5 -.866 .866 .5 -66.683 256.211)"/></g></g></g><g><g><g><path d="m165.276 215.889h8.681v5.5h-8.681z" fill="#177ca0" transform="matrix(.5 -.866 .866 .5 -104.539 256.21)"/></g></g></g></g></g><g><g clip-path="url(#SVGID_10_)"><g><g><g><path d="m139.8065 141.3074 5.9902-10.2307c9.2886-16.3344 4.4309-35.8304-11.8473-45.0016l-4.3556-2.3961c-6.3568-3.6474-3.0668-10.1752-3.0668-10.1752 1.5761-2.6919 5.0365-3.5953 7.7273-2.0175l9.2581 4.8535c7.8341 4.5936 16.8403 2.538 21.4289-5.299l.0001-.0001c4.5865-7.8334 4.4608-17.5829-3.3549-22.4808l-18.498-10.3908c-13.4666-7.8847-32.7327-2.9373-40.5982 10.5406l-13.7676 23.6112c-2.7801 4.7481-3.0118 10.2053-2.7315 15.7002l1.8769 36.7961c.2908 5.7019 3.4349 10.8734 8.3629 13.7561l9.7812 5.7213" fill="#fedfae"/></g></g><g><g><path d="m104.6236 146.6683-9.7808-5.7219c-5.7476-3.3607-9.3817-9.3382-9.7211-15.9892l-1.8767-36.7957c-.2771-5.4248-.1246-11.7144 3.105-17.23l13.7645-23.607c4.0917-7.0115 11.2991-12.3068 19.7742-14.5294 8.5427-2.2398 17.5049-1.1467 24.5894 3.0008l18.4556 10.3662c.0381.0215.0757.044.1133.0676 8.4461 5.2927 10.2008 16.0665 4.2673 26.2002-2.5867 4.4183-6.5732 7.4706-11.2245 8.5948-4.5574 1.1016-9.4956.2917-13.91-2.279l-9.2023-4.8238c-.0387-.0204-.0768-.0414-.1144-.0634-.6671-.3915-1.448-.5001-2.1957-.304-.7181.1874-1.325.6322-1.7182 1.2579-.4941 1.0645-1.6344 4.3882 2.0131 6.4808l4.3124 2.3724c8.3268 4.6911 14.249 12.1371 16.6993 20.979 2.5389 9.1626 1.194 19.0325-3.7866 27.7911l-6.0081 10.2609-4.7459-2.779 5.9904-10.2308c4.2351-7.4481 5.3953-15.8308 3.2495-23.5738-2.0566-7.4218-7.0549-13.6877-14.0739-17.6419l-4.3312-2.3832c-6.8583-3.9343-5.7406-10.7594-4.1969-13.8219.0257-.0516.0537-.1026.0827-.152 1.1338-1.9363 2.9536-3.3145 5.124-3.8811 2.1474-.5618 4.3833-.261 6.3051.8448l9.2061 4.8259c.0387.0204.0768.0414.1144.0634 3.1953 1.8734 6.7112 2.4814 9.8947 1.7118 3.2318-.781 5.9189-2.8655 7.7703-6.0275 3.5449-6.0554 4.3028-14.488-2.3891-18.7279l-18.4379-10.3571c-5.8749-3.4396-13.316-4.3237-20.458-2.4514-7.0732 1.8547-13.0577 6.2213-16.4183 11.9808l-13.7667 23.6105c-2.4938 4.2588-2.6082 9.3291-2.3612 14.1749l1.8767 36.7958c.2449 4.7926 2.8639 9.1002 7.0055 11.5221l9.7808 5.7224z" fill="#facc8b"/></g></g></g></g></g><g><g clip-path="url(#SVGID_12_)"><g><g><path d="m107.9236 147.7683-9.7808-5.7219c-5.7476-3.3607-9.3817-9.3382-9.7211-15.9892l5.4925-.2803c.2449 4.7926 2.8639 9.1003 7.0055 11.5221l9.7808 5.7224z" fill="#facc8b"/></g></g></g><g clip-path="url(#SVGID_12_)"><g><g><path d="m166.8643 176.1293c-5.3088 0-10.6836-1.3632-15.5869-4.2314l-9.8318-5.7642 2.7822-4.7448 9.8291 5.7632c12.1183 7.0882 27.7519 2.9976 34.8471-9.1196l4.7459 2.779c-5.7561 9.8317-16.1368 15.3178-26.7856 15.3178z" fill="#facc8b"/></g></g></g></g></g></svg>