<svg id="Flat" height="512" viewBox="0 0 340 340" width="512" xmlns="http://www.w3.org/2000/svg"><path d="m168.519 73.736 135.27-67.619a6.645 6.645 0 0 1 9 3.138l10.837 23.266a6.645 6.645 0 0 1 -3.065 8.755l-86.4 42.975s-30.272 19.119-65.642-10.515z" fill="#ffb664"/><path d="m318.723 42.188a36.664 36.664 0 0 0 -3.454-11.218 6.232 6.232 0 0 0 -8.32-2.821l-66.881 32.451-16.268 27.853a41.721 41.721 0 0 0 10.36-4.2z" fill="#e87b40"/><path d="m123.832 155.984s17.369 7.864 13.714 22.491a18.775 18.775 0 0 1 -7.058 10.349l-4.207 3.158a31.984 31.984 0 0 0 -8.5 9.044c-1.575 2.6-2.872 5.645-2.69 8.466l8.676 17.472s-3.589-11.378 9.908-21.629a28.243 28.243 0 0 1 3.463-2.082c4.511-2.495 21.352-13.886 11.833-40.744a22.207 22.207 0 0 1 -.1-14.773 19.782 19.782 0 0 1 5.584-8.35z" fill="#ffb664"/><path d="m67.076 241.87s.792-9.87 6.924-17.585c9.369-11.777 27.994-9.23 34.07 4.538q.117.266.231.537c4.656 11.05 15.021 13.9 25.393 12.021a1.275 1.275 0 0 0 .4-2.364 23.028 23.028 0 0 1 -11.733-17.47s-2.24-19.554-24.013-22.486c0 0-14.856-1.564-10.555-18.374.007 0-24.627 7.037-20.717 61.183z" fill="#e87b40"/><path d="m134.634 164.693q6.045-3.887 13.134-7.63a21.741 21.741 0 0 1 1.112-9.327 19.782 19.782 0 0 1 5.584-8.35l-30.632 16.6a31.021 31.021 0 0 1 10.802 8.707z" fill="#e87b40"/><path d="m121.587 147.7-19.456 13.045c-5.039 18.273 4.345 26.866 10.863 30.494a2.022 2.022 0 0 0 2.848-2.578c-3.093-7.013-6.24-20.166 7.08-30.035z" fill="#96aef4"/><path d="m68.261 133.067s-91.28 66.221-33.13 189.459l48.918-26.142s-47.049-88.584 26.17-128.928z" fill="#bc5e66"/><path d="m46.525 155.094a52.589 52.589 0 0 0 6.908 18.016 29.863 29.863 0 0 1 2.23 26.6c-8.5 21.574-18.581 63.458 4.7 109.334l23.682-12.656s-47.045-88.588 26.174-128.932l-41.958-34.389s-10.277 7.466-21.736 22.027z" fill="#75212c"/><path d="m139.953 85.557 21.723-11.957a22.191 22.191 0 0 1 23.342 1.2 22.194 22.194 0 0 0 22.359 1.712l32.691-15.912a3.13 3.13 0 0 1 4.029 1.162l.825 1.326a22.4 22.4 0 0 1 -7.963 31.3l-66.229 37.6-36.937-27.961z" fill="#bc5e66"/><path d="m106.363 103.247-31.263 19.731a28.721 28.721 0 0 0 -13.176 19.415 27.061 27.061 0 0 0 -.185 7.651 26.272 26.272 0 0 0 9.73 17.5c5.478 4.361 14.436 8.283 27.5 4.734a46.39 46.39 0 0 0 11.251-4.823l60.511-35.477a16.356 16.356 0 0 0 5.9-22.284 16.362 16.362 0 0 0 -15.653-8.118l-3.338 1.515-9.241 2.094z" fill="#d2e8ff"/><path d="m99.62 159.992s15.944-3.239 15.531-17.009a2.972 2.972 0 0 0 -5.864-.581l-22.994-26.49-11.2 7.066c-.707.445-1.387.925-2.05 1.425l3.119 2.9a6.055 6.055 0 0 1 1.353 7.066c-1.909 3.944-3.71 10.5.6 16.978 7.911 11.902 21.505 8.645 21.505 8.645z" fill="#96aef4"/><path d="m64.655 105.664 20.3 19.608a7.075 7.075 0 0 1 .363 9.721q-.066.077-.132.156c-4.5 5.423-2.983 12.8 2.973 16.568q.372.235.772.46a16.77 16.77 0 0 0 20.038-3.05c4.368-4.431 8.143-14.525-2.025-23.772l-30.429-27.075z" fill="#d2e8ff"/><path d="m33.239 316.409 47.928-25.037a6.177 6.177 0 0 1 8.213 2.393 13.343 13.343 0 0 1 -2.794 16.735 150.05 150.05 0 0 1 -14.171 10.923l-40.415 7.242a13.407 13.407 0 0 1 -.895-1.554c-.366-.746-.719-1.544-1.053-2.4a6.677 6.677 0 0 1 3.187-8.302z" fill="#ffb664"/><g fill="#96aef4"><path d="m153.005 110.8a12.445 12.445 0 0 1 -4.73 17.028l-15.913 9.5a1.463 1.463 0 0 1 -1.627-2.427l12.936-9.689a9.949 9.949 0 0 0 3.312-4.159c.889-2.189 1.15-5.127-2.077-7.371z"/><circle cx="97.311" cy="141.084" r="3.5"/><path d="m76.515 98.28-11.86 7.384 9.364 9.043a81.1 81.1 0 0 1 13.952-6.235z"/></g><path d="m84.212 102.59a25.9 25.9 0 0 1 -2.711 1.026 44.251 44.251 0 0 0 -11.41 5.636c-3.363 2.284-8.99 4.624-17.815 4.416-1.992-.047-3.8-.055-5.431-.033a4.575 4.575 0 0 1 -2.006-8.717 28.322 28.322 0 0 1 4.445-1.684 26.822 26.822 0 0 0 13.163-8.482c1.095-1.298 2.288-2.752 3.553-4.352 3.484-4.413 8.73-7.6 14.236-7.518 11.148.174 14.151 15.149 3.976 19.708z" fill="#d2e8ff"/><path d="m157.486 102.285-9.092 2.9-40.031-3.2-6.413 4.047c.321 3.154 4.766 11.356 13.867 15.492 6.168 2.8 15.821.717 21.542-.858a49.643 49.643 0 0 0 9.2-3.64 32.12 32.12 0 0 1 10.054-3.016 7.416 7.416 0 0 0 4.537-12.217c-.058-.067-.118-.133-.18-.2a16.353 16.353 0 0 0 -3.484.692z" fill="#96aef4"/><path d="m108.363 101.984s5.066-3.293 10.3-5.94c4.29-2.171 6.553-2.8 9.656-6.477 3.22-3.812 8.4-7.8 15.791-7.321 0 0 8.818 1.091 7.461 10.155a10.751 10.751 0 0 1 -6.783 7.255l6.913.586a34.062 34.062 0 0 1 4.481 1.142c4.584 1.514 3.8 8.255-1.024 8.542a37.534 37.534 0 0 0 -12.858 3.074s-21.5 11.594-33.937-11.016z" fill="#d2e8ff"/><path d="m145.958 99.648-1.175.008s-7.141 1.612-10.323-2.866a.684.684 0 0 0 -1.24.449c.223 2.483 1.234 5.742 4.838 6.85 6.334 1.947 11.79-2.2 13.638-3.846a35.449 35.449 0 0 0 -5.738-.595z" fill="#96aef4"/><path d="m68.343 313.415a8 8 0 0 0 -10.916-3.415c-5.873 3.158-13.977 7.625-18.978 10.84a15.629 15.629 0 0 0 -6.439 7.822 13.247 13.247 0 0 0 14.6 5.427c9.3-2.659 18.219-7.543 25.8-12.667z" fill="#e87b40"/><rect fill="#fff" height="8.694" rx="4.347" transform="matrix(.899 -.438 .438 .899 3.677 110.507)" width="29.871" x="226.364" y="42.938"/><rect fill="#fff" height="8.694" rx="4.347" transform="matrix(.899 -.438 .438 .899 12.571 121.498)" width="8.694" x="265.216" y="29.161"/></svg>