<svg id="Capa_1" enable-background="new 0 0 512 512" height="512" viewBox="0 0 512 512" width="512" xmlns="http://www.w3.org/2000/svg"><g><path d="m223.854 331.448h68.966v76.791h-68.966z" fill="#a37567"/><path d="m427.463 497.341v7.448c0 3.987-3.224 7.211-7.211 7.211h-57.113l-105.583-16.504-108.695 16.504h-43.299l-6.068-3.297c-3.987 0-7.211-3.225-7.211-7.211v-7.448c0-26.857 9.591-38.24 35.16-46.451l93.334-37.694 76.759.721 11.322 3.565 75.698 24.302c25.569 8.21 42.907 31.997 42.907 58.854z" fill="#73737f"/><path d="m219.181 331.45h20.604v52.9h-20.604z" fill="#9b6659"/><path d="m151.857 286.362 55.069 51.892c27.608 25.856 70.541 25.856 98.149 0l55.069-51.892s35.659-172.408-6.791-214.858-158.979-35.725-194.704 0-6.792 214.858-6.792 214.858z" fill="#b5846b"/><path d="m227.155 180.282h57.69v30.905h-57.69z" fill="#626272"/><path d="m256 308.047c30.067 0 35.613-25.281 36.581-32.433.142-1.053-.548-2.044-1.585-2.279-23.331-5.297-46.661-5.297-69.992 0-1.036.235-1.727 1.226-1.585 2.279.968 7.152 6.514 32.433 36.581 32.433z" fill="#f8feff"/><g><path d="m256.001 250.164c-5.049 0-10.098-1.429-15.006-4.287-3.688-2.148-4.936-6.877-2.789-10.565 2.146-3.687 6.878-4.936 10.565-2.789 5 2.912 9.459 2.912 14.458 0 3.687-2.148 8.417-.898 10.565 2.789 2.147 3.688.898 8.417-2.789 10.565-4.907 2.858-9.956 4.287-15.004 4.287z" fill="#a37567"/></g><path d="m405.998 191.492c-2.529-40.594-7.958-80.083-18.448-119.25-11.081-42.531-49.514-72.242-93.467-72.242-12.679 0-25.066 2.531-36.505 7.225-1.014.416-2.142.416-3.156 0-11.173-4.585-23.251-7.104-35.622-7.219 0 0-.6.074-.895.074-43.953 0-77.601 31.412-88.682 73.944-10.49 39.167-15.796 77.501-18.325 118.095-2.285 35.577-.174 70.225 8.202 104.831 4.821 19.918 13.877 38.599 26.705 54.581 6.889 8.583 3.564 7.113 8.433 11.04 2.276 1.836 5.609-.255 4.939-3.101-2.737-11.638.785-26.412.785-26.412-3.487-30.265-3.598-61.892-3.341-91.745 0-47.968 6.121-95.74 18.216-142.158 3.521-13.514 15.725-22.946 29.69-22.946h4.525c8.424 0 16.636 2.647 23.474 7.568l17.456 12.562c3.595 2.587 8.44 2.587 12.035 0l17.456-12.562c6.838-4.921 15.049-7.568 23.474-7.568h4.525c13.966 0 26.169 9.431 29.69 22.946 12.095 46.418 18.216 94.19 18.216 142.158.33 42.369.172 86.253-9.495 127.746-.668 2.867 2.639 4.988 4.931 3.141 5.238-4.222 12.808-11.139 20.533-21.005 12.288-15.694 20.667-34.04 25.304-53.425 8.302-34.704 11.57-71.399 9.347-106.278z" fill="#f8feff"/><path d="m134.851 187.369c-2.266 35.294 1.143 71.979 9.354 106.305 3.317 13.866 8.556 27.187 15.757 39.384 1.406 12.293 3.382 24.363 6.119 35.999.671 2.854-2.651 4.953-4.934 3.112-4.928-3.974-11.907-10.327-19.137-19.271-12.991-16.061-21.85-35.006-26.651-55.104-8.211-34.326-11.62-71.01-9.354-106.305 2.524-40.589 7.953-80.076 18.44-119.243 11.159-42.821 50.038-72.642 94.354-72.24.002.011-.002-.011 0 0-31.565 9.55-56.866 34.938-65.509 68.12-10.486 39.167-15.915 78.654-18.439 119.243z" fill="#dff8ff"/><g><g><circle cx="313.175" cy="195.734" fill="#89efb7" r="40.177"/></g><g><circle cx="198.825" cy="195.734" fill="#89efb7" r="40.177"/></g></g><g><g><g><path d="m313.175 243.638c-26.414 0-47.903-21.489-47.903-47.903s21.489-47.903 47.903-47.903 47.903 21.489 47.903 47.903-21.488 47.903-47.903 47.903zm0-80.354c-17.893 0-32.451 14.557-32.451 32.451s14.557 32.451 32.451 32.451 32.451-14.557 32.451-32.451-14.558-32.451-32.451-32.451z" fill="#73737f"/></g></g><g><g><path d="m198.825 243.638c-26.414 0-47.903-21.489-47.903-47.903s21.489-47.903 47.903-47.903 47.903 21.489 47.903 47.903-21.489 47.903-47.903 47.903zm0-80.354c-17.893 0-32.451 14.557-32.451 32.451s14.557 32.451 32.451 32.451 32.451-14.557 32.451-32.451-14.558-32.451-32.451-32.451z" fill="#73737f"/></g></g></g><path d="m363.139 457.4-17.215 8.431-13.69-8.431s0-28.138.005-41.632c.001-3.491 3.402-5.964 6.726-4.897l20.558 6.601c2.126.683 3.57 2.655 3.576 4.888.026 9.73.04 35.04.04 35.04z" fill="#f8feff"/><path d="m301.65 384.353h-37.924l-8.749 4.396-6.703-4.396h-8.489l-26.173 1.839c-3.983 0-7.211 3.229-7.211 7.211l.388 20.783h102.073v-22.622c0-3.982-3.229-7.211-7.212-7.211z" fill="#626272"/><path d="m239.785 414.184v.865c0 5.367-3.472 10.126-8.581 11.775 0 0-98.537 31.647-99.072 31.832-16.143 5.924-26.568 21.675-26.568 38.869v14.475h-13.816c-3.987 0-7.211-3.224-7.211-7.211v-7.448c0-26.857 17.338-50.644 42.907-58.854l75.698-24.302 16.04-7.84z" fill="#626272"/><path d="m239.785 384.35v29.834h-36.644v-22.623c0-3.976 3.224-7.211 7.211-7.211z" fill="#565668"/><path d="m179.767 457.4-13.312 8.431-17.593-8.431s.014-25.31.041-35.04c.006-2.233 1.45-4.205 3.576-4.888l20.558-6.601c3.324-1.067 6.724 1.406 6.726 4.897.004 13.494.004 41.632.004 41.632z" fill="#f8feff"/><path d="m263.726 414.184v59.091c0 4.265-3.461 7.726-7.726 7.726s-7.726-3.461-7.726-7.726v-59.091l7.723-7.109z" fill="#626272"/><path d="m248.274 384.35h15.453v29.834h-15.453z" fill="#565668"/><path d="m363.139 457.4v26.785l-105.583 11.316-108.695-11.316v-26.785z" fill="#89efb7"/><path d="m148.861 484.185h214.278v27.815h-214.278z" fill="#f8feff"/></g></svg>