<svg id="Capa_1" enable-background="new 0 0 497.755 497.755" height="512" viewBox="0 0 497.755 497.755" width="512" xmlns="http://www.w3.org/2000/svg"><g><path d="m391.306 394.785 28.695 35.847c2.613 3.265 4.121 7.276 4.306 11.454l2.217 50.178c.132 2.992-2.258 5.489-5.252 5.489h-343.788c-2.995 0-5.384-2.498-5.252-5.489l2.217-50.178c.185-4.178 1.692-8.189 4.306-11.454l28.695-35.847 39.043-40.29h201.6z" fill="#3c87d0"/><path d="m137.409 451.772c.185-4.178 1.693-8.189 4.306-11.454l28.695-35.847 39.043-40.29h149.028l-10.389-9.686h-201.6l-39.043 40.29-28.695 35.847c-2.613 3.265-4.121 7.276-4.306 11.454l-2.217 50.178c-.132 2.992 2.258 5.489 5.252 5.489h57.894z" fill="#0078c8"/><path d="m190.501 497.753-55.408-60.728c-1.737-1.904-2.505-4.499-2.084-7.042l3.502-21.137c.671-4.047-1.93-7.915-5.931-8.821l-46-10.421c-3.99-.904-5.179-6.01-2-8.584l66.069-53.493 63.531-45.465h87.874l50.054 45.465 66.069 53.493c3.179 2.574 1.989 7.68-2 8.584l-46.001 10.421c-4.001.906-6.601 4.774-5.931 8.821l3.502 21.137c.421 2.543-.347 5.138-2.084 7.042l-55.408 60.728z" fill="#7bacdf"/><path d="m350.107 327.527-50.054-45.465h-50.981-14.537-22.356l-63.531 45.465-66.068 53.493c-3.179 2.574-1.989 7.681 2 8.584l46.001 10.421c4.001.906 6.601 4.774 5.931 8.821l-3.502 21.137c-.421 2.543.347 5.138 2.084 7.042l55.408 60.727h51.379v-7.462h-4.058l-55.408-60.728c-1.737-1.904-2.505-4.499-2.084-7.042l3.502-21.137c.671-4.047-1.93-7.915-5.931-8.821l-46.001-10.421c-3.99-.904-5.179-6.01-2-8.584l26.694-16.45c3.234-1.993 7.457-1.155 9.686 1.92l13.748 18.973c5.635 7.775 14.73 12.416 24.332 12.416 1.548 0 3.109-.121 4.638-.36l4.847-.757 15.585 13.231c5.425 4.605 12.332 7.142 19.447 7.142s14.022-2.537 19.448-7.142l15.584-13.231 4.845.757c1.531.239 3.093.36 4.642.36 9.601 0 18.695-4.642 24.33-12.417l17.7-24.425.454.14c2.873.886 5.852 1.335 8.855 1.335 9.591 0 18.588-4.637 24.206-12.272z" fill="#5f99d7"/><path d="m207.058 331.735 5.12 32.52 6.93 68.88 9.695 12.061h44.704l6.131-12.041 6.94-68.9 5.12-32.52z" fill="#918291"/><g><g><path d="m207.058 331.735 5.12 32.52 2.599 25.834 14.654 12.441c5.425 4.605 12.332 7.142 19.447 7.142s14.022-2.537 19.448-7.142l15.584-13.231.143.022 2.525-25.066 5.12-32.52z" fill="#7a6d79"/><g><path d="m376.336 163.783v29.213 36.347l13.693 39.632c.708 2.048.029 4.319-1.685 5.644l-14.838 11.463c-.519.401-.956.9-1.284 1.468l-23.114 39.976c-1.179 2.038-3.61 2.991-5.859 2.297l-14.103-4.352c-2.066-.637-4.308.111-5.577 1.862l-26.084 35.996c-1.113 1.536-2.993 2.319-4.868 2.026l-13.874-2.168c-1.451-.227-2.928.189-4.047 1.139l-22.55 19.145c-1.885 1.6-4.651 1.6-6.535 0l-22.55-19.145c-1.119-.95-2.596-1.366-4.047-1.139l-13.874 2.168c-1.874.293-3.755-.49-4.868-2.026l-26.084-35.996c-1.269-1.751-3.511-2.499-5.577-1.862l-14.103 4.352c-2.25.694-4.681-.259-5.859-2.297l-23.114-39.976c-.329-.568-.765-1.067-1.284-1.468l-14.838-11.463c-1.715-1.325-2.393-3.596-1.685-5.644l13.693-39.632v-36.347-29.213c-.064-4.934 2.237-45.427 2.237-45.427l131.141-37.153 121.938 46.852z" fill="#e2dee2"/></g></g></g><path d="m338.897 246.922 13.548-2.582c17.846-3.401 30.756-19.004 30.756-37.171 0-8.932-7.241-16.173-16.173-16.173h-18.405-48.57v55.925h38.844z" fill="#bb5d4c"/><path d="m159.858 246.922-13.548-2.582c-17.846-3.401-30.756-19.004-30.756-37.171 0-8.932 7.241-16.173 16.173-16.173h18.405 46.138v58.128z" fill="#bb5d4c"/><path d="m201.367 317.752c-20.17 0-38.947-9.036-51.516-24.791l-6.921-8.676c-5.047-6.33-6.039-15.128-2.527-22.418 3.511-7.291 11.008-12.001 19.1-12.001h10.784l13.803-13.803c12.438-12.438 28.975-19.288 46.564-19.288h36.997c17.589 0 34.126 6.85 46.564 19.287l13.804 13.804h10.784c8.092 0 15.589 4.711 19.1 12.001 3.511 7.291 2.52 16.089-2.525 22.416l-6.462 8.101c-12.569 15.755-31.346 24.791-51.516 24.791-14.19 0-27.729-4.47-39.154-12.927l-8.3-6.144-10.319 7.373c-11.241 8.031-24.471 12.275-38.26 12.275z" fill="#cbc4cc"/><g><path d="m163.224 149.403c-10.472 14.526-14.646 32.66-11.577 50.302l11.577 66.57 7.595 19.846 68.046-16.868 91.264 14.217 5.403-17.195 11.577-66.57c2.935-16.877-.757-34.204-10.25-48.392 0 0-35.733-46.477-36.805-46.477s-107.975 0-107.975 0z" fill="#d78878"/></g><g><path d="m336.859 151.314s-12.765-16.603-23.266-29.963h-132.206l-18.163 28.052c-10.472 14.526-14.646 32.66-11.577 50.302l11.577 66.57 7.595 19.846 45.595-11.302-10.244-58.904c-3.068-17.642 1.105-35.776 11.577-50.302l4.075-6.293c1.288-1.989 3.897-2.641 5.969-1.49l1.374.763c6.019 3.341 12.835 5.107 19.713 5.107s13.694-1.766 19.72-5.111l8.863-4.923c1.482-.823 3.264-.901 4.812-.21l64.393 28.737c.388.173.782.323 1.172.487-.947-11.138-4.676-21.945-10.979-31.366z" fill="#ca6e59"/><g><path d="m198.939 189.465c-1.381 0-2.778-.381-4.029-1.18-3.491-2.229-4.514-6.866-2.285-10.357l31.67-49.604c.023-.037.047-.074.072-.11l18.261-27.523c2.29-3.451 6.944-4.393 10.396-2.103s4.393 6.944 2.103 10.396l-18.224 27.468-31.636 49.548c-1.43 2.241-3.853 3.465-6.328 3.465z" fill="#918291"/></g><g id="XMLID_1089_"><g><path d="m447.228 91.565c0 .34-.03.69-.1 1.05-3.36 17.63-11.96 33.31-24.13 45.4-12.18 12.09-27.92 20.59-45.57 23.82-6.95 1.27-14.12.41-20.57-2.47l-68.68-30.65c-6.03-2.69-12.97-2.39-18.74.81l-12.98 7.21c-4.72 2.62-10.44 2.62-15.16 0l-12.98-7.21c-5.77-3.2-12.71-3.5-18.74-.81l-68.68 30.65c-4.51 2.01-9.38 3.04-14.27 3.04-2.1 0-4.21-.19-6.3-.57-17.65-3.23-33.39-11.73-45.57-23.82-12.17-12.09-20.77-27.77-24.13-45.4-.74-3.87 2.71-7.23 6.56-6.4l42.67 9.23c12.2 2.63 24.89-1.32 33.43-10.41l55.43-59.01c32.6-34.7 87.72-34.7 120.32 0l55.43 59.01c8.54 9.09 21.23 13.04 33.43 10.41l42.67-9.23c3.5-.75 6.66 1.95 6.66 5.35z" fill="#7a6d79"/></g></g><path d="m440.568 86.215-1.872.405c-3.802 6.471-8.412 12.401-13.698 17.652-12.18 12.09-27.92 20.59-45.57 23.82-6.95 1.27-14.12.41-20.57-2.47l-68.68-30.65c-6.03-2.69-12.97-2.39-18.74.81l-12.98 7.21c-4.72 2.62-10.44 2.62-15.16 0l-12.98-7.21c-5.77-3.2-12.71-3.5-18.74-.81 0 0-59.996 26.764-60.154 26.814-3.457 1.088-6.182-3.146-3.991-6.032l58.546-77.137c26.427-28.13 67.664-33.45 99.696-15.973-32.919-31.271-85.456-30.149-116.957 3.382l-55.43 59.01c-8.54 9.09-21.23 13.04-33.43 10.41l-37.376-8.086-5.295-1.145c-3.85-.83-7.3 2.53-6.56 6.4 3.36 17.63 11.96 33.31 24.13 45.4 12.18 12.09 27.92 20.59 45.57 23.82 2.09.38 4.2.57 6.3.57 4.89 0 9.76-1.03 14.27-3.04l68.68-30.65c6.03-2.69 12.97-2.39 18.74.81l12.98 7.21c4.72 2.62 10.44 2.62 15.16 0l12.98-7.21c5.77-3.2 12.71-3.5 18.74-.81l68.68 30.65c6.45 2.88 13.62 3.74 20.57 2.47 17.65-3.23 33.39-11.73 45.57-23.82 12.17-12.09 20.77-27.77 24.13-45.4.07-.36.1-.71.1-1.05.001-3.4-3.159-6.1-6.659-5.35z" fill="#685e68"/><circle cx="250.878" cy="42.135" fill="#f3f0f3" r="15.914"/><path d="m267.651 236.776c12.161 0 23.823 4.831 32.422 13.43l14.592 14.592c3.246 3.246 7.648 5.069 12.238 5.069h11.899c1.005 0 1.564 1.162.937 1.947l-6.46 8.098c-15.393 19.296-43.297 22.947-63.137 8.262l-15.134-11.202c-2.896-2.143-6.842-2.176-9.773-.082l-17.237 12.316c-19.841 14.176-47.306 10.347-62.513-8.716l-6.921-8.675c-.627-.785-.067-1.947.937-1.947h11.899c4.59 0 8.993-1.823 12.238-5.069l14.592-14.592c8.599-8.599 20.261-13.43 32.422-13.43h36.999z" fill="#f3f0f3"/><g><g><g><path d="m194.194 294.939-6.921-8.675c-.627-.785-.067-1.947.937-1.947h11.899c4.59 0 8.993-1.823 12.238-5.069l14.592-14.592c8.599-8.599 20.261-13.43 32.422-13.43h36.997c1.686 0 3.36.102 5.019.285l-1.306-1.306c-8.599-8.599-20.261-13.43-32.422-13.43h-36.997c-12.161 0-23.823 4.831-32.422 13.43l-14.592 14.592c-3.246 3.246-7.648 5.069-12.238 5.069h-11.899c-1.005 0-1.564 1.162-.937 1.947l6.921 8.675c7.914 9.92 19.149 15.704 30.9 16.982-.752-.814-1.489-1.65-2.191-2.531z" fill="#e2dee2"/></g></g></g><path d="m266.139 229.349v.312c0 9.533-7.728 17.261-17.261 17.261-9.533 0-17.261-7.728-17.261-17.261v-.312c0-2.424 1.965-4.39 4.39-4.39h25.743c2.424 0 4.389 1.966 4.389 4.39z" fill="#bb5d4c"/><g><path d="m196.666 183.98c-3.456-2.282-8.108-1.334-10.393 2.121l-29.287 44.308 3.62 20.817 5.269-7.084c.083-.111.162-.225.239-.34l32.672-49.429c2.285-3.456 1.335-8.108-2.12-10.393z" fill="#918291"/></g><g><path d="m300.054 198.497c-4.142 0-7.5-3.358-7.5-7.5v-12.607c0-4.142 3.358-7.5 7.5-7.5s7.5 3.358 7.5 7.5v12.607c0 4.142-3.358 7.5-7.5 7.5z" fill="#7a6d79"/></g><path d="m272.525 455.512h-45.851l-3.826 14.723 2.77 27.52h47.52l2.79-27.67z" fill="#918291"/><g id="XMLID_1101_"><g><path d="m279.638 433.155-3.71 36.93-.39-.04-52.69.19-3.74-37.1z" fill="#fedf30"/></g></g></g><path d="m205.185 207.839c-12.895 0-23.348-10.453-23.348-23.348v-7.528c0-4.155 3.368-7.522 7.522-7.522h31.651c4.155 0 7.522 3.368 7.522 7.522v7.528c.001 12.895-10.452 23.348-23.347 23.348z" fill="#7a6d79"/><path d="m202.682 181.909v-7.528c0-1.893.704-3.618 1.859-4.94h-15.181c-4.155 0-7.522 3.368-7.522 7.522v7.528c0 12.895 10.453 23.348 23.348 23.348 4.806 0 9.271-1.453 12.984-3.943-9.027-3.227-15.488-11.851-15.488-21.987z" fill="#685e68"/></g><path d="m286.385 93.895-15.925-5.989 15.925-5.989c3.877-1.458 5.839-5.783 4.381-9.66-1.459-3.876-5.783-5.838-9.66-4.38l-31.953 12.016-31.953-12.016c-3.877-1.459-8.203.502-9.66 4.38-1.458 3.877.503 8.202 4.38 9.66l15.925 5.989-15.925 5.989c-3.877 1.458-5.838 5.783-4.38 9.66 1.131 3.007 3.987 4.862 7.021 4.862.877 0 1.77-.155 2.639-.482l31.952-12.016 31.953 12.016c.869.327 1.761.482 2.639.482 3.034 0 5.89-1.854 7.021-4.862 1.459-3.877-.503-8.202-4.38-9.66z" fill="#f3f0f3"/></svg>