<svg id="Capa_1" enable-background="new 0 0 512 512" height="512" viewBox="0 0 512 512" width="512" xmlns="http://www.w3.org/2000/svg"><g><path d="m256.001 11c-135.184-.001-245.251 110.279-245.001 245.463.077 41.481 10.475 80.536 28.744 114.754l30.983 15.442c118.139 58.881 255.465 65.889 378.984 19.341 32.144-41.45 51.289-93.486 51.289-150 0-135.309-109.69-244.999-244.999-245z" fill="#c8effe"/><path d="m307.586 348.706c-6.053-7.157-15.094-11.706-25.201-11.706-4 0-7.834.713-11.382 2.016-1.908-16.816-16.175-29.883-33.501-29.883-8.639 0-16.516 3.252-22.484 8.594-5.967-5.342-13.844-8.594-22.484-8.594-18.626 0-33.725 15.099-33.725 33.725 0 3.66.591 7.18 1.669 10.48-3.427.751-6.656 2.027-9.606 3.732v49.93h150.298c.585-20.665 2.782-40.474 6.416-58.294z" fill="#78a91f"/><path d="m314.029 37.473h-72.161c-5.663 0-10.254 4.591-10.254 10.254s4.591 10.254 10.254 10.254h.76c5.663 0 10.254 4.591 10.254 10.254s-4.591 10.254-10.254 10.254h-10.434c3.365 6.241 5.615 13.166 6.518 20.509h63.164c5.663 0 10.254-4.591 10.254-10.254s-4.591-10.254-10.254-10.254h-15.192c-5.663 0-10.254-4.591-10.254-10.254s4.591-10.254 10.254-10.254h27.345c5.663 0 10.254-4.591 10.254-10.254s-4.591-10.255-10.254-10.255z" fill="#f2fbff"/><g><path d="m462.967 80.404h38.779c5.663 0 10.254-4.591 10.254-10.254 0-5.663-4.591-10.254-10.254-10.254h-98.027c-5.646 0-10.489 4.417-10.593 10.062-.105 5.751 4.525 10.447 10.253 10.447h14.852c5.646 0 10.489 4.417 10.593 10.062.105 5.751-4.525 10.447-10.253 10.447h-27.005c-5.646 0-10.489 4.417-10.593 10.062-.105 5.751 4.525 10.447 10.253 10.447h71.821c5.646 0 10.49-4.417 10.593-10.063.105-5.751-4.525-10.446-10.253-10.446h-.76c-5.727 0-10.358-4.695-10.253-10.447.103-5.646 4.947-10.063 10.593-10.063z" fill="#f2fbff"/></g><path d="m363.746 129h-108.282c-1.754 0-3.429.427-4.91 1.184 16.895 10.255 28.191 28.808 28.191 50.016 0 3.524-.317 6.974-.914 10.327h36.961c5.646 0 10.49-4.417 10.593-10.063.105-5.751-4.525-10.446-10.253-10.446h-.419c-5.646 0-10.49-4.417-10.593-10.063-.105-5.751 4.526-10.446 10.253-10.446h49.033c5.646 0 10.489-4.417 10.593-10.062.104-5.752-4.526-10.447-10.253-10.447z" fill="#f2fbff"/><path d="m333.83 407c-.984-34.805-6.501-66.133-14.953-89.537-.631-1.747-3.122-1.747-3.753 0-8.453 23.404-13.97 54.732-14.953 89.537z" fill="#8bc727"/><path d="m310.204 406c.923-29.91 5.195-57.206 11.799-79.058-.992-3.283-2.033-6.451-3.126-9.479-.631-1.747-3.122-1.747-3.753 0-8.371 23.179-13.86 54.133-14.921 88.537z" fill="#81b823"/><path d="m358.882 407c-.856-41.259-6.407-78.424-14.967-106.112-.583-1.885-3.246-1.885-3.829 0-8.56 27.689-14.112 64.854-14.967 106.112z" fill="#78a91f"/><path d="m383.83 407c-.984-34.805-6.501-66.133-14.953-89.537-.631-1.747-3.122-1.747-3.753 0-8.453 23.404-13.969 54.732-14.953 89.537z" fill="#8bc727"/><path d="m360.204 406c.923-29.91 5.195-57.206 11.799-79.058-.992-3.283-2.033-6.451-3.126-9.479-.631-1.747-3.122-1.747-3.753 0-8.371 23.179-13.86 54.133-14.921 88.537z" fill="#81b823"/><path d="m408.772 407c-1.121-29.464-6.604-55.959-14.933-75.821-.68-1.622-2.998-1.622-3.679 0-8.329 19.862-13.812 46.358-14.933 75.821z" fill="#78a91f"/><g><path d="m106.856 355.532c9.762-30.043-33.661-30.043-23.899 0-9.762-30.043-44.891-4.52-19.335 14.048-11.24-8.167-20.13-4.751-23.878 1.636 6.741 12.627 14.546 24.599 23.312 35.784h1.285 63.532v-63.83c-6.842-3.48-16.566-1.337-21.017 12.362z" fill="#81b823"/></g><path d="m217.191 392.284c25.556-18.568-9.573-44.091-19.335-14.048 9.762-30.043-33.661-30.043-23.899 0-4.923-15.151-16.295-16.167-23.084-11.072v39.836h90.649c5.787-10.967-6.217-27.877-24.331-14.716z" fill="#8bc727"/><g><g><path d="m278.746 180.2c0-26.697-17.89-49.202-42.331-56.22 1.785-5.605 2.756-11.572 2.756-17.768 0-32.31-26.192-58.502-58.502-58.502-15.692 0-29.929 6.19-40.435 16.246-10.507-10.056-24.744-16.246-40.436-16.246-32.31 0-58.502 26.192-58.502 58.502 0 6.624 1.117 12.983 3.145 18.919-25.516 6.298-44.441 29.329-44.441 56.79 0 26.995 18.29 49.707 43.15 56.453-.079 1.248-.134 2.502-.134 3.77 0 32.31 26.192 58.502 58.502 58.502 14.236 0 27.281-5.09 37.424-13.542 10.144 8.453 23.188 13.542 37.424 13.542 32.31 0 58.502-26.192 58.502-58.502 0-1.763-.092-3.504-.245-5.228 25.357-6.41 44.123-29.369 44.123-56.716z" fill="#8bc727"/></g><g><path d="m74.271 242.143c0-.013 0-.025 0-.038.002-2.196-1.384-4.123-3.462-4.834-23.008-7.873-39.555-29.674-39.555-55.351 0-24.433 14.982-45.36 36.258-54.113 4.365-1.796 6.847-6.408 5.995-11.05-.628-3.42-.958-6.944-.958-10.546 0-26.892 18.152-49.531 42.867-56.372-4.973-1.378-10.206-2.13-15.619-2.13-32.31 0-58.502 26.192-58.502 58.502 0 6.624 1.117 12.983 3.145 18.919-25.515 6.299-44.44 29.33-44.44 56.791 0 26.995 18.29 49.707 43.15 56.453-.079 1.248-.134 2.502-.134 3.77 0 32.31 26.192 58.502 58.502 58.502 5.42 0 10.666-.742 15.646-2.122-24.728-6.833-42.893-29.478-42.893-56.381z" fill="#81b823"/></g><path d="m85.211 192.843 41.662 24.06v190.097h25v-144.454l55.722-46.969c5.279-4.449 5.951-12.335 1.501-17.614s-12.334-5.95-17.614-1.501l-39.61 33.388v-71.78c0-6.903-5.597-12.5-12.5-12.5s-12.5 5.597-12.5 12.5v29.963l-29.159-16.84c-5.979-3.452-13.624-1.405-17.076 4.573-3.451 5.98-1.404 13.625 4.574 17.077z" fill="#d88a55"/><path d="m85.211 192.843 41.662 24.06v189.097h9.961v-190.894c0-3.572-1.906-6.873-4.999-8.66l-36.663-21.173c-5.51-3.183-7.669-9.925-5.271-15.643-3.743.475-7.23 2.618-9.263 6.137-3.452 5.979-1.405 13.624 4.573 17.076z" fill="#c57a44"/></g><path d="m62.289 406c44.818 57.793 114.915 95 193.711 95s148.893-37.207 193.711-95z" fill="#97d729"/><g><circle cx="240.32" cy="344.32" fill="#fff" r="9.767"/></g><g><circle cx="310.68" cy="256.68" fill="#fe646f" r="9.767"/></g><g><circle cx="427.68" cy="300.68" fill="#9857bd" r="9.767"/></g><g><g><path d="m265.207 444.925h-11.572c-4.142 0-7.5-3.358-7.5-7.5s3.358-7.5 7.5-7.5h11.572c4.142 0 7.5 3.358 7.5 7.5s-3.358 7.5-7.5 7.5z" fill="#78a91f"/></g><g><path d="m317.756 467.5h-11.571c-4.142 0-7.5-3.358-7.5-7.5s3.358-7.5 7.5-7.5h11.571c4.142 0 7.5 3.358 7.5 7.5s-3.358 7.5-7.5 7.5z" fill="#78a91f"/></g><g><path d="m377 445.994h-11.571c-4.142 0-7.5-3.358-7.5-7.5s3.358-7.5 7.5-7.5h11.571c4.142 0 7.5 3.358 7.5 7.5s-3.358 7.5-7.5 7.5z" fill="#78a91f"/></g><g><path d="m146.571 439.5h-11.571c-4.142 0-7.5-3.358-7.5-7.5s3.358-7.5 7.5-7.5h11.571c4.142 0 7.5 3.358 7.5 7.5s-3.358 7.5-7.5 7.5z" fill="#78a91f"/></g><g><path d="m204.368 462.023h-11.571c-4.142 0-7.5-3.358-7.5-7.5s3.358-7.5 7.5-7.5h11.571c4.142 0 7.5 3.358 7.5 7.5s-3.358 7.5-7.5 7.5z" fill="#78a91f"/></g></g><g><circle cx="186" cy="103" fill="#fedf30" r="11"/></g><g><circle cx="103" cy="115" fill="#fdb4ba" r="11"/></g><g><circle cx="189" cy="260" fill="#fdb4ba" r="11"/></g><g><circle cx="199" cy="165" fill="#f2fbff" r="11"/></g><g><circle cx="98" cy="235" fill="#f2fbff" r="11"/></g><g><circle cx="47" cy="176" fill="#fedf30" r="11"/></g></g></svg>