<svg id="Capa_1" enable-background="new 0 0 512 512" height="512" viewBox="0 0 512 512" width="512" xmlns="http://www.w3.org/2000/svg"><path d="m301.816 422.503-130.758-123.189c-7.764-7.311-19.883-7.311-27.647 0l-132.256 124.591v44.495h290.661z" fill="#fca863"/><path d="m301.816 422.503-130.758-123.189c-7.764-7.311-19.883-7.311-27.647 0l-14.573 13.725c7.38-3.695 16.543-2.581 22.839 3.36l8.283 7.803c6.993 6.587 6.993 17.703 0 24.291l-47.708 44.944c-6.37 6.001-14.974 9.015-23.7 8.35-16.934-1.291-33.995-2.158-51.169-2.593l-26.228 24.711v44.495h290.661z" fill="#fc9744"/><path d="m384.783 412.464c-4.615 16.843-16.895 34.676-35.943 55.939h-243.071v-44.493l19.759-18.605 128-120.593 19.697-18.554c22.005 19.573 45.658 40.527 68.693 60.76 37.498 32.976 50.499 57.906 42.865 85.546z" fill="#fcc16d"/><path d="m384.783 412.464c-4.615 16.843-16.895 34.676-35.943 55.939h-243.071v-44.493l19.759-18.605c50.283 5.728 99.299 15.308 146.585 28.649.69.196 1.38.371 2.071.577 20.768-6.603 44.318-12.949 70.475-18.337 9.21-1.906 15.937-10.127 15.576-19.522 0-.051-.01-.103-.01-.154-.556-12.445-10.879-27.094-32.461-46.07-21.891-19.223-74.235-65.736-74.235-65.736l19.697-18.554c22.005 19.573 45.658 40.527 68.693 60.76 37.497 32.976 50.498 57.906 42.864 85.546z" fill="#fca62f"/><path d="m500.845 423.905v44.495h-164.77c21.657-22.79 35.441-40.988 40.111-57.994 6.533-23.677-4.601-45.038-36.722-73.276-24.77-21.765-50.388-44.496-72.971-64.625l22.997-21.667c7.764-7.311 19.873-7.311 27.638 0l159.342 150.1z" fill="#fddaa9"/><path d="m317.128 250.838c-7.764-7.311-19.873-7.311-27.638 0l-22.997 21.667c.177.158 20.965-17.185 33.559-4.591l127.529 120.136c5.95 5.605 2.531 15.596-5.603 16.405-15.931 1.585-31.203 3.602-45.792 5.952-4.67 17.006-18.454 35.204-40.111 57.994h164.771v-44.496z" fill="#fcc16d"/><path d="m501.575 421.174c-101.506 1.269-182.639 20.89-239.06 40.608 33.853 7.081 66.787 17.869 100.591 25.18 11.549 2.498 23.129 4.705 34.654 7.219h114.24v-62.7c0-5.736-4.69-10.379-10.425-10.307z" fill="#fca863"/><path d="m311.279 446.788c-17.869 4.78-34.138 9.884-48.761 14.994 33.852 7.081 66.785 17.868 100.589 25.179 11.554 2.499 23.138 4.707 34.667 7.222h114.223v-19.275c-67.698-2.823-135.042-12.268-200.718-28.12z" fill="#fc9744"/><path d="m512 494.181c-82.587-3.39-164.547-16.39-244.193-38.866-67.604-19.078-154.33-34.944-257.403-35.952-5.727-.056-10.404 4.579-10.404 10.307v54.209c0 5.69 4.612 10.302 10.302 10.302z" fill="#fddaa9"/><circle cx="166.678" cy="136.356" fill="#fcb44d" r="56.825"/><path d="m223.504 136.355c0 31.383-25.439 56.822-56.822 56.822-3.327 0-6.579-.284-9.748-.836 26.735-4.623 47.066-27.93 47.066-55.986s-20.331-51.363-47.066-55.986c3.168-.552 6.421-.836 9.748-.836 31.383 0 56.822 25.439 56.822 56.822z" fill="#fb9927"/><g fill="#fddaa9"><path d="m166.678 61.53c-4.268 0-7.726-3.459-7.726-7.726v-28.262c0-4.267 3.459-7.726 7.726-7.726s7.726 3.459 7.726 7.726v28.262c0 4.267-3.458 7.726-7.726 7.726z"/><path d="m166.678 254.895c-4.268 0-7.726-3.459-7.726-7.726v-28.262c0-4.267 3.459-7.726 7.726-7.726s7.726 3.459 7.726 7.726v28.262c0 4.267-3.458 7.726-7.726 7.726z"/><path d="m225.051 85.709c-1.977 0-3.955-.755-5.464-2.263-3.017-3.017-3.017-7.909 0-10.927l19.984-19.984c3.018-3.017 7.909-3.017 10.928 0 3.017 3.017 3.017 7.909 0 10.927l-19.984 19.984c-1.509 1.509-3.487 2.263-5.464 2.263z"/><path d="m88.322 222.439c-1.977 0-3.955-.755-5.464-2.263-3.017-3.017-3.017-7.909 0-10.927l19.984-19.984c3.018-3.017 7.909-3.017 10.928 0 3.017 3.017 3.017 7.909 0 10.927l-19.984 19.984c-1.509 1.509-3.487 2.263-5.464 2.263z"/><path d="m277.492 144.082h-28.262c-4.268 0-7.726-3.459-7.726-7.726s3.459-7.726 7.726-7.726h28.262c4.268 0 7.726 3.459 7.726 7.726s-3.458 7.726-7.726 7.726z"/><path d="m84.127 144.082h-28.262c-4.268 0-7.726-3.459-7.726-7.726s3.459-7.726 7.726-7.726h28.262c4.268 0 7.726 3.459 7.726 7.726s-3.459 7.726-7.726 7.726z"/><path d="m245.035 222.439c-1.977 0-3.955-.755-5.464-2.263l-19.984-19.984c-3.017-3.017-3.017-7.909 0-10.927 3.018-3.017 7.909-3.017 10.928 0l19.984 19.984c3.017 3.017 3.017 7.909 0 10.927-1.509 1.509-3.487 2.263-5.464 2.263z"/><path d="m108.306 85.709c-1.977 0-3.955-.755-5.464-2.263l-19.984-19.984c-3.017-3.017-3.017-7.909 0-10.927 3.018-3.017 7.909-3.017 10.928 0l19.984 19.985c3.017 3.017 3.017 7.909 0 10.927-1.509 1.508-3.487 2.262-5.464 2.262z"/></g><path d="m90.345 175.682c-3.015 0-5.866-1.769-7.097-4.732l-.033-.08c-1.636-3.941.232-8.462 4.174-10.098 3.94-1.64 8.462.233 10.098 4.174s-.216 8.503-4.157 10.138c-.978.405-1.991.598-2.985.598z" fill="#fcb44d"/><path d="m242.88 112.5c-3.015 0-5.866-1.769-7.097-4.732l-.033-.08c-1.636-3.941.232-8.462 4.174-10.098 3.94-1.638 8.462.232 10.098 4.174 1.636 3.941-.216 8.503-4.157 10.138-.978.405-1.991.598-2.985.598z" fill="#fcb44d"/><path d="m242.874 175.67c-.98 0-1.974-.189-2.934-.587-3.941-1.636-5.826-6.117-4.19-10.058l.033-.08c1.635-3.941 6.156-5.811 10.098-4.174 3.942 1.636 5.81 6.157 4.174 10.098-1.237 2.982-4.136 4.801-7.181 4.801z" fill="#fcb44d"/><path d="m90.339 112.488c-.98 0-1.974-.189-2.934-.587-3.941-1.636-5.826-6.117-4.19-10.058l.033-.08c1.635-3.941 6.155-5.811 10.098-4.174 3.942 1.636 5.81 6.157 4.174 10.098-1.237 2.982-4.137 4.801-7.181 4.801z" fill="#fcb44d"/><path d="m135.068 67.802c-3.03 0-5.917-1.776-7.154-4.736-1.645-3.937.174-8.446 4.112-10.091l.079-.033c3.935-1.644 8.462.212 10.108 4.151 1.644 3.937-.214 8.462-4.152 10.107-.976.409-1.993.602-2.993.602z" fill="#fcb44d"/><path d="m198.252 220.338c-3.043 0-5.94-1.791-7.168-4.768-1.627-3.945.211-8.445 4.156-10.072l.08-.033c3.948-1.628 8.462.252 10.09 4.196 1.627 3.945-.252 8.462-4.196 10.089-.969.399-1.974.588-2.962.588z" fill="#fcb44d"/><path d="m135.08 220.369c-.993 0-2.002-.193-2.975-.599-3.938-1.645-5.836-6.187-4.191-10.124 1.644-3.937 6.13-5.814 10.067-4.168l.079.033c3.938 1.645 5.796 6.17 4.152 10.107-1.237 2.965-4.108 4.751-7.132 4.751z" fill="#fcb44d"/><path d="m198.264 67.833c-.982 0-1.98-.188-2.944-.586-3.945-1.627-5.863-6.16-4.236-10.105s6.099-5.843 10.049-4.213l.08.033c3.945 1.627 5.823 6.144 4.196 10.089-1.23 2.981-4.109 4.782-7.145 4.782z" fill="#fcb44d"/><path d="m235.152 365.952c-.013 0-.024 0-.037 0h-.108c-4.267-.02-7.71-3.495-7.69-7.763.02-4.255 3.476-7.69 7.725-7.69h.037l.108.001c4.267.02 7.71 3.495 7.69 7.763-.02 4.254-3.476 7.689-7.725 7.689z" fill="#fca62f"/><path d="m259.322 336.588h-.108c-4.268 0-7.726-3.459-7.726-7.726s3.459-7.726 7.726-7.726h.108c4.268 0 7.726 3.459 7.726 7.726s-3.458 7.726-7.726 7.726z" fill="#fca62f"/><path d="m337.712 407.588c-.013 0-.025 0-.037 0h-.107c-4.268-.02-7.71-3.495-7.69-7.763.02-4.255 3.476-7.69 7.725-7.69h.037.107c4.268.02 7.71 3.495 7.69 7.763-.019 4.254-3.475 7.69-7.725 7.69z" fill="#fca62f"/></svg>