<svg id="flat" viewBox="0 0 960 960" xmlns="http://www.w3.org/2000/svg"><path d="m533.642 775.019c-33.696-68.679-69.98-72.663-109.19-3.482-1.934 35.085-4.981 70.112-9.131 105.042 47.35 1.526 128.241-.254 129.3-1.35.713-.733-5.932-51.185-10.978-100.209z" fill="#815522"/><path d="m374.644 331.98c-14.293 38.356-105.647 284.288-131.98 365.571-5.392 16.645-10.217 34.53-4.515 51.09s26.066 30.154 43.919 23.853c13.235-4.671 19.979-17.698 25.456-29.562 6.589 16.349 22.628 30.502 41.811 31.664 19.182 1.162 37.455-7.172 43.913-31.603 25.552 52.425 83.508 25.706 91.921 2.359 3.378 17.909 23.339 31.912 43.341 30.404 20.002-1.509 37.128-18.309 37.184-36.478 3.546 17.063 17.119 33.361 35.939 36.707s42.64-10.707 41.021-28.007c9.95 21.85 29.286 35.491 52.894 27.401 16.258-5.571 27.559-19.926 28.726-35.627s-5.125-31.003-11.768-45.545c-18.189-39.819-55.199-136.988-75.377-194.22-9.912-28.113-120.469-349.499-164.76-417.157-40.113 96.971-75.531 189.585-97.728 249.15z" fill="#689d3c"/><g fill="#416125"><path d="m471.379 235.617c-.082 0-.164-.002-.247-.007-2.205-.134-3.884-2.03-3.75-4.235 1.194-19.624 1.879-39.542 2.038-59.201.018-2.198 1.805-3.968 4-3.968h.033c2.209.018 3.985 1.823 3.968 4.032-.16 19.799-.851 39.859-2.053 59.622-.129 2.123-1.891 3.757-3.989 3.757z"/><path d="m435.498 328.478c-.283 0-.57-.03-.858-.093-2.158-.472-3.525-2.604-3.053-4.762 3.25-14.868 5.377-30.111 6.322-45.304.137-2.205 2.034-3.891 4.24-3.744 2.205.137 3.881 2.036 3.744 4.24-.97 15.6-3.153 31.25-6.491 46.517-.409 1.87-2.065 3.146-3.904 3.146z"/><path d="m521.367 332.688c-1.516 0-2.965-.866-3.639-2.334-2.375-5.182-3.825-13.157-5.66-23.253-1.104-6.073-2.355-12.956-3.993-20.154-.49-2.154.858-4.298 3.013-4.788s4.297.858 4.788 3.013c1.677 7.369 2.945 14.345 4.063 20.499 1.666 9.166 3.105 17.082 5.062 21.35.92 2.008.039 4.382-1.969 5.303-.54.248-1.107.365-1.665.365z"/><path d="m468.659 405.12c-.246 0-.496-.022-.746-.07-2.171-.41-3.599-2.501-3.189-4.672 2.819-14.937 4.793-30.198 5.867-45.36.156-2.204 2.057-3.872 4.273-3.707 2.204.156 3.863 2.069 3.708 4.272-1.097 15.469-3.111 31.039-5.986 46.278-.362 1.92-2.041 3.259-3.926 3.259z"/><path d="m420.086 463.217c-.078 0-.157-.002-.236-.007-2.206-.128-3.89-2.02-3.761-4.225 1.043-17.952 1.503-36.176 1.369-54.167-.017-2.209 1.761-4.013 3.97-4.03 2.225-.051 4.013 1.761 4.03 3.97.136 18.165-.329 36.565-1.382 54.69-.124 2.126-1.887 3.768-3.989 3.768z"/><path d="m535.188 463.226c-2.072 0-3.826-1.598-3.984-3.699-1.28-16.946-1.67-34.154-1.161-51.146.066-2.208 1.919-3.945 4.118-3.878 2.208.066 3.944 1.91 3.878 4.118-.501 16.711-.117 33.636 1.142 50.303.167 2.203-1.485 4.124-3.688 4.29-.103.008-.205.011-.306.011z"/><path d="m473.343 512.709c-2.171 0-3.953-1.737-3.998-3.917-.26-12.625.609-25.349 2.583-37.819.346-2.182 2.395-3.669 4.576-3.325 2.182.345 3.671 2.394 3.325 4.576-1.9 12.003-2.737 24.25-2.486 36.403.045 2.209-1.708 4.036-3.917 4.082-.028 0-.056 0-.084 0z"/><path d="m381.795 562.191c-.124 0-.248-.006-.373-.018-2.2-.203-3.818-2.151-3.615-4.351l5.143-55.654c.203-2.2 2.149-3.818 4.351-3.615 2.2.203 3.818 2.151 3.615 4.351l-5.143 55.654c-.191 2.074-1.936 3.632-3.978 3.632z"/><path d="m571.509 550.926c-1.665 0-3.219-1.047-3.786-2.711-4.895-14.372-7.224-29.356-6.92-44.536.044-2.208 1.875-3.958 4.079-3.919 2.209.044 3.964 1.87 3.919 4.079-.284 14.247 1.901 28.31 6.496 41.798.712 2.091-.406 4.364-2.497 5.076-.427.146-.862.214-1.29.214z"/><path d="m506.778 603.02c-2.131 0-3.902-1.681-3.994-3.831-.682-16.071.593-32.212 3.788-47.975.439-2.166 2.551-3.565 4.715-3.126 2.166.439 3.565 2.55 3.126 4.715-3.067 15.13-4.29 30.622-3.635 46.047.093 2.207-1.62 4.072-3.827 4.166-.058.002-.115.003-.172.003z"/><path d="m431.468 626.533c-.061 0-.122-.001-.183-.004-2.207-.1-3.915-1.969-3.816-4.176.732-16.227 2.31-32.606 4.691-48.683.324-2.185 2.358-3.692 4.543-3.371 2.186.324 3.694 2.358 3.371 4.543-2.341 15.809-3.894 31.915-4.613 47.872-.097 2.146-1.867 3.82-3.993 3.82z"/><path d="m338.278 672.686c-.483 0-.975-.088-1.452-.274-2.059-.803-3.076-3.122-2.273-5.18 5.647-14.48 9.286-29.665 10.815-45.13.217-2.198 2.177-3.807 4.374-3.587 2.198.217 3.804 2.176 3.587 4.374-1.601 16.192-5.41 32.089-11.323 47.25-.616 1.581-2.127 2.548-3.728 2.548z"/><path d="m465.575 673.598c-1.931 0-3.63-1.401-3.945-3.368-1.605-10.023-.955-20.473 1.881-30.219.617-2.121 2.836-3.338 4.958-2.723 2.121.617 3.34 2.837 2.723 4.958-2.508 8.617-3.083 17.855-1.663 26.718.349 2.182-1.136 4.233-3.317 4.583-.214.034-.427.051-.638.051z"/><path d="m570 662.388c-1.996 0-3.722-1.491-3.966-3.521-1.686-13.977-4.593-27.899-8.641-41.378-.635-2.116.565-4.346 2.681-4.981 2.114-.637 4.345.565 4.981 2.681 4.179 13.917 7.181 28.291 8.921 42.721.265 2.193-1.299 4.186-3.492 4.45-.163.02-.324.029-.484.029z"/><path d="m636.567 667.4c-1.574 0-3.066-.935-3.701-2.48-5.211-12.679-8.164-26.051-8.774-39.745-.098-2.207 1.611-4.076 3.818-4.174 2.206-.098 4.076 1.611 4.174 3.818.569 12.769 3.322 25.237 8.182 37.059.84 2.043-.136 4.381-2.179 5.221-.498.205-1.013.301-1.52.301z"/><path d="m402.897 719.312c-.027 0-.053 0-.08 0-2.209-.043-3.964-1.869-3.92-4.078.239-12.153-.598-24.403-2.49-36.409-.344-2.182 1.146-4.23 3.329-4.574 2.182-.343 4.229 1.146 4.574 3.329 1.964 12.469 2.834 25.19 2.585 37.812-.043 2.182-1.825 3.921-3.998 3.921z"/><path d="m538.766 720.592c-1.8 0-3.434-1.223-3.882-3.048l-8.682-35.392c-.072-.293-.389-.917-.828-1.782l7.131-3.626-3.567 1.811 3.569-1.806c.681 1.342 1.173 2.311 1.464 3.498l8.682 35.393c.526 2.146-.787 4.312-2.932 4.837-.32.079-.641.116-.956.116z"/><path d="m608.66 714.229c-1.707 0-3.287-1.101-3.819-2.816-3.302-10.648-5.628-21.663-6.912-32.739-.254-2.194 1.318-4.179 3.513-4.434 2.194-.249 4.18 1.319 4.434 3.513 1.227 10.586 3.45 21.114 6.605 31.29.655 2.11-.525 4.351-2.635 5.005-.395.123-.794.181-1.187.181z"/><path d="m292.977 723.617c-.693 0-1.395-.18-2.034-.559-1.901-1.125-2.529-3.579-1.404-5.48 6.187-10.45 10.163-22.354 11.497-34.425.243-2.196 2.221-3.783 4.415-3.536 2.196.243 3.779 2.219 3.536 4.415-1.458 13.192-5.803 26.201-12.564 37.622-.747 1.261-2.079 1.962-3.446 1.962z"/></g></svg>