<svg xmlns="http://www.w3.org/2000/svg" version="1.1" xmlns:xlink="http://www.w3.org/1999/xlink" width="512" height="512" x="0" y="0" viewBox="0 0 64 64" style="enable-background:new 0 0 512 512" xml:space="preserve" class=""><g><g data-name="Layer 2"><path fill="#c67a60" d="m39 63-5-2-2 2-2-2-5 2 3-4 2-28h4l2 28z" opacity="1" data-original="#c67a60" class=""></path><path fill="#b26049" d="M34.005 51.99a7.445 7.445 0 0 0 1.523.4L34.929 44h-5.858l-.6 8.386A7.445 7.445 0 0 0 30 51.99L32 56z" opacity="1" data-original="#b26049" class=""></path><path fill="#b26049" d="M31.042 58.413 33 31h-3l-2 28-3 4 4.286-1.714 1.361-1.815a2.005 2.005 0 0 0 .395-1.058z" opacity="1" data-original="#b26049" class=""></path><path fill="#105001" d="M48 48a26.244 26.244 0 0 1-12-7h-8a26.231 26.231 0 0 1-12 7s9.672 2.727 14 .99L32 53l2.005-4.01C38.328 50.727 48 48 48 48z" opacity="1" data-original="#629955" class=""></path><path fill="#18450b" d="M26.648 45.986 32 49l5.352-3.014a30.193 30.193 0 0 0 4.662-.421A23.863 23.863 0 0 1 36 41h-8a24.45 24.45 0 0 1-6.006 4.566 30.214 30.214 0 0 0 4.654.42z" opacity="1" data-original="#508c3f" class=""></path><path fill="#1e6e0f" d="m24 34 8 6 8-6z" opacity="1" data-original="#85b27c" class=""></path><path fill="#1e6e0f" d="M37.352 43.986A29.992 29.992 0 0 0 55 38c-5.118-.234-10.009-.977-13-6H22c-3.577 4.259-8.113 5.652-13 6a29.992 29.992 0 0 0 17.648 5.986L32 47z" opacity="1" data-original="#85b27c" class=""></path><path fill="#1d7f06" d="M42 32H22a15.873 15.873 0 0 1-4.054 3.472 21.528 21.528 0 0 0 7.519 2.364 4.143 4.143 0 0 1 2.016.775L32 42l4.513-3.385a4.193 4.193 0 0 1 2.03-.781 21.52 21.52 0 0 0 7.006-2.116A10.936 10.936 0 0 1 42 32z" opacity="1" data-original="#699b5d" class=""></path><path fill="#105001" d="M37.417 35.937A22.271 22.271 0 0 0 51 30c-5.065-.482-8.9-2.223-10.739-6H23.739C21.9 27.777 18.065 29.518 13 30a22.271 22.271 0 0 0 13.583 5.937L32 40z" opacity="1" data-original="#629955" class=""></path><path fill="#18450b" d="M40.261 24H23.739a9.242 9.242 0 0 1-3.623 3.9 14.943 14.943 0 0 0 6.658 2.923 3.911 3.911 0 0 1 2.157 1.108L32 35l3.069-3.069a3.911 3.911 0 0 1 2.157-1.108 14.943 14.943 0 0 0 6.658-2.923 9.242 9.242 0 0 1-3.623-3.9z" opacity="1" data-original="#508c3f" class=""></path><path fill="#1e6e0f" d="M47 22a18.127 18.127 0 0 1-11-6h-8c-2.017 3.672-5.873 5.48-11 6 3.176 3.652 7 5.706 10.951 5.951L32 32l4.049-4.049C40 27.706 43.824 25.652 47 22z" opacity="1" data-original="#85b27c" class=""></path><path fill="#1d7f06" d="M36 16h-8a10.394 10.394 0 0 1-4.914 4.444 10.476 10.476 0 0 0 4.814 2.413 3.9 3.9 0 0 1 2.489 1.72L32 27l1.733-2.6a3.781 3.781 0 0 1 2.457-1.561 10.79 10.79 0 0 0 5.072-2.711A18.789 18.789 0 0 1 36 16z" opacity="1" data-original="#699b5d" class=""></path><path fill="#105001" d="M44 14q-4.608-1-6.783-6H26.783Q24.608 13 20 14c2.693 3.871 5.965 5.97 9.33 6L32 24l2.67-4c3.365-.03 6.637-2.129 9.33-6z" opacity="1" data-original="#629955" class=""></path><path fill="#18450b" d="M24.679 11.318a16.839 16.839 0 0 0 14.642 0 10.1 10.1 0 0 1-.7-.857A12.043 12.043 0 0 1 35 8h-6a12.043 12.043 0 0 1-3.621 2.461 10.1 10.1 0 0 1-.7.857z" opacity="1" data-original="#508c3f" class=""></path><path fill="#1e6e0f" d="M32 1a12.019 12.019 0 0 1-8 8 17 17 0 0 0 16 0 12.019 12.019 0 0 1-8-8z" opacity="1" data-original="#85b27c" class=""></path><path fill="#ffffff" d="M33.183 8a1 1 0 0 1-.737-.324 14.317 14.317 0 0 1-1.271-1.6 1 1 0 0 1 1.65-1.129 12.656 12.656 0 0 0 1.094 1.38A1 1 0 0 1 33.183 8z" opacity="1" data-original="#ffffff" class=""></path><path fill="#1d7f06" d="M27.5 7.235A13.272 13.272 0 0 1 24 9a17 17 0 0 0 16 0c-.41-.137-.8-.3-1.178-.461A16.808 16.808 0 0 1 27.5 7.235z" opacity="1" data-original="#699b5d" class=""></path></g></g></svg>