<svg id="flat" height="512" viewBox="0 0 500 500" width="512" xmlns="http://www.w3.org/2000/svg"><path d="m235.589 482.009c-.679-15.714-.857-31.419-1.4-47.112 0 0 2.587-2.374 15.779-1.073 8.274 12.355 11.964 54.051-14.379 48.185z" fill="#e57e80"/><path d="m236.116 492.338 20.157-.64c.293-4.5 17.108-53.823-6.372-57.88q.069 12.417.14 24.836c.493 12.439-2.641 18.633-14.444 23.355.149 3.443.313 6.891.519 10.329z" fill="#bc5b65"/><path d="m267.606 403.015h-35.269c.962 10.621 1.488 21.249 1.853 31.882 6.2 2.926 12.985 4.351 19.061 7.561a7.345 7.345 0 0 1 3.88 6.664l-.858 42.576 7.663-.243c1.779-29.734.975-58.669 3.67-88.44z" fill="#4f424c"/><path d="m296.074 30.385a197.463 197.463 0 0 0 -31.5-20.628c-5.632-2.941-15.208-2.679-20.924.119-25.736 12.6-44.3 30.076-62.448 51-2.719 3.135-5.461 6.668-5.451 10.69s4.271 8.159 8.352 6.786c-2.733 10.409-11.633 21.545-23.762 33.062-7.226 11.655-13.839 23.675-20.421 35.65-3.362 6.117-6.824 12.831-5.384 19.565s10.434 12.233 16.448 8.222c-.872 13.628-8.8 27.229-21.108 40.813l-17 32.864c-4.6 8.892-9.318 18.422-7.949 28.2s10.113 19.792 20.327 17.018l21.864 34.175c5.149 103.54 223.912 105.951 216.191-20.5l.084-22.139s38.595-41.267-2.409-88.724c0 0 3.7-66.028-48.229-115.549l-2.312-32.892z" fill="#8fad96"/><path d="m231.6 81.615c1.892-2.164.126-6.506-3.087-5.3-6.372 2.386-12.542 5.286-19 7.439-6.55 2.346-17.176 5.546-13.613-5.899.926-2.444-2.3-4.729-4.391-3.375a61.04 61.04 0 0 1 -7.409 3.874c-9.909 10.563-16.734 21.73-23.76 33.063a138.867 138.867 0 0 1 22.072-9.258c3.318-1.06 4.038-.388 6.864 1.314 11.104 6.766 35.398-13.347 42.324-21.858z" fill="#4f424c"/><path d="m219.484 158.483a228.606 228.606 0 0 1 -20.354 12.786c-30.737 18.744-17.72-8.441-33.633-3.782-5.328 1.752-14.512 7.366-14.512 7.366l-21.108 40.813c9.7-7.764 20.357-14.7 31.864-19.5 6.346-2.984 10.475-.821 16.161 2.146 9.355 3.858 16.385-3.09 22.663-9.217a152.254 152.254 0 0 0 22.426-27.1c1.309-2.079-1.391-5.041-3.507-3.512z" fill="#4f424c"/><path d="m360.987 196.556s3.7-66.028-48.229-115.549l-2.312-32.892-14.372-17.73c-5.032-4-10.235-7.778-15.687-11.34 21.829 29.776 9.8 57.829-18.643 51.167 0 0-2.9 26.115 30.465 34.416 34.15 8.5 49.625 47.013 30.2 64.223-4.776 5.213-11.159 8.832-16.954 2.674l-8.47-.391c-2.4 29.459 13.04 39.013 24.447 42.077 16.367 3.388 27.833 27.629 26.9 38.7a9.537 9.537 0 0 1 -10.653 9.463 10.559 10.559 0 0 0 -5.418.607c-4.139 1.659-6.57 5.625-8.361 9.58-2.536 7.533-5.041 11.172-13.3 7.247-2.609-1.14-5.5.728-4.833 3.716a54.252 54.252 0 0 0 4.935 13.581 115.5 115.5 0 0 1 -25.314.856l-29.585-27.4s-2.45 22.605 8.291 39a10.932 10.932 0 0 1 1.335 9.532c-12.74 33.81-62.859 17.8-54.235-17.18a50.382 50.382 0 0 0 1.892-13.249s-36.732 10.557-51.007 12.521a39.645 39.645 0 0 0 -24.469 12.874l9.5 14.853s-1.875 75.092 110.6 75.092c.259-.087.509-.179.767-.266-.165.086-.325.178-.491.262 122.072-4.16 103.226-97.866 105.4-117.731.014.011 38.605-41.256-2.399-88.713z" fill="#617a68"/><path d="m395.242 251c-.734-25.5-21.1-45.208-28.45-68.7 3.349 1.091 17.4.323 10.321-16.48-2.979-7.072-5.006-14.474-8.745-21.194a264.188 264.188 0 0 0 -27.111-39.7c-8.192-9.922-17.2-19.38-23.267-30.655 3.885 1.864 9.359-1.783 10.273-5.747s-.966-8-3.113-11.531a312.88 312.88 0 0 0 -31.022-28.122c4.383 7.128 10.84 14.079 13 22.193 2.67 10.6-3.528 11.3-8.551 10.329a4.658 4.658 0 0 0 -5.444 3.855c-.649 4.116-3.445 8.693-13.145 6.88a45.853 45.853 0 0 1 -14.277-5.575 2.826 2.826 0 0 0 -3.962 3.661c1.959 4.111 4.453 8.57 6.956 10.936 5.131 4.85 13.834 11.166 20.9 8.584 14.407-5.267 18.908-.611 24.779 5.1 56.547 55.012 36.546 89.306 23.027 81.6-3.672-2.142-8.114-.706-10.809 2.364a8.948 8.948 0 0 1 -10.725 1.112 44.286 44.286 0 0 1 -13.785-13.469c-1.7-2.551-6.877-.467-5.675 3.059 3.668 10.757 11.232 25.462 23.233 27.658 4.458.815 9.013-1.084 12.348-3.084 3.593-2.156 14.912-3.059 18.22-.488 13.083 10.169 40.378 52.255 14.6 77.614-8.89 8.746-18.229 5.1-23.136 2.66a6.449 6.449 0 0 0 -8.744 3.066c-2.039 4.462-5.026 9.422-8.515 10.336-6.375 1.672-16.987-12.78-16.987-12.78-1.485-1.712-4.719-1.258-5.235.674-3.236 12.106-19.168 31.4-40.806-8.835-1.594-2.965-6.531.168-5.576 3.246 5.454 21.715 27.09 55.287 48.87 33.106a5.037 5.037 0 0 1 7.733.5c3.425 4.764 18.571 8.842 24.657 1.069 23.578-29.422 37.435 30.8 5.333 29.786a10.629 10.629 0 0 1 -2.635-.451 3.369 3.369 0 0 0 -4.113 4.113c4.233 11.427 10.115 22.621-1.285 32.315-4.521 3.846-12.516 5.568-14.868-1.809a3.39 3.39 0 0 0 -6.118-.8c-4.678 7.888-10.143 17.3-19.94 19.206-10.184 1.979-16.516-8.966-22.2-15.609-1.71-2-4.911-.768-5.6 1.478-1.615 5.268-3.5 10.921-7.5 14.908-8.844 8.66-27.83 5.243-30.75-7.569-.619-3.108-4.592-2.916-6.129-.8-6.98 8.859-27.908.6-29.579-9.674-.285-1.309-2.046-3.194-3.236-2.463-13.4-.147-24.733-8.25-30.177-20.9-4.055-9.42-5.192-33.959 10.391-33.162 4.944.253 8.944 3.1 13.875 1.757 17.149-4.678 26.195-17.8 30.546-26.9a3.338 3.338 0 0 0 -4.642-4.339c-8.242 4.523-21.2 10.18-31.467 8.022-4.1-.861-9.147-7.588-12.631-9.814-6.377-4.074-12.389-6.073-19.62-2.87-8.544 3.785-19.522 15.241-19.522 15.241-9.633 33.7 3.18 48.784 15.823 49.1 0 0-.2 52.834 44.788 48.769 0 0 11.683 31.613 38.668 14.339 17.93 24.3 49.421 10.068 55.084-2.614-.8 3.785 4.282 7.862 7.972 9.025 7.968 2.34 14.727-4.417 19.3-10.163 1.936 5.338 8.919 7.464 14.3 5.657s9.305-6.472 12.216-11.348c23.649 2.3 32.966-34.328 33.438-52.71 21.753-2.5 21.091-27.659 3.892-52.425 9.113-.412 15.448-10.756 11.147-18.893a21.008 21.008 0 0 0 13.402-21.645z" fill="#4f424c"/><g fill="#617a68"><path d="m147.565 228.391c-5.337.215-8.626 7.836-10.579 12.071-2.6 5.627-4.48 11.958-4.015 18.212a2.473 2.473 0 0 0 4.834.654c2-5.615 3.484-11.291 6.21-16.639 2.041-4 6.478-7.982 5.743-12.629a2.276 2.276 0 0 0 -2.193-1.669z"/><path d="m157.226 231.748c-3.037 3.481-6.047 8.038-5.735 12.807.375 2.45 3.617 2.751 5.152 1.36 1.445-1.311 1.949-3.426 2.914-5.095s1.98-3.325 2.937-5.007c1.856-3.262-2.583-6.865-5.268-4.065z"/><path d="m171.789 231.8c.6-.181-1.664.675-1.03.63a6.922 6.922 0 0 0 -2.57 4.357l.365-1.348c-1.89 2.992.623 6.263 3.636 3.849a9.821 9.821 0 0 0 2.611-3.936 3.216 3.216 0 0 0 .167-1.473c-.1-.351-.094-.431.03-.238.212-1.629-1.959-2.628-3.209-1.841z"/><path d="m208.753 57c4.224-2.332 7.055-7.518 10.379-10.966 3.595-3.73 7.782-6.874 11.281-10.667 1.707-1.85-.977-4.635-3.024-3.619-6.125 2.9-20.485 16.779-21.019 23.585a1.688 1.688 0 0 0 2.383 1.667z"/><path d="m230.67 51.163c3.136-.18 5.649-4.417 7.632-6.525 2.428-2.581 5.234-5.166 7.18-8.134 1.2-1.826-.7-4.367-2.791-3.341-3.439 1.687-6.438 4.59-9.033 7.364-2.221 2.374-5.985 5.406-5.441 8.936a2.169 2.169 0 0 0 2.453 1.7z"/><path d="m298.519 122.242c1.876 3.177 4.944 5.54 6.958 8.7s3.192 6.865 5.3 9.9a2.424 2.424 0 0 0 4.477-1.212c.432-7.423-6.968-18.543-14.072-20.85a2.38 2.38 0 0 0 -2.66 3.461z"/><path d="m286.013 121.2c-.331 2.192 1.2 3.428 2.355 5.084 1.282 1.509 1.824 3.5 3.195 4.912a2.674 2.674 0 0 0 4.5-1.865c.434-3.3-7.345-13.683-10.051-8.131z"/><path d="m274.09 122.991a2.328 2.328 0 0 0 .878 1.284 1.219 1.219 0 0 0 .535.312 2.308 2.308 0 0 0 1.579.122 2.439 2.439 0 1 0 -2.992-1.718z"/></g></svg>