<svg xmlns="http://www.w3.org/2000/svg" version="1.1" xmlns:xlink="http://www.w3.org/1999/xlink" width="512" height="512" x="0" y="0" viewBox="0 0 64 64" style="enable-background:new 0 0 512 512" xml:space="preserve" class=""><g><path fill="#d8bb8d" d="M38.8 61.4c.49.66.02 1.6-.8 1.6H26c-.82 0-1.29-.94-.8-1.6l1.64-2.19c.11-.14.17-.3.19-.47l1.72-13.11 2.8-1.41c.28-.14.62-.14.9 0l2.8 1.4v.01l1.72 13.11c.02.17.08.33.19.47z" opacity="1" data-original="#a67c52" class=""></path><path fill="#d4a16f" d="M38 63H26c-.82 0-1.29-.94-.8-1.6l.3-.4h8.25c.82 0 1.29-.94.8-1.6l-1.64-2.19a.922.922 0 0 1-.19-.47l-1.61-12.3.44-.22c.28-.14.62-.14.9 0l2.8 1.4v.01l1.72 13.11c.02.17.08.33.19.47l1.64 2.19c.49.66.02 1.6-.8 1.6z" opacity="1" data-original="#8c6239" class=""></path><path fill="#eefad9" d="m41.7 20.14-5.4-1.08a.687.687 0 0 0-.54.12l-3.35 2.51c-.24.19-.58.19-.82 0l-3.35-2.51a.687.687 0 0 0-.54-.12l-5.4 1.08-2.34.47c-.64.13-1.07-.63-.64-1.11L25 13l-3-1L32 1l10 11-3 1 5.68 6.5c.43.48 0 1.24-.64 1.11z" opacity="1" data-original="#80a53f" class=""></path><path fill="#bcd8d1" d="m44.04 20.61-2.34-.47-3.99-.8c.18-.23.2-.58-.03-.84L32 12l3-1-6.05-6.65L32 1l10 11-3 1 5.68 6.5c.43.48 0 1.24-.64 1.11z" opacity="1" data-original="#24725f" class=""></path><path fill="#eefad9" d="m31.55 44.22-2.8 1.41-2.35 1.17c-.25.13-.55.14-.82.03l-4.24-1.69a.965.965 0 0 0-.69-.02l-6.56 2.18c-.81.27-1.57-.54-1.24-1.33l6.09-14.53 2.44-.35c.38-.06.76.11.97.43l1.12 1.69c.3.44.89.57 1.35.3l3.64-2.18c.33-.2.75-.19 1.07.02l1.92 1.28a1 1 0 0 0 1.1 0l1.92-1.28c.32-.21.74-.22 1.07-.02l3.64 2.18c.46.27 1.05.14 1.35-.3l1.12-1.69a.98.98 0 0 1 .97-.43l2.44.35 6.09 14.53c.33.79-.43 1.6-1.24 1.33l-6.56-2.18a.965.965 0 0 0-.69.02l-4.24 1.69c-.27.11-.57.1-.82-.03l-2.35-1.17v-.01l-2.8-1.4c-.28-.14-.62-.14-.9 0z" opacity="1" data-original="#80a53f" class=""></path><path fill="#bcd8d1" d="m49.91 47.3-6.56-2.18a.965.965 0 0 0-.69.02l-4.24 1.69c-.27.11-.57.1-.82-.03l-2.35-1.17v-.01l-2.8-1.4c-.28-.14-.62-.14-.9 0l-2.8 1.41-2.35 1.17c-.25.13-.55.14-.82.03l-4.24-1.69a.965.965 0 0 0-.69-.02l-6.56 2.18c-.81.27-1.57-.54-1.24-1.33l2.11-5.04 5.44-1.81c.23-.08.47-.07.69.02l4.24 1.69c.27.11.57.1.82-.03l2.35-1.17 2.8-1.41c.28-.14.62-.14.9 0l2.8 1.4v.01l2.35 1.17c.25.13.55.14.82.03l4.24-1.69c.22-.09.46-.1.69-.02l6.02 2 2.03 4.85c.33.79-.43 1.6-1.24 1.33z" opacity="1" data-original="#24725f" class=""></path><path fill="#e1ebcd" d="M47.88 30.18a1 1 0 0 1-.99 1.52l-1.83-.26-2.44-.35a.98.98 0 0 0-.97.43l-1.12 1.69c-.3.44-.89.57-1.35.3l-3.64-2.18c-.33-.2-.75-.19-1.07.02l-1.92 1.28a1 1 0 0 1-1.1 0l-1.92-1.28c-.32-.21-.74-.22-1.07-.02l-3.64 2.18c-.46.27-1.05.14-1.35-.3l-1.12-1.69a.98.98 0 0 0-.97-.43l-2.44.35-1.83.26a1 1 0 0 1-.99-1.52l6.18-10.04 5.4-1.08c.19-.04.39.01.54.12l3.35 2.51c.24.19.58.19.82 0l3.35-2.51c.15-.11.35-.16.54-.12l5.4 1.08z" opacity="1" data-original="#74962c" class=""></path><path fill="#bcd8d1" d="m46.89 31.7-1.83-.26-2.44-.35a.98.98 0 0 0-.97.43l-1.12 1.69c-.3.44-.89.57-1.35.3l-3.64-2.18c-.33-.2-.75-.19-1.07.02l-1.92 1.28a1 1 0 0 1-1.1 0l-1.92-1.28c-.32-.21-.74-.22-1.07-.02l-3.64 2.18c-.46.27-1.05.14-1.35-.3l-1.12-1.69a.98.98 0 0 0-.97-.43l-2.44.35-1.83.26a1 1 0 0 1-.99-1.52l.16-.26.19.29c.3.44.89.57 1.35.3l3.64-2.18c.33-.2.75-.19 1.07.02l1.92 1.28a1 1 0 0 0 1.1 0l1.92-1.28c.32-.21.74-.22 1.07-.02l3.64 2.18c.46.27 1.05.14 1.35-.3l1.12-1.69a.98.98 0 0 1 .97-.43l2.44.35 1.83.26a1 1 0 0 0 .99-1.52l-4.97-8.08a.65.65 0 0 1 .39-.04l5.4 1.08 6.18 10.04a1 1 0 0 1-.99 1.52z" opacity="1" data-original="#24725f" class=""></path><g fill="#a9dc66"><path d="m25.579 15.421-.845.845a.43.43 0 0 0 .303.734h1.268a.43.43 0 0 0 .384-.622l-.423-.845a.429.429 0 0 0-.687-.112zM18.297 37.518l-.439 1.111a.43.43 0 0 0 .57.552l1.163-.504a.43.43 0 0 0 .105-.723l-.724-.607a.429.429 0 0 0-.675.171zM20.393 26.47l-.596 1.036a.43.43 0 0 0 .484.629l1.224-.329a.43.43 0 0 0 .21-.7l-.628-.706a.43.43 0 0 0-.694.07z" fill="#c2e09a" opacity="1" data-original="#a9dc66" class=""></path></g></g></svg>