<svg xmlns="http://www.w3.org/2000/svg" version="1.1" xmlns:xlink="http://www.w3.org/1999/xlink" width="512" height="512" x="0" y="0" viewBox="0 0 512.481 512.481" style="enable-background:new 0 0 512 512" xml:space="preserve" class=""><g><path fill="#a150aa" d="M144.29 265.244c-5.224-6.093-13.551-10.445-22.847-11.941-8.907-1.435-18.881-.502-29.646 2.768l-8.721-28.704c15.17-4.609 29.681-5.848 43.135-3.683 16.43 2.645 30.939 10.47 40.854 22.033z" opacity="1" data-original="#b56d3c" class=""></path><path fill="#b5b5b5" d="m27.236 185.795-20.472-21.93c11.589-10.819 24.072-18.324 37.102-22.305 15.916-4.864 32.388-4.229 46.382 1.785l-11.845 27.562c-7.374-3.168-16.768-3.408-25.771-.657-8.627 2.637-17.172 7.867-25.396 15.545z" opacity="1" data-original="#d19a75" class=""></path><path fill="#958f85" d="M177.184 506.13c-3.398-5.588-83.474-138.241-104.635-259.065-10.757-61.425-5.568-117.327 15.008-161.663 18.431-39.715 48.014-68.019 83.299-79.698 24.345-8.057 49.075-7.344 71.515 2.061 23.445 9.827 42.683 28.637 55.635 54.397l-26.803 13.477c-19.024-37.835-53.862-53.72-90.921-41.454-27.339 9.049-50.605 31.723-65.513 63.846-17.984 38.752-22.365 88.497-12.669 143.859 20.194 115.303 99.914 247.332 100.716 248.652z" opacity="1" data-original="#e7c994" class=""></path><path fill="#b5b5b5" d="M121.042 413.021c-41.737-20.655-92.5-3.505-113.157 38.233L0 467.189l35.958 17.796c12.006 5.942 24.757 8.755 37.326 8.755 31.123 0 61.116-17.256 75.831-46.988L157 430.817z" opacity="1" data-original="#d19a75" class=""></path><path fill="#a150aa" d="M366.486 458.629c-23.856-37.009-73.375-47.711-110.383-23.855l-14.132 9.108 20.554 31.886c15.252 23.662 40.989 36.568 67.246 36.568a79.392 79.392 0 0 0 43.14-12.715l14.128-9.108z" opacity="1" data-original="#b56d3c" class=""></path><path fill="#741faf" d="m427.585 221.37-68.252-20.842 23.28 67.161 44.943 52.661c22.352-51.851.029-98.98.029-98.98z" opacity="1" data-original="#98503d" class=""></path><path fill="#a150aa" d="M342.422 269.859s29.135 43.249 85.133 50.491l-68.222-119.822z" opacity="1" data-original="#b56d3c" class=""></path><path fill="#b5b5b5" d="M333.039 325.336c24.804-35.294 40.215-73.659 45.804-114.027l-39.323-69.83-69.122 22.095 43.955 188.35z" opacity="1" data-original="#d19a75" class=""></path><path fill="#b5b5b5" d="m480.081 241.615 32.4-2.499-139.538-133.928-62.279 9.86 11.693 56.916 54.242 58.889c28.165 8.812 62.588 13.916 103.482 10.762z" opacity="1" data-original="#d19a75" class=""></path><path fill="#958f85" d="M270.399 163.573c.754 1.052 13.971 17.305 49.675 40.761 14.726 9.675 33.545 19.33 56.525 26.519l-65.935-115.805z" opacity="1" data-original="#e7c994" class=""></path><path fill="#a150aa" d="m372.943 105.188-13.854-24.332c-16.097-28.271-52.193-38.176-80.464-22.079l13.696 46.286 29.351 29.318z" opacity="1" data-original="#b56d3c" class=""></path><path fill="#b5b5b5" d="m321.671 134.381-43.046-75.604c-28.271 16.097-38.176 52.193-22.079 80.464l13.854 24.332z" opacity="1" data-original="#d19a75" class=""></path></g></svg>