<svg xmlns="http://www.w3.org/2000/svg" version="1.1" xmlns:xlink="http://www.w3.org/1999/xlink" width="512" height="512" x="0" y="0" viewBox="0 0 512 512" style="enable-background:new 0 0 512 512" xml:space="preserve" class=""><g><path fill="#f29c1f" d="M446.867 214.117h30.024v48.93h-30.024zm0 0" opacity="1" data-original="#bcdbfd" class=""></path><path fill="#f0c419" d="M512 313.559h-30.023v-35.5h-83.985v-30.024H512zm0 0" opacity="1" data-original="#e0f4fe" class=""></path><path fill="#ce9c68" d="M206.504 387.527c-66.566 0-133.133-11.18-196.488-33.53L0 350.46V37.066l10.016-3.535c126.707-44.707 266.27-44.707 392.972 0l10.02 3.535v313.395l-10.02 3.535c-63.351 22.356-129.918 33.531-196.484 33.531zm0 0" opacity="1" data-original="#a6643f" class=""></path><path fill="#c99259" d="M206.504 314.188c-66.566 0-133.133-6.946-196.488-20.836L0 291.152V96.372l10.016-2.196c126.707-27.785 266.27-27.785 392.972 0l10.02 2.195v194.781l-10.02 2.2c-63.351 13.89-129.918 20.836-196.484 20.836zm0 0" opacity="1" data-original="#86512f" class=""></path><path fill="#ce9c68" d="M206.504 236.188c-66.566 0-133.133-2.446-196.488-7.34L0 228.074v-68.62l10.016-.774c126.707-9.79 266.27-9.79 392.972 0l10.02.773v68.621l-10.02.774c-63.351 4.894-129.918 7.34-196.484 7.34zm0 0" opacity="1" data-original="#a6643f" class=""></path><path fill="#c99259" d="M402.988 33.531C339.793 11.234 273.402.06 207 .004v387.52c66.398-.055 132.793-11.231 195.988-33.528l10.02-3.535V37.066zm0 0" opacity="1" data-original="#86512f" class=""></path><path fill="#3e2810" d="M402.988 94.176C339.797 80.32 273.402 73.375 207 73.34v240.847c66.398-.035 132.793-6.98 195.988-20.835l10.02-2.2V96.372zm0 0" opacity="1" data-original="#6a4124" class=""></path><path fill="#c99259" d="M402.988 158.68c-63.191-4.883-129.586-7.328-195.988-7.344v84.851c66.398-.011 132.793-2.457 195.988-7.34l10.02-.773v-68.62zM58.637 365.64H88.66v42.462H58.637zm0 0" opacity="1" data-original="#86512f" class=""></path><path fill="#3e2810" d="M326.45 365.707h30.023v42.328h-30.024zm0 0" opacity="1" data-original="#6a4124" class=""></path><path fill="#f29c1f" d="M431.355 199.105h61.051v30.028h-61.05zm0 0" opacity="1" data-original="#bcdbfd" class=""></path><path fill="#f3d55b" d="M58.637 18.723v350.082a589.794 589.794 0 0 0 57.054 11.734V6.99a590.035 590.035 0 0 0-57.054 11.734zm0 0" opacity="1" data-original="#fed843" class=""></path><path fill="#f0c419" d="M299.922 7.39v372.747a589.621 589.621 0 0 0 57.055-12.016V19.406a588.452 588.452 0 0 0-57.055-12.015zm0 0" opacity="1" data-original="#edbe2b" class=""></path></g></svg>