<svg xmlns="http://www.w3.org/2000/svg" version="1.1" xmlns:xlink="http://www.w3.org/1999/xlink" width="512" height="512" x="0" y="0" viewBox="0 0 512 512" style="enable-background:new 0 0 512 512" xml:space="preserve" class=""><g><path d="M464.696 503.652a8.349 8.349 0 0 1-8.348 8.348H55.652a8.349 8.349 0 0 1 0-16.696h400.696a8.349 8.349 0 0 1 8.348 8.348z" style="" fill="#a0a0a0" data-original="#bfbfbf" class="" opacity="1"></path><path d="M411.826 111.304V512h-44.522l-15.866-134.867-50.916 45.824h-89.043l-50.916-45.824L144.696 512h-44.522V111.304c0-12.295 9.966-22.261 22.261-22.261h22.261v-22.26c0-12.295 9.966-22.261 22.261-22.261h178.087c12.295 0 22.261 9.966 22.261 22.261v22.261h22.261c12.294-.001 22.26 9.966 22.26 22.26z" style="" fill="#a0a0a0" data-original="#bfbfbf" class="" opacity="1"></path><path d="M200.348 322.783h-55.652V89.043h55.652v233.74z" style="" fill="#b4b4b4" data-original="#e2e2e2" class="" opacity="1"></path><path d="M367.304 66.783v22.261H144.696V66.783c0-12.295 9.966-22.261 22.261-22.261h66.783V22.261h44.522v22.261h66.783c12.293 0 22.259 9.966 22.259 22.261zm22.261 22.26h-22.261v233.739h-267.13l111.304 100.174h89.043l66.783-60.104 44.522-40.07V111.304c0-12.294-9.966-22.261-22.261-22.261z" style="" fill="#787878" data-original="#999999" class="" opacity="1"></path><path d="M311.652 44.522h33.391c12.295 0 22.261 9.966 22.261 22.261v22.261h-33.391V66.783c0-12.295-9.966-22.261-22.261-22.261zM278.261 11.13c0-6.147-4.983-11.13-11.13-11.13H244.87c-6.147 0-11.13 4.983-11.13 11.13v33.391h44.522V11.13zm111.304 311.653h-22.261L256 422.957h-44.522v22.261c0 6.147 4.983 11.13 11.13 11.13h66.783c6.147 0 11.13-4.983 11.13-11.13v-22.261l89.043-80.139V512h22.261V322.783h-22.26zM122.435 512h22.261l15.866-134.867-20.129-18.116L122.435 512z" style="" fill="#646464" data-original="#6d6d6d" class="" opacity="1"></path><path d="M300.522 422.957v22.261c0 6.147-4.983 11.13-11.13 11.13H244.87c6.147 0 11.13-4.983 11.13-11.13v-22.261h44.522zM278.261 11.13c0-6.147-4.983-11.13-11.13-11.13H256v44.522h22.261V11.13z" style="" fill="#868686" data-original="#444444" class="" opacity="1"></path></g></svg>