<svg id="Capa_1" enable-background="new 0 0 512 512" height="512" viewBox="0 0 512 512" width="512" xmlns="http://www.w3.org/2000/svg"><g><path d="m443.341 389.684c-34.871 12.401-59.841 45.69-59.841 84.816h-7.5l7.5 30c0-58.219 70.646-59.951 74.841-114.816z" fill="#61ce5a"/><path d="m443.341 389.684c-3.354 54.865-59.841 56.597-59.841 114.816 0-56.747 80.505-59.824 89.235-110.75.843-4.918-3.175-9.303-8.141-8.814-7.382.727-14.503 2.348-21.253 4.748z" fill="#2db94d"/><path d="m323.341 389.684c-34.871 12.401-59.841 45.69-59.841 84.816h-3.178c1.953 8.212 3.178 17.881 3.178 30 0-58.219 70.646-59.951 74.841-114.816z" fill="#61ce5a"/><path d="m323.341 389.684c-3.354 54.865-59.841 56.597-59.841 114.816 0-56.747 80.505-59.824 89.235-110.75.843-4.918-3.175-9.303-8.141-8.814-7.382.727-14.503 2.348-21.253 4.748z" fill="#2db94d"/><path d="m188.659 389.684h-15c4.195 54.865 74.841 56.597 74.841 114.816l7.5-30h-7.5c0-39.126-24.97-72.415-59.841-84.816z" fill="#94e368"/><path d="m188.659 389.684c3.354 54.865 59.841 56.597 59.841 114.816 0-56.747-80.505-59.824-89.235-110.75-.843-4.918 3.175-9.303 8.141-8.814 7.382.727 14.503 2.348 21.253 4.748z" fill="#61ce5a"/><path d="m68.659 389.684h-15c4.195 54.865 74.841 56.597 74.841 114.816l7.5-30h-7.5c0-39.126-24.97-72.415-59.841-84.816z" fill="#94e368"/><path d="m68.659 389.684c3.354 54.865 59.841 56.597 59.841 114.816 0-56.747-80.505-59.824-89.235-110.75-.843-4.918 3.175-9.303 8.141-8.814 7.382.727 14.503 2.348 21.253 4.748z" fill="#61ce5a"/><path d="m256 512c-4.142 0-7.5-3.358-7.5-7.5v-497c0-4.142 3.358-7.5 7.5-7.5 4.143 0 7.5 3.358 7.5 7.5v497c0 4.142-3.357 7.5-7.5 7.5z" fill="#2db94d"/><path d="m376 512c-4.143 0-7.5-3.358-7.5-7.5v-497c0-4.142 3.357-7.5 7.5-7.5s7.5 3.358 7.5 7.5v497c0 4.142-3.357 7.5-7.5 7.5z" fill="#2db94d"/><path d="m293.5 15c-4.143 0-7.5 3.358-7.5 7.5v76l15-15v-61c0-4.142-3.357-7.5-7.5-7.5z" fill="#61ce5a"/><path d="m218.5 15c-4.142 0-7.5 3.358-7.5 7.5v61l15 15v-76c0-4.142-3.358-7.5-7.5-7.5z" fill="#94e368"/><path d="m413.5 15c-4.143 0-7.5 3.358-7.5 7.5v76l15-15v-61c0-4.142-3.357-7.5-7.5-7.5z" fill="#61ce5a"/><path d="m338.5 15c-4.143 0-7.5 3.358-7.5 7.5v61l15 15v-76c0-4.142-3.357-7.5-7.5-7.5z" fill="#94e368"/><path d="m173.5 15c-4.142 0-7.5 3.358-7.5 7.5v76l15-15v-61c0-4.142-3.358-7.5-7.5-7.5z" fill="#61ce5a"/><path d="m98.5 15c-4.142 0-7.5 3.358-7.5 7.5v61l15 15v-76c0-4.142-3.358-7.5-7.5-7.5z" fill="#94e368"/><path d="m136 512c-4.142 0-7.5-3.358-7.5-7.5v-497c0-4.142 3.358-7.5 7.5-7.5s7.5 3.358 7.5 7.5v497c0 4.142-3.358 7.5-7.5 7.5z" fill="#2db94d"/><path d="m256 128.5-20 7.5 20 52.5 45-45v-60c-24.853 0-45 20.147-45 45z" fill="#94e368"/><path d="m211 83.5v60l45 45v-60c0-24.853-20.147-45-45-45z" fill="#cae58e"/><path d="m256 188.5-20 7.5 20 52.5 45-45v-60c-24.853 0-45 20.147-45 45z" fill="#61ce5a"/><path d="m211 143.5v60l45 45v-60c0-24.853-20.147-45-45-45z" fill="#94e368"/><path d="m256 248.5-20 7.5 20 67.5 45-60v-60c-24.853 0-45 20.147-45 45z" fill="#94e368"/><path d="m211 203.5v60l45 60v-75c0-24.853-20.147-45-45-45z" fill="#cae58e"/><path d="m256 323.5-30-15 30 45c24.853 0 45-20.147 45-45v-30z" fill="#2db94d"/><path d="m256 308.5h-30l30 15c24.853 0 45-20.147 45-45v-15c-24.853 0-45 20.147-45 45z" fill="#61ce5a"/><path d="m211 278.5v30c0 24.853 20.147 45 45 45v-30z" fill="#61ce5a"/><path d="m211 263.5v15c0 24.853 20.147 45 45 45v-15c0-24.853-20.147-45-45-45z" fill="#94e368"/><path d="m376 128.5-20 7.5 20 52.5 45-45v-60c-24.853 0-45 20.147-45 45z" fill="#94e368"/><path d="m331 83.5v60l45 45v-60c0-24.853-20.147-45-45-45z" fill="#cae58e"/><path d="m376 188.5-20 7.5 20 52.5 45-45v-60c-24.853 0-45 20.147-45 45z" fill="#61ce5a"/><path d="m331 143.5v60l45 45v-60c0-24.853-20.147-45-45-45z" fill="#94e368"/><path d="m376 248.5-20 7.5 20 67.5 45-60v-60c-24.853 0-45 20.147-45 45z" fill="#94e368"/><path d="m331 203.5v60l45 60v-75c0-24.853-20.147-45-45-45z" fill="#cae58e"/><path d="m376 323.5-30-15 30 45c24.853 0 45-20.147 45-45v-30z" fill="#2db94d"/><path d="m376 308.5h-30l30 15c24.853 0 45-20.147 45-45v-15c-24.853 0-45 20.147-45 45z" fill="#61ce5a"/><path d="m331 278.5v30c0 24.853 20.147 45 45 45v-30z" fill="#61ce5a"/><path d="m331 263.5v15c0 24.853 20.147 45 45 45v-15c0-24.853-20.147-45-45-45z" fill="#94e368"/><path d="m136 128.5-20 7.5 20 52.5 45-45v-60c-24.853 0-45 20.147-45 45z" fill="#94e368"/><path d="m91 83.5v60l45 45v-60c0-24.853-20.147-45-45-45z" fill="#cae58e"/><path d="m136 188.5-20 7.5 20 52.5 45-45v-60c-24.853 0-45 20.147-45 45z" fill="#61ce5a"/><path d="m91 143.5v60l45 45v-60c0-24.853-20.147-45-45-45z" fill="#94e368"/><path d="m136 248.5-20 7.5 20 67.5 45-60v-60c-24.853 0-45 20.147-45 45z" fill="#94e368"/><path d="m91 203.5v60l45 60v-75c0-24.853-20.147-45-45-45z" fill="#cae58e"/><path d="m136 323.5-30-15 30 45c24.853 0 45-20.147 45-45v-30z" fill="#2db94d"/><path d="m136 308.5h-30l30 15c24.853 0 45-20.147 45-45v-15c-24.853 0-45 20.147-45 45z" fill="#61ce5a"/><path d="m91 278.5v30c0 24.853 20.147 45 45 45v-30z" fill="#61ce5a"/><path d="m91 263.5v15c0 24.853 20.147 45 45 45v-15c0-24.853-20.147-45-45-45z" fill="#94e368"/></g></svg>