<svg id="Capa_1" enable-background="new 0 0 512 512" height="512" viewBox="0 0 512 512" width="512" xmlns="http://www.w3.org/2000/svg"><g><path d="m293.023 347.545c0 32.672 26.486 59.158 59.158 59.158s59.158-26.486 59.158-59.158c0-2.881-.217-5.71-.614-8.48 6.681 5.304 15.127 8.48 24.32 8.48 21.625 0 39.156-17.531 39.156-39.156 0-9.236-3.205-17.718-8.554-24.414 15.861-.54 28.556-13.56 28.556-29.553 0-8.792-3.84-16.684-9.93-22.102 16.652-10.468 27.727-28.99 27.727-50.11 0-32.672-26.486-59.158-59.158-59.158-3.04 0-6.025.231-8.941.673 3.668-7.699 5.726-16.314 5.726-25.41 0-32.672-26.486-59.158-59.158-59.158-13.044 0-25.095 4.231-34.875 11.383-2.604-19.1-18.97-33.821-38.785-33.821-9.872 0-18.884 3.661-25.772 9.69-5.291-15.365-19.862-26.409-37.023-26.409-21.625 0-39.156 17.531-39.156 39.156 0 1.337.068 2.658.199 3.96-10.16-8.22-23.089-13.151-37.175-13.151-32.672 0-59.158 26.486-59.158 59.158 0 .576.027 1.145.043 1.717-3.107-1.109-6.452-1.717-9.941-1.717-16.336 0-29.579 13.243-29.579 29.579 0 4.943 1.219 9.598 3.362 13.694-3.387-1.351-7.078-2.101-10.946-2.101-16.336 0-29.579 13.243-29.579 29.579 0 9.117 4.128 17.268 10.613 22.694-29.632 3.221-52.697 28.313-52.697 58.801 0 31.245 24.227 56.814 54.918 58.99-3.333 5.76-5.25 12.442-5.25 19.576 0 21.625 17.531 39.156 39.156 39.156 8.177 0 15.766-2.51 22.046-6.796 0 32.672 26.486 59.158 59.158 59.158s59.158-26.486 59.158-59.158" fill="#fe8f83"/><path d="m289.615 22.849c-32.152 1.277-57.824 27.753-57.824 60.225 0 .587.031 1.164.041 1.741-3.163-1.123-6.573-1.741-10.127-1.741-16.637 0-30.133 13.485-30.133 30.133 0 5.037 1.236 9.776 3.42 13.948-3.441-1.37-7.201-2.143-11.147-2.143-16.648 0-30.133 13.495-30.133 30.133 0 9.292 4.203 17.595 10.807 23.128-30.184 3.276-53.683 28.845-53.683 59.905 0 31.833 24.683 57.876 55.949 60.091-3.4 5.872-5.347 12.681-5.347 19.944 0 22.035 17.853 39.899 39.889 39.899 8.334 0 16.061-2.555 22.458-6.923 0 6.397.999 12.568 2.854 18.358-7.386 24.261-29.937 41.908-56.609 41.908-32.667 0-59.153-26.486-59.153-59.163-6.284 4.296-13.877 6.799-22.046 6.799-21.634 0-39.157-17.534-39.157-39.157 0-7.129 1.916-13.815 5.244-19.573-30.688-2.175-54.918-27.744-54.918-58.99 0-30.493 23.066-55.578 52.704-58.803-6.49-5.429-10.611-13.578-10.611-22.695 0-16.339 13.238-29.576 29.577-29.576 3.863 0 7.561.752 10.941 2.102-2.143-4.1-3.358-8.757-3.358-13.701 0-16.328 13.238-29.576 29.576-29.576 3.492 0 6.841.608 9.941 1.72-.01-.577-.041-1.143-.041-1.72 0-32.667 26.486-59.153 59.163-59.153 14.083 0 27.011 4.925 37.169 13.145-.134-1.298-.196-2.617-.196-3.956 0-21.624 17.534-39.158 39.157-39.158 15.803 0 29.412 9.364 35.593 22.849z" fill="#fe646f"/><path d="m327.455 512h-139.905c-3.414 0-5.915-3.322-4.857-6.568.721-2.211 1.797-4.275 3.172-6.114 2.67-3.571 6.458-6.308 10.955-7.643l1.71-.509c8.535-2.528 14.584-10.129 15.135-19.023l5.206-84.461c.951-15.536-3.279-30.954-12.048-43.828l-29.352-43.114c-.655-.962-.094-2.258 1.049-2.479 8.916-1.722 16.405-7.434 20.533-15.209.53-.998 1.878-1.179 2.626-.331l34.93 39.582c4.647 5.265 11.197 7.726 17.621 7.375h.008c5.532-.309 10.955-2.687 15.002-7.159l38.464-42.425c.409-.451 1.033-.618 1.621-.463 1.985.523 4.064.795 6.204.795 7.775 0 14.711-3.614 19.212-9.247.659-.825 1.903-.842 2.559-.015l.013.017c3.822 4.785 9.401 8.114 15.769 9.001 1.096.153 1.738 1.306 1.249 2.299l-44.985 91.291c-8.193 16.62-11.906 35.093-10.763 53.59l2.762 44.779c.551 8.894 6.591 16.495 15.127 19.023l1.71.509c6.82 2.022 12.012 7.258 14.128 13.758 1.059 3.248-1.442 6.569-4.855 6.569z" fill="#bc7c63"/><path d="m337.315 271.184-24.252 38.15c-8.055 12.671-22.029 20.346-37.044 20.346h-21.78c5.532-.309 10.955-2.687 15.002-7.159l39.131-43.161c2.269.701 4.672 1.068 7.159 1.068 8.56 0 16.103-4.38 20.5-11.013.4.609.833 1.201 1.284 1.769z" fill="#ab695d"/><path d="m238.437 343.855c4.055 12.874 6.016 28.292 5.573 43.828l-2.411 84.461c-.25 8.894-3.054 16.495-7.008 19.023l-.793.509c-2.077 1.335-3.838 4.072-5.073 7.643-1.099 3.18-1.789 7.034-1.927 11.151-.029.857-.743 1.531-1.6 1.531h-37.648c-3.414 0-5.915-3.322-4.857-6.568.721-2.211 1.797-4.275 3.172-6.114 2.67-3.571 6.458-6.308 10.955-7.643l1.71-.509c8.535-2.528 14.584-10.129 15.135-19.023l5.206-84.461c.951-15.536-3.279-30.954-12.048-43.828l-29.352-43.114c-.655-.962-.094-2.258 1.049-2.479 8.916-1.722 16.405-7.434 20.533-15.209.53-.998 1.878-1.179 2.626-.332l26.979 30.567c.148.168.26.365.327.579z" fill="#ab695d"/><path d="m172.866 306.527c-12.448 0-24.035-6.169-30.996-16.501-2.384-3.539-1.448-8.341 2.091-10.725 3.538-2.384 8.34-1.449 10.725 2.091 4.085 6.062 10.881 9.682 18.181 9.682.774 0 1.571-.042 2.369-.125 7.815-.831 14.624-5.852 17.753-13.1 1.18-2.738 1.779-5.659 1.779-8.676 0-1.987-.271-3.976-.806-5.911-1.136-4.113 1.277-8.369 5.39-9.505 4.11-1.133 8.369 1.277 9.505 5.39.904 3.275 1.363 6.648 1.363 10.026 0 5.131-1.023 10.109-3.042 14.795-5.339 12.365-16.957 20.926-30.324 22.348-1.345.14-2.681.211-3.988.211z" fill="#fe646f"/><path d="m356.513 288.154c-.524 0-1.048-.013-1.573-.044-6.974-.332-13.599-2.947-18.902-7.291-5.703 4.69-12.911 7.335-20.508 7.335-3.229 0-6.404-.475-9.438-1.412-13.666-4.137-22.876-16.561-22.876-30.902 0-4.267 3.459-7.726 7.726-7.726s7.726 3.459 7.726 7.726c0 7.366 4.91 13.996 11.942 16.125 1.597.493 3.238.736 4.92.736 5.668 0 10.924-2.824 14.06-7.556 1.431-2.159 3.85-3.457 6.44-3.457h.004c2.592.002 5.011 1.302 6.44 3.464 2.956 4.469 7.904 7.281 13.238 7.524.048.002.097.005.144.008.219.014.438.017.656.017 9.298 0 16.862-7.564 16.862-16.862 0-4.267 3.459-7.726 7.726-7.726s7.726 3.459 7.726 7.726c.001 17.819-14.495 32.315-32.313 32.315z" fill="#fe646f"/><path d="m468.787 422.551c-1.338-4.051-5.706-6.252-9.76-4.913-45.447 15.01-57.369 49.749-57.854 51.221-1.332 4.037.855 8.37 4.884 9.723.812.273 1.637.402 2.449.402 3.22 0 6.23-2.035 7.328-5.246.278-.812 5.072-14.281 20.406-26.653-.237 14.878 5.736 26.966 6.097 27.679 1.358 2.687 4.069 4.233 6.886 4.233 1.166 0 2.35-.265 3.464-.823 3.805-1.906 5.346-6.545 3.453-10.357-.086-.174-8.099-16.65-2.412-31.512 3.136-1.448 6.508-2.793 10.144-3.994 4.053-1.339 6.253-5.708 4.915-9.76z" fill="#bc7c63"/><g fill="#fe646f"><circle cx="405.231" cy="489.212" r="22.788"/><circle cx="450.807" cy="489.212" r="22.788"/></g></g></svg>