<svg id="Capa_1" enable-background="new 0 0 512 512" height="512" viewBox="0 0 512 512" width="512" xmlns="http://www.w3.org/2000/svg"><g><g fill="#d1f19e"><path d="m1.1 430.526c10.817 2.887 22.833.096 31.319-8.389 8.486-8.486 11.276-20.502 8.39-31.319-10.817-2.887-22.833-.096-31.319 8.39s-11.276 20.501-8.39 31.318z"/><path d="m79.912 33.598c-2.887 10.817-.096 22.833 8.39 31.319s20.502 11.276 31.319 8.39c2.887-10.817.096-22.833-8.39-31.319s-20.502-11.277-31.319-8.39z"/><path d="m447.538 124.63c10.817 2.887 22.833.096 31.319-8.39s11.276-20.502 8.39-31.319c-10.817-2.887-22.833-.096-31.319 8.39s-11.277 20.502-8.39 31.319z"/></g><path d="m123.69 469.39c-13.238 3.544-27.959.401-38.745-9.632-10.776-10.024-14.979-24.467-12.413-37.931-13.701-.505-26.857-7.829-34.223-20.583-7.366-12.764-7.139-27.835-.7-39.96-12.97-4.533-23.375-15.432-26.64-29.814-3.245-14.361 1.432-28.67 11.146-38.343-11.023-8.128-17.74-21.572-16.648-36.242 1.092-14.69 9.756-27.001 21.891-33.408-8.169-11.033-10.632-25.909-5.244-39.621 5.398-13.722 17.328-22.922 30.823-25.446-4.533-12.949-2.504-27.866 6.686-39.374 9.189-11.496 23.282-16.771 36.901-15.216-.525-13.701 5.79-27.361 17.946-35.664 12.177-8.303 27.217-9.21 39.785-3.709 3.533-13.269 13.619-24.477 27.712-28.824h-.01c14.093-4.327 28.721-.742 39.106 8.231 7.294-11.61 20.202-19.316 34.923-19.316h.237.33c14.711.031 27.609 7.768 34.872 19.388 10.405-8.942 25.054-12.496 39.126-8.128 14.072 4.368 24.137 15.597 27.64 28.876 12.579-5.47 27.619-4.533 39.765 3.802 12.146 8.323 18.43 22.005 17.863 35.696 13.629-1.515 27.712 3.791 36.87 15.308 9.169 11.528 11.167 26.455 6.604 39.394 13.485 2.544 25.404 11.775 30.761 25.507 5.367 13.732 2.864 28.598-5.336 39.611 12.125 6.428 20.768 18.77 21.829 33.46.072 1.01.103 2.009.103 3.008 0 13.485-6.562 25.641-16.833 33.192 9.694 9.694 14.33 24.014 11.054 38.364-3.297 14.381-13.732 25.26-26.702 29.762 6.397 12.135 6.603 27.207-.804 39.95-7.386 12.733-20.552 20.037-34.264 20.5 2.544 13.475-1.689 27.908-12.496 37.911-10.807 10.003-25.528 13.114-38.776 9.539" fill="#bbec6c"/><path d="m223.278 469.266c-.309.082-.618.165-.927.227l165.478.185c3.523.948 7.16 1.432 10.796 1.432 3.873 0 7.757-.546 11.517-1.638zm-41.311-433.644c-7.046 2.174-13.094 6.057-17.812 11.064-4.729 5.007-8.128 11.126-9.9 17.76-5.223-2.287-10.879-3.472-16.586-3.472-7.994 0-16.091 2.328-23.2 7.18-11.693 7.984-17.977 20.923-17.977 34.078 0 .536.01 1.061.031 1.586-1.556-.175-3.121-.268-4.687-.268-12.094 0-24.075 5.305-32.214 15.484-6.068 7.592-9.014 16.668-9.014 25.693 0 4.646.783 9.272 2.328 13.681-6.748 1.267-13.104 4.193-18.451 8.52-5.336 4.337-9.673 10.065-12.372 16.926-1.947 4.945-2.864 10.055-2.864 15.072 0 8.88 2.884 17.503 8.108 24.549-6.068 3.204-11.27 7.881-15.082 13.598-3.822 5.717-6.263 12.465-6.809 19.81-.082 1.04-.113 2.081-.113 3.111 0 13.444 6.521 25.579 16.761 33.131-7.644 7.613-12.166 18.1-12.166 29.216 0 3.008.33 6.068 1.02 9.127 1.638 7.191 5.048 13.516 9.684 18.605 4.626 5.089 10.477 8.942 16.957 11.208-3.163 5.954-4.832 12.63-4.832 19.388 0 6.995 1.782 14.083 5.532 20.573 3.678 6.377 8.808 11.394 14.732 14.886 5.924 3.482 12.64 5.439 19.491 5.697-.484 2.555-.731 5.151-.731 7.747 0 11.043 4.419 22.066 13.145 30.184 10.786 10.034 25.507 13.176 38.745 9.632l77.531.082c-7.026-1.731-13.712-5.223-19.388-10.508-9.333-8.684-14.062-20.47-14.062-32.286 0-2.771.258-5.542.783-8.283-7.335-.268-14.515-2.369-20.851-6.099-6.325-3.729-11.816-9.096-15.751-15.916-4.007-6.954-5.913-14.536-5.913-22.015 0-7.222 1.772-14.35 5.161-20.727-6.943-2.431-13.186-6.552-18.141-12.002-4.955-5.439-8.602-12.208-10.353-19.893-.742-3.276-1.092-6.542-1.092-9.766 0-11.888 4.842-23.107 13.011-31.245-10.941-8.077-17.925-21.057-17.925-35.428 0-1.102.041-2.215.124-3.338.587-7.85 3.194-15.072 7.273-21.191 4.09-6.109 9.653-11.116 16.143-14.546-5.594-7.541-8.684-16.761-8.684-26.259 0-5.367.989-10.817 3.07-16.112 2.895-7.335 7.52-13.475 13.238-18.1 5.717-4.636 12.517-7.768 19.738-9.117-1.648-4.708-2.493-9.673-2.493-14.639 0-9.653 3.152-19.357 9.642-27.475 8.705-10.889 21.51-16.565 34.439-16.565 1.679 0 3.358.093 5.027.288-.021-.556-.031-1.123-.031-1.679 0-14.083 6.717-27.928 19.223-36.468.412-.278.814-.546 1.236-.804-9.561-5.499-21.295-7.167-32.679-3.675z" fill="#a2e62e"/><path d="m201.221 469.472c6.943 1.72 14.206 1.72 21.129.021z" fill="#a2e62e"/><path d="m497.441 458.337h-482.882c-8.041 0-14.559 6.518-14.559 14.559 0 8.041 6.518 14.559 14.559 14.559h482.881c8.041 0 14.559-6.518 14.559-14.559.001-8.041-6.517-14.559-14.558-14.559z" fill="#e49280"/><path d="m77.377 483.198c2.637 2.637 6.274 4.265 10.292 4.265h-73.113c-4.018 0-7.654-1.628-10.292-4.265s-4.264-6.284-4.264-10.302c0-8.035 6.521-14.556 14.556-14.556h73.112c-8.035 0-14.556 6.521-14.556 14.556 0 4.018 1.628 7.665 4.265 10.302z" fill="#dd7f66"/><g><g><circle cx="93.943" cy="247.86" fill="#fd8087" r="24.363"/><path d="m102.89 270.527c-2.774 1.097-5.788 1.696-8.952 1.696-13.452 0-24.357-10.905-24.357-24.363 0-13.452 10.905-24.357 24.357-24.357 3.164 0 6.178.599 8.952 1.696-9.03 3.565-15.417 12.367-15.417 22.662 0 10.293 6.387 19.101 15.417 22.666z" fill="#fe646f"/></g><g><circle cx="112.501" cy="216.384" fill="#fd8087" r="24.363"/><path d="m121.447 239.052c-2.774 1.097-5.788 1.696-8.952 1.696-13.452 0-24.357-10.905-24.357-24.363 0-13.452 10.905-24.357 24.357-24.357 3.164 0 6.178.599 8.952 1.696-9.03 3.565-15.417 12.367-15.417 22.662s6.387 19.101 15.417 22.666z" fill="#fe646f"/></g><g><circle cx="129.155" cy="248.44" fill="#fd8087" r="24.363"/><path d="m138.102 271.108c-2.774 1.097-5.788 1.696-8.952 1.696-13.452 0-24.357-10.905-24.357-24.363 0-13.452 10.905-24.357 24.357-24.357 3.164 0 6.178.599 8.952 1.696-9.03 3.565-15.417 12.367-15.417 22.662s6.387 19.101 15.417 22.666z" fill="#fe646f"/></g></g><path d="m433.668 218.07c-10.817-2.887-22.833-.096-31.319 8.39s-11.276 20.502-8.39 31.319c10.817 2.887 22.833.096 31.319-8.39 8.486-8.485 11.277-20.502 8.39-31.319z" fill="#d1f19e"/><path d="m307.536 317.678c-10.817-2.887-22.833-.096-31.319 8.389-8.486 8.486-11.276 20.502-8.389 31.319 10.817 2.887 22.833.096 31.319-8.39 8.485-8.485 11.275-20.501 8.389-31.318z" fill="#d1f19e"/><path d="m307.536 397.095c2.887-10.817.096-22.833-8.39-31.319s-20.502-11.276-31.319-8.389c-2.887 10.817-.096 22.833 8.39 31.319 8.485 8.485 20.502 11.276 31.319 8.389z" fill="#d1f19e"/><g><g><circle cx="209.99" cy="359.361" fill="#fd8087" r="24.363"/><path d="m218.937 382.028c-2.774 1.097-5.788 1.696-8.952 1.696-13.452 0-24.357-10.905-24.357-24.363 0-13.452 10.905-24.357 24.357-24.357 3.164 0 6.178.599 8.952 1.696-9.03 3.565-15.417 12.367-15.417 22.662s6.387 19.101 15.417 22.666z" fill="#fe646f"/></g><g><circle cx="228.547" cy="327.885" fill="#fd8087" r="24.363"/><path d="m237.494 350.553c-2.774 1.097-5.788 1.696-8.952 1.696-13.452 0-24.357-10.905-24.357-24.363 0-13.452 10.905-24.357 24.357-24.357 3.164 0 6.178.599 8.952 1.696-9.03 3.565-15.417 12.367-15.417 22.662s6.387 19.101 15.417 22.666z" fill="#fe646f"/></g><g><circle cx="245.202" cy="359.941" fill="#fd8087" r="24.363"/><path d="m254.149 382.609c-2.774 1.097-5.788 1.696-8.952 1.696-13.452 0-24.357-10.905-24.357-24.363 0-13.452 10.905-24.357 24.357-24.357 3.164 0 6.178.599 8.952 1.696-9.03 3.565-15.417 12.367-15.417 22.662s6.387 19.101 15.417 22.666z" fill="#fe646f"/></g></g><g><g><circle cx="374.429" cy="307.937" fill="#fd8087" r="24.363"/><path d="m383.376 330.604c-2.774 1.097-5.788 1.696-8.952 1.696-13.452 0-24.357-10.905-24.357-24.363 0-13.452 10.905-24.357 24.357-24.357 3.164 0 6.178.599 8.952 1.696-9.03 3.565-15.417 12.367-15.417 22.662s6.387 19.101 15.417 22.666z" fill="#fe646f"/></g><g><circle cx="392.987" cy="276.461" fill="#fd8087" r="24.363"/><path d="m401.933 299.129c-2.774 1.097-5.788 1.696-8.952 1.696-13.452 0-24.357-10.905-24.357-24.363 0-13.452 10.905-24.357 24.357-24.357 3.164 0 6.178.599 8.952 1.696-9.03 3.565-15.417 12.367-15.417 22.662s6.388 19.101 15.417 22.666z" fill="#fe646f"/></g><g><circle cx="409.641" cy="308.517" fill="#fd8087" r="24.363"/><path d="m418.588 331.185c-2.774 1.097-5.788 1.696-8.952 1.696-13.452 0-24.357-10.905-24.357-24.363 0-13.452 10.905-24.357 24.357-24.357 3.164 0 6.178.599 8.952 1.696-9.03 3.565-15.417 12.367-15.417 22.662s6.387 19.101 15.417 22.666z" fill="#fe646f"/></g></g><g><g><circle cx="292.015" cy="158.116" fill="#fd8087" r="24.363"/><path d="m300.962 180.783c-2.774 1.097-5.788 1.696-8.952 1.696-13.452 0-24.357-10.905-24.357-24.363 0-13.452 10.905-24.357 24.357-24.357 3.164 0 6.178.599 8.952 1.696-9.03 3.565-15.417 12.367-15.417 22.662s6.387 19.101 15.417 22.666z" fill="#fe646f"/></g><g><circle cx="310.573" cy="126.64" fill="#fd8087" r="24.363"/><path d="m319.519 149.308c-2.774 1.097-5.788 1.696-8.952 1.696-13.452 0-24.357-10.905-24.357-24.363 0-13.452 10.905-24.357 24.357-24.357 3.164 0 6.178.599 8.952 1.696-9.03 3.565-15.417 12.368-15.417 22.662s6.387 19.101 15.417 22.666z" fill="#fe646f"/></g><g><circle cx="327.227" cy="158.696" fill="#fd8087" r="24.363"/><path d="m336.174 181.364c-2.774 1.097-5.788 1.696-8.952 1.696-13.452 0-24.357-10.905-24.357-24.363 0-13.452 10.905-24.357 24.357-24.357 3.164 0 6.178.599 8.952 1.696-9.03 3.565-15.417 12.367-15.417 22.662s6.387 19.101 15.417 22.666z" fill="#fe646f"/></g></g></g></svg>