<svg xmlns="http://www.w3.org/2000/svg" version="1.1" xmlns:xlink="http://www.w3.org/1999/xlink" width="512" height="512" x="0" y="0" viewBox="0 0 512 512" style="enable-background:new 0 0 512 512" xml:space="preserve" class=""><g><path fill="#bcab51" d="M379.87 287.87h-68.88l-15.86 12.42a44.541 44.541 0 0 1-64.72-10.64 60.9 60.9 0 0 1 2.43-70.22A137.424 137.424 0 0 1 298 172.42l39.24-13.36v-.48l-94.66-.58-54.13 11.37v.01a54.185 54.185 0 0 1 .29 45.85l-10.76 23.41-2.98-23.29a95.869 95.869 0 0 0-19-46.12v-.01l-40.74-.19c-8.57 85.04 70.26 109.81 80.28 176.19 6.92 45.88-31.35 62.07-31.35 127.91H294.6c25.08-53.92-10.03-90.29-6.27-119.13 4.46-34.14 42.64-53.45 91.54-66.13z" opacity="1" data-original="#bc5e51" class=""></path><path fill="#a89d42" d="M215.54 355.22c-9.858-65.307-87.285-103.89-81.625-186.1l-18.655-.087c-8.57 85.04 70.26 109.81 80.28 176.19 6.92 45.88-31.35 62.07-31.35 127.91h20.31c3.6-57.624 37.6-74.451 31.04-117.913z" opacity="1" data-original="#a84c42" class=""></path><path fill="#8dc63f" d="M463.03 221.92c43.282.721 43.379 65.206 0 65.95-37.739-.035-114.621.025-152.039 0-13.155.811-26.429-1.842-36.29-12.251-35.841-36.981 18.24-92.989 56.35-58.449 13.307-32.339 62.989-38.323 83.79-10.188 11.138 15.396 31.039 15.753 48.189 14.938z" opacity="1" data-original="#8dc63f"></path><path fill="#7daa37" d="M351.05 227.17c9.122-22.17 35.34-31.949 57.628-26.844-23.093-20.149-65.274-12.668-77.527 16.623a40.327 40.327 0 0 1 19.899 10.221zM294.7 285.619c-29.731-30.677 2.415-74.442 35.993-68.757-38.093-33.874-91.723 21.891-55.993 58.757a38.817 38.817 0 0 0 21.46 11.44 38.018 38.018 0 0 1-1.46-1.44z" opacity="1" data-original="#7daa37"></path><path fill="#8dc63f" d="M188.09 101.42a40.232 40.232 0 0 1-20.47-13.568C146.82 59.717 97.135 65.7 83.83 98.04c-59.591-44.316-102.19 60.849-28.84 70.7 38.627.176 95.132.472 133.46.63 15.752-.633 44.138 4.617 54.13-11.37z" opacity="1" data-original="#8dc63f"></path><path fill="#79a82f" d="M103.83 108.04c9.122-22.17 35.34-31.949 57.629-26.844C138.306 61 95.959 68.561 83.83 98.04 26.236 55.209-15.476 152 48.013 167.43c-32.064-28.779 5.908-96.506 55.817-59.39z" opacity="1" data-original="#79a82f"></path><path fill="#6c9b23" d="M449.35 74.43c32.7 27.9 9.942 85.767-32.222 84.629L242.58 158c-14.365.741-28.7-2.531-39.83-13.24-45.25-44.995 17.95-113.172 66.07-71.63 20.421-47.616 95.168-43.872 110.43 5.69a48.735 48.735 0 0 1 70.1-4.39z" opacity="1" data-original="#6c9b23"></path><path fill="#5e821e" d="M222.75 154.76c-38.529-38.316 1.58-93.426 44.049-83.295-47.837-37.974-108.664 28.927-64.049 73.295a46.446 46.446 0 0 0 21.967 11.78 51.388 51.388 0 0 1-1.967-1.78zM288.82 83.13c12.406-28.927 44.86-38.895 71.848-31.155-27.923-21.516-75.226-15.617-91.394 20.154A53.2 53.2 0 0 1 288.82 83.13z" opacity="1" data-original="#5e821e" class=""></path><g fill="#d4e1f4"><path d="M167.5 344.8a5 5 0 0 1-4.752-3.448c-6.628-20.28-19.774-36.611-33.692-53.9-5.139-6.384-10.453-12.984-15.416-19.8a5 5 0 1 1 8.085-5.884c4.82 6.624 10.057 13.129 15.12 19.419 13.87 17.23 28.211 35.046 35.408 57.065a5 5 0 0 1-4.753 6.548zM104.545 249.029a5 5 0 0 1-4.419-2.652 124.28 124.28 0 0 1-7.037-15.648 5 5 0 1 1 9.387-3.447 114.23 114.23 0 0 0 6.479 14.4 5 5 0 0 1-4.41 7.349z" fill="#d4e1f4" opacity="1" data-original="#d4e1f4" class=""></path></g></g></svg>