<svg id="Layer_1" enable-background="new 0 0 468 468" height="512" viewBox="0 0 468 468" width="512" xmlns="http://www.w3.org/2000/svg"><g><g><g><g><path d="m103.833 384.13c-2.178 0-4.182-1.435-4.807-3.634l-27.264-95.892c-.755-2.656.786-5.421 3.442-6.177 2.654-.754 5.422.785 6.177 3.442l27.264 95.892c.755 2.656-.786 5.421-3.442 6.177-.457.13-.917.192-1.37.192z" fill="#00b574"/></g><g><path d="m104.225 261.018c-.775-.748-1.562-1.466-2.355-2.162 1.035-.206 2.075-.435 3.121-.695 18.364-4.57 31.068-15.865 28.375-25.228s-19.764-13.248-38.128-8.678c-1.046.26-2.07.545-3.077.847.314-.971.609-1.959.88-2.967 4.747-17.703.723-34.163-8.987-36.763s-21.43 9.644-26.177 27.347c-.27 1.008-.508 2.011-.722 3.009-.721-.765-1.466-1.523-2.241-2.271-13.617-13.133-30.345-18.298-37.362-11.535s-1.667 22.892 11.951 36.025c.775.748 1.562 1.466 2.355 2.162-1.035.206-2.075.435-3.121.695-18.364 4.57-31.068 15.865-28.375 25.228s19.764 13.248 38.128 8.678c1.046-.26 2.07-.545 3.077-.847-.314.971-.609 1.959-.88 2.967-4.747 17.703-.723 34.163 8.987 36.763s21.43-9.644 26.177-27.347c.27-1.008.508-2.011.722-3.009.721.765 1.466 1.523 2.241 2.271 13.617 13.133 30.345 18.298 37.362 11.535 7.017-6.762 1.666-22.891-11.951-36.025z" fill="#a37acc"/></g><g><g><ellipse cx="66.863" cy="249.483" fill="#fff" rx="16.385" ry="16.33"/></g><g><path d="m64.784 249.483c0-6.459 3.772-12.025 9.232-14.674-2.164-1.05-4.584-1.655-7.153-1.655-9.049 0-16.385 7.311-16.385 16.33s7.336 16.33 16.385 16.33c2.568 0 4.989-.606 7.153-1.655-5.46-2.651-9.232-8.217-9.232-14.676z" fill="#ededed"/></g></g></g><g><g><path d="m150.192 374.893c2.745-28.962 5.793-51.369 5.793-51.369-25.625 6.321-45.345 28.939-51.571 55.605-17.347-22.512-41.251-37.445-67.494-34.628 0 0 10.534 20.014 23.027 46.291-13.396-9.314-37.453-10.745-53.816-8.988 0 0 27.065 19.576 45.474 63.942l125.236-22.065c2.113-47.981 20.845-75.626 20.845-75.626-15.978 3.942-38.094 13.508-47.494 26.838z" fill="#00cb8c"/></g><g><path d="m26.6 381.408c-7.257-.467-14.394-.256-20.469.396 0 0 27.065 19.576 45.474 63.942l17.916-3.156c-15.324-36.294-36.328-55.71-42.921-61.182z" fill="#00b574"/></g><g><path d="m78.34 388.751c-9.473-19.925-17.814-36.239-21.296-42.967-6.496-1.526-13.228-2.022-20.124-1.282 0 0 7.867 14.949 18.066 35.965 8.845 1.409 17.218 4.018 23.354 8.284z" fill="#00b574"/></g></g></g><g><g><g><path d="m364.167 384.13c-.453 0-.913-.062-1.37-.192-2.656-.755-4.197-3.521-3.442-6.177l27.264-95.892c.756-2.657 3.522-4.196 6.177-3.442 2.656.755 4.197 3.521 3.442 6.177l-27.264 95.892c-.625 2.199-2.629 3.634-4.807 3.634z" fill="#00b574"/></g><g><path d="m363.775 261.018c.775-.748 1.562-1.466 2.355-2.162-1.035-.206-2.075-.435-3.121-.695-18.364-4.57-31.068-15.865-28.375-25.228s19.764-13.248 38.128-8.678c1.046.26 2.07.545 3.077.847-.314-.971-.609-1.959-.88-2.967-4.747-17.703-.723-34.163 8.987-36.763s21.43 9.644 26.177 27.347c.27 1.008.508 2.011.722 3.009.721-.765 1.466-1.523 2.241-2.271 13.617-13.133 30.345-18.298 37.362-11.535s1.667 22.892-11.951 36.025c-.775.748-1.562 1.466-2.355 2.162 1.035.206 2.075.435 3.121.695 18.364 4.57 31.068 15.865 28.375 25.228s-19.764 13.248-38.128 8.678c-1.046-.26-2.07-.545-3.077-.847.314.971.609 1.959.88 2.967 4.747 17.703.723 34.163-8.987 36.763s-21.43-9.644-26.177-27.347c-.27-1.008-.508-2.011-.722-3.009-.721.765-1.466 1.523-2.241 2.271-13.617 13.133-30.345 18.298-37.362 11.535-7.017-6.762-1.666-22.891 11.951-36.025z" fill="#a37acc"/></g><g><g><ellipse cx="401.137" cy="249.483" fill="#fff" rx="16.385" ry="16.33"/></g><g><path d="m403.216 249.483c0-6.459-3.772-12.025-9.232-14.674 2.164-1.05 4.584-1.655 7.153-1.655 9.049 0 16.385 7.311 16.385 16.33s-7.336 16.33-16.385 16.33c-2.568 0-4.989-.606-7.153-1.655 5.46-2.651 9.232-8.217 9.232-14.676z" fill="#ededed"/></g></g></g><g><g><path d="m317.808 374.893c-2.745-28.962-5.793-51.369-5.793-51.369 25.625 6.321 45.345 28.939 51.571 55.605 17.347-22.512 41.251-37.445 67.494-34.628 0 0-10.534 20.014-23.027 46.291 13.396-9.314 37.453-10.745 53.816-8.988 0 0-27.065 19.576-45.474 63.942l-125.236-22.065c-2.113-47.981-20.845-75.626-20.845-75.626 15.978 3.942 38.094 13.508 47.494 26.838z" fill="#00cb8c"/></g><g><path d="m441.4 381.408c7.257-.467 14.394-.256 20.469.396 0 0-27.065 19.576-45.474 63.942l-17.916-3.156c15.324-36.294 36.328-55.71 42.921-61.182z" fill="#00b574"/></g><g><path d="m389.66 388.751c9.473-19.925 17.814-36.239 21.296-42.967 6.496-1.526 13.228-2.022 20.124-1.282 0 0-7.867 14.949-18.066 35.965-8.845 1.409-17.218 4.018-23.354 8.284z" fill="#00b574"/></g></g></g><g><g><g><path d="m234 357.969.143-24.348c.275-46.919 60.595-65.91 87.735-27.623-36.838-4.828-72.378 15.482-86.895 49.658z" fill="#59dca6"/></g><g><path d="m234.143 347.916c.228-38.868 41.662-58.57 71.304-42.42 5.404-.37 10.902-.222 16.431.502-27.14-38.287-87.46-19.296-87.735 27.623l-.143 24.348.085-.2z" fill="#00cb8c"/></g></g><g><g><path d="m234 339.589-.143-24.348c-.275-46.919-60.595-65.91-87.735-27.623 36.838-4.828 72.378 15.482 86.895 49.658z" fill="#59dca6"/></g><g><path d="m160.925 287.025c29.727-17.8 72.701 1.905 72.933 41.49l.064 10.888.079.185-.143-24.348c-.275-46.919-60.595-65.91-87.735-27.623 4.974-.65 9.923-.829 14.802-.592z" fill="#00cb8c"/></g></g><g><path d="m234 386.009c-2.762 0-5-2.239-5-5v-118.447c0-2.761 2.238-5 5-5s5 2.239 5 5v118.448c0 2.761-2.238 4.999-5 4.999z" fill="#00b574"/></g><g><g><g><path d="m273.076 197.669c-.943-.522-1.888-1.012-2.835-1.479.946-.467 1.892-.957 2.835-1.479 16.555-9.164 25.901-23.36 20.874-31.707-5.026-8.347-22.522-7.685-39.076 1.479-.943.522-1.859 1.062-2.753 1.614.052-1.019.081-2.049.081-3.093 0-18.328-8.15-33.186-18.202-33.186s-18.202 14.858-18.202 33.186c0 1.044.03 2.074.081 3.093-.895-.552-1.81-1.092-2.753-1.614-16.555-9.164-34.05-9.826-39.076-1.479s4.319 22.543 20.874 31.707c.943.522 1.888 1.012 2.835 1.479-.946.467-1.892.957-2.835 1.479-16.555 9.164-25.9 23.36-20.874 31.707s22.522 7.685 39.076-1.479c.943-.522 1.859-1.062 2.753-1.614-.052 1.019-.081 2.049-.081 3.093 0 18.328 8.15 33.186 18.202 33.186s18.202-14.858 18.202-33.186c0-1.044-.03-2.074-.081-3.093.895.552 1.81 1.092 2.753 1.614 16.555 9.164 34.05 9.826 39.076 1.479s-4.319-22.543-20.874-31.707z" fill="#f46080"/></g><g><ellipse cx="234" cy="196.19" fill="#fff" rx="16.385" ry="16.33"/></g><g><path d="m231.921 196.19c0-6.459 3.772-12.025 9.232-14.674-2.164-1.05-4.585-1.655-7.153-1.655-9.049 0-16.385 7.311-16.385 16.33s7.336 16.33 16.385 16.33c2.568 0 4.989-.606 7.153-1.655-5.46-2.651-9.232-8.217-9.232-14.676z" fill="#ededed"/></g></g></g></g><g><g><g><path d="m431.836 431.805h-8.478c-14.017-23.321-39.262-38.894-68.104-38.894-13.21 0-25.658 3.281-36.629 9.061-21.971-21.082-51.784-34.04-84.626-34.04s-62.655 12.958-84.626 34.04c-10.971-5.78-23.419-9.061-36.629-9.061-28.842 0-54.088 15.573-68.104 38.894h-8.478c-19.971 0-36.162 16.205-36.162 36.195h468c0-19.99-16.191-36.195-36.164-36.195z" fill="#d38451"/></g><g><path d="m115.887 392.981c-1.043-.041-2.089-.07-3.142-.07-28.842 0-54.088 15.573-68.104 38.894h-8.478c-19.972 0-36.163 16.205-36.163 36.195h85.839c-10.662-21.291 2.443-60.207 30.048-75.019z" fill="#c46d3d"/></g></g><g><g><ellipse cx="182.341" cy="435.056" fill="#fff" rx="14.76" ry="12.668"/></g><g><ellipse cx="285.659" cy="435.056" fill="#fff" rx="14.76" ry="12.668"/></g><g><g><path d="m234 448.326c-5.927 0-11.347-2.814-14.872-7.723-1.616-2.25-1.155-5.423 1.03-7.087 2.184-1.664 5.266-1.191 6.881 1.061 3.413 4.752 10.508 4.752 13.921 0 1.616-2.25 4.697-2.725 6.881-1.061 2.185 1.664 2.646 4.837 1.03 7.087-3.524 4.908-8.944 7.723-14.871 7.723z" fill="#424242"/></g><g><path d="m192.18 427.259c-3.057 0-5.535-2.552-5.535-5.701v-6.334c0-3.148 2.478-5.701 5.535-5.701s5.535 2.552 5.535 5.701v6.334c0 3.149-2.478 5.701-5.535 5.701z" fill="#424242"/></g><g><path d="m275.82 427.259c-3.057 0-5.535-2.552-5.535-5.701v-6.334c0-3.148 2.478-5.701 5.535-5.701s5.535 2.552 5.535 5.701v6.334c-.001 3.149-2.479 5.701-5.535 5.701z" fill="#424242"/></g></g></g></g><g><g><path d="m77.751 59.324c-16.295-7.62-33.145-5.808-37.636 4.047s5.079 24.02 21.374 31.64 55.115 4.126 55.115 4.126-22.558-32.194-38.853-39.813z" fill="#34c7d7"/></g><g><path d="m73.293 74.863c8.842 4.135 19.521 15.5 27.447 25.036 9.079-.154 15.864-.762 15.864-.762s-22.558-32.194-38.853-39.813c-16.295-7.62-33.145-5.808-37.636 4.047-1.444 3.169-1.427 6.785-.207 10.485 7.176-5.141 20.452-5.041 33.385 1.007z" fill="#18b2b2"/></g><g><g><path d="m124.935 32.749c-5.201-21.02-19.409-35.487-31.734-32.312s-18.102 22.788-12.901 43.808 37.313 54.859 37.313 54.859 12.523-45.335 7.322-66.355z" fill="#34c7d7"/></g><g><path d="m124.935 32.749c-5.201-21.02-19.409-35.487-31.734-32.312-3.879.999-7.108 3.629-9.551 7.415 10.971 1.107 22.28 14.412 26.797 32.666 2.997 12.113.108 32.299-2.878 47.232 5.723 6.796 10.044 11.353 10.044 11.353s12.523-45.334 7.322-66.354z" fill="#18b2b2"/></g></g><g><g><path d="m86.195 169.837c-15.263.911-26.524-13.403-23.365-27.964 5.435-30.567 30.491-54.288 61.208-57.718 11.256-1.257 20.925-.849 24.812 3.136 2.603 2.668 3.526 7.974 3.379 14.638-.793 36.117-30.05 65.801-66.034 67.908z" fill="#d38451"/></g><g><path d="m78.433 150.753c5.435-30.567 30.492-54.288 61.208-57.718 4.211-.47 8.2-.707 11.748-.611-.546-2.163-1.364-3.928-2.539-5.133-3.888-3.985-13.556-4.393-24.812-3.136-30.716 3.43-55.772 27.151-61.208 57.718-2.905 13.392 6.391 26.565 19.776 27.886-3.908-5.203-5.677-12.075-4.173-19.006z" fill="#c46d3d"/></g><g><path d="m68.829 123.443c-2.589 5.326-4.525 11.03-5.716 17.006 7.622 12.281 18.461 22.063 31.144 28.422 7.907-1.401 15.381-4.134 22.171-7.964-20.117-5.497-37.415-18.913-47.599-37.464z" fill="#ffc480"/></g><g><path d="m108.069 87.917c-4.366 1.595-8.535 3.617-12.459 6.017 12.242 16.983 30.974 28.394 51.886 31.427 1.65-4.189 2.905-8.566 3.705-13.091-16.732-3.222-31.875-11.833-43.132-24.353z" fill="#ffc480"/></g><g><path d="m85.213 101.694c-2.999 2.699-5.77 5.651-8.276 8.828 11.511 20.577 31.809 34.749 54.955 38.621 3.394-3.406 6.438-7.152 9.077-11.181-23.094-3.13-43.599-16.474-55.756-36.268z" fill="#ffc480"/></g></g><g><path d="m159.73 77.286c-2.762 0-5-2.239-5-5 0-11.064 6.116-31.989 29.263-31.989 2.762 0 5 2.239 5 5s-2.238 5-5 5c-19.044 0-19.263 21.091-19.263 21.989 0 2.761-2.238 5-5 5z" fill="#5b5b5b"/></g><g><path d="m151.834 72.847c-1.493 0-2.97-.665-3.955-1.936-6.171-7.957-8.441-18.17-6.229-28.02 2.2-9.8 8.571-18.012 17.479-22.531 2.462-1.249 5.471-.265 6.721 2.197 1.249 2.463.266 5.472-2.197 6.721-6.237 3.164-10.7 8.924-12.245 15.803-1.556 6.929.039 14.11 4.375 19.701 1.692 2.182 1.295 5.323-.887 7.015-.914.708-1.992 1.05-3.062 1.05z" fill="#5b5b5b"/></g><g><g><path d="m155.426 62.695c12.582 7.585 22.298 26.443 15.677 38.419s-27.073 12.535-39.655 4.95-17.413-23.443-10.792-35.419 22.188-15.536 34.77-7.95z" fill="#f9ed99"/></g><g><path d="m132.916 82.854c6.592-11.923 22.049-15.499 34.601-8.046-3.187-4.966-7.442-9.31-12.091-12.113-12.582-7.585-28.149-4.026-34.77 7.95s-1.789 27.833 10.792 35.419c.521.314 1.061.61 1.608.896-3.939-7.566-4.291-16.598-.14-24.106z" fill="#ffc480"/></g></g><g><path d="m147.907 77.658c3.577 2.728 4.955 7.309 3.076 10.231s-6.302 3.08-9.879.351c-3.577-2.728-4.955-7.309-3.076-10.231s6.302-3.079 9.879-.351z" fill="#424242"/></g></g><g><g><path d="m390.249 59.324c16.295-7.62 33.145-5.808 37.636 4.047s-5.078 24.02-21.374 31.64-55.115 4.126-55.115 4.126 22.558-32.194 38.853-39.813z" fill="#34c7d7"/></g><g><path d="m394.707 74.863c-8.842 4.135-19.521 15.5-27.447 25.036-9.079-.154-15.864-.762-15.864-.762s22.557-32.193 38.852-39.813 33.145-5.808 37.636 4.047c1.444 3.169 1.427 6.785.207 10.485-7.175-5.141-20.451-5.041-33.384 1.007z" fill="#18b2b2"/></g><g><g><path d="m343.065 32.749c5.201-21.02 19.409-35.487 31.734-32.312s18.102 22.788 12.901 43.808-37.313 54.859-37.313 54.859-12.523-45.335-7.322-66.355z" fill="#34c7d7"/></g><g><path d="m343.065 32.749c5.201-21.02 19.409-35.487 31.734-32.312 3.879.999 7.108 3.629 9.551 7.415-10.971 1.107-22.28 14.412-26.797 32.666-2.997 12.113-.108 32.299 2.878 47.232-5.723 6.796-10.044 11.353-10.044 11.353s-12.523-45.334-7.322-66.354z" fill="#18b2b2"/></g></g><g><g><path d="m381.805 169.837c15.263.911 26.524-13.403 23.365-27.964-5.435-30.567-30.491-54.288-61.208-57.718-11.256-1.257-20.925-.849-24.813 3.136-2.603 2.668-3.526 7.974-3.379 14.638.794 36.117 30.051 65.801 66.035 67.908z" fill="#d38451"/></g><g><path d="m389.567 150.753c-5.435-30.567-30.492-54.288-61.208-57.718-4.211-.47-8.2-.707-11.748-.611.546-2.163 1.363-3.928 2.539-5.133 3.888-3.985 13.556-4.393 24.812-3.136 30.716 3.43 55.772 27.151 61.208 57.718 2.905 13.392-6.391 26.565-19.776 27.886 3.908-5.203 5.677-12.075 4.173-19.006z" fill="#c46d3d"/></g><g><path d="m399.171 123.443c2.589 5.326 4.525 11.03 5.716 17.006-7.622 12.281-18.461 22.063-31.143 28.422-7.907-1.401-15.381-4.134-22.171-7.964 20.116-5.497 37.414-18.913 47.598-37.464z" fill="#ffc480"/></g><g><path d="m359.931 87.917c4.366 1.595 8.535 3.617 12.459 6.017-12.242 16.983-30.974 28.394-51.886 31.427-1.65-4.189-2.905-8.566-3.705-13.091 16.732-3.222 31.875-11.833 43.132-24.353z" fill="#ffc480"/></g><g><path d="m382.786 101.694c2.999 2.699 5.77 5.651 8.276 8.828-11.511 20.577-31.809 34.749-54.955 38.621-3.394-3.406-6.438-7.152-9.077-11.181 23.095-3.13 43.6-16.474 55.756-36.268z" fill="#ffc480"/></g></g><g><path d="m308.27 77.286c-2.757 0-4.992-2.23-5-4.985-.015-2.258-.686-22.004-19.263-22.004-2.762 0-5-2.239-5-5s2.238-5 5-5c23.146 0 29.263 20.925 29.263 31.989 0 2.761-2.239 5-5 5z" fill="#5b5b5b"/></g><g><path d="m316.166 72.847c-1.07 0-2.148-.342-3.061-1.049-2.182-1.692-2.579-4.833-.887-7.015 4.336-5.591 5.931-12.772 4.375-19.701-1.545-6.879-6.008-12.639-12.245-15.803-2.463-1.249-3.446-4.258-2.197-6.721s4.259-3.446 6.721-2.197c8.907 4.519 15.278 12.73 17.479 22.531 2.212 9.85-.059 20.063-6.229 28.02-.986 1.27-2.463 1.935-3.956 1.935z" fill="#5b5b5b"/></g><g><g><path d="m312.574 62.695c-12.582 7.585-22.298 26.443-15.677 38.419s27.073 12.535 39.655 4.95 17.413-23.443 10.792-35.419c-6.621-11.977-22.188-15.536-34.77-7.95z" fill="#f9ed99"/></g><g><path d="m335.084 82.854c-6.592-11.923-22.049-15.499-34.601-8.046 3.187-4.966 7.442-9.31 12.091-12.113 12.582-7.585 28.149-4.026 34.77 7.95s1.789 27.833-10.792 35.419c-.521.314-1.061.61-1.608.896 3.939-7.566 4.291-16.598.14-24.106z" fill="#ffc480"/></g></g><g><path d="m320.093 77.658c-3.577 2.728-4.955 7.309-3.076 10.231s6.302 3.08 9.879.351 4.955-7.309 3.076-10.231-6.302-3.079-9.879-.351z" fill="#424242"/></g></g></g></svg>