<svg xmlns="http://www.w3.org/2000/svg" version="1.1" xmlns:xlink="http://www.w3.org/1999/xlink" width="512" height="512" x="0" y="0" viewBox="0 0 64 64" style="enable-background:new 0 0 512 512" xml:space="preserve" class=""><g><path fill="#80a53f" d="M32 63H13S1 59 1 49c0 0 3 1 5 1 0 0-6-4-2-11 0 0 3 2 4 3 0 0-1-6 1-9l2 2s-1-4 3-8l3 3s0-6 3-8l3 2s1-3 5-7l1 2s3-5 7-6v7l3-2c2 3 2 6 2 6l3-2c3 2 3 8 3 8l3-3c4 4 3 8 3 8l2-2c2 3 1 9 1 9 1-1 4-3 4-3 4 7-2 11-2 11 2 0 5-1 5-1 0 10-12 14-12 14z" opacity="1" data-original="#80a53f"></path><path fill="#24725f" d="M63 49c0 10-12 14-12 14h-3.34C50.77 60.76 54 57.19 54 52c0 0-3 1-5 1 0 0 6-4 2-11 0 0-3 2-4 3 0 0 1-6-1-9l-2 2s1-4-3-8l-3 3s0-6-3-8l-3 2s0-3-2-6l-3 2v-4.95c.31-.34.64-.69 1-1.05l1 2s3-5 7-6v7l3-2c2 3 2 6 2 6l3-2c3 2 3 8 3 8l3-3c4 4 3 8 3 8l2-2c2 3 1 9 1 9 1-1 4-3 4-3 4 7-2 11-2 11 2 0 5-1 5-1z" opacity="1" data-original="#24725f"></path><g fill="#f5624d"><circle cx="15" cy="43" r="2" fill="#ffdafd" opacity="1" data-original="#f5624d" class=""></circle><circle cx="41" cy="46" r="2" fill="#ffdafd" opacity="1" data-original="#f5624d" class=""></circle><circle cx="31" cy="29" r="2" fill="#ffdafd" opacity="1" data-original="#f5624d" class=""></circle><circle cx="25.528" cy="55.056" r="2" fill="#ffdafd" opacity="1" data-original="#f5624d" class=""></circle><circle cx="49" cy="41" r="2" fill="#ffdafd" opacity="1" data-original="#f5624d" class=""></circle><circle cx="14" cy="53" r="2" fill="#ffdafd" opacity="1" data-original="#f5624d" class=""></circle><circle cx="40" cy="35" r="2" fill="#ffdafd" opacity="1" data-original="#f5624d" class=""></circle><circle cx="25.5" cy="36.5" r="2.5" fill="#ffdafd" opacity="1" data-original="#f5624d" class=""></circle></g><path fill="#ff8ed2" d="M28 36.5a2.5 2.5 0 0 1-4.5 1.5 2.5 2.5 0 0 0 2-4 2.5 2.5 0 0 1 2.5 2.5z" opacity="1" data-original="#cd231f" class=""></path><circle cx="22.5" cy="47.5" r="2.5" fill="#ffdafd" opacity="1" data-original="#f5624d" class=""></circle><path fill="#ff8ed2" d="M25 47.5a2.5 2.5 0 0 1-4.5 1.5 2.5 2.5 0 0 0 2-4 2.5 2.5 0 0 1 2.5 2.5z" opacity="1" data-original="#cd231f" class=""></path><circle cx="37.5" cy="55.5" r="2.5" fill="#ffdafd" opacity="1" data-original="#f5624d" class=""></circle><circle cx="32.5" cy="43.5" r="2.5" fill="#ffdafd" opacity="1" data-original="#f5624d" class=""></circle><path fill="#ff8ed2" d="M35 43.5a2.5 2.5 0 0 1-5 0 2.5 2.5 0 0 0 4-2c.61.46 1 1.18 1 2z" opacity="1" data-original="#cd231f" class=""></path><circle cx="47.5" cy="50.5" r="2.5" fill="#ffdafd" opacity="1" data-original="#f5624d" class=""></circle><path fill="#80a53f" d="M11 21s-3-6 5-8v5c0 2-1 6-5 3z" opacity="1" data-original="#80a53f"></path><path fill="#24725f" d="M16 13v5c0 1.73-.75 4.97-3.56 3.84C13.63 21.18 14 19.22 14 18v-4.33c.57-.25 1.24-.48 2-.67z" opacity="1" data-original="#24725f"></path><path fill="#80a53f" d="M20.536 9.77S19.803 3.102 28 4l-1.734 4.69c-.693 1.876-3.018 5.281-5.73 1.08z" opacity="1" data-original="#80a53f"></path><path fill="#24725f" d="m28 4-1.73 4.69c-.7 1.88-3.02 5.28-5.73 1.08 0 0 0-.04-.01-.11 1.8.66 3.22-1.57 3.74-2.97.24-.64.64-1.73.99-2.69.78-.11 1.69-.12 2.74 0z" opacity="1" data-original="#24725f"></path><path fill="#80a53f" d="M34.98 5.765S36.647-.733 44 3l-3.277 3.776c-1.311 1.511-4.688 3.877-5.743-1.011z" opacity="1" data-original="#80a53f"></path><path fill="#24725f" d="M44 3s-2.35 2.71-3.28 3.78c-1.28 1.47-4.51 3.75-5.65-.65 1.45 1.45 3.65-.2 4.65-1.35.53-.6 1.5-1.73 2.26-2.6.62.18 1.29.45 2.02.82z" opacity="1" data-original="#24725f"></path><path fill="#80a53f" d="M55.216 7.453s-.513-4.66 5.216-4.033L59.22 6.698c-.484 1.311-2.109 3.691-4.004.755z" opacity="1" data-original="#80a53f"></path><path fill="#a9dc66" d="M8.938 48.768c-.984-.48-2.953-1.795-3.373-4.768l5.053 2.356a.946.946 0 0 1 .191 1.596l-.874.699a.934.934 0 0 1-.997.117zM13.477 34.393c-.227-.658-.52-2.135.628-3.66l1.213 3.331a.602.602 0 0 1-.632.804l-.707-.079a.597.597 0 0 1-.502-.396z" opacity="1" data-original="#a9dc66"></path><path fill="#9cdeff" d="M12 8H5a1 1 0 1 1 0-2h7a1.001 1.001 0 0 0 0-2h-2a1 1 0 1 1 0-2h2c1.654 0 3 1.346 3 3s-1.346 3-3 3zM53 17h-6a1 1 0 1 1 0-2h6a1.001 1.001 0 0 0 0-2h-2a1 1 0 1 1 0-2h2c1.654 0 3 1.346 3 3s-1.346 3-3 3zM59 24h-7a1 1 0 1 1 0-2h7a1.001 1.001 0 0 0 0-2h-2a1 1 0 1 1 0-2h2c1.654 0 3 1.346 3 3s-1.346 3-3 3zM43 17h-1a1 1 0 1 1 0-2h1a1 1 0 1 1 0 2z" opacity="0" data-original="#9cdeff" class=""></path><path fill="#a9dc66" d="M18.001 39a1 1 0 0 1-.896-.553l-1-2A1.002 1.002 0 0 1 16 36v-2a1 1 0 1 1 2 0v1.764l.895 1.789A1 1 0 0 1 18.001 39zM54 49a1 1 0 0 1-1-1v-1c0-.155.036-.309.105-.447l1-2a1 1 0 0 1 1.789.895L55 47.236V48a1 1 0 0 1-1 1zM13 60c-.153 0-.307-.035-.447-.105l-2-1a1 1 0 0 1 .895-1.789l1.552.776 1.553-.776a1 1 0 0 1 .895 1.789l-2 1c-.141.07-.295.105-.448.105zM24 30a.997.997 0 0 1-.707-.293C22.036 28.45 22 27.145 22 27a1 1 0 0 1 2-.021c.003.054.056.662.707 1.313A.999.999 0 0 1 24 30zm0-3h.01zM44.999 38a1 1 0 0 1-.893-1.447A9.058 9.058 0 0 0 45 32.997c.003-.55.45-.996 1-.996h.003A1 1 0 0 1 47 33c0 .091-.013 2.261-1.105 4.447a1 1 0 0 1-.896.553z" opacity="1" data-original="#a9dc66"></path></g></svg>