<svg id="Layer_1" enable-background="new 0 0 512 512" height="512" viewBox="0 0 512 512" width="512" xmlns="http://www.w3.org/2000/svg"><g><path d="m106.294 339.299c-.165-.557-.316-1.113-.465-1.669-15.614-11.056-33.611-12.489-41.167-2.894-7.957 10.102-1.326 28.595 14.812 41.306 16.137 12.71 35.669 14.824 43.626 4.722 2.49-3.161 3.551-7.144 3.339-11.515-8.519-5.644-16.146-16.433-20.145-29.95z" fill="#bf7fe3"/><path d="m78.072 232.27c-.145-.489-.277-.977-.408-1.464-13.696-9.698-29.481-10.954-36.11-2.539-6.979 8.861-1.163 25.082 12.992 36.231s31.287 13.003 38.266 4.142c2.184-2.773 3.115-6.266 2.929-10.1-7.471-4.95-14.161-14.414-17.669-26.27z" fill="#bf7fe3"/><path d="m53.702 135.521c-.12-.404-.229-.808-.338-1.211-11.327-8.02-24.381-9.059-29.863-2.099-5.772 7.328-.962 20.743 10.744 29.963s25.875 10.754 31.646 3.425c1.806-2.293 2.576-5.182 2.422-8.353-6.177-4.094-11.71-11.92-14.611-21.725z" fill="#bf7fe3"/><path d="m31.659 50.93c-.102-.345-.195-.689-.288-1.033-9.665-6.843-20.804-7.73-25.481-1.791-4.925 6.253-.82 17.699 9.168 25.567 9.988 7.867 22.078 9.176 27.003 2.923 1.541-1.956 2.198-4.422 2.067-7.127-5.273-3.494-9.993-10.172-12.469-18.539z" fill="#bf7fe3"/><path d="m99.642 376.041c-16.138-12.711-22.769-31.204-14.812-41.306 1.594-2.024 3.657-3.551 6.059-4.607-10.899-3.374-21.032-1.991-26.228 4.607-7.957 10.102-1.325 28.595 14.812 41.306 12.901 10.162 27.967 13.542 37.558 9.33-5.789-1.791-11.793-4.922-17.389-9.33z" fill="#b166db"/><path d="m74.715 264.498c-14.155-11.149-19.971-27.37-12.992-36.231 1.166-1.48 2.628-2.645 4.299-3.533-10.107-3.553-19.679-2.547-24.468 3.533-6.98 8.861-1.163 25.082 12.992 36.231 11.778 9.277 25.612 12.111 33.949 7.699-4.616-1.625-9.344-4.205-13.78-7.699z" fill="#b166db"/><path d="m54.415 162.173c-11.706-9.22-16.516-22.635-10.744-29.963.636-.807 1.383-1.495 2.208-2.089-9.125-3.887-18.079-3.368-22.377 2.089-5.772 7.328-.961 20.743 10.744 29.963 10.406 8.196 22.743 10.3 29.413 5.523-3.122-1.331-6.262-3.174-9.244-5.523z" fill="#b166db"/><path d="m35.227 73.672c-9.988-7.867-14.093-19.314-9.168-25.567.254-.322.535-.616.826-.898-8.419-4.248-17.029-4.137-20.995.898-4.925 6.253-.821 17.699 9.168 25.567 9.467 7.456 20.81 9.009 26.163 3.829-2.032-1.026-4.053-2.3-5.994-3.829z" fill="#b166db"/><path d="m198.274 306.723.989-1.473c-2.193-3.698-5.214-6.405-8.968-7.684-11.561-3.939-25.881 7.055-32.966 24.827.177.548.353 1.096.518 1.654 3.999 13.517 3.47 26.719-.607 36.089 2.2 3.782 5.258 6.547 9.067 7.844 9.155 3.119 20.042-3.124 27.696-14.682l.084-3.846s-6.597-11.079-8.203-25.18c-1.607-14.101 12.39-17.549 12.39-17.549z" fill="#bf7fe3"/><path d="m229.119 324.273c0-.581.013-1.157.027-1.733-11.836-15.032-28.687-21.511-38.655-14.454-10.496 7.43-9.384 27.044 2.485 43.811 11.868 16.766 29.998 24.335 40.494 16.905 3.284-2.325 5.432-5.843 6.469-10.094-6.567-7.83-10.82-20.339-10.82-34.435z" fill="#bf7fe3"/><path d="m232.422 213.634c0-.51.012-1.015.024-1.52-10.382-13.185-25.162-18.868-33.906-12.679-9.206 6.517-8.231 23.722 2.179 38.428s26.313 21.345 35.519 14.828c2.881-2.039 4.764-5.125 5.674-8.854-5.76-6.866-9.49-17.838-9.49-30.203z" fill="#bf7fe3"/><path d="m236.501 113.947c0-.422.01-.84.02-1.257-8.586-10.904-20.809-15.604-28.04-10.485-7.614 5.389-6.807 19.618 1.802 31.78s21.761 17.652 29.374 12.263c2.382-1.686 3.94-4.239 4.693-7.322-4.764-5.68-7.849-14.754-7.849-24.979z" fill="#bf7fe3"/><path d="m239.362 26.578c0-.36.008-.716.017-1.073-7.326-9.304-17.756-13.315-23.926-8.947-6.497 4.599-5.808 16.739 1.538 27.117s18.568 15.062 25.064 10.464c2.033-1.439 3.362-3.617 4.004-6.248-4.065-4.845-6.697-12.588-6.697-21.313z" fill="#bf7fe3"/><path d="m214.294 351.896c-11.84-16.726-12.973-36.283-2.558-43.754-7.847-3.712-15.635-4.027-21.243-.057-10.496 7.43-9.384 27.044 2.485 43.81 11.868 16.766 29.998 24.335 40.494 16.905.025-.018.046-.038.071-.056-6.84-3.232-13.723-9.042-19.249-16.848z" fill="#b166db"/><path d="m222.037 237.864c-9.98-14.099-11.283-30.488-3.261-37.561-7.414-4.002-14.934-4.62-20.235-.867-9.206 6.517-8.231 23.722 2.18 38.428 10.41 14.706 26.313 21.345 35.519 14.828.38-.269.739-.558 1.084-.862-5.465-2.946-10.87-7.726-15.287-13.966z" fill="#b166db"/><path d="m231.6 133.985c-7.648-10.805-9.122-23.225-4.021-29.645-6.86-4.538-14.149-5.639-19.098-2.135-7.614 5.389-6.807 19.618 1.803 31.78 8.609 12.162 21.761 17.652 29.374 12.263.849-.601 1.589-1.317 2.229-2.123-3.698-2.442-7.271-5.88-10.287-10.14z" fill="#b166db"/><path d="m238.308 43.676c-5.954-8.412-7.532-17.979-4.458-23.752-6.424-5.121-13.663-6.716-18.397-3.365-6.497 4.599-5.808 16.739 1.538 27.117s18.568 15.062 25.064 10.464c1.23-.871 2.199-2.016 2.917-3.365-2.39-1.906-4.672-4.285-6.664-7.099z" fill="#b166db"/><path d="m360.247 195.664c10.14-3.455 22.701 6.188 28.916 21.777-.155.481-.31.962-.454 1.451-3.508 11.856-3.044 23.436.532 31.655-1.93 3.317-4.612 5.742-7.953 6.88-10.677 3.637-24.043-7.24-29.853-24.296-5.81-17.055-1.865-33.83 8.812-37.467z" fill="#bf7fe3"/><path d="m397.364 105.247c8.386-2.857 18.774 5.118 23.913 18.01-.128.397-.256.795-.376 1.2-2.901 9.805-2.517 19.382.44 26.179-1.596 2.743-3.814 4.749-6.577 5.69-8.83 3.008-19.883-5.988-24.688-20.092-4.805-14.106-1.542-27.979 7.288-30.987z" fill="#bf7fe3"/><path d="m428.347 25.099c7.156-2.438 16.019 4.367 20.405 15.367-.109.339-.219.679-.321 1.024-2.475 8.367-2.148 16.538.375 22.338-1.362 2.341-3.254 4.052-5.612 4.855-7.534 2.567-16.966-5.109-21.066-17.144-4.099-12.036-1.315-23.874 6.219-26.44z" fill="#bf7fe3"/><path d="m368.89 233.131c-5.034-14.776-2.741-29.335 4.903-35.329-4.505-2.705-9.243-3.604-13.546-2.138-10.677 3.637-14.622 20.412-8.812 37.467s19.176 27.933 29.853 24.296c1.424-.485 2.72-1.216 3.897-2.138-6.671-4.006-12.829-11.981-16.295-22.158z" fill="#b166db"/><path d="m407.531 136.233c-3.867-11.351-2.505-22.547 2.774-28.056-4.224-3.12-8.824-4.333-12.941-2.93-8.83 3.008-12.093 16.881-7.288 30.986s15.859 23.101 24.689 20.093c1.723-.587 3.233-1.588 4.514-2.923-4.838-3.569-9.183-9.641-11.748-17.17z" fill="#b166db"/><path d="m439.584 51.538c-3.031-8.898-2.291-17.678 1.342-22.693-4.001-3.568-8.559-5.116-12.578-3.747-7.534 2.567-10.318 14.404-6.218 26.439s13.532 19.711 21.066 17.144c1.963-.669 3.598-1.974 4.879-3.742-3.503-3.118-6.578-7.784-8.491-13.401z" fill="#b166db"/><path d="m354.154 324.047c.165-.557.341-1.106.518-1.654-7.085-17.772-21.405-28.766-32.966-24.827-3.754 1.279-6.775 3.986-8.968 7.684l1.357 2.044s12.178 4.313 11.798 14.081c-.381 9.768-8.373 28.036-8.373 28.036l.478 3.888c7.654 11.558 18.541 17.8 27.696 14.682 3.809-1.297 6.866-4.062 9.067-7.844-4.077-9.371-4.606-22.573-.607-36.09z" fill="#b166db"/><g><path d="m332.353 500.098c-4.206 0-7.618-3.413-7.612-7.623.038-23.696-16.748-38.294-16.917-38.439-3.187-2.719-3.59-7.516-.885-10.715 2.705-3.2 7.474-3.622 10.687-.932.914.766 22.388 19.114 22.338 50.11-.007 4.199-3.414 7.599-7.611 7.599z" fill="#95d6a4"/></g><path d="m329.357 387.171c1.599.042 3.048 2.301 2.419 3.772-5.52 12.915-15.742 25.153-29.76 34.143-14.018 8.989-29.406 13.174-43.446 12.802-1.599-.042-3.048-2.301-2.419-3.772 5.52-12.915 15.742-25.153 29.76-34.143s29.406-13.174 43.446-12.802z" fill="#95d6a4"/><path d="m298.089 408.768c9.903-6.351 20.488-10.292 30.8-11.934 1.066-1.943 2.039-3.908 2.887-5.891.629-1.471-.82-3.73-2.419-3.772-14.04-.372-29.427 3.812-43.446 12.802-14.018 8.989-24.241 21.228-29.76 34.143-.629 1.471.82 3.73 2.419 3.772 4.122.109 8.361-.186 12.646-.868 5.876-10.704 15.008-20.643 26.873-28.252z" fill="#78c2a4"/><path d="m433.079 422.663c1.492.578 2.095 3.193 1.008 4.366-9.546 10.302-23.292 18.384-39.519 22.129-16.227 3.744-32.125 2.503-45.219-2.575-1.492-.578-2.095-3.193-1.008-4.366 9.546-10.302 23.292-18.384 39.519-22.129 16.226-3.744 32.124-2.503 45.219 2.575z" fill="#95d6a4"/><path d="m400.037 428.884c11.487-2.651 22.803-2.792 33.083-.854.323-.333.653-.663.966-1.001 1.087-1.173.484-3.788-1.008-4.367-13.095-5.078-28.992-6.319-45.22-2.574-16.227 3.744-29.973 11.826-39.519 22.128-1.087 1.173-.484 3.788 1.007 4.366 3.825 1.483 7.895 2.628 12.137 3.428 9.499-9.819 22.86-17.505 38.554-21.126z" fill="#78c2a4"/><path d="m78.921 422.663c-1.492.578-2.095 3.193-1.008 4.366 9.546 10.302 23.292 18.384 39.519 22.129 16.227 3.744 32.125 2.503 45.219-2.575 1.492-.578 2.095-3.193 1.008-4.366-9.546-10.302-23.292-18.384-39.519-22.129-16.226-3.744-32.124-2.503-45.219 2.575z" fill="#95d6a4"/><path d="m160.234 438.794c-10.345 1.988-21.75 1.866-33.329-.806-14.381-3.318-26.807-10.048-36.093-18.706-4.153.798-8.14 1.926-11.89 3.38-1.492.578-2.095 3.193-1.007 4.367 9.546 10.302 23.292 18.384 39.519 22.129 16.226 3.744 32.124 2.503 45.219-2.575 1.492-.578 2.095-3.193 1.008-4.366s-2.234-2.312-3.427-3.423z" fill="#78c2a4"/><path d="m182.643 410.441c-1.599.042-3.048 2.301-2.419 3.772 5.52 12.915 15.742 25.153 29.76 34.143 14.018 8.989 29.406 13.174 43.446 12.802 1.599-.042 3.048-2.301 2.419-3.772-5.52-12.915-15.742-25.154-29.76-34.143-14.018-8.99-29.406-13.174-43.446-12.802z" fill="#95d6a4"/><path d="m251.733 449.344c-10.775-1.489-21.9-5.503-32.276-12.157-11.067-7.097-19.755-16.222-25.644-26.102-3.782-.523-7.522-.741-11.169-.644-1.599.042-3.048 2.301-2.419 3.772 5.52 12.915 15.742 25.153 29.76 34.143 14.019 8.989 29.406 13.173 43.446 12.802 1.599-.042 3.048-2.301 2.419-3.772-1.162-2.72-2.546-5.406-4.117-8.042z" fill="#78c2a4"/><path d="m321.508 308.085c-9.968-7.057-26.819-.577-38.655 14.454.014.576.027 1.152.027 1.733 0 14.096-4.253 26.606-10.82 34.434 1.037 4.251 3.185 7.769 6.469 10.094 10.496 7.43 28.626-.139 40.494-16.905 11.869-16.766 12.981-36.38 2.485-43.81z" fill="#bf7fe3"/><path d="m313.46 199.436c-8.744-6.19-23.524-.506-33.906 12.679.012.505.024 1.01.024 1.52 0 12.364-3.73 23.337-9.491 30.204.91 3.729 2.793 6.815 5.674 8.854 9.206 6.517 25.109-.122 35.519-14.828 10.411-14.708 11.387-31.912 2.18-38.429z" fill="#bf7fe3"/><path d="m303.52 102.204c-7.231-5.119-19.454-.419-28.04 10.485.01.418.02.835.02 1.257 0 10.225-3.085 19.3-7.849 24.979.752 3.084 2.31 5.636 4.693 7.322 7.614 5.39 20.765-.101 29.374-12.263s9.415-26.39 1.802-31.78z" fill="#bf7fe3"/><path d="m296.547 16.559c-6.17-4.368-16.6-.357-23.926 8.947.009.356.017.713.017 1.073 0 8.725-2.632 16.468-6.697 21.314.642 2.631 1.971 4.809 4.004 6.248 6.497 4.599 17.718-.086 25.064-10.464 7.346-10.379 8.035-22.52 1.538-27.118z" fill="#bf7fe3"/><g><path d="m256 511.998c-4.204 0-7.611-3.407-7.611-7.611v-457.497c0-4.204 3.408-7.611 7.611-7.611s7.611 3.407 7.611 7.611v457.496c0 4.205-3.407 7.612-7.611 7.612z" fill="#b3e59f"/></g><path d="m151.753 195.664c-10.14-3.455-22.701 6.188-28.916 21.777.155.481.31.962.454 1.451 3.508 11.856 3.044 23.436-.532 31.655 1.93 3.317 4.612 5.742 7.953 6.88 10.677 3.637 24.043-7.24 29.853-24.296 5.81-17.055 1.865-33.83-8.812-37.467z" fill="#bf7fe3"/><path d="m114.636 105.247c-8.386-2.857-18.774 5.118-23.913 18.01.128.397.256.795.376 1.2 2.901 9.805 2.517 19.382-.44 26.179 1.596 2.743 3.814 4.749 6.577 5.69 8.83 3.008 19.883-5.988 24.688-20.092 4.805-14.106 1.542-27.979-7.288-30.987z" fill="#bf7fe3"/><path d="m83.653 25.099c-7.156-2.438-16.019 4.367-20.405 15.367.109.339.219.679.321 1.024 2.475 8.367 2.148 16.538-.375 22.338 1.362 2.341 3.254 4.052 5.612 4.855 7.534 2.567 16.966-5.109 21.066-17.144 4.099-12.036 1.315-23.874-6.219-26.44z" fill="#bf7fe3"/><g><path d="m183.165 512c-3.285 0-6.316-2.144-7.296-5.454l-129.507-437.739c-1.193-4.031 1.108-8.266 5.139-9.458 4.03-1.193 8.266 1.108 9.458 5.139l129.508 437.739c1.193 4.031-1.109 8.266-5.139 9.458-.72.214-1.448.315-2.163.315z" fill="#b3e59f"/></g><path d="m405.706 339.299c.165-.557.316-1.113.465-1.669 15.614-11.056 33.611-12.489 41.167-2.894 7.957 10.102 1.326 28.595-14.812 41.306-16.137 12.71-35.669 14.824-43.626 4.722-2.49-3.161-3.551-7.144-3.339-11.515 8.519-5.644 16.146-16.433 20.145-29.95z" fill="#bf7fe3"/><path d="m433.928 232.27c.145-.489.277-.977.408-1.464 13.696-9.698 29.481-10.954 36.11-2.539 6.979 8.861 1.163 25.082-12.992 36.231s-31.287 13.003-38.266 4.142c-2.184-2.773-3.115-6.266-2.929-10.1 7.471-4.95 14.161-14.414 17.669-26.27z" fill="#bf7fe3"/><path d="m458.298 135.521c.12-.404.229-.808.338-1.211 11.327-8.02 24.381-9.059 29.863-2.099 5.772 7.328.962 20.743-10.744 29.963s-25.875 10.754-31.646 3.425c-1.806-2.293-2.576-5.182-2.422-8.353 6.177-4.094 11.71-11.92 14.611-21.725z" fill="#bf7fe3"/><path d="m480.341 50.93c.102-.345.195-.689.288-1.033 9.665-6.843 20.804-7.73 25.481-1.791 4.925 6.253.82 17.699-9.168 25.567-9.988 7.867-22.078 9.176-27.003 2.923-1.541-1.956-2.198-4.422-2.067-7.127 5.273-3.494 9.993-10.172 12.469-18.539z" fill="#bf7fe3"/><g><path d="m328.835 512c-.715 0-1.442-.101-2.163-.315-4.031-1.192-6.332-5.427-5.139-9.458l129.648-438.213c1.193-4.031 5.425-6.337 9.458-5.139 4.031 1.192 6.332 5.427 5.139 9.458l-129.648 438.213c-.979 3.31-4.011 5.454-7.295 5.454z" fill="#b3e59f"/></g><g fill="#cc98e9"><ellipse cx="256" cy="26.578" rx="16.638" ry="26.578"/><ellipse cx="47.614" cy="46.21" rx="16.638" ry="26.578" transform="matrix(.959 -.284 .284 .959 -11.153 15.407)"/><ellipse cx="464.386" cy="46.21" rx="26.578" ry="16.638" transform="matrix(.284 -.959 .959 .284 288.328 478.406)"/><ellipse cx="256" cy="324.272" rx="27.388" ry="43.447"/><ellipse cx="256" cy="213.635" rx="24.086" ry="38.171"/><ellipse cx="256" cy="113.946" rx="20.007" ry="31.656"/></g><path d="m256.809 26.578c0-9.568 3.166-17.951 7.915-22.632-2.537-2.5-5.524-3.946-8.724-3.946-9.189 0-16.638 11.899-16.638 26.578s7.449 26.578 16.638 26.578c3.2 0 6.187-1.446 8.724-3.946-4.749-4.681-7.915-13.064-7.915-22.632z" fill="#bf7fe3"/><path d="m246.059 324.272c0-19.118 7.829-35.38 18.665-41.174-2.742-1.466-5.674-2.273-8.724-2.273-15.102 0-27.388 19.49-27.388 43.447 0 23.956 12.286 43.447 27.388 43.447 3.05 0 5.981-.807 8.724-2.273-10.837-5.793-18.665-22.055-18.665-41.174z" fill="#bf7fe3"/><path d="m249.361 213.635c0-16.172 6.382-30.018 15.362-35.569-2.707-1.673-5.647-2.602-8.724-2.602-13.281 0-24.086 17.124-24.086 38.171s10.805 38.171 24.086 38.171c3.076 0 6.017-.929 8.724-2.602-8.979-5.551-15.362-19.397-15.362-35.569z" fill="#bf7fe3"/><path d="m253.44 113.946c0-12.509 4.61-23.345 11.283-28.483-2.638-2.031-5.598-3.173-8.724-3.173-11.032 0-20.007 14.201-20.007 31.656s8.975 31.656 20.007 31.656c3.126 0 6.085-1.142 8.724-3.173-6.672-5.137-11.283-15.973-11.283-28.483z" fill="#bf7fe3"/><path d="m142.019 296.785c-7.305-6.457-15.216-8.861-22.275-6.774-14.481 4.284-20.734 26.46-13.937 49.432 3.28 11.088 9.074 20.719 16.314 27.118 5.588 4.94 11.53 7.507 17.174 7.507 1.734 0 3.441-.243 5.1-.733 14.481-4.284 20.734-26.46 13.937-49.432-3.28-11.088-9.074-20.72-16.313-27.118z" fill="#cc98e9"/><path d="m111.511 262.184c6.213-1.837 10.902-7.398 13.203-15.658 2.277-8.176 1.945-18.041-.936-27.778s-7.97-18.195-14.329-23.816c-6.424-5.678-13.383-7.792-19.597-5.954s-10.902 7.398-13.203 15.658c-2.277 8.176-1.944 18.041.936 27.778 2.881 9.737 7.97 18.195 14.328 23.816 4.913 4.342 10.139 6.601 15.105 6.601 1.529-.001 3.031-.215 4.493-.647z" fill="#cc98e9"/><path d="m81.381 160.344c10.579-3.13 15.156-19.293 10.204-36.031-4.951-16.737-17.587-27.804-28.165-24.68-10.579 3.13-15.157 19.293-10.204 36.031 2.387 8.068 6.605 15.078 11.876 19.737 4.08 3.606 8.422 5.481 12.549 5.481 1.271 0 2.523-.179 3.74-.538z" fill="#cc98e9"/><path d="m51.229 50.93c-3.048-10.302-1.842-20.303 2.476-25.95-4.286-3.846-9.176-5.574-13.631-4.256-8.811 2.607-12.579 16.131-8.414 30.206 4.164 14.076 14.683 23.373 23.495 20.766 2.362-.699 4.357-2.188 5.939-4.256-4.192-3.762-7.806-9.55-9.865-16.51z" fill="#bf7fe3"/><path d="m148.02 366.561c-7.24-6.398-13.033-16.03-16.314-27.118-5.552-18.766-2.393-36.994 6.842-45.378-6.291-4.367-12.851-5.814-18.804-4.053-14.481 4.284-20.734 26.46-13.937 49.432 3.28 11.088 9.074 20.719 16.314 27.118 5.588 4.94 11.53 7.507 17.174 7.507 1.734 0 3.441-.243 5.1-.733 2.65-.784 5.021-2.172 7.09-4.05-1.166-.811-2.323-1.716-3.465-2.725z" fill="#bf7fe3"/><path d="m117.813 256.229c-6.359-5.62-11.448-14.078-14.329-23.816-2.88-9.737-3.213-19.602-.936-27.778 1.232-4.422 3.154-8.061 5.622-10.779-6.061-4.862-12.515-6.595-18.318-4.879-6.213 1.837-10.902 7.398-13.203 15.658-2.277 8.176-1.944 18.041.936 27.778 2.881 9.737 7.97 18.195 14.328 23.816 4.913 4.342 10.139 6.601 15.105 6.601 1.527 0 3.03-.214 4.492-.646 2.891-.855 5.447-2.526 7.592-4.891-.431-.346-.862-.687-1.289-1.064z" fill="#bf7fe3"/><path d="m79.115 135.664c-3.396-11.477-2.31-22.683 2.119-29.603-5.466-5.529-11.954-8.157-17.814-6.427-10.579 3.13-15.157 19.293-10.204 36.031 2.387 8.068 6.605 15.078 11.876 19.737 4.08 3.606 8.422 5.481 12.549 5.481 1.272 0 2.523-.178 3.74-.538 3.321-.983 6.05-3.25 8.078-6.416-4.552-4.607-8.195-10.998-10.344-18.265z" fill="#bf7fe3"/><path d="m392.256 290.011c-7.058-2.086-14.969.317-22.275 6.774-7.24 6.398-13.034 16.03-16.314 27.118-6.796 22.972-.544 45.147 13.937 49.432 1.66.491 3.366.733 5.101.733 5.644 0 11.586-2.569 17.174-7.507 7.24-6.398 13.033-16.03 16.314-27.118 6.796-22.972.544-45.148-13.937-49.432z" fill="#cc98e9"/><path d="m422.148 188.978c-6.213-1.836-13.172.277-19.597 5.954-6.359 5.62-11.447 14.078-14.328 23.816-2.881 9.737-3.213 19.601-.936 27.778 2.301 8.26 6.99 13.821 13.203 15.658 1.462.432 2.964.646 4.492.646 4.966 0 10.192-2.259 15.105-6.601 6.359-5.62 11.447-14.078 14.328-23.816 2.881-9.737 3.213-19.602.936-27.778-2.302-8.259-6.991-13.82-13.203-15.657z" fill="#cc98e9"/><path d="m448.58 99.633c-10.578-3.123-23.214 7.942-28.165 24.68s-.374 32.901 10.204 36.031c1.218.36 2.469.538 3.74.538 4.128 0 8.47-1.875 12.549-5.481 5.271-4.659 9.489-11.669 11.876-19.737 4.952-16.737.375-32.901-10.204-36.031z" fill="#cc98e9"/><path d="m467.79 41.489c2.079-7.028 5.744-12.865 9.988-16.623-1.567-2.009-3.533-3.456-5.851-4.142-8.811-2.607-19.33 6.69-23.495 20.766-4.164 14.076-.397 27.599 8.415 30.206 4.411 1.305 9.251-.374 13.507-4.142-4.391-5.626-5.633-15.693-2.564-26.065z" fill="#bf7fe3"/><path d="m377.009 323.903c3.281-11.088 9.075-20.719 16.314-27.118 1.611-1.424 3.253-2.639 4.907-3.664-1.794-1.403-3.789-2.464-5.974-3.11-7.058-2.086-14.969.317-22.275 6.774-7.24 6.398-13.034 16.03-16.314 27.118-6.796 22.972-.544 45.147 13.937 49.432 1.66.491 3.366.733 5.101.733 4.018 0 8.187-1.309 12.271-3.84-10.096-7.891-13.738-26.818-7.967-46.325z" fill="#bf7fe3"/><path d="m410.628 246.526c-2.277-8.176-1.945-18.041.936-27.778s7.969-18.195 14.328-23.816c.907-.802 1.825-1.524 2.75-2.182-1.902-1.777-4.082-3.059-6.495-3.772-6.213-1.836-13.172.277-19.597 5.954-6.359 5.62-11.447 14.078-14.328 23.816-2.881 9.737-3.213 19.601-.936 27.778 2.301 8.26 6.99 13.821 13.203 15.658 1.462.432 2.964.646 4.492.646 4.046 0 8.263-1.524 12.345-4.429-2.992-2.798-5.292-6.83-6.698-11.875z" fill="#bf7fe3"/><path d="m443.756 124.313c2.46-8.315 6.817-15.228 11.876-19.699-1.891-2.413-4.26-4.154-7.052-4.981-10.578-3.123-23.214 7.942-28.165 24.68s-.374 32.901 10.204 36.031c1.218.36 2.469.538 3.74.538 4.128 0 8.47-1.875 12.549-5.481.006-.005.011-.011.017-.016-5.287-6.725-6.817-18.739-3.169-31.072z" fill="#bf7fe3"/></g></svg>