<svg id="Capa_1" enable-background="new 0 0 512 512" height="512" viewBox="0 0 512 512" width="512" xmlns="http://www.w3.org/2000/svg"><g><g><path d="m353.356 105.177c-.172-.249-18.043-25.812-43.756-34.48l2.219-14.746h.01c.812 0 1.619.131 2.388.388 30.679 10.245 50.736 39.084 51.575 40.307 2.356 3.434 1.482 8.127-1.952 10.483-3.434 2.357-8.129 1.482-10.484-1.952z" fill="#7ab000"/><path d="m277.953 218.283c-.132-.19-13.946-19.979-34.755-30.654l6.883-13.418c24.29 12.46 39.664 34.604 40.306 35.54 2.356 3.434 1.483 8.127-1.951 10.483-3.446 2.365-8.135 1.469-10.483-1.951z" fill="#7ab000"/><path d="m165.489 157.675c-2.943-2.946-2.94-7.721.007-10.663 2.009-2.005 49.817-48.898 104.272-29.087l-5.156 14.171c-45.536-16.565-88.035 25.163-88.459 25.586-2.944 2.94-7.718 2.942-10.664-.007z" fill="#7ab000"/><g fill="#94c614"><path d="m275.415 99.95c-7.479-23.979-4.488-47.192-4.357-48.168.554-4.127 4.347-7.023 8.476-6.471 4.128.554 7.025 4.349 6.471 8.476-.026.197-2.647 20.98 3.807 41.673z"/><path d="m223.525 365.502c20.648-2.726 22.771-29.097 22.851-30.218.297-4.144 3.885-7.279 8.037-6.996 4.145.284 7.281 3.856 7.01 8.002-.894 13.702-9.495 40.48-35.626 44.124z"/><path d="m347.302 38.175c-4.158-20.252 9.816-33.287 17.786-37.35 3.709-1.892 8.25-.417 10.142 3.293 1.884 3.695.43 8.213-3.247 10.119-1.348.718-12.718 7.223-9.908 20.905z"/><path d="m226.126 307.017c-25.796-4.988-31.129-25.173-30.345-35.149.326-4.152 3.961-7.252 8.108-6.926 4.129.324 7.218 3.916 6.931 8.04-.143 2.624.084 15.673 18.044 19.205z"/><path d="m226.673 504.46c-3.227.171-6.404.302-9.531.392-151.078 4.615-196.712-77.957-209.43-142.442-3.991-20.218 19.333-34.484 35.59-21.827 17.664 13.764 42.839 25.828 78.249 29.558 76.368 8.043 97.733 88.011 103.292 120.605 1.448 8.446 1.83 13.714 1.83 13.714z"/><path d="m504.167 324.437c-16.197 82.139-74.559 187.432-268.365 180.435-3.006-.111-6.052-.251-9.129-.412 0 0 .402-5.59 1.87-14.739 6.324-39.431 32.444-145.076 131.353-155.492 44.88-4.715 76.781-20.017 99.17-37.45 20.6-16.046 50.158 2.031 45.101 27.658z"/></g><path d="m435.108 386.087c-.161.03-8.244 1.357-21.394 4.906-13.15 3.559-31.358 9.33-51.777 18.238-36.485 15.925-87.548 45.332-126.135 95.642-3.006-.111-6.052-.251-9.129-.412 0 0 .402-5.59 1.87-14.739 40.014-49.364 90.987-78.49 127.793-94.495 42.507-18.489 75.021-23.817 76.389-24.039 4.112-.643 7.973 2.151 8.636 6.263.654 4.112-2.141 7.972-6.253 8.636z" fill="#7ab000"/><path d="m226.673 504.46c-3.227.171-6.404.302-9.531.392-58.854-68.506-127.843-82.592-128.547-82.732-4.082-.794-6.756-4.745-5.972-8.827s4.735-6.756 8.817-5.982c3.016.583 71.935 14.457 133.403 83.436 1.448 8.445 1.83 13.713 1.83 13.713z" fill="#7ab000"/><path d="m219.135 504.66c-1.043-39.322-2.768-83.145-2.163-131.776.796-63.519 5.644-133.272 22.4-193.971 27.29-99.076 83.982-163.648 185.513-161.758l15.77-.04c9.97 0-1.424 18.158-16.054 15.117-40.919-.761-77.728 10.009-107.743 36.877-32.373 28.978-51.377 71.802-62.949 113.812-16.428 59.511-21.083 128.37-21.858 190.149-.597 48.047 1.128 92.437 2.16 131.188.11 4.163-3.175 7.628-7.338 7.738-4.144.12-7.626-3.163-7.738-7.336z" fill="#a6d239"/><circle cx="451.958" cy="37.704" fill="#efedff" r="30.161"/><path d="m178.144 217.063c17.947-25.73 7.534-61.805-21.749-73.844-36.743-6.721-56.982 25.184-42.226 48.438 18.013 22.331 50.139 40.623 63.975 25.406z" fill="#a6d239"/><path d="m156.395 143.218c-16.773-6.896-36.442-4.107-50.678 7.992-8.955 9.849-3.206 25.993 8.452 40.446 12.296-21.111 27.177-37.905 42.226-48.438z" fill="#94c614"/><path d="m336.551 215.68c-9.922-9.317-23.729-12.677-36.458-9.61-30.389 14.198-23.207 61.383 3.458 59.798 21.47-10.621 43.993-36.837 33-50.188z" fill="#a6d239"/><path d="m300.093 206.07c-5.663 1.365-11.114 3.997-15.912 7.951h-.01c-15.695 12.946-18.803 35.209-8.425 51.727 5.726 6.954 16.623 5.652 27.806.12-4.228-19.345-5.676-40.507-3.459-59.798z" fill="#94c614"/><path d="m328.908 298.677c.874-2.577 3.122-4.51 5.821-4.861 8.209-1.067 15.345-6.739 18.058-14.873.853-2.556 3.021-4.421 5.694-4.755 4.472-.559 8.832-2.499 12.413-5.878 8.013-7.571 9.149-20.128 2.634-29.025-3.549-4.846-8.636-7.792-14.045-8.727-7.53-1.297-14.407-5.057-19.263-10.959-.536-.609-1.581-1.968-3.67-3.921l-36.315 29.903c-16.065 24.725-3.266 61.818 20.01 64.329.189-.126.385-.236.571-.369 3.948-2.822 6.665-6.656 8.092-10.864z" fill="#efedff"/><path d="m300.235 245.582-24.49 20.165c1.527 2.426 3.02 4.179 3.147 4.343 4.856 5.902 7.229 13.371 7.068 21.012-.121 5.489 1.79 11.049 5.861 15.463 7.325 7.925 19.5 9.313 28.424 3.345-11.303-18.59-17.621-42.735-20.01-64.328z" fill="#d9d9f9"/><path d="m109.906 253.764c1.401 5.665 4.622 10.955 9.624 14.915 17.569 13.917 43.79 1.732 44.387-20.761.261-9.491 3.66-18.63 10.044-25.657.086-.101 2.03-2.113 4.182-5.198l-50.33-45.761c-26.314-10.786-52.16 51.313-35.331 72.535 3.512 2.444 7.444 3.978 11.484 4.592 2.888.439 5.239 2.499 5.94 5.335z" fill="#efedff"/><path d="m127.814 171.302-22.097-20.091c-2.643 2.247-4.285 4.128-4.786 4.645-6.384 7.028-15.161 11.28-24.581 12.437-6.766.834-13.261 4.182-17.966 9.973-8.626 10.637-7.973 26.301 1.508 36.184 4.419 4.606 9.989 7.309 15.762 8.166 2.889.429 5.163 2.573 5.874 5.406 1.555 6.196 5.252 11.848 10.955 15.817 2.603-9.845 6.087-19.932 10.48-30.027 6.985-16.055 15.519-30.423 24.851-42.51z" fill="#d9d9f9"/><path d="m411.954 102.57c-9.922-9.317-23.729-12.677-36.458-9.61-30.389 14.198-23.207 61.383 3.458 59.798 21.471-10.62 43.994-36.836 33-50.188z" fill="#a6d239"/><path d="m375.496 92.961c-5.663 1.365-11.114 3.997-15.912 7.951h-.01c-15.695 12.946-18.803 35.209-8.425 51.727 5.726 6.954 16.623 5.652 27.806.12-4.227-19.346-5.675-40.507-3.459-59.798z" fill="#94c614"/><path d="m404.311 185.568c.874-2.577 3.122-4.51 5.821-4.861 8.209-1.067 15.345-6.739 18.058-14.873.853-2.556 3.021-4.421 5.694-4.755 4.472-.559 8.832-2.499 12.413-5.878 8.013-7.571 9.149-20.128 2.634-29.025-3.549-4.846-8.636-7.792-14.045-8.727-7.53-1.297-14.407-5.057-19.263-10.959-.536-.609-1.581-1.968-3.67-3.921l-36.315 29.903c-16.065 24.725-3.266 61.818 20.01 64.329.189-.126.385-.236.571-.369 3.949-2.823 6.666-6.656 8.092-10.864z" fill="#efedff"/><path d="m375.639 132.473-24.49 20.165c1.527 2.426 3.02 4.179 3.147 4.343 4.856 5.902 7.229 13.371 7.068 21.012-.121 5.489 1.79 11.049 5.861 15.463 7.325 7.925 19.5 9.313 28.424 3.345-11.304-18.59-17.622-42.735-20.01-64.328z" fill="#d9d9f9"/></g></g></svg>