<svg xmlns="http://www.w3.org/2000/svg" version="1.1" xmlns:xlink="http://www.w3.org/1999/xlink" width="512" height="512" x="0" y="0" viewBox="0 0 60 60" style="enable-background:new 0 0 512 512" xml:space="preserve" class=""><g><g fill="none" fill-rule="nonzero"><path fill="#783e22" d="M57 55h-3a2 2 0 0 1 2 2v2h3v-2a2 2 0 0 0-2-2z" opacity="1" data-original="#783e22"></path><path fill="#91562d" d="M7 51h46a2 2 0 0 1 2 2v2H5v-2a2 2 0 0 1 2-2z" opacity="1" data-original="#91562d"></path><path fill="#6d4122" d="M53 51h-3a2 2 0 0 1 2 2v2h3v-2a2 2 0 0 0-2-2z" opacity="1" data-original="#6d4122"></path><path fill="#a4c400" d="M47 51a10 10 0 0 0 7.7-3.63C56.79 44.85 59 41.2 59 37c0-8-6-5-6-5s2-9 0-12a4.18 4.18 0 0 0-7 0s2.54-7.46-1-11c-3-3-8 1-8 1s0-9-7-9-7 9-7 9-5-4-8-1c-3.54 3.54-1 11-1 11a4.18 4.18 0 0 0-7 0c-2 3 0 12 0 12s-6-3-6 5c0 4.2 2.21 7.85 4.31 10.37A10 10 0 0 0 13 51z" opacity="1" data-original="#a4c400"></path><path fill="#90ac00" d="M42 9c3.54 3.54 1 11 1 11a4 4 0 0 1 3.49-1.89C47 15.66 47.42 11.42 45 9a4.23 4.23 0 0 0-4.37-.87c.516.184.984.48 1.37.87zM50 20c2 3 0 12 0 12a5.55 5.55 0 0 1 3.1-.48c.37-1.88 1.63-8.93-.1-11.52a4.15 4.15 0 0 0-5-1.62A4.14 4.14 0 0 1 50 20zM53.73 31.72C55 32.24 56 33.66 56 37c0 4.2-2.21 7.85-4.31 10.37A10 10 0 0 1 44 51h3a10 10 0 0 0 7.7-3.63C56.79 44.85 59 41.2 59 37c0-6.25-3.66-5.79-5.27-5.28z" opacity="1" data-original="#90ac00"></path><g fill="#9d27b0" transform="translate(1 1)"><circle cx="36" cy="23" r="2" fill="#9d27b0" opacity="1" data-original="#9d27b0"></circle><circle cx="23" cy="16" r="2" fill="#9d27b0" opacity="1" data-original="#9d27b0"></circle><circle cx="20" cy="29" r="3" fill="#9d27b0" opacity="1" data-original="#9d27b0"></circle><circle cx="32" cy="38" r="4" fill="#9d27b0" opacity="1" data-original="#9d27b0"></circle><circle cx="13" cy="40" r="2" fill="#9d27b0" opacity="1" data-original="#9d27b0"></circle><circle cx="46" cy="42" r="2" fill="#9d27b0" opacity="1" data-original="#9d27b0"></circle></g><g fill="#000"><path d="M1 60h58a1 1 0 0 0 1-1v-2a3 3 0 0 0-3-3h-1v-1a3 3 0 0 0-2.75-3 10.76 10.76 0 0 0 2.21-2C57.53 45.53 60 41.6 60 37c0-3-.79-5-2.36-5.94a4.72 4.72 0 0 0-3.34-.51c.51-2.89 1.21-8.58-.47-11.1a5.06 5.06 0 0 0-4.64-2.33 5.48 5.48 0 0 0-1.56.32c.45-2.7.54-6.68-1.92-9.15s-5.9-1.17-7.84-.06C37.38 4.69 35.36 0 30 0s-7.38 4.69-7.87 8.23c-1.94-1.11-5.35-2.43-7.84.06s-2.37 6.45-1.92 9.15a5.41 5.41 0 0 0-1.56-.32 5.08 5.08 0 0 0-4.64 2.33c-1.68 2.52-1 8.21-.47 11.1a4.72 4.72 0 0 0-3.34.51C.79 32 0 34 0 37c0 4.6 2.47 8.53 4.54 11a10.76 10.76 0 0 0 2.21 2A3 3 0 0 0 4 53v1H3a3 3 0 0 0-3 3v2a1 1 0 0 0 1 1zm1-23c0-1.53.24-3.51 1.41-4.24a2.32 2.32 0 0 1 1.23-.31 5.16 5.16 0 0 1 1.91.44 1 1 0 0 0 1.07-.1 1 1 0 0 0 .36-1c-.74-3.32-1.43-9.3-.15-11.23a3.1 3.1 0 0 1 2.86-1.44 3 3 0 0 1 2.42 1.34 1.022 1.022 0 1 0 1.89-.78c0-.07-2.29-6.92.76-10 2.33-2.33 6.62 1 6.67 1.07a1 1 0 0 0 1.05.12A1 1 0 0 0 24 10c0-.33.09-8 6-8s6 7.67 6 8a1 1 0 0 0 .57.9 1 1 0 0 0 1.06-.12S42 7.37 44.29 9.71c3.05 3 .79 9.9.76 10a1 1 0 0 0 1.84.77 3 3 0 0 1 2.42-1.34 3.11 3.11 0 0 1 2.86 1.44c1.28 1.93.59 7.91-.15 11.23a1 1 0 0 0 1.42 1.12s1.9-.92 3.15-.14S58 35.47 58 37c0 4-2.21 7.5-4.07 9.73A9 9 0 0 1 47 50H13a9 9 0 0 1-6.94-3.27C4.21 44.5 2 41 2 37zm4 16a1 1 0 0 1 1-1h46a1 1 0 0 1 1 1v1H6zm-4 4a1 1 0 0 1 1-1h54a1 1 0 0 1 1 1v1H2z" fill="#000000" opacity="0" data-original="#000000" class=""></path><path d="M37 27a3 3 0 1 0 0-6 3 3 0 0 0 0 6zm0-4a1 1 0 1 1 0 2 1 1 0 0 1 0-2zM24 20a3 3 0 1 0 0-6 3 3 0 0 0 0 6zm0-4a1 1 0 1 1 0 2 1 1 0 0 1 0-2zM21 34a4 4 0 1 0 0-8 4 4 0 0 0 0 8zm0-6a2 2 0 1 1 0 4 2 2 0 0 1 0-4zM33 44a5 5 0 1 0 0-10 5 5 0 0 0 0 10zm0-8a3 3 0 1 1 0 6 3 3 0 0 1 0-6zM14 44a3 3 0 1 0 0-6 3 3 0 0 0 0 6zm0-4a1 1 0 1 1 0 2 1 1 0 0 1 0-2zM47 46a3 3 0 1 0 0-6 3 3 0 0 0 0 6zm0-4a1 1 0 1 1 0 2 1 1 0 0 1 0-2z" fill="#000000" opacity="0" data-original="#000000" class=""></path></g></g></g></svg>