<svg id="Capa_1" enable-background="new 0 0 512 512" height="512" viewBox="0 0 512 512" width="512" xmlns="http://www.w3.org/2000/svg"><g><g><circle cx="401.472" cy="379.449" fill="#fea95c" r="34.626"/><path d="m416.068 410.859c-4.43 2.06-9.375 3.214-14.587 3.214-19.131 0-34.635-15.504-34.635-34.624 0-19.13 15.504-34.624 34.635-34.624 5.213 0 10.157 1.153 14.587 3.214-11.837 5.501-20.047 17.492-20.047 31.41-.001 13.907 8.21 25.909 20.047 31.41z" fill="#fe9738"/></g><path d="m302.599 512h-109.773c-2.65 0-4.627-2.498-3.961-5.063.66-2.54 1.807-4.908 3.351-6.98 2.534-3.389 6.13-5.985 10.405-7.263l1.628-.474c8.107-2.41 13.846-9.622 14.371-18.069l19.513-316.592c.132-2.15 1.914-3.825 4.068-3.825h11.023c2.154 0 3.936 1.676 4.068 3.825l15.862 257.427c.238 3.864 5.223 5.251 7.422 2.065l53.367-77.311c1.245-1.804 3.694-2.3 5.543-1.123l8.54 5.436c1.849 1.177 2.436 3.606 1.329 5.497l-72.591 124.004.041.597c.525 8.448 6.264 15.659 14.371 18.069l1.628.474c6.874 2.048 12.012 7.533 13.756 14.242.666 2.565-1.31 5.064-3.961 5.064z" fill="#bc7c63"/><path d="m247.767 153.734c2.307 0 4.154 1.913 4.073 4.218l-11.03 316.199c-.299 8.448-3.554 15.659-8.149 18.069l-.917.474c-2.421 1.278-4.461 3.874-5.893 7.263-1.028 2.439-1.747 5.287-2.072 8.346-.222 2.092-1.951 3.697-4.055 3.697h-26.9c-2.65 0-4.627-2.498-3.961-5.063.66-2.54 1.807-4.908 3.351-6.98 2.534-3.389 6.13-5.985 10.405-7.263l1.628-.474c8.107-2.41 13.846-9.622 14.371-18.069l19.513-316.592c.132-2.15 1.914-3.825 4.068-3.825z" fill="#ab695d"/><path d="m52.573 271.752c-2.274 4.696-3.551 9.965-3.551 15.532 0 19.706 15.975 35.682 35.682 35.682 2.853 0 5.624-.345 8.284-.977.408 14.786 12.513 26.65 27.398 26.65 6.571 0 12.6-2.314 17.322-6.168 1.911 13.275 13.328 23.478 27.131 23.478 4.089 0 7.966-.902 11.452-2.507 5.202 16.041 20.26 27.643 38.035 27.643 16.859 0 31.27-10.439 37.15-25.201 4.942 7.196 13.225 11.918 22.614 11.918 9.606 0 18.053-4.944 22.949-12.423 3.212 11.574 13.817 20.072 26.414 20.072 14.068 0 25.655-10.598 27.229-24.244 8.423 9.128 20.483 14.85 33.883 14.85 25.461 0 46.1-20.64 46.1-46.1 0-3.684-.445-7.263-1.261-10.697 4.045 2.353 8.743 3.706 13.76 3.706 15.142 0 27.417-12.275 27.417-27.417 0-7.055-2.667-13.486-7.045-18.345 21.751-3.701 38.315-22.627 38.315-45.432 0-25.461-20.64-46.1-46.1-46.1-1.3 0-2.584.067-3.857.173 0-.058.004-.115.004-.173 0-15.142-12.275-27.417-27.417-27.417-8.625 0-16.316 3.987-21.342 10.214.004-.203.015-.405.015-.609 0-15.142-12.275-27.418-27.417-27.418-8.575 0-16.227 3.938-21.255 10.102.003-.185.014-.368.014-.554 0-14.861-9.087-27.596-22.006-32.962 3.796-6.699 5.974-14.437 5.974-22.687 0-25.46-20.64-46.1-46.1-46.1-8.754 0-16.939 2.44-23.91 6.677 3.562-5.552 5.636-12.149 5.636-19.235 0-19.708-15.975-35.683-35.682-35.683-13.22 0-24.752 7.195-30.918 17.878-4.357-2.918-9.596-4.622-15.234-4.622-15.142 0-27.417 12.275-27.417 27.417 0 .413.013.823.031 1.231-7.33-6.541-16.994-10.522-27.591-10.522-22.899 0-41.463 18.563-41.463 41.462 0 2.67.262 5.278.744 7.806-3.71-1.307-7.699-2.025-11.856-2.025-19.706 0-35.682 15.975-35.682 35.682 0 7.405 2.257 14.282 6.118 19.984-1.968-.449-4.014-.694-6.118-.694-15.142 0-27.417 12.275-27.417 27.418 0 10.141 5.51 18.99 13.696 23.733-14.927 7.631-25.153 23.147-25.153 41.063 0 24.221 18.685 44.065 42.425 45.941z" fill="#9be69d"/><path d="m236.294 32.136c10.858 0 20.748 4.079 28.248 10.776-.01-.422-.031-.845-.031-1.267 0-7.211 2.72-13.794 7.211-18.77-5.151-13.382-18.121-22.87-33.306-22.87-13.227 0-24.755 7.191-30.926 17.874-4.347-2.915-9.591-4.615-15.226-4.615-15.144 0-27.423 12.269-27.423 27.413 0 .412.021.824.031 1.236-7.325-6.542-16.988-10.529-27.588-10.529-22.901 0-41.465 18.564-41.465 41.465 0 2.668.268 5.275.742 7.809-3.709-1.308-7.695-2.03-11.847-2.03-19.707 0-35.685 15.978-35.685 35.686 0 7.407 2.256 14.278 6.119 19.985-1.968-.453-4.018-.7-6.119-.7-15.144 0-27.413 12.28-27.413 27.423 0 10.137 5.501 18.986 13.691 23.735-14.927 7.624-25.157 23.138-25.157 41.053 0 24.23 18.688 44.071 42.433 45.946-2.277 4.698-3.554 9.962-3.554 15.535 0 19.707 15.978 35.675 35.685 35.675 2.854 0 5.625-.34 8.283-.968.402 14.783 12.506 26.64 27.392 26.64 6.573 0 12.599-2.307 17.328-6.16 1.906 13.269 13.32 23.478 27.125 23.478 4.09 0 7.974-.906 11.456-2.514 5.202 16.04 20.264 27.65 38.034 27.65 15.133 0 28.299-8.416 35.078-20.83-6.717-4.296-11.487-11.384-12.671-19.625-4.832 3.946-11.013 6.315-17.74 6.315-15.236 0-27.629-12.146-28.052-27.28-2.72.649-5.553.999-8.478.999-20.171 0-36.53-16.359-36.53-36.53 0-5.707 1.308-11.095 3.637-15.906-24.312-1.917-43.443-22.241-43.443-47.038 0-18.337 10.477-34.222 25.755-42.042-8.376-4.852-14.021-13.918-14.021-24.302 0-15.494 12.568-28.062 28.072-28.062 2.153 0 4.244.247 6.264.711-3.956-5.841-6.264-12.887-6.264-20.469 0-20.171 16.359-36.53 36.53-36.53 4.255 0 8.344.741 12.146 2.07-.494-2.586-.762-5.254-.762-7.984-.003-23.446 18.994-42.453 42.441-42.453z" fill="#6fd7a3"/><g><circle cx="153.593" cy="356.466" fill="#fea95c" r="34.626"/><path d="m168.189 387.876c-4.43 2.06-9.375 3.214-14.587 3.214-19.131 0-34.635-15.504-34.635-34.624 0-19.13 15.504-34.624 34.635-34.624 5.213 0 10.157 1.153 14.587 3.214-11.837 5.501-20.047 17.492-20.047 31.41 0 13.908 8.21 25.909 20.047 31.41z" fill="#fe9738"/></g><g><circle cx="277.65" cy="277.316" fill="#fea95c" r="34.626"/><path d="m292.245 308.726c-4.43 2.06-9.375 3.214-14.587 3.214-19.131 0-34.635-15.504-34.635-34.624 0-19.13 15.504-34.624 34.635-34.624 5.213 0 10.157 1.153 14.587 3.214-11.837 5.501-20.047 17.492-20.047 31.41 0 13.907 8.21 25.909 20.047 31.41z" fill="#fe9738"/></g><g><circle cx="118.967" cy="208.063" fill="#fea95c" r="34.626"/><path d="m133.562 239.473c-4.43 2.06-9.375 3.214-14.587 3.214-19.131 0-34.635-15.504-34.635-34.624 0-19.13 15.504-34.624 34.635-34.624 5.213 0 10.157 1.153 14.587 3.214-11.837 5.502-20.047 17.492-20.047 31.41 0 13.907 8.211 25.909 20.047 31.41z" fill="#fe9738"/></g><g><circle cx="257.439" cy="153.734" fill="#fea95c" r="34.626"/><path d="m272.035 185.144c-4.43 2.06-9.375 3.214-14.587 3.214-19.131 0-34.635-15.504-34.635-34.624 0-19.13 15.504-34.624 34.635-34.624 5.213 0 10.157 1.153 14.587 3.214-11.837 5.502-20.047 17.492-20.047 31.41 0 13.907 8.21 25.909 20.047 31.41z" fill="#fe9738"/></g><g><circle cx="401.472" cy="242.691" fill="#fea95c" r="34.626"/><path d="m416.068 274.101c-4.43 2.06-9.375 3.214-14.587 3.214-19.131 0-34.635-15.504-34.635-34.624 0-19.13 15.504-34.624 34.635-34.624 5.213 0 10.157 1.153 14.587 3.214-11.837 5.502-20.047 17.492-20.047 31.41-.001 13.908 8.21 25.909 20.047 31.41z" fill="#fe9738"/></g></g></svg>