<svg height="512" viewBox="0 0 64 64" width="512" xmlns="http://www.w3.org/2000/svg"><g id="_27-coconut_tree" data-name="27-coconut tree"><path d="m31 57h-6v-6h6l.12-.01c.1 1.78.26 3.96.4 5.97z" fill="#db885b"/><path d="m26.23 39h4.98c-.11 2.26-.17 4.36-.19 6h-5.71c.23-1.81.55-3.89.92-6z" fill="#db885b"/><g fill="#c47952"><path d="m31.91 61.92a1 1 0 0 1 -1 1.08h-4.91a1 1 0 0 1 -1-1v-5h6l.52-.04c.15 2.01.3 3.86.39 4.96z"/><path d="m31 51h-6v-2a36.315 36.315 0 0 1 .31-4h5.71c-.02 1.38-.02 2.44-.02 3 0 .64.05 1.71.12 2.99z"/><path d="m27.34 33h4.32c-.21 2-.35 4.06-.45 6h-4.98c.35-2.03.74-4.1 1.11-6z"/></g><path d="m28.78 25.96c1.7-3.72 3.2-7.86 3.22-10.89a24.137 24.137 0 0 0 1.98 7.97c-1.18 1.99-1.89 5.85-2.32 9.96h-4.32c.6-3.05 1.15-5.66 1.44-7.02.01 0 .01-.01 0-.02z" fill="#e6b269"/><path d="m32.01 15c7.99 1.02 7.99 20 7.99 20a87 87 0 0 1 -6.02-11.96 24.137 24.137 0 0 1 -1.98-7.97v-.07z" fill="#5d802b"/><path d="m28.78 25.96c.01.01.01.02 0 .02a94.854 94.854 0 0 1 -4.78 9.02s0-18.98 7.99-20h.01v.07c-.02 3.03-1.52 7.17-3.22 10.89z" fill="#5d802b"/><path d="m42 22a38.112 38.112 0 0 1 -2 13s0-18.98-7.99-20a14.8 14.8 0 0 1 1.97.17c2.91.4 8.02 1.83 8.02 6.83z" fill="#6cab46"/><path d="m30.02 15.17a15.037 15.037 0 0 1 1.97-.17c-7.99 1.02-7.99 20-7.99 20a38.112 38.112 0 0 1 -2-13c0-5 5.11-6.43 8.02-6.83z" fill="#6cab46"/><path d="m38 10.28c-4.31.85-5.58 3.47-5.9 4.39 1-3.43 2.57-7.5 6.9-9.67 6-3 13-1 13-1s-6.35.93-13.99 6.27a.01.01 0 0 1 -.01.01z" fill="#538f2c"/><path d="m31.9 14.67c-.35-1.01-1.83-4.03-7.14-4.58-7.59-5.44-12.76-6.09-12.76-6.09s7-2 13 1c4.33 2.17 5.9 6.24 6.9 9.67z" fill="#538f2c"/><path d="m46 1s4 .38 6 3c0 0-7-2-13 1-4.33 2.17-5.9 6.24-6.9 9.67a.487.487 0 0 0 -.04.11c-.01.05-.03.1-.04.15-.01.02-.01.04-.02.05v-.05c.02-1.05.47-12.74 10.55-13.89a8.9 8.9 0 0 1 .9-.04z" fill="#7bc24f"/><path d="m21.45 1.04c10.08 1.15 10.53 12.84 10.55 13.89v.05a.621.621 0 0 1 -.03-.1l-.06-.18a.037.037 0 0 0 -.01-.03c-1-3.43-2.57-7.5-6.9-9.67-6-3-13-1-13-1 2-2.63 6-3 6-3h2.55a8.9 8.9 0 0 1 .9.04z" fill="#7bc24f"/><path d="m40 13c9 0 14 13 14 13s-8-11-20-11l-.02.17a14.8 14.8 0 0 0 -1.97-.17h-.01a.031.031 0 0 1 .01-.02c.14-.22 1.43-1.98 7.99-1.98z" fill="#4f9a44"/><path d="m24 13c6.56 0 7.85 1.76 7.99 1.98a.031.031 0 0 1 .01.02h-.01a15.037 15.037 0 0 0 -1.97.17l-.02-.17c-12 0-20 11-20 11s5-13 14-13z" fill="#4f9a44"/><path d="m40 13c-6.56 0-7.85 1.76-7.99 1.98 0-.02.01-.03.01-.05.01-.05.03-.1.04-.15a.487.487 0 0 1 .04-.11c.32-.92 1.59-3.54 5.9-4.39a.01.01 0 0 0 .01-.01 15.57 15.57 0 0 1 2.99-.27c9 0 13 10 13 16 0 0-5-13-14-13z" fill="#7bc24f"/><path d="m31.99 14.98c-.14-.22-1.43-1.98-7.99-1.98-9 0-14 13-14 13 0-6 4-16 13-16a16.036 16.036 0 0 1 1.76.09c5.31.55 6.79 3.57 7.14 4.58a.037.037 0 0 1 .01.03l.06.18c.01.03.01.07.02.1z" fill="#7bc24f"/><path d="m27 51h-2v6h2z" fill="#92563a"/><path d="m27 44a32.463 32.463 0 0 1 .535-5h-1.3c-.37 2.11-.69 4.19-.92 6h1.685z" fill="#92563a"/><path d="m25 57v5a1 1 0 0 0 1 1h1v-6z" fill="#6f3529"/><path d="m27 45h-1.69a36.315 36.315 0 0 0 -.31 4v2h2z" fill="#6f3529"/><path d="m28.756 33h-1.416c-.37 1.9-.76 3.97-1.11 6h1.3c.345-2.019.798-4.151 1.226-6z" fill="#6f3529"/><path d="m29.217 31.057a4.006 4.006 0 0 1 3.153-2.985 16.772 16.772 0 0 1 1.61-5.032 24.137 24.137 0 0 1 -1.98-7.97c-.02 3.03-1.52 7.17-3.22 10.89.01.01.01.02 0 .02-.29 1.36-.84 3.97-1.44 7.02h1.416c.16-.694.317-1.352.461-1.943z" fill="#bf9259"/></g></svg>