<svg xmlns="http://www.w3.org/2000/svg" version="1.1" xmlns:xlink="http://www.w3.org/1999/xlink" width="512" height="512" x="0" y="0" viewBox="0 0 467.398 467.398" style="enable-background:new 0 0 512 512" xml:space="preserve" class=""><g><path fill="#51518e" d="M261.447 459.36c-3.93 2.52-8.34-2.97-20.36-1.81-12.39 1.18-14.74 7.68-25.74 7.84-8.76.13-9.42-3.95-19.77-6.03-19.05-3.83-33.73 6.6-35.32 3.62-1.307-2.438 9.023-8.518 18.56-19.92 9.86-11.78 13.88-23.24 17.36-33.19 9.86-28.12 17.77-83.69 19.17-123.73 0-9.66.59-76.42 2.99-77.03 2.39-.6 5.84-6.17 17.96-2.03 4.736 1.614 2.486 142.038 2.4 147.26 0 0 1.48 82.51 11.69 88.34 10.22 5.84 11.06 16.68 11.06 16.68z" opacity="1" data-original="#51518e"></path><path fill="#3e3e7a" d="M261.447 459.36c-3.93 2.52-8.34-2.97-20.36-1.81-12.39 1.18-14.74 7.68-25.74 7.84-8.76.13-9.42-3.95-19.77-6.03-19.05-3.83-33.73 6.6-35.32 3.62-.81-1.51 2.84-4.41 8.01-9.12-.03 2.04.36 4.18 2.21 3.81 3.4-.68 13.45-3.58 19.4-6.98 5.96-3.4 27.24-6.13 30.81-5.79 3.58.34 11.24 5.11 16.68 4.26 5.45-.85 6.98 2.04 7.66.68s-9.53-8.17-11.57-8.68-9.19-12.26-9.7-23.49c-.51-11.24 3.57-116.43 3.57-116.43l11.94-4.19c-.13 30.63-.57 57.29-.57 57.29s1.48 82.51 11.69 88.34c10.22 5.84 11.06 16.68 11.06 16.68z" opacity="1" data-original="#3e3e7a"></path><path fill="#60e649" d="M381.732 197.934s3.076 5.011 3.718 8.71c.884 5.091-2.589 14.15-24.08 28.458-37.106 24.704-17.362-15.44-17.362-15.44zM403.067 258.397s-3.229 17.535-22.973 18.222c0 0 12.175 30.558-5.756 38.958-.671.314-34.414-55.084-34.414-55.084zM305.604 317.296s22.404 4.613 31.936-25.238c9.532-29.85-21.787-21.616-21.787-21.616z" opacity="1" data-original="#60e649"></path><path fill="#77f945" d="M402.537 259.58c-7.28 7.17-43.82 7.55-43.82 7.55s30.64 42.21 15.28 48.66c-.55.25-1.16.43-1.84.57-19.45 3.93-45.94-31.74-45.94-31.74s-12.01 44.28-25.11 29.98c-13.09-14.3-12.41-56.5-12.41-56.5s-4.17 14.63-13.24 15.89c-2.98.41-5.46-.74-6.43-1.27-11.29-6.11-14.03-35.75-2.76-57.21 7.17-13.68 18.42-20.96 23.12-23.65 38.858-22.256 98.333 1.7 92.01 10.98-8.15 11.96-29.22 21.06-29.22 21.06s57.63 28.5 50.36 35.68z" opacity="1" data-original="#77f945"></path><path fill="#a6ff7b" d="M402.537 259.58c-7.28 7.17-43.82 7.55-43.82 7.55s30.64 42.21 15.28 48.66c-9.91-3.93-19.13-17.33-29.39-32.25-14.05-20.41-29.02-42.17-22.13-67.06 3.28-11.9 11.55-24.46 22.6-32.38 22.66 3.68 39.87 13.53 36.32 18.74-8.15 11.96-29.22 21.06-29.22 21.06s57.63 28.5 50.36 35.68z" opacity="1" data-original="#a6ff7b"></path><path fill="#60e649" d="M375.604 75.684s2.556 1.202 4.062 2.124c3.979 2.436 10.053 11.332 1.534 43.812-11.745 44.775-31.915 8.235-31.915 8.235zM417.466 121.722s15.053 32.322-41.372 44.417l-13.277-10.808zM314.36 74.381s2.108-.05 3.564.081c4.393.394 14.433 4.025 24.212 26.829 13.021 30.365-24 18.785-24 18.785zM394.753 186.094s1.681 24.82-57.383 11.439-7.149-30.022-7.149-30.022z" opacity="1" data-original="#60e649"></path><path fill="#77f945" d="M417.947 126.43c-3.62 19.66-46.32 31.17-46.32 31.17s36.31 27.71 18.26 34.64c-17.77 6.83-55.49-8.91-56.62-9.38.64.51 11.83 9.57 9.68 18.27-.73 2.94-2.72 4.84-3.56 5.54-9.83 8.29-38.14-.17-53.72-18.69-9.93-11.81-12.45-25.03-13.18-30.43-6.064-44.891 38.199-91.226 44.35-82 7.98 12.07 8.53 35.17 8.53 35.17s47.69-43.31 51.59-33.83-9.35 43.8-9.35 43.8 30.34-7.82 43.99-3.45c4.56 1.46 7.25 4.28 6.35 9.19z" opacity="1" data-original="#77f945"></path><path fill="#a6ff7b" d="M411.597 117.24c-4.09 3.64-10.43 6.7-21.89 11.92-60.46 27.53-68 25.96-73.27 23.23-12.99-6.71-16.69-22.71-17.88-27.83-4.22-18.24 2.52-36.39 12.96-49.49 2.48-1.05 4.36-.96 5.32.48 7.98 12.07 8.53 35.17 8.53 35.17s47.69-43.31 51.59-33.83-9.35 43.8-9.35 43.8 30.34-7.82 43.99-3.45z" opacity="1" data-original="#a6ff7b"></path><path fill="#60e649" d="M57.987 306.605c4.483 5.801 21.133 20.122 63.383-3.567l-6.128-22.302c.001 0-58.226 24.612-57.255 25.869zM121.785 329.307s7.755 6.669 26.649-4.482 17.702-42.374 17.702-42.374l-11.234-14.754z" opacity="1" data-original="#60e649"></path><path fill="#77f945" d="M171.717 298.45c-1.07.21-3.78.56-6.5-.75-8.27-3.95-7.87-19.16-7.87-19.16s-11.97 40.43-28.74 50.09-14.97-36.21-14.97-36.21-35.93 25.95-53.29 16.29c-6.09-3.38-4.52-9.66.09-16.39 8.52-12.46 27.45-26.45 27.45-26.45s-34.73-11.47-39.52-20.52c-4.79-9.06 58.68-18.71 58.68-18.71s-17.36-15.09-21.55-28.97c-3.25-10.762 60.622-15.55 91.02 17.5 3.67 3.99 12.21 14.35 14.97 29.57 4.31 23.89-7.17 51.31-19.77 53.71z" opacity="1" data-original="#77f945"></path><path fill="#a6ff7b" d="M153.627 214.78c.08 14.95-6.88 25.46-12.26 33.36-15.54 22.8-37.79 31.1-57.53 38.46-11.42 4.26-18.7 5.59-23.4 5.72 8.52-12.46 27.45-26.45 27.45-26.45s-34.73-11.47-39.52-20.52c-4.79-9.06 58.68-18.71 58.68-18.71s-17.36-15.09-21.55-28.97c-2.47-8.18 34.07-12.96 65.07-.06 2.85 7.85 3.05 14.98 3.06 17.17z" opacity="1" data-original="#a6ff7b"></path><path fill="#60e649" d="M99.182 60.273s10.104-18.168 51.976 28.667l-7.149 28.564zM159.519 71.065s13.341-3.999 25.851 14.786c12.511 18.785 36 94.44-37.021 110.909l8.681-42.202zM49.275 97.083s4.351-19.467 53.117-4.284-24 15.182-24 15.182z" opacity="1" data-original="#60e649"></path><path fill="#77f945" d="M184.347 161.34c-1.84 5.12-7.08 17.52-19.26 26.94-19.01 14.703-50.782 17.868-57.46 5.22h-.01c-.61-1.14-1.21-2.71-1.27-4.57-.29-9.23 13.32-15.81 13.32-15.81s-41.16 7.74-57.34-2.88c-16.19-10.62 25.12-29.96 25.12-29.96s-32-16.57-37.84-34.47c-.63-1.95-.96-3.91-.9-5.87.59-19.98 50.41 5.12 50.41 5.12s-5.75-36.38.05-44.81 43.32 44.06 43.32 44.06 5.38-22.46 15.72-32.56c7.99-7.81 41.43 47.17 26.14 89.59z" opacity="1" data-original="#77f945"></path><path fill="#a6ff7b" d="M131.157 186.18c-7.97 5.2-16.26 7.02-23.53 7.32h-.01c-.61-1.14-1.21-2.71-1.27-4.57-.29-9.23 13.32-15.81 13.32-15.81s-41.16 7.74-57.34-2.88c-16.19-10.62 25.12-29.96 25.12-29.96s-32-16.57-37.84-34.47c9.22-1.51 22.5 2.92 39.34 8.54 27.32 9.12 60.81 20.3 62.3 41.19 1.16 16.42-18.09 29.34-20.09 30.64z" opacity="1" data-original="#a6ff7b"></path><path fill="#60e649" d="M225.732 2.137s4.912.104 7.064.198c7.358.321 24.621 5.647 33.51 46.462 11.489 52.753-37.021 21.873-37.021 21.873z" opacity="1" data-original="#60e649"></path><path fill="#60e649" d="M284.541 35.222s25.936 5.854 3.723 59.894-30.638-3.345-30.638-3.345z" opacity="1" data-original="#60e649"></path><path fill="#60e649" d="M290.45 89.172s18.75 3.627 15.942 24.728-45.648 53.058-69.931 38.366 49.505-45.314 49.505-45.314z" opacity="1" data-original="#60e649"></path><path fill="#77f945" d="M268.377 144.04c-13.15 7.98-26.51 8.37-31.92 8.23-44.743-1.168-83.185-52.466-73.18-57.28 13.1-6 35.81-2.84 35.81-2.84s-34.75-54.39-24.85-56.75c9.91-2.36 41.4 16.33 41.4 16.33s-2.26-25.5 2.02-39.98c2.05-6.96 5.62-11.37 11.68-9.18 18.67 6.76 23.09 51.08 23.09 51.08s32.97-31.67 36.86-12.6c3.89 19.06-18.31 54.84-18.31 54.84s11.06-10.36 19.47-6.72c2.77 1.2 4.3 3.48 4.86 4.43 6.54 11.12-6.29 37.92-26.93 50.44z" opacity="1" data-original="#77f945"></path><path fill="#a6ff7b" d="M229.367 123.03c-13.17 8.58-40.53-1.85-66.81-27.56.21-.19.45-.35.72-.48 13.1-6 35.81-2.84 35.81-2.84s-34.75-54.39-24.85-56.75c9.91-2.36 41.4 16.33 41.4 16.33s-2.26-25.5 2.02-39.98c6.01 9.96 12.71 23.67 16.82 40.81 1.7 7.11 13.91 58.08-5.11 70.47z" opacity="1" data-original="#a6ff7b"></path><g fill="#51518e"><path d="M232.86 209.884s-38.298-52.495-70.468-57.642c0 0 61.021 58.414 59.234 66.906-1.788 8.492 11.234-9.264 11.234-9.264z" fill="#51518e" opacity="1" data-original="#51518e"></path><path d="M222.67 202.468s-62.534 16.535-79.137 44.779c0 0 76.367-35.644 83.541-30.839 7.174 4.804-4.404-13.94-4.404-13.94z" fill="#51518e" opacity="1" data-original="#51518e"></path><path d="M234.687 218.573s19.824-62.02 5.139-91.324c0 0-11.289 84.055-19.167 87.564s14.028 3.76 14.028 3.76z" fill="#51518e" opacity="1" data-original="#51518e"></path><path d="M233.837 219.025s57.229-30.311 67.091-61.599c0 0-66.435 52.07-74.498 49.018s7.407 12.581 7.407 12.581z" fill="#51518e" opacity="1" data-original="#51518e"></path><path d="M227.514 216.285s56.765 31.185 88.066 22.103c0 0-79.835-26.838-81.787-35.293-1.953-8.455-6.279 13.19-6.279 13.19z" fill="#51518e" opacity="1" data-original="#51518e"></path></g><path fill="#f6d14f" d="M213.337 287.96c-4.58 6.94-16.41 21.44-25.62 19.17h-.01c-.21-.06-.43-.12-.64-.19-9.88-3.34-14.92-26.74-6.43-42.75 8.753-16.565 31.353-24.603 39.44-18.03 8.32 6.78 1.87 28.76-6.74 41.8z" opacity="1" data-original="#f6d14f"></path><path fill="#ffe262" d="M188.827 305.5c-.33.51-.71 1.05-1.11 1.63h-.01c-.21-.06-.43-.12-.64-.19-10.035-3.392-15.541-28.359-5.24-44.8 5.59-1.34 10.66-.95 13.74 1.56 8.32 6.77 1.86 28.75-6.74 41.8z" opacity="1" data-original="#ffe262"></path><path fill="#f6c719" d="M218.187 244.73c-4.68 7.11-16.98 22.13-26.27 18.98-9.679-3.276-15.044-26.533-6.42-42.75 8.802-16.599 31.358-24.589 39.43-18.03 8.32 6.78 1.87 28.76-6.74 41.8z" opacity="1" data-original="#f6c719"></path><path fill="#f6d14f" d="M222.757 201.65c-1.28 8.63-5.4 18.64-10.18 25.89-4.69 7.11-16.98 22.13-26.28 18.98-1.86-.63-3.55-1.98-5.01-3.85-.5-7.2.69-15.09 4.21-21.71 7.96-15.01 27.76-23.39 37.26-19.31z" opacity="1" data-original="#f6d14f"></path><path fill="#f6c719" d="M255.067 317.55c-9.408.991-16.777-17.316-19.24-26.5-4.05-15.12-3.41-37.95 6.35-41.61 9.489-3.564 28.001 11.484 31.16 29.93 3 17.54-8.23 37.5-18.27 38.18z" opacity="1" data-original="#f6c719"></path><path fill="#f6d14f" d="M255.067 317.55c-2.34-4.79-4.04-9.84-4.94-13.22-4.05-15.12-3.42-37.96 6.35-41.61 2.96-1.11 6.73-.44 10.63 1.54 3.01 4.5 5.3 9.68 6.23 15.11 3 17.54-8.23 37.5-18.27 38.18zM243.417 308.72c-2.835 18.524-20.631 33.403-29.9 30.18-8.833-3.073-9.893-21.839-9.34-31.11.92-15.64 8.72-37.09 19.13-37.43 10.33-.34 22.89 20.13 20.11 38.36z" opacity="1" data-original="#f6d14f"></path><path fill="#ffe262" d="M242.847 311.64c-4.06 16.66-20.24 30.42-29.33 27.26-6.21-2.16-8.53-11.97-9.21-20.68 1.99-14.9 9.26-32.4 18.66-32.71 8.03-.26 17.42 12.06 19.88 26.13z" opacity="1" data-original="#ffe262"></path><path fill="#f6d14f" d="M247.247 262.49c-2.73 17.93-20.28 33.52-29.9 30.18-8.825-3.07-9.896-21.793-9.34-31.12.92-15.63 10-39.31 20.41-39.65 1.491-.054 2.563-2.158 4.08-1.4 9.08 4.44 17.13 26.39 14.75 41.99z" opacity="1" data-original="#f6d14f"></path><path fill="#ffe262" d="M235.507 248.19c-2.43 15.96-16.61 30.07-26.48 30.61-1.2-6.24-1.27-13.06-1.02-17.25.92-15.63 10-39.31 20.41-39.65 1.11-.04 1.99-1.23 3-1.5 3.51 8.5 5.41 19.13 4.09 27.79z" opacity="1" data-original="#ffe262"></path><path fill="#f6d14f" d="M267.577 257.88c-8.623 3.845-22.067-8.656-28.16-15.84-10.12-11.88-19.3-32.77-12.05-40.31 6.814-7.154 29.965-2.089 40.91 13.5 10.4 14.81 8.53 38.31-.7 42.65z" opacity="1" data-original="#f6d14f"></path><path fill="#ffe262" d="M252.937 253.45c-.1.043-.76.32-.86.32-5.02-3.51-9.7-8.24-12.66-11.73-10.12-11.88-19.3-32.77-12.05-40.31 2.41-2.53 6.83-3.53 12.03-3.09 5.42 2.8 10.54 6.88 14.24 12.16 10.4 14.81 8.53 38.31-.7 42.65z" opacity="1" data-original="#ffe262"></path><path d="M362.986 277.425a2 2 0 1 0 3.387-2.127 205.494 205.494 0 0 0-4.089-6.256c1.752-.059 4.018-.152 6.572-.302a2 2 0 0 0 1.88-2.113 2.01 2.01 0 0 0-2.113-1.88c-5.811.34-10.086.388-10.129.388-1.62.017-2.551 1.862-1.598 3.175.028.037 2.743 3.785 6.09 9.115z" fill="#000000" opacity="0" data-original="#000000" class=""></path><path d="M418.937 120.526c-4.594-8.873-24.417-6.779-34.327-5.312 4.015-18.094 3.577-30.412-1.327-36.611-1.933-2.444-4.067-3.277-5.362-3.562a4.09 4.09 0 0 0-2.263-1.372c-5.998-1.344-21.87 10.282-34.699 20.793-11.236-22.209-22.555-22.325-25.384-21.954-5.675-1.461-15.207 7.217-22.06 15.597-.19-.072-.372-.14-.547-.202 7.202-20.224 8.132-35.548 2.72-45.538-2.904-5.361-7.653-8.507-10.626-9.073-5.142-1.441-12.497 2.158-19.095 6.619C254.317-1.792 233.124-.161 229.236.519c-16.91-5.198-17.168 29.966-16.069 47.588-8.548-4.842-38.777-21.278-42.467-12.145-3.329 8.235 16.457 41.219 24.296 53.763a118.73 118.73 0 0 0-5.449-.333c-9.093-17.396-22.743-22.661-30.729-20.27-3.959 1.177-8.924 9.964-10.781 13.664-18.462-19.708-32.987-29.091-43.205-27.892-3.782.444-6.602 2.53-7.624 4.407-3.386 5.213-3.173 18.357-2.261 29.341-23.527-6.149-35.499-3.375-41.43.122-5.427 3.202-6.452 7.78-6.643 8.539-4.16 16.133 21.457 34.548 36.044 42.881-7.958 4.087-25.859 14.291-26.53 23.692-.156 2.177.523 5.34 4.642 8.043 12.084 7.928 36.659 6.195 49.912 4.522-3.27 2.835-6.412 6.727-6.76 11.359-8.23.513-23.104 2.826-20.8 10.449 3.25 10.764 13.792 21.943 19.088 27.058-14.515 2.36-52.08 9.183-56.083 17.131-4.43 8.803 27.763 20.812 37.115 24.11-15.335 11.974-40.941 35.765-23.571 44.304 13.24 12.128 35.753 6.692 52.113-.88.765 7.018 2.772 18.858 9.295 21.455 1.592 1.406 5.483 1.987 7.677 1.987 4.578 0 11.183-1.516 20.238-6.861 10.105-5.964 14.703-17.237 16.796-26.336 3.322.916 7.175.501 10.878-1.885 4.862 12.11 13.771 14.937 25.468 5.035-1.241 9.814-.692 27.834 6.306 34.882-4.059 31.639-11.35 79.325-31.617 103.534-10.926 13.051-21.24 17.55-18.794 22.14 3.103 5.829 16.188-6.727 36.7-2.601 9.751 1.961 10.974 6.205 20.184 6.075 11.493-.165 14.141-6.726 25.911-7.855 11.912-1.143 16.113 4.79 21.247 1.504a2.002 2.002 0 0 0 .916-1.84c-.038-.485-1.055-11.968-12.061-18.254-6.362-3.634-10.08-52.854-10.688-86.575.015-.83.48-32.02.35-32.619 1.344-2.511 2.483-5.188 3.302-8.001 16.07 19.236 36.383-14.328 30.318-37.69 5.407-.22 9.419-4.272 12.198-8.897.583 13.452 3.006 38.122 12.771 48.787 2.784 3.041 5.02 3.579 8.757 3.579 6.392 0 19.99-2.252 28.293-19.814 8.956 9.066 23.422 21.117 35.866 18.604 2.663-.538 3.721-1.526 4.696-2.146 13.734-8.697 8.083-30.289 5.615-37.75 16.718-1.857 20.815-15.029 21.519-17.942.652-.889.913-1.977.728-3.131-1.044-6.488-19.734-17.958-34.732-26.2 11.833-9.066 17.609-17.049 17.173-23.753-.21-3.236-1.819-5.368-3.104-6.577 6.84-2.613 10.562-7.252 11.432-10.816 4.185-7.182-5.48-18-11.421-23.869 17.896-5.015 29.511-12.833 34.53-23.271 4.856-10.105 1.833-21.128.146-22.345zM200.58 91.075c-.079-.124-7.99-12.526-15.082-25.542-13.571-24.908-11.143-28.059-10.993-28.187 7.473-1.787 31.348 11.021 39.915 16.105 1.4.832 3.157-.276 3.013-1.896-1.215-13.709-1.903-51.774 11.029-47.096 5.246 1.897 9.862 7.452 13.72 16.507a2 2 0 1 0 3.68-1.568c-2.704-6.348-5.836-11.188-9.357-14.48 7.242 1.986 18.576 9.755 25.992 37.458-5.878 4.372-10.599 8.829-11.65 9.838a2 2 0 0 0 2.771 2.885c5.565-5.344 23.134-20.222 30.479-17.936 4.856 1.515 3.468 12.638 2.393 17.639a2.001 2.001 0 0 0 1.957 2.421c.922 0 1.751-.642 1.953-1.58 1.035-4.811 1.357-9.055.986-12.678 7.404 11.311 2.311 31.04-2.229 43.753-9.091-2.126-19.278 7.288-19.737 7.717-1.93 1.809.804 4.726 2.734 2.92 13.937-13.016 27.437-6.94 21.03 12.643a2 2 0 1 0 3.801 1.245c2.055-6.282 2.377-11.88.982-16.12 3.924 3.207 7.536 8.831 6.247 18.518-2.302 17.292-33.867 42.858-57.178 40.146l-.006-.19c8.065-1.177 15.528-3.798 22.187-7.838a2 2 0 0 0-2.076-3.42c-6.085 3.692-12.905 6.113-20.281 7.241-.533-8.657-2.17-16.69-5.443-23.222-.88-1.756-3.508-1.317-3.771.63-.029.22-1.367 10.123-3.42 23.172-43.368-2.68-76.147-50.682-70.316-53.347 12.416-5.688 34.487-2.708 34.709-2.678 1.687.233 2.879-1.624 1.961-3.06zm74.334 83.41c-10.543 7.773-22.623 16.374-32.265 22.398-.262.164-.008.15-.515.064 2.565-11.954 4.762-25.93 4.916-39.139 7.721.77 15.729-1.169 22.853-4.167a64.107 64.107 0 0 0 5.011 20.844zm.393 51.605c12.435 4.764 24.765 9.13 32.243 11.728-8.349.799-18.64-.432-30.703-3.66a47.168 47.168 0 0 0-1.54-8.068zm-8.985 30.071c-6.749 2.851-18.993-7.656-25.579-15.415-3.562-4.182-6.946-9.435-9.528-14.792a2 2 0 1 0-3.603 1.737c4.544 9.423 10.184 16.601 17.255 22.984 4.184 24.103-18.027 43.24-27.061 40.104-6.988-2.426-8.613-18.736-8-29.108.33-5.59 1.548-11.823 3.429-17.55a2 2 0 1 0-3.8-1.248 77.81 77.81 0 0 0-2.983 12.611c-3.957 3.736-9.603 7.857-14.089 6.335-8.324-2.818-13.38-24.697-5.3-39.917 8.243-15.529 29.265-22.937 36.281-17.499-.66 1.976-.906 4.293-.701 6.961a1.994 1.994 0 0 0 2.147 1.841 2 2 0 0 0 1.841-2.147c-.261-3.39.201-6.921 3.039-8.812 7.646-5.104 27.601 1.069 36.773 14.136 10.089 14.368 7.7 36.432-.121 39.779zm-111.888-58.954c13.282-3.837 23.897-10.047 31.592-18.479 7.059 7.233 14.44 15.028 20.484 21.929-5.886 2.141-12.201 5.973-17.238 11.376-.384.196-3.834 1.586-9.345 4.252-6.827-8.234-15.512-14.457-25.493-19.078zm74.844.719c4.688-19.057 9.236-48.794 11.251-62.725 5.24 18.479 1.106 45.082-2.396 61.325-3.347-.138-6.393.313-8.855 1.4zm-3.991-.523c-7.732-9.202-18.77-21.196-30.929-30.842 3.405-6.806 5.507-14.521 6.259-22.992 9.979 5.661 21.201 9.75 32.978 10.555-2.28 14.174-5.271 31.056-8.308 43.279zm-34.169-33.325a116.29 116.29 0 0 0-4.67-3.306c2.482-7.363 3.718-15.417 3.66-24.02a109.89 109.89 0 0 0 6.67 4.54c-.53 8.437-2.434 16.087-5.66 22.786zm30.446 35.119c-3.504-.943-7.311-.624-10.846.201-12.722-14.711-32.206-34.047-41.643-43.266 20.107 7.298 41.637 30.275 52.489 43.065zm-38.342-23.332c-3.591 3.972-7.882 7.432-12.858 10.35 3.95-3.732 7.399-8.062 10.31-12.931.839.848 1.688 1.708 2.548 2.581zm1.12 42.753c-1.743 2.947-3.114 6.113-4.109 10.155-12.026 5.026-23.662 10.232-30.76 13.459 7.168-8.183 19.014-16.209 34.869-23.614zm75.988-13.911c7.142-5.042 14.873-11.062 21.83-17.681 1.351 1.782 2.255 2.847 3.764 4.47-5.844 3.679-13.333 9.711-19.191 18.888a41.674 41.674 0 0 0-6.403-5.677zm-3.613-2.351a45.51 45.51 0 0 0-8.916-4.008c16.277-10.499 37.749-26.71 48.089-34.646-7.83 14.672-24.915 28.725-39.173 38.654zM184.953 89.313c-2.13.008-4.374.084-6.657.259-2.971-5.903-6.842-12.097-10.746-16.128 7.424 2.281 13.574 9.182 17.403 15.869zm-64.61 85.611c.901-.438 1.34-1.476 1.026-2.427s-1.283-1.524-2.268-1.338c-32.606 6.119-59.3 1.104-58.722-6.998.488-6.842 17.259-17.169 27.715-22.071 1.499-.703 1.541-2.826.071-3.587-.382-.198-38.197-20.002-37.654-38.497.236-8.023 11.694-6.056 19.454-4.035a2 2 0 0 0 1.009-3.871c-4.138-1.078-7.718-1.686-10.784-1.839 6.441-1.87 17.234-2.237 35.152 2.628a241.986 241.986 0 0 0 1.599 12.485 2 2 0 0 0 3.951-.624c-1.564-9.899-4.663-36.987-.256-43.4.123-.048 3.203-.918 16.763 14.534a2.001 2.001 0 0 0 3.007-2.639c-7.376-8.405-12.026-12.464-15.149-14.359 12.438-1.559 32.449 18.625 40.95 27.808-3.772 8.594-5.723 16.599-5.857 17.155a2 2 0 1 0 3.889.931c.053-.219 8.468-29.363 15.936-31.725 3.047-.964 7.347 4.49 13.857 16.972-3.422.469-12.013 2.017-13.82 4.957-1.518 2.468-.821 6.465 2.07 11.881 3.891 7.291 12.373 17.605 23.748 26.755.396 8.973-.639 17.336-3.053 24.916-6.808-4.164-13.744-7.189-20.464-8.264-1.94-.301-3.108 2.07-1.699 3.42.147.141 7.494 7.185 16.944 16.658-3.74 6.497-8.466 12.001-14.086 16.349-20.849 16.133-55.066 16.843-55.522 2.172-.244-7.811 12.068-13.887 12.193-13.947zm45.537 120.98c-5.806-2.778-6.825-13.438-6.727-17.31a2.001 2.001 0 0 0-1.948-2.05 1.995 1.995 0 0 0-2.051 1.945c-.017.627-.288 14.418 7.195 19.931-1.815 8.456-5.903 19.242-15.128 24.687-7.052 4.162-12.321 5.732-16.083 6.146 2.405-1.688 4.815-4 7.186-6.917 1.67-2.056-1.435-4.573-3.104-2.523-2.824 3.474-9.124 9.953-12.949 7.641-5.831-3.523-7.284-23.309-6.831-34.952a2.001 2.001 0 0 0-3.997-.157c-.052 1.334-.221 6.861.226 13.377-18.987 9.06-31.652 9.368-39.786 7.043 3.616-.27 7.621-1.126 12.013-2.588a2 2 0 1 0-1.263-3.795c-9.366 3.118-16.604 3.316-21.511.587-12.072-6.71 16.804-31.391 27.762-39.493 1.297-.959.984-2.997-.562-3.507-9.448-3.121-34.761-12.717-38.406-19.608.014-.163.666-4.051 28.182-10.255 14.402-3.248 28.915-5.468 29.06-5.49 1.682-.256 2.296-2.371 1.011-3.487-.169-.147-16.976-14.862-20.954-28.038a.701.701 0 0 1 .004-.413c.497-1.655 6.355-4.259 17.376-4.895 4.149 14.803 28.905 13.124 44.395 7.419 10.431 4.252 19.963 10.379 27.259 18.905-17.176 8.775-28.803 18.208-34.635 28.128-.995 1.693.804 3.65 2.57 2.826.175-.082 16.883-7.87 35.17-15.582-1.016 7.782-.028 16.894 3.383 23.748-8.719 10.629-10.334 25.183-7.12 37.125-3.636 2.723-7.138 2.797-9.737 1.552zm83.323 148.519c7.075 4.041 9.205 10.655 9.82 13.604-2.864.147-8.091-3.452-18.32-2.469-12.763 1.223-15.28 7.691-25.585 7.837-8.103.106-8.726-3.862-19.338-5.997-14.045-2.823-24.827 1.703-32.703 3.796 3.194-3.328 10.339-8.799 17.076-16.846 20.654-24.673 28.033-71.425 32.265-103.658 8.496 3.187 18.806-5.33 24.422-12.703-.162 15.455-.338 26.208-.34 26.39.199 12.063 2.021 83.944 12.703 90.046zm5.109-128.854c-3.639-.031-6.884-3.742-9.047-7.025.509-3.679.461-7.55-.154-11.519-.405-2.612-4.358-2.005-3.953.612.58 3.739.61 7.368.09 10.785-2.625 17.235-19.317 31.353-27.273 28.592-6.987-2.426-8.612-18.736-8-29.107.181-3.065.648-6.448 1.351-9.784.466-2.216-2.542-3.373-3.679-1.413-.052.044-.108.082-.156.132-6.374 6.625-12.046 9.544-15.979 8.21-8.973-3.038-14.438-28.455-2.55-44.192 4.656 6.145 11.468 7.743 20.861.439-1.352 21.636 5.283 41.886 23.829 30.702 10.638-6.417 20.844-21.164 19.691-37.614 3.729 2.809 7.931 5.233 11.98 5.989 5.189 5.706 8.687 12.564 9.848 19.338 2.921 17.069-8.273 35.778-16.859 35.855zm129.054-107.838c.17 3.139-1.861 10.041-17.051 21.323a468.481 468.481 0 0 0-13.445-6.939c-2.378-1.17-4.141 2.414-1.773 3.586.132.065 13.3 6.591 26.059 14.063 24.385 14.282 23.849 18.198 23.776 18.395-1.09 1.075-4.42 3.122-14.479 4.759a2 2 0 0 0 .319 3.974c.8 0 7.564-1.211 11.844-2.875-2.311 4.372-7.495 10.214-18.788 10.606a2.002 2.002 0 0 0-1.789 2.738c.088.22 7.122 18.256 2.012 29.43-.248-3.266-1.31-7.186-3.209-11.827a2 2 0 1 0-3.702 1.514c3.749 9.164 3.272 13.448 2.211 15.429-.698 1.303-1.937 2.119-3.789 2.493-17.982 3.637-43.678-30.621-43.936-30.967a2 2 0 0 0-3.211 2.385c.389.523 3.865 5.155 9.089 10.781-5.269 12.156-13.002 16.664-19.022 18.222 1.484-1.709 2.96-3.895 4.44-6.577a2 2 0 0 0-3.502-1.932c-3.075 5.571-6.174 8.806-8.728 9.11-1.69.204-3.162-.924-4.304-2.171-12.408-13.551-11.898-54.699-11.892-55.113a2 2 0 0 0-1.706-2.01 2.007 2.007 0 0 0-2.217 1.429c-1.798 6.276-6.762 15.158-13.391 14.474-1.555-4.103-3.828-8.091-6.694-11.737 5.159-1.302 8.069-6.505 9.446-11.693.776-2.922 1.191-6.45 1.146-10.25 12.039 3.113 26.87 5.44 38.86 1.961 1.877-.545 1.931-3.195.08-3.816-22.109-7.454-42.432-15.345-42.437-15.346-1.219-2.898-2.559-5.248-4.172-7.48 5.813-9.619 13.605-15.729 19.405-19.259 19.412 18.269 52.319 24.764 55.97 6.731 10.805 1.998 24.348 3.524 35.075 1.014.571 1.291 3.297 1.734 3.505 5.575zm-2.511-44.821a130.33 130.33 0 0 0-8.212-6.894 2 2 0 0 0-2.427 3.179c9.202 7.026 23.438 20.704 22.462 27.494-.684 4.751-10.566 5.379-15.362 5.253-1.133-.046-2.022.843-2.052 1.947a2.001 2.001 0 0 0 1.947 2.052c3.092.079 6.259-.088 9.253-.698-5.896 3.737-17.753 6.342-41.573 1.85-1.175-8.329-10.166-15.474-10.615-15.825a2 2 0 0 0-2.468 3.149c.109.085 10.873 8.65 8.998 16.235-3.557 14.395-38.946 6.204-55.767-16.451 8.072-8.156 14.739-17.099 17.598-26.171.588-1.869-1.6-3.385-3.142-2.175-.178.14-9.392 7.349-21.278 16.182a60.274 60.274 0 0 1-4.422-20.188 79.479 79.479 0 0 0 11.992-7.352c29.389-21.749 27.074-45.665 11.459-54.621 9.036-10.851 16.631-14.874 17.72-13.222 1.831 2.769 3.412 6.436 4.702 10.9a2.001 2.001 0 0 0 3.843-1.111c-1.05-3.634-2.296-6.81-3.719-9.481 4.09 1.308 10.913 5.75 18 20.12a474.618 474.618 0 0 0-13.971 12.164c-1.349 1.226-.476 3.48 1.345 3.48.48 0 .961-.171 1.344-.52.108-.098 10.964-9.941 22.56-19.077 22.179-17.476 25.681-15.611 25.834-15.476.588 1.428 1.02 4.618-.264 11.702a1.999 1.999 0 1 0 3.935.713c.718-3.965.998-7.19.852-9.756 6.763 6.434 3.025 26.521.925 35.585-6.727 1.173-12.027 2.497-13.446 2.863a2 2 0 0 0 .999 3.874c13.403-3.454 50.376-10.177 47.87 3.441-.776 4.215-3.729 8.445-8.777 12.572a2 2 0 0 0 2.531 3.097c3.472-2.837 6.086-5.778 7.834-8.79-1.271 17.072-20.012 25.694-36.508 29.956z" fill="#000000" opacity="0" data-original="#000000" class=""></path></g></svg>