<svg height="512" viewBox="0 0 64 64" width="512" xmlns="http://www.w3.org/2000/svg"><g id="_10-rice" data-name="10-rice"><path d="m33 1c-21.223 0-23 24.776-23 48v12.831a13.119 13.119 0 0 0 1 1.169 10.577 10.577 0 0 0 1-1.279v-12.721c0-22.256 1.623-46 21-46 18.941 0 26 21.725 26 35.418v6.954c.349.776.685 1.576 1 2.408.36.95.692 1.944 1 2.969v-12.331c0-14.467-7.6-37.418-28-37.418z" fill="#d96117"/><path d="m52.638 55.352c.362 4.483.362 7.648.362 7.648h5c0-2.116-.1-4.112-.27-6.011a7.969 7.969 0 0 1 -5.092-1.637z" fill="#18ae88"/><path d="m58 57c-.095 0-.177-.009-.27-.011.17 1.9.27 3.9.27 6.011h5a50.881 50.881 0 0 0 -.938-7.994 5.564 5.564 0 0 1 -4.062 1.994z" fill="#79e78e"/><path d="m34.2 58.837a13.228 13.228 0 0 1 .8 4.163h5a17.384 17.384 0 0 0 -1.712-6.017 7.3 7.3 0 0 1 -4.088 1.854z" fill="#18ae88"/><path d="m40 53.227a5.935 5.935 0 0 1 -1.716 3.756 17.384 17.384 0 0 1 1.716 6.017h3a24.745 24.745 0 0 0 -1.37-7.37c-.476-.772-1.022-1.579-1.63-2.403z" fill="#79e78e"/><path d="m51.163 56.971a19.23 19.23 0 0 1 -4.478-.659 27.374 27.374 0 0 1 1.315 6.688h5a39.57 39.57 0 0 0 -1.837-6.029z" fill="#79e78e"/><path d="m40.637 52.81c.363.946.7 1.89.993 2.82a24.745 24.745 0 0 1 1.37 7.37h5a27.374 27.374 0 0 0 -1.315-6.688 12.65 12.65 0 0 1 -6.048-3.502z" fill="#18ae88"/><path d="m11 58v5s3.256-3.382 2.979-7.8a2.988 2.988 0 0 1 -2.979 2.8z" fill="#fe792c"/><path d="m8.042 55.421a9.343 9.343 0 0 0 2.958 7.579v-5a2.989 2.989 0 0 1 -2.958-2.579z" fill="#ffb844"/><path d="m13.6 52a9.3 9.3 0 0 0 7.4 3l-3-3z" fill="#fe792c"/><path d="m18 52 3 3a12.122 12.122 0 0 0 -2.018-6.281c-.082 1.866-.491 3.281-.982 3.281z" fill="#ffb844"/><path d="m8.4 52h-4.4l-3 3a9.3 9.3 0 0 0 7.4-3z" fill="#fe792c"/><path d="m2.163 50.185a12.514 12.514 0 0 0 -1.163 4.815l3-3c-.825 0-1.531-.748-1.837-1.815z" fill="#ffb844"/><path d="m4 43-3 3c3.861 0 6.22-1.494 7.674-3.323a19.963 19.963 0 0 1 -4.674.323z" fill="#fe792c"/><path d="m4 43c-.491 0-.9-1.416-.982-3.281a12.122 12.122 0 0 0 -2.018 6.281z" fill="#ffb844"/><path d="m13.32 42.675c1.457 1.831 3.818 3.325 7.68 3.325l-3-3a19.863 19.863 0 0 1 -4.68-.325z" fill="#fe792c"/><path d="m18.982 39.716c-.082 1.867-.491 3.284-.982 3.284l3 3a12.38 12.38 0 0 0 -1.5-5.471 9.555 9.555 0 0 0 -.518-.813z" fill="#ffb844"/><path d="m14.587 34a9.317 9.317 0 0 0 7.413 3l-3-3z" fill="#fe792c"/><path d="m19 34 3 3a11.98 11.98 0 0 0 -2.275-6.624z" fill="#ffb844"/><path d="m5 34-3 3a9.3 9.3 0 0 0 7.4-3z" fill="#fe792c"/><path d="m3.645 31.29a12.331 12.331 0 0 0 -1.645 5.71l3-3z" fill="#ffb844"/><path d="m7 24-3 3c4.272 0 6.712-1.827 8.113-3.916-1.293.883-3.7 1.623-5.113.916z" fill="#fe792c"/><path d="m7 24c-.435 0-.8-1.4-.938-3.343a12.088 12.088 0 0 0 -2.062 6.343z" fill="#ffb844"/><path d="m15.892 23.087c1.401 2.088 3.837 3.913 8.108 3.913l-3-3c-1.413.705-3.813-.031-5.108-.913z" fill="#fe792c"/><path d="m21 24 3 3a12.094 12.094 0 0 0 -2.06-6.343c-.14 1.943-.504 3.343-.94 3.343z" fill="#ffb844"/><path d="m19.892 15.087c1.401 2.088 3.837 3.913 8.108 3.913l-3-3c-1.413.7-3.813-.031-5.108-.913z" fill="#fe792c"/><path d="m25 16 3 3a12.094 12.094 0 0 0 -2.06-6.343c-.14 1.943-.504 3.343-.94 3.343z" fill="#ffb844"/><path d="m26.892 10.087c1.401 2.088 3.837 3.913 8.108 3.913l-3-3c-1.413.705-3.813-.031-5.108-.913z" fill="#fe792c"/><path d="m32 11 3 3a12.094 12.094 0 0 0 -2.06-6.343c-.14 1.943-.504 3.343-.94 3.343z" fill="#ffb844"/><path d="m10.125 13.126-4.125 2.483a9.428 9.428 0 0 0 7.184-.691 4.964 4.964 0 0 1 -3.059-1.792z" fill="#fe792c"/><path d="m9.042 10.415a12.2 12.2 0 0 0 -3.042 5.194l4.125-2.483a4.94 4.94 0 0 1 -1.083-2.711z" fill="#ffb844"/><path d="m14.364 4.32-4.364.528a10.283 10.283 0 0 0 6.048 2.152 4.346 4.346 0 0 1 -1.684-2.68z" fill="#fe792c"/><path d="m14.433 1.7a12.3 12.3 0 0 0 -4.433 3.148l4.364-.528a6.4 6.4 0 0 1 .069-2.62z" fill="#ffb844"/><path d="m40 63h-5c0-8.03-11.81-21.651-12.92-22.911a.751.751 0 0 0 -.07-.08c.52.33 17.01 10.911 17.99 22.991z" fill="#49c263"/><path d="m58 63h-5s0-28.9-9.95-35.971a.435.435 0 0 0 .07.04c1.42.931 14.88 10.35 14.88 35.931z" fill="#49c263"/><g fill="#aaf66f"><path d="m43 63h-3c-.98-12.08-17.47-22.661-17.99-22.991a37.588 37.588 0 0 1 19.62 15.621 24.745 24.745 0 0 1 1.37 7.37z"/><path d="m53 63h-5c-.98-15.75-17.47-29.561-17.99-29.991 18.99 9 22.99 29.991 22.99 29.991z"/><path d="m60 47.78a47.964 47.964 0 0 1 3 15.22h-5c0-25.581-13.46-35-14.88-35.931a41.009 41.009 0 0 1 16.88 20.711z"/></g><path d="m11 49c6.75 7 0 14 0 14z" fill="#fea740"/><path d="m11 63c-6.75-7 0-14 0-14z" fill="#ffdf64"/><path d="m11.2 45.21 9.8 9.79c-8.72 0-9.84-7.61-9.98-9.55v-.24z" fill="#fea740"/><path d="m11.03 45c9.97.02 9.97 10 9.97 10l-9.8-9.79h-.18a1.477 1.477 0 0 1 .01-.21z" fill="#ffdf64"/><path d="m10.79 45.21.2.01c-.07 1.47-.87 9.78-9.99 9.78z" fill="#fea740"/><path d="m11 45s0 .08-.01.22l-.2-.01-9.79 9.79s0-10 10-10z" fill="#ffdf64"/><path d="m10.79 36.209.2.01c-.07 1.47-.87 9.781-9.99 9.781z" fill="#fea740"/><path d="m11 36s0 .08-.01.22l-.2-.01-9.79 9.79s0-10 10-10z" fill="#ffdf64"/><path d="m11.29 36.3 9.71 9.7c-7.22 0-9.23-5.211-9.79-8.111.02-.53.05-1.06.08-1.589z" fill="#fea740"/><path d="m11.31 36.009c4.49.09 6.9 2.24 8.19 4.52a12.38 12.38 0 0 1 1.5 5.471l-9.71-9.7a2.825 2.825 0 0 1 .02-.291z" fill="#ffdf64"/><path d="m12.2 27.209 9.8 9.791c-8.36 0-9.73-6.99-9.95-9.28.02-.17.04-.35.07-.52z" fill="#fea740"/><path d="m22 37-9.8-9.79-.08-.01a1.38 1.38 0 0 1 .03-.2c9.85.1 9.85 10 9.85 10z" fill="#ffdf64"/><path d="m2 37 9.79-9.79.2.01c-.07 1.469-.87 9.78-9.99 9.78z" fill="#fea740"/><path d="m2 37s0-10 10-10c0 0 0 .08-.01.22l-.2-.01z" fill="#ffdf64"/><path d="m4 27 9.79-9.79.2.01a12.036 12.036 0 0 1 -.2 1.66.075.075 0 0 0 -.01.05c-.16.53-.3 1.06-.43 1.6a.235.235 0 0 1 -.02.08c-.98 2.859-3.39 6.39-9.33 6.39z" fill="#fea740"/><path d="m13.79 17.209-9.79 9.791s0-10 10-10c0 0 0 .08-.01.22z" fill="#ffdf64"/><path d="m14.27 17.279 9.73 9.721c-8.13 0-9.65-6.6-9.93-9.08v-.01a5.1 5.1 0 0 1 .2-.631z" fill="#fea740"/><path d="m14.35 17.009c9.65.22 9.65 9.991 9.65 9.991l-9.73-9.72a.924.924 0 0 1 .08-.271z" fill="#ffdf64"/><path d="m18.2 9.209 9.8 9.791c-8.75 0-9.84-7.66-9.98-9.57v-.01a1.526 1.526 0 0 1 .16-.22z" fill="#fea740"/><path d="m28 19-9.8-9.79-.02-.01a.771.771 0 0 1 .14-.19c9.68.199 9.68 9.99 9.68 9.99z" fill="#ffdf64"/><path d="m17.95 8.578c-.4 1.331-3.15 9.241-11.95 7.031l11.75-7.071z" fill="#fea740"/><path d="m6 15.609s2.4-9.631 12-7.221c0 0-.02.07-.05.19l-.2-.04z" fill="#ffdf64"/><path d="m25.2 4.208 9.8 9.792c-10 0-10-10-10-10a1.477 1.477 0 0 1 .21.01z" fill="#fea740"/><path d="m25.21 4.008c9.79.13 9.79 9.992 9.79 9.992l-9.8-9.792z" fill="#ffdf64"/><path d="m10 4.848 13.7-1.66.15.13c-.97 1.06-6.67 6.701-13.85 1.53z" fill="#fea740"/><path d="m24 3.148s-.05.06-.15.17l-.15-.13-13.7 1.66s6.1-7.38 14-1.7z" fill="#ffdf64"/><path d="m30.01 33.009c.31.46 8.36 12.33 11.62 22.621a24.745 24.745 0 0 1 1.37 7.37h5c-.98-15.75-17.47-29.561-17.99-29.991z" fill="#49c263"/></g></svg>