<svg xmlns="http://www.w3.org/2000/svg" version="1.1" xmlns:xlink="http://www.w3.org/1999/xlink" width="512" height="512" x="0" y="0" viewBox="0 0 64 64" style="enable-background:new 0 0 512 512" xml:space="preserve" class=""><g><g data-name="Layer 2"><path d="m26 7 6-6 6 6H26z" style="" fill="#f27875" data-original="#f27875"></path><path d="M38 3h-.889C33.184 3 30 6.582 30 11v10h4a4 4 0 0 0 4-4Z" style="" fill="#ff938d" data-original="#ff938d"></path><path d="M38 9.25V5.5h-.186a8 8 0 0 0-5.657 2.343l-1.314 1.314a8 8 0 0 0-.8.943A8.9 8.9 0 0 0 30 11v8.5h2.5a4 4 0 0 0 4-4v-1.578a8 8 0 0 1 1.344-4.437Z" style="" fill="#f27875" data-original="#f27875"></path><path d="M26 3h.889C30.816 3 34 6.582 34 11v10h-4a4 4 0 0 1-4-4Z" style="" fill="#ff938d" data-original="#ff938d"></path><path d="M30.343 7.343A8 8 0 0 0 26 5.117V15a4 4 0 0 0 4 4h4v-4.686a8 8 0 0 0-2.343-5.657Z" style="" fill="#f27875" data-original="#f27875"></path><path d="M30 21h4v42h-4z" style="" fill="#85b27c" data-original="#85b27c"></path><path d="M30 21h4v3h-4z" style="" fill="#699b5d" data-original="#699b5d"></path><path d="m31.657 10.657-1.314-1.314A8 8 0 0 0 24.686 7H22l2.656 3.985A8 8 0 0 1 26 15.422V17a4 4 0 0 0 4 4h4v-4.686a8 8 0 0 0-2.343-5.657Z" style="" fill="#ff938d" data-original="#ff938d"></path><path d="M33 18a4 4 0 0 1-4-4v-1.578a7.992 7.992 0 0 0-1.344-4.437l-.356-.537A8 8 0 0 0 24.686 7H22l2.656 3.985A7.992 7.992 0 0 1 26 15.422V17a4 4 0 0 0 4 4h4v-3Z" style="" fill="#f27875" data-original="#f27875"></path><path d="m32.343 10.657 1.314-1.314A8 8 0 0 1 39.314 7H42l-2.656 3.985A8 8 0 0 0 38 15.422V17a4 4 0 0 1-4 4h-4v-4.686a8 8 0 0 1 2.343-5.657Z" style="" fill="#ff938d" data-original="#ff938d"></path><path d="M37 18h-2a2 2 0 0 1-2-2v-2.686a8 8 0 0 1 1.57-4.744 7.976 7.976 0 0 0-.913.773l-1.314 1.314A8 8 0 0 0 30 16.314V21h4a4 4 0 0 0 3.892-3.108A3.974 3.974 0 0 1 37 18Z" style="" fill="#f27875" data-original="#f27875"></path><path d="M18 33h6a6 6 0 0 1 6 6h-6a6 6 0 0 1-6-6Z" style="" fill="#85b27c" data-original="#85b27c"></path><path d="M27 36a5.992 5.992 0 0 1-5.191-3H18a6 6 0 0 0 6 6h6a5.97 5.97 0 0 0-.809-3Z" style="" fill="#699b5d" data-original="#699b5d"></path><path d="M40 35h6a6 6 0 0 1-6 6h-6a6 6 0 0 1 6-6Z" style="" transform="rotate(-180 40 38)" fill="#85b27c" data-original="#85b27c"></path><path d="M43.055 38h-3.809a1.775 1.775 0 0 1-1.667-2.443l.01-.023A6 6 0 0 0 34.055 41h6a6 6 0 0 0 5.466-3.534 5.974 5.974 0 0 1-2.466.534Z" style="" fill="#699b5d" data-original="#699b5d"></path><path d="M60 44c-2.232 5.271-3.467 10.3-3.293 15H51l-1-3-1 3h-8.125L39 54l-2 5a25.113 25.113 0 0 1-1-11 26.323 26.323 0 0 0-2.232 11h-2.893L29 54l-1.875 5H19l-1-3-1 3h-5.707c.174-4.7-1.061-9.729-3.293-15a27.268 27.268 0 0 1-1.482 15H5.232A26.323 26.323 0 0 0 3 48a29.362 29.362 0 0 1-2 15h62c-3.308-5.525-3.989-12.591-3-19Z" style="" fill="#85b27c" data-original="#85b27c"></path><path d="M40 34a6.973 6.973 0 0 0-5 2.111V31a1 1 0 0 0-2 0v14a1 1 0 0 0 2 0v-3h5a7.008 7.008 0 0 0 7-7 1.01 1.01 0 0 0-.077-.382A1 1 0 0 0 46 34Zm0 2h3.485a4.946 4.946 0 0 1-2.97 1h-1.03a6.963 6.963 0 0 0-3.358.858A4.98 4.98 0 0 1 40 36Zm0 4h-3.485a4.946 4.946 0 0 1 2.97-1h1.03a6.963 6.963 0 0 0 3.358-.858A4.98 4.98 0 0 1 40 40Z" fill="#000000" opacity="0" data-original="#000000" class=""></path><path d="M63.858 62.486c-2.88-4.809-3.926-11.491-2.87-18.334a1 1 0 0 0-1.909-.542A37.459 37.459 0 0 0 55.691 58h-3.97l-.772-2.316a1 1 0 0 0-1.9 0L48.279 58h-6.711l-1.631-4.352a1 1 0 0 0-.926-.648 1.02 1.02 0 0 0-.94.629l-.854 2.136a22.712 22.712 0 0 1-.227-7.623 1 1 0 0 0-1.909-.536A27.662 27.662 0 0 0 32.768 58h-1.2L31 56.482V22h2v5a1 1 0 0 0 2 0v-5.1a5.009 5.009 0 0 0 4-4.9v-1.578a6.977 6.977 0 0 1 1.176-3.883l2.656-3.984A1 1 0 0 0 42 6h-2.687c-.105 0-.208.012-.313.015V3a1 1 0 0 0-1-1h-.889a7.424 7.424 0 0 0-2.345.382.857.857 0 0 0-.059-.089l-2-2a1 1 0 0 0-1.414 0l-2 2a.977.977 0 0 0-.063.095A7.4 7.4 0 0 0 26.889 2H26a1 1 0 0 0-1 1v3.015c-.105 0-.208-.015-.313-.015H22a1 1 0 0 0-.832 1.555l2.656 3.984A6.977 6.977 0 0 1 25 15.422V17a5.009 5.009 0 0 0 4 4.9v12.211A6.973 6.973 0 0 0 24 32h-6a1.019 1.019 0 0 0-.383.077A1 1 0 0 0 17 33a7.008 7.008 0 0 0 7 7h5v13a1 1 0 0 0-.937.648L26.432 58h-6.711l-.772-2.316a1 1 0 0 0-1.9 0L16.279 58h-3.97a37.459 37.459 0 0 0-3.388-14.39 1 1 0 0 0-1.909.542A26.941 26.941 0 0 1 6.2 57.027a27.928 27.928 0 0 0-2.276-9.421 1 1 0 0 0-1.909.536A28.191 28.191 0 0 1 .081 62.606 1 1 0 0 0 1 64h62a1 1 0 0 0 .858-1.514ZM37 6.309a8.9 8.9 0 0 0-2.645 1.178 9.237 9.237 0 0 0-1.032-1.97A5.6 5.6 0 0 1 37 4Zm-5-3.895.9.9a8.147 8.147 0 0 0-.9.7 8.082 8.082 0 0 0-.9-.7ZM27 4a6.276 6.276 0 0 1 5.7 4.886l-.7.7-.95-.95A8.927 8.927 0 0 0 27 6.309Zm0 13v-1.578a8.969 8.969 0 0 0-1.512-4.992L23.869 8h.818a6.958 6.958 0 0 1 4.949 2.05l1.049 1.05a9.008 9.008 0 0 0-1.3 2.612 1 1 0 0 0 1.914.578 7.017 7.017 0 0 1 1.752-2.925l1.313-1.314A6.958 6.958 0 0 1 39.313 8h.818l-1.619 2.43A8.969 8.969 0 0 0 37 15.422V17a3 3 0 0 1-3 3h-3v-2a1 1 0 0 0-2 0v1.816A3 3 0 0 1 27 17Zm.873 18.858A6.963 6.963 0 0 0 24.515 35h-1.03a4.946 4.946 0 0 1-2.97-1H24a4.98 4.98 0 0 1 3.873 1.858Zm-7.746.284a6.963 6.963 0 0 0 3.358.858h1.03a4.946 4.946 0 0 1 2.97 1H24a4.98 4.98 0 0 1-3.873-1.858ZM2.469 62a30.271 30.271 0 0 0 1.559-6.64 23.782 23.782 0 0 1 .2 3.619 1 1 0 0 0 1 1.021h1.29a1 1 0 0 0 .922-.612 25.364 25.364 0 0 0 1.924-8.344 27.928 27.928 0 0 1 .929 7.919 1 1 0 0 0 1 1.037H17a1 1 0 0 0 .949-.684l.051-.154.051.154A1 1 0 0 0 19 60h8.125a1 1 0 0 0 .937-.648l.938-2.5.938 2.5a1 1 0 0 0 .937.648h2.893a1 1 0 0 0 1-1.021 23.887 23.887 0 0 1 .275-4.118 29.516 29.516 0 0 0 1 4.432 1 1 0 0 0 .914.706 1.015 1.015 0 0 0 .971-.628l1.041-2.6.968 2.584a1 1 0 0 0 .937.648H49a1 1 0 0 0 .949-.684l.051-.157.051.154A1 1 0 0 0 51 60h5.707a1 1 0 0 0 1-1.037 27.855 27.855 0 0 1 .909-7.839A27.508 27.508 0 0 0 61.314 62Z" fill="#000000" opacity="0" data-original="#000000" class=""></path><path d="M36.6 13a1.01 1.01 0 0 1-.343-.061 1 1 0 0 1-.6-1.281 11.006 11.006 0 0 1 1.191-2.338l.514-.771a1 1 0 1 1 1.664 1.109l-.514.772a9 9 0 0 0-.97 1.912A1 1 0 0 1 36.6 13Z" style="" fill="#ffffff" data-original="#ffffff"></path></g></g></svg>