<svg id="Layer_2" viewBox="0 0 32 32" xmlns="http://www.w3.org/2000/svg"><path d="m25.163 14.779c-.195-1.394-.856-2.647-1.88-3.586.473-1.917-.223-3.962-1.833-5.177-.707-.533-1.529-.859-2.409-.958-.337-.819-.875-1.52-1.582-2.054-2.2-1.66-5.342-1.222-7.006.982-.004.005-.008.01-.011.015-1.038.3-1.947.919-2.591 1.773-.534.707-.859 1.528-.959 2.409-.82.337-1.521.875-2.053 1.582-.823 1.089-1.155 2.457-.947 3.785-.686.479-1.205 1.15-1.498 1.951-.78 2.137.323 4.511 2.461 5.292 1.846.674 3.874-.06 4.893-1.653l6.039 1.389c1.014.709 2.2 1.082 3.422 1.082.279 0 .561-.02.843-.059 1.587-.222 2.993-1.048 3.958-2.328.965-1.279 1.375-2.858 1.153-4.445z" fill="#678a3b"/><path d="m30 16c0-1.071-.353-2.112-1-2.977v-.023c0-2.757-2.243-5-5-5-.886 0-1.737.235-2.5.686-.763-.45-1.614-.686-2.5-.686-2.017 0-3.805 1.212-4.582 3.028-3.037.293-5.418 2.86-5.418 5.972 0 3.257 2.609 5.917 5.847 5.998l9.866 2.96c.093.028.19.042.287.042 2.757 0 5-2.243 5-5 0-.886-.235-1.737-.686-2.5.45-.763.686-1.614.686-2.5z" fill="#78a03f"/><path d="m27.058 20.934c-.565-2.613-2.835-4.521-5.487-4.521-.419 0-.841.052-1.261.154-1.066-1.304-2.628-2.062-4.311-2.062-1.603 0-3.13.711-4.196 1.929-2.695-.245-5.08 1.521-5.836 4.064-2.334.739-3.968 2.955-3.968 5.504 0 .745.143 1.473.423 2.163.453 1.115 1.541 1.835 2.771 1.835h21.611c1.231 0 2.319-.72 2.771-1.834.281-.691.423-1.419.423-2.164 0-2.132-1.138-4.064-2.942-5.068z" fill="#8bba41"/><path d="m23.353 9.929c-.552 0-1 .448-1 1s.448 1 1 1c.847 0 1.536.689 1.536 1.536 0 .552.448 1 1 1s1-.448 1-1c0-1.95-1.586-3.536-3.536-3.536z" fill="#688c3c"/><path d="m21.98 18.664c-.417 0-.837.082-1.249.243-.514.202-.768.782-.566 1.296.201.514.78.768 1.296.566.969-.38 1.865.302 1.979 1.255.061.508.492.881.991.881.04 0 .08-.002.12-.007.548-.066.94-.563.875-1.112-.213-1.78-1.695-3.123-3.446-3.123z" fill="#78a03f"/><path d="m15.674 3.625c-.83-.275-1.722-.235-2.51.109-.733.321-1.321.876-1.7 1.604-.254.49-.063 1.094.427 1.349.147.076.305.112.46.112.361 0 .71-.196.889-.539.115-.222.334-.522.727-.694.429-.188.823-.127 1.079-.042.523.174 1.09-.111 1.263-.635.174-.524-.111-1.09-.635-1.263z" fill="#5f8038"/></svg>