<svg id="Layer_1" enable-background="new 0 0 512 512" height="512" viewBox="0 0 512 512" width="512" xmlns="http://www.w3.org/2000/svg"><g><g><ellipse cx="164.314" cy="413.329" fill="#6de470" rx="42.228" ry="56.647" transform="matrix(.707 -.707 .707 .707 -244.141 237.249)"/><path d="m194.174 383.469c-17.835-17.835-41.636-24.258-58.833-17.436 9.757 3.14 19.507 9.016 27.928 17.436 22.122 22.122 26.687 53.424 10.196 69.916-3.196 3.196-6.948 5.601-11.082 7.24 15.878 5.11 31.774 2.974 41.988-7.24 16.49-16.491 11.925-47.794-10.197-69.916z" fill="#4dcc68"/><ellipse cx="347.686" cy="413.329" fill="#6de470" rx="56.647" ry="42.228" transform="matrix(.707 -.707 .707 .707 -190.433 366.913)"/><path d="m387.742 373.273c-10.214-10.214-26.11-12.35-41.988-7.24 4.134 1.64 7.887 4.044 11.082 7.24 16.491 16.491 11.926 47.793-10.196 69.916-8.42 8.42-18.171 14.296-27.928 17.436 17.197 6.822 40.998.399 58.833-17.436 22.123-22.122 26.688-53.425 10.197-69.916z" fill="#4dcc68"/></g><path d="m354.078 408.601c-2.894-2.961-7.644-3.016-10.605-.119l-79.973 78.195v-168.614c0-4.142-3.357-7.5-7.5-7.5s-7.5 3.358-7.5 7.5v168.614l-79.973-78.196c-2.963-2.897-7.712-2.843-10.605.119-2.896 2.961-2.843 7.71.119 10.606l92.716 90.655c1.457 1.425 3.351 2.138 5.243 2.138s3.786-.712 5.243-2.138l92.716-90.655c2.962-2.895 3.016-7.643.119-10.605z" fill="#3bb054"/><g><g><path d="m162.603 95.823c28.575 16.498 75.985 59.847 67.45 74.629-8.534 14.782-69.781-4.602-98.356-21.099s-44.821-41.855-36.287-56.637 38.618-13.391 67.193 3.107z" fill="#ffd54f"/><path d="m162.603 95.823c-21.637-12.492-44.13-16.314-57.486-11.021 8.536 2.171 17.632 5.855 26.58 11.021 28.575 16.498 75.985 59.847 67.45 74.629-.696 1.205-1.747 2.179-3.097 2.95 16.619 3.443 30.292 3.476 34.003-2.95 8.535-14.782-38.875-58.131-67.45-74.629z" fill="#ffc328"/><path d="m349.397 275.042c-28.575-16.498-75.985-59.847-67.45-74.629 8.534-14.782 69.781 4.602 98.356 21.099s44.821 41.855 36.287 56.637-38.618 13.391-67.193-3.107z" fill="#ffd54f"/><path d="m380.303 221.512c-26.246-15.153-80.048-32.736-95.259-24.049 21.61 4.477 48.201 14.723 64.353 24.049 28.575 16.498 44.821 41.855 36.287 56.637-2.072 3.589-5.423 6.217-9.706 7.914 18.722 4.761 34.75 2.239 40.612-7.914 8.534-14.782-7.712-40.139-36.287-56.637z" fill="#ffc328"/></g><g><path d="m131.697 221.512c28.575-16.498 89.822-35.881 98.356-21.099s-38.876 58.131-67.45 74.629c-28.575 16.498-58.658 17.889-67.192 3.107s7.711-40.139 36.286-56.637z" fill="#ffd54f"/><path d="m230.053 200.413c-3.71-6.426-17.384-6.393-34.003-2.95 1.35.771 2.402 1.745 3.097 2.95 8.534 14.782-38.876 58.131-67.45 74.629-8.948 5.166-18.044 8.85-26.58 11.021 13.356 5.293 35.849 1.471 57.486-11.021 28.575-16.498 75.985-59.847 67.45-74.629z" fill="#ffc328"/><path d="m380.303 149.353c-28.575 16.498-89.822 35.881-98.356 21.099s38.876-58.131 67.45-74.629c28.575-16.498 58.658-17.889 67.192-3.107s-7.711 40.139-36.286 56.637z" fill="#ffd54f"/><path d="m416.589 92.716c-5.862-10.153-21.89-12.675-40.612-7.914 4.283 1.697 7.634 4.325 9.706 7.914 8.534 14.782-7.712 40.139-36.287 56.637-16.153 9.326-42.743 19.572-64.353 24.049 15.211 8.687 69.013-8.896 95.259-24.049 28.576-16.498 44.822-41.855 36.287-56.637z" fill="#ffc328"/></g><g><path d="m286.905 59.744c0 32.995-13.837 95.728-30.905 95.728s-30.905-62.733-30.905-95.728 13.836-59.744 30.905-59.744 30.905 26.748 30.905 59.744z" fill="#ffd54f"/><path d="m256 0c-5.631 0-10.906 2.926-15.453 8.013 9.235 10.331 15.453 29.621 15.453 51.73 0 22.113-6.215 57.581-15.453 78.572 4.546 10.33 9.823 17.156 15.453 17.156 17.069 0 30.905-62.733 30.905-95.728s-13.836-59.743-30.905-59.743z" fill="#ffc328"/><path d="m225.095 311.122c0-32.995 13.837-95.728 30.905-95.728s30.905 62.733 30.905 95.728-13.836 59.743-30.905 59.743-30.905-26.748-30.905-59.743z" fill="#ffd54f"/><path d="m256 215.393c-5.63 0-10.907 6.826-15.453 17.156 9.238 20.992 15.453 56.46 15.453 78.573 0 22.11-6.218 41.4-15.453 51.731 4.547 5.087 9.821 8.013 15.453 8.013 17.069 0 30.905-26.748 30.905-59.743 0-32.997-13.836-95.73-30.905-95.73z" fill="#ffc328"/></g><g><path d="m130.265 154.527c33.007 0 95.763 13.837 95.763 30.905s-62.756 30.905-95.763 30.905-59.765-13.836-59.765-30.904 26.758-30.906 59.765-30.906z" fill="#ffd54f"/><path d="m381.735 216.338c-33.007 0-95.763-13.837-95.763-30.905s62.756-30.905 95.763-30.905 59.765 13.837 59.765 30.905-26.758 30.905-59.765 30.905z" fill="#ffd54f"/><path d="m381.735 154.527c-4.957 0-10.587.314-16.572.902 26.077 3.323 45.421 15.492 45.421 30.003s-19.344 26.68-45.421 30.003c5.985.588 11.616.902 16.572.902 33.007 0 59.765-13.837 59.765-30.905s-26.758-30.905-59.765-30.905z" fill="#ffc328"/></g><g><path d="m219.92 61.13c16.498 28.575 35.881 89.822 21.099 98.356s-58.131-38.876-74.629-67.45-17.889-58.658-3.107-67.192c14.783-8.535 40.14 7.711 56.637 36.286z" fill="#ffd54f"/><path d="m163.284 24.843c-4.877 2.816-7.982 7.987-9.376 14.665 13.163 4.33 28.193 17.926 39.248 37.074 11.057 19.151 23.408 52.974 25.904 75.772 9.102 6.673 17.085 9.946 21.961 7.131 14.782-8.534-4.602-69.781-21.099-98.356s-41.856-44.82-56.638-36.286z" fill="#ffc328"/><path d="m292.08 309.735c-16.498-28.575-35.881-89.822-21.099-98.356s58.131 38.876 74.629 67.45c16.498 28.575 17.889 58.658 3.107 67.192-14.783 8.535-40.14-7.711-56.637-36.286z" fill="#ffd54f"/><path d="m270.98 211.379c-4.875 2.815-6.033 11.365-4.804 22.584 18.495 13.56 41.612 41.168 52.668 60.319 11.055 19.148 15.315 38.962 12.483 52.527 6.481 2.132 12.512 2.028 17.389-.787 14.782-8.534 13.391-38.617-3.107-67.192-16.497-28.575-59.847-75.985-74.629-67.451z" fill="#ffc328"/></g><g><path d="m166.391 278.83c16.498-28.575 59.847-75.985 74.629-67.45 14.782 8.534-4.602 69.781-21.099 98.356s-41.855 44.821-56.637 36.287c-14.782-8.535-13.391-38.618 3.107-67.193z" fill="#ffd54f"/><path d="m241.02 211.379c-5.569-3.215-15.193 1.512-25.908 10.179 2.427 20.721-12.774 65.101-26.097 88.177-8.531 14.777-19.431 26.243-30.013 32.704 1.236 1.43 2.655 2.644 4.282 3.583 14.782 8.534 40.139-7.712 56.637-36.287 16.497-28.575 35.881-89.821 21.099-98.356z" fill="#ffc328"/><path d="m345.609 92.035c-16.498 28.575-59.847 75.985-74.629 67.45-14.782-8.534 4.602-69.781 21.099-98.356 16.498-28.575 41.855-44.821 56.637-36.287 14.782 8.536 13.391 38.618-3.107 67.193z" fill="#ffd54f"/><path d="m348.716 24.843c-7.138-4.121-16.742-2.45-26.624 3.583 9.999 11.567 7.294 38.178-7.389 63.609-10.282 17.81-30.995 42.934-48.721 57.272.578 4.937 2.153 8.536 4.998 10.179 14.782 8.534 58.131-38.876 74.629-67.45 16.498-28.575 17.889-58.658 3.107-67.193z" fill="#ffc328"/></g><circle cx="256" cy="185.433" fill="#d67b42" r="87.565"/><path d="m256 97.867c-5.276 0-10.434.493-15.453 1.387 40.987 7.302 72.113 43.093 72.113 86.178s-31.126 78.876-72.113 86.178c5.019.894 10.177 1.387 15.453 1.387 48.361 0 87.565-39.204 87.565-87.565s-39.204-87.565-87.565-87.565z" fill="#be652b"/></g></g></svg>