<svg id="Capa_1" enable-background="new 0 0 510 510" height="512" viewBox="0 0 510 510" width="512" xmlns="http://www.w3.org/2000/svg" xmlns:xlink="http://www.w3.org/1999/xlink"><linearGradient id="lg1"><stop offset="0" stop-color="#d1f19e"/><stop offset="1" stop-color="#78a91f"/></linearGradient><linearGradient id="SVGID_1_" gradientUnits="userSpaceOnUse" x1="401.447" x2="424.873" xlink:href="#lg1" y1="451.455" y2="474.88"/><linearGradient id="lg2"><stop offset="0" stop-color="#026841" stop-opacity="0"/><stop offset=".3243" stop-color="#046842" stop-opacity=".324"/><stop offset=".5509" stop-color="#0e6546" stop-opacity=".551"/><stop offset=".7476" stop-color="#1d614c" stop-opacity=".748"/><stop offset=".9263" stop-color="#335c54" stop-opacity=".926"/><stop offset="1" stop-color="#3e5959"/></linearGradient><linearGradient id="SVGID_00000024721902758290106850000013261864930611993256_" gradientUnits="userSpaceOnUse" x1="420.761" x2="387.659" xlink:href="#lg2" y1="462.997" y2="475.16"/><linearGradient id="SVGID_00000044162203689881569760000010193980116756373164_" gradientUnits="userSpaceOnUse" x1="387.547" x2="410.764" xlink:href="#lg1" y1="363.365" y2="363.365"/><linearGradient id="SVGID_00000106861034358875459220000018057200544413279667_" gradientUnits="userSpaceOnUse" x1="394.644" x2="394.644" xlink:href="#lg2" y1="420.47" y2="358.003"/><linearGradient id="SVGID_00000006699173109298059800000018337567710630450323_" gradientUnits="userSpaceOnUse" x1="387.449" x2="332.358" xlink:href="#lg1" y1="416.862" y2="465.472"/><linearGradient id="SVGID_00000098211856564927230810000015759804503215070607_" gradientUnits="userSpaceOnUse" x1="376.52" x2="391.823" xlink:href="#lg2" y1="470.108" y2="515.136"/><linearGradient id="lg3"><stop offset="0" stop-color="#fef0ae"/><stop offset="1" stop-color="#fac600"/></linearGradient><linearGradient id="SVGID_00000055684445565276778130000006433321464393900729_" gradientUnits="userSpaceOnUse" x1="347.811" x2="383.014" xlink:href="#lg3" y1="199.716" y2="252.318"/><linearGradient id="lg4"><stop offset="0" stop-color="#fe9738" stop-opacity="0"/><stop offset="1" stop-color="#fe9738"/></linearGradient><linearGradient id="SVGID_00000078015716095125628340000005727908157700594816_" gradientUnits="userSpaceOnUse" x1="429.301" x2="393.968" xlink:href="#lg4" y1="269.03" y2="269.697"/><linearGradient id="SVGID_00000101101463010579905130000014797591224107856034_" gradientUnits="userSpaceOnUse" x1="379.579" x2="464.972" xlink:href="#lg3" y1="233.979" y2="319.371"/><linearGradient id="SVGID_00000080890424990580806180000009024198819780737981_" gradientUnits="userSpaceOnUse" x1="446.526" x2="404.647" xlink:href="#lg4" y1="274.283" y2="285.512"/><linearGradient id="SVGID_00000146501507362290732420000010051332900718239143_" gradientUnits="userSpaceOnUse" x1="405.651" x2="461.49" xlink:href="#lg4" y1="264.718" y2="305.99"/><linearGradient id="SVGID_00000043432688637637613750000004685890456758532775_" gradientUnits="userSpaceOnUse" x1="305.367" x2="434.849" xlink:href="#lg3" y1="236.846" y2="332.338"/><linearGradient id="SVGID_00000138540702436654737980000011922331735045809054_" gradientUnits="userSpaceOnUse" x1="394.713" x2="352.046" xlink:href="#lg4" y1="292.972" y2="274.972"/><linearGradient id="SVGID_00000044874984886015833350000000883786691380869792_" gradientUnits="userSpaceOnUse" x1="394.644" x2="394.644" xlink:href="#lg4" y1="331.806" y2="362.305"/><linearGradient id="SVGID_00000088822847194449484630000006925510376861021312_" gradientUnits="userSpaceOnUse" x1="307.789" x2="362.01" xlink:href="#lg4" y1="284.474" y2="282.451"/><linearGradient id="SVGID_00000017515769473897469790000010890789479437325185_" gradientUnits="userSpaceOnUse" x1="273.387" x2="312.546" xlink:href="#lg1" y1="412.134" y2="451.293"/><linearGradient id="SVGID_00000078023774282702187410000006616910419465831300_" gradientUnits="userSpaceOnUse" x1="305.671" x2="250.338" xlink:href="#lg2" y1="431.428" y2="451.761"/><linearGradient id="SVGID_00000045598384768277089670000013818593341913484206_" gradientUnits="userSpaceOnUse" x1="246.076" x2="272.373" xlink:href="#lg1" y1="343.918" y2="343.918"/><linearGradient id="SVGID_00000090276207348531511330000001927728556664363963_" gradientUnits="userSpaceOnUse" x1="254.114" x2="254.114" xlink:href="#lg2" y1="357.333" y2="311.687"/><linearGradient id="SVGID_00000016773215669209600300000010923851942252336549_" gradientUnits="userSpaceOnUse" x1="245.965" x2="183.568" xlink:href="#lg1" y1="404.51" y2="459.566"/><linearGradient id="SVGID_00000071560514216166326290000007704894976434887304_" gradientUnits="userSpaceOnUse" x1="233.586" x2="250.92" xlink:href="#lg2" y1="464.818" y2="515.818"/><linearGradient id="lg5"><stop offset="0" stop-color="#ffa1ae"/><stop offset="1" stop-color="#ff4565"/></linearGradient><linearGradient id="SVGID_00000135666051074431720520000015954512063680770948_" gradientUnits="userSpaceOnUse" x1="176.953" x2="234.953" xlink:href="#lg5" y1="42.092" y2="128.758"/><linearGradient id="lg6"><stop offset="0" stop-color="#fd4755" stop-opacity="0"/><stop offset="1" stop-color="#ca2e43"/></linearGradient><linearGradient id="SVGID_00000114770380466116832790000001529275960855535785_" gradientUnits="userSpaceOnUse" x1="309.918" x2="288.418" xlink:href="#lg6" y1="61.345" y2="98.345"/><linearGradient id="SVGID_00000005950883221112763220000009809447563898337952_" gradientUnits="userSpaceOnUse" x1="229.294" x2="369.986" xlink:href="#lg5" y1="98.543" y2="239.235"/><linearGradient id="SVGID_00000083773540589638268470000006419401798835130289_" gradientUnits="userSpaceOnUse" x1="339.595" x2="270.595" xlink:href="#lg6" y1="164.948" y2="183.448"/><linearGradient id="SVGID_00000160875254861233049740000004657695241959562173_" gradientUnits="userSpaceOnUse" x1="272.249" x2="364.249" xlink:href="#lg6" y1="149.188" y2="217.188"/><linearGradient id="SVGID_00000064335118477996886930000006669340462185064618_" gradientUnits="userSpaceOnUse" x1="107.022" x2="320.355" xlink:href="#lg5" y1="103.266" y2="260.599"/><linearGradient id="SVGID_00000096046507984537003380000002224212127258060990_" gradientUnits="userSpaceOnUse" x1="254.114" x2="254.114" xlink:href="#lg6" y1="259.722" y2="309.972"/><linearGradient id="SVGID_00000139997920024792293810000004369159264933442698_" gradientUnits="userSpaceOnUse" x1="111.013" x2="200.346" xlink:href="#lg6" y1="181.738" y2="178.405"/><linearGradient id="SVGID_00000181772891298252230890000002158760723534298520_" gradientUnits="userSpaceOnUse" x1="286.77" x2="219.437" xlink:href="#lg6" y1="252.388" y2="243.721"/><linearGradient id="SVGID_00000045590292514656336150000015951033138621988793_" gradientUnits="userSpaceOnUse" x1="134.848" x2="161.38" xlink:href="#lg1" y1="443.69" y2="470.223"/><linearGradient id="SVGID_00000120539187051849797480000000431253358465654674_" gradientUnits="userSpaceOnUse" x1="156.723" x2="119.231" xlink:href="#lg2" y1="456.763" y2="470.54"/><linearGradient id="SVGID_00000137123264482699805450000003874641907639619001_" gradientUnits="userSpaceOnUse" x1="119.105" x2="145.401" xlink:href="#lg1" y1="343.918" y2="343.918"/><linearGradient id="SVGID_00000094613748622388517520000010407880134530243006_" gradientUnits="userSpaceOnUse" x1="127.142" x2="127.142" xlink:href="#lg2" y1="408.596" y2="337.845"/><linearGradient id="SVGID_00000080166562711679041720000017831316154974450850_" gradientUnits="userSpaceOnUse" x1="118.993" x2="56.596" xlink:href="#lg1" y1="404.51" y2="459.566"/><linearGradient id="SVGID_00000022556291670357626040000004483529447811242372_" gradientUnits="userSpaceOnUse" x1="106.614" x2="123.948" xlink:href="#lg2" y1="464.818" y2="515.818"/><linearGradient id="lg7"><stop offset="0" stop-color="#d9b1ee"/><stop offset="1" stop-color="#814aa0"/></linearGradient><linearGradient id="SVGID_00000044159715203008209660000014855735530324772766_" gradientUnits="userSpaceOnUse" x1="74.099" x2="113.97" xlink:href="#lg7" y1="158.566" y2="218.144"/><linearGradient id="lg8"><stop offset="0" stop-color="#632f78" stop-opacity="0"/><stop offset="1" stop-color="#632f78"/></linearGradient><linearGradient id="SVGID_00000152255911418521238360000015514762801266976166_" gradientUnits="userSpaceOnUse" x1="165.504" x2="150.724" xlink:href="#lg8" y1="171.801" y2="197.236"/><linearGradient id="SVGID_00000088103118926120170060000007120537561077183155_" gradientUnits="userSpaceOnUse" x1="110.08" x2="206.797" xlink:href="#lg7" y1="197.372" y2="294.09"/><linearGradient id="SVGID_00000093893441143105567400000013221695125825681037_" gradientUnits="userSpaceOnUse" x1="185.905" x2="138.472" xlink:href="#lg8" y1="243.022" y2="255.74"/><linearGradient id="SVGID_00000003097908429829474340000008402653450234055077_" gradientUnits="userSpaceOnUse" x1="139.609" x2="202.853" xlink:href="#lg8" y1="232.188" y2="278.934"/><linearGradient id="SVGID_00000015354226889373418600000016086096228492449691_" gradientUnits="userSpaceOnUse" x1="26.025" x2="172.679" xlink:href="#lg7" y1="200.619" y2="308.776"/><linearGradient id="SVGID_00000171712381362841816810000010267434123356128652_" gradientUnits="userSpaceOnUse" x1="127.142" x2="127.142" xlink:href="#lg8" y1="308.174" y2="342.717"/><linearGradient id="SVGID_00000151512504115971341460000002588977869611233175_" gradientUnits="userSpaceOnUse" x1="28.769" x2="90.18" xlink:href="#lg8" y1="254.564" y2="252.273"/><g><g><g><path d="m426.515 449.096v.007c-5.599 11.982-10.144 24.586-13.434 37.673-1.357 5.382-2.47 10.73-3.354 16.032-.693 4.16-4.315 7.192-8.532 7.192h-12.539c-4.918 0-8.914-4.093-8.657-9.005 1.112-21.271 10.545-42.392 28.321-61.114 0-.007 0 0 0-.007 7.647-8.056 16.836-15.663 27.568-22.649.05-.033.1-.065.151-.098 3.284-2.133 8.651.292 6.796 3.06-6.124 9.136-11.602 18.799-16.32 28.909z" fill="url(#SVGID_1_)"/><path d="m426.515 449.096v.007c-5.599 11.982-10.144 24.586-13.434 37.673-1.357 5.382-2.47 10.73-3.354 16.032-.693 4.16-4.315 7.192-8.532 7.192h-12.539c-4.918 0-8.914-4.093-8.657-9.005 1.112-21.271 10.545-42.392 28.321-61.114 0-.007 0 0 0-.007 7.647-8.056 16.836-15.663 27.568-22.649.05-.033.1-.065.151-.098 3.284-2.133 8.651.292 6.796 3.06-6.124 9.136-11.602 18.799-16.32 28.909z" fill="url(#SVGID_00000024721902758290106850000013261864930611993256_)"/></g><path d="m397.565 510h-5.843c-4.811 0-8.711-3.9-8.711-8.711v-284.559h23.265v284.558c.001 4.812-3.9 8.712-8.711 8.712z" fill="url(#SVGID_00000044162203689881569760000010193980116756373164_)"/><path d="m383.011 336.759h23.265v119.384h-23.265z" fill="url(#SVGID_00000106861034358875459220000018057200544413279667_)"/><path d="m340.631 420.113v.011c8.264 17.684 14.971 36.286 19.827 55.601 2.002 7.944 3.646 15.836 4.95 23.661 1.023 6.139 6.369 10.614 12.592 10.614h18.505c7.259 0 13.155-6.041 12.776-13.29-1.641-31.394-15.564-62.566-41.798-90.198 0-.011 0 0 0-.011-11.286-11.889-24.848-23.117-40.687-33.428-.074-.048-.148-.097-.222-.145-4.847-3.148-12.768.431-10.03 4.516 9.039 13.486 17.123 27.748 24.087 42.669z" fill="url(#SVGID_00000006699173109298059800000018337567710630450323_)"/><path d="m340.631 420.113v.011c8.264 17.684 14.971 36.286 19.827 55.601 2.002 7.944 3.646 15.836 4.95 23.661 1.023 6.139 6.369 10.614 12.592 10.614h18.505c7.259 0 13.155-6.041 12.776-13.29-1.641-31.394-15.564-62.566-41.798-90.198 0-.011 0 0 0-.011-11.286-11.889-24.848-23.117-40.687-33.428-.074-.048-.148-.097-.222-.145-4.847-3.148-12.768.431-10.03 4.516 9.039 13.486 17.123 27.748 24.087 42.669z" fill="url(#SVGID_00000098211856564927230810000015759804503215070607_)"/><g><path d="m416.337 183.545-.008-.009c-11.98-12.492-31.395-12.49-43.374.004l-.033.034c-45.581 47.546-45.594 124.645-.028 172.207l.025.026c11.996 12.521 31.448 12.523 43.446.004 45.593-47.573 45.58-124.709-.028-172.266z" fill="url(#SVGID_00000055684445565276778130000006433321464393900729_)"/><path d="m416.337 183.545-.008-.009c-11.98-12.492-31.395-12.49-43.374.004l-.033.034c-45.581 47.546-45.594 124.645-.028 172.207l.025.026c11.996 12.521 31.448 12.523 43.446.004 45.593-47.573 45.58-124.709-.028-172.266z" fill="url(#SVGID_00000078015716095125628340000005727908157700594816_)"/><g><path d="m467.837 205.789-.006-.01c-8.473-14.665-27.228-19.688-41.897-11.222l-.04.023c-55.821 32.216-74.958 103.584-42.742 159.406l.017.03c8.481 14.696 27.271 19.732 41.965 11.248 55.84-32.239 74.961-103.647 42.703-159.475z" fill="url(#SVGID_00000101101463010579905130000014797591224107856034_)"/><path d="m467.837 205.789-.006-.01c-8.473-14.665-27.228-19.688-41.897-11.222l-.04.023c-55.821 32.216-74.958 103.584-42.742 159.406l.017.03c8.481 14.696 27.271 19.732 41.965 11.248 55.84-32.239 74.961-103.647 42.703-159.475z" fill="url(#SVGID_00000080890424990580806180000009024198819780737981_)"/><path d="m458.909 196.028c-9.465-6.643-22.299-7.632-32.974-1.471l-.04.023c-24.332 14.042-41.69 35.524-50.867 59.914-3.665 31.882-.439 65.888 10.696 96.144l.014.037c2.923 7.944 7.426 13.562 12.526 16.458 3.029 1.222 6.238 1.965 9.504 2.182 3.601-.322 7.21-1.924 10.548-4.946 38.017-34.424 54.105-105.526 40.593-168.341z" fill="url(#SVGID_00000146501507362290732420000010051332900718239143_)"/><path d="m321.451 205.789.006-.01c8.473-14.665 27.228-19.688 41.897-11.222l.04.023c55.822 32.216 74.958 103.584 42.742 159.406l-.017.03c-8.481 14.696-27.271 19.732-41.965 11.248-55.841-32.239-74.961-103.647-42.703-159.475z" fill="url(#SVGID_00000043432688637637613750000004685890456758532775_)"/><path d="m321.451 205.789.006-.01c8.473-14.665 27.228-19.688 41.897-11.222l.04.023c55.822 32.216 74.958 103.584 42.742 159.406l-.017.03c-8.481 14.696-27.271 19.732-41.965 11.248-55.841-32.239-74.961-103.647-42.703-159.475z" fill="url(#SVGID_00000138540702436654737980000011922331735045809054_)"/></g><path d="m306.292 275.057c3.433 36.356 23.826 70.557 57.861 90.207 9.765 5.638 21.336 5.299 30.491.127 9.155 5.171 20.726 5.511 30.491-.127 34.034-19.65 54.427-53.851 57.861-90.207z" fill="url(#SVGID_00000044874984886015833350000000883786691380869792_)"/><path d="m370.974 364.368c-38.019-34.422-54.107-105.524-40.595-168.34-3.542 2.486-6.615 5.758-8.923 9.751l-.006.01c-32.258 55.828-13.137 127.236 42.702 159.475 5.47 3.158 11.507 4.44 17.369 4.05-3.601-.322-7.21-1.925-10.547-4.946z" fill="url(#SVGID_00000088822847194449484630000006925510376861021312_)"/></g></g><g><path d="m315.29 408.192v.012c-9.359 20.03-16.956 41.098-22.457 62.975-2.268 8.997-4.13 17.936-5.607 26.799-1.159 6.953-7.213 12.022-14.263 12.022h-20.96c-8.222 0-14.9-6.842-14.471-15.052 1.859-35.557 17.628-70.863 47.341-102.16 0-.012 0 0 0-.012 12.782-13.466 28.143-26.183 46.083-37.861.084-.055.168-.109.252-.164 5.49-3.566 14.461.488 11.36 5.115-10.234 15.272-19.39 31.426-27.278 48.326z" fill="url(#SVGID_00000017515769473897469790000010890789479437325185_)"/><path d="m315.29 408.192v.012c-9.359 20.03-16.956 41.098-22.457 62.975-2.268 8.997-4.13 17.936-5.607 26.799-1.159 6.953-7.213 12.022-14.263 12.022h-20.96c-8.222 0-14.9-6.842-14.471-15.052 1.859-35.557 17.628-70.863 47.341-102.16 0-.012 0 0 0-.012 12.782-13.466 28.143-26.183 46.083-37.861.084-.055.168-.109.252-.164 5.49-3.566 14.461.488 11.36 5.115-10.234 15.272-19.39 31.426-27.278 48.326z" fill="url(#SVGID_00000078023774282702187410000006616910419465831300_)"/><path d="m257.423 510h-6.617c-5.449 0-9.867-4.418-9.867-9.867v-322.297h26.351v322.297c0 5.449-4.418 9.867-9.867 9.867z" fill="url(#SVGID_00000045598384768277089670000013818593341913484206_)"/><path d="m240.939 313.783h26.351v135.217h-26.351z" fill="url(#SVGID_00000090276207348531511330000001927728556664363963_)"/><path d="m192.938 408.192v.012c9.359 20.03 16.956 41.098 22.457 62.975 2.268 8.997 4.13 17.936 5.607 26.799 1.159 6.953 7.213 12.022 14.263 12.022h20.96c8.221 0 14.9-6.842 14.471-15.052-1.859-35.557-17.628-70.863-47.341-102.16 0-.012 0 0 0-.012-12.782-13.466-28.143-26.183-46.083-37.861-.084-.055-.168-.109-.252-.164-5.49-3.566-14.461.488-11.36 5.115 10.234 15.272 19.391 31.426 27.278 48.326z" fill="url(#SVGID_00000016773215669209600300000010923851942252336549_)"/><path d="m192.938 408.192v.012c9.359 20.03 16.956 41.098 22.457 62.975 2.268 8.997 4.13 17.936 5.607 26.799 1.159 6.953 7.213 12.022 14.263 12.022h20.96c8.221 0 14.9-6.842 14.471-15.052-1.859-35.557-17.628-70.863-47.341-102.16 0-.012 0 0 0-.012-12.782-13.466-28.143-26.183-46.083-37.861-.084-.055-.168-.109-.252-.164-5.49-3.566-14.461.488-11.36 5.115 10.234 15.272 19.391 31.426 27.278 48.326z" fill="url(#SVGID_00000071560514216166326290000007704894976434887304_)"/><g><path d="m289.856 15.449-.013-.014c-19.738-20.582-51.727-20.579-71.462.006l-.054.056c-75.1 78.336-75.12 205.365-.047 283.727l.041.042c19.764 20.63 51.814 20.633 71.582.006 75.117-78.381 75.096-205.469-.047-283.823z" fill="url(#SVGID_00000135666051074431720520000015954512063680770948_)"/><path d="m289.856 15.449-.013-.014c-19.738-20.582-51.727-20.579-71.462.006l-.054.056c-75.1 78.336-75.12 205.365-.047 283.727l.041.042c19.764 20.63 51.814 20.633 71.582.006 75.117-78.381 75.096-205.469-.047-283.823z" fill="url(#SVGID_00000114770380466116832790000001529275960855535785_)"/><g><path d="m374.707 52.096-.009-.016c-13.961-24.161-44.86-32.438-69.029-18.49l-.066.038c-91.971 53.079-123.5 170.665-70.421 262.636l.029.05c13.974 24.212 44.931 32.51 69.141 18.533 92-53.117 123.503-170.769 70.355-262.751z" fill="url(#SVGID_00000005950883221112763220000009809447563898337952_)"/><path d="m374.707 52.096-.009-.016c-13.961-24.161-44.86-32.438-69.029-18.49l-.066.038c-91.971 53.079-123.5 170.665-70.421 262.636l.029.05c13.974 24.212 44.931 32.51 69.141 18.533 92-53.117 123.503-170.769 70.355-262.751z" fill="url(#SVGID_00000083773540589638268470000006419401798835130289_)"/><path d="m359.997 36.014c-15.595-10.945-36.74-12.574-54.328-2.424l-.066.038c-40.089 23.136-68.689 58.53-83.809 98.714-6.038 52.529-.723 108.557 17.623 158.406l.022.061c4.817 13.088 12.235 22.345 20.637 27.116 4.99 2.014 10.277 3.237 15.658 3.594 5.933-.53 11.88-3.171 17.378-8.149 62.64-56.714 89.148-173.861 66.885-277.356z" fill="url(#SVGID_00000160875254861233049740000004657695241959562173_)"/><path d="m133.521 52.096.01-.016c13.961-24.161 44.86-32.438 69.029-18.49l.066.038c91.971 53.079 123.5 170.665 70.421 262.636l-.029.05c-13.974 24.212-44.931 32.51-69.141 18.533-92-53.117-123.503-170.769-70.356-262.751z" fill="url(#SVGID_00000064335118477996886930000006669340462185064618_)"/></g><path d="m108.546 166.222c5.656 59.899 39.256 116.249 95.331 148.624 16.089 9.289 35.153 8.73 50.237.21 15.084 8.52 34.148 9.079 50.237-.21 56.075-32.375 89.674-88.725 95.331-148.624z" fill="url(#SVGID_00000096046507984537003380000002224212127258060990_)"/><path d="m215.115 313.37c-62.639-56.714-89.147-173.861-66.883-277.356-5.836 4.096-10.9 9.486-14.701 16.066l-.01.016c-53.148 91.982-21.645 209.634 70.355 262.75 9.012 5.203 18.958 7.315 28.616 6.673-5.932-.53-11.879-3.171-17.377-8.149z" fill="url(#SVGID_00000139997920024792293810000004369159264933442698_)"/></g></g><path d="m210.036 165.432h-38.893v125.631c9.858 8.882 20.78 16.882 32.734 23.783 16.089 9.289 35.153 8.73 50.237.21 15.084 8.52 34.148 9.079 50.237-.21 11.652-6.727 22.329-14.493 31.991-23.108z" fill="url(#SVGID_00000181772891298252230890000002158760723534298520_)"/><g><g><path d="m163.24 441.019v.008c-6.342 13.571-11.489 27.846-15.216 42.67-1.537 6.096-2.798 12.153-3.799 18.158-.785 4.711-4.887 8.145-9.664 8.145h-14.201c-5.571 0-10.096-4.636-9.805-10.199 1.259-24.092 11.944-48.014 32.077-69.22 0-.008 0 0 0-.008 8.661-9.124 19.069-17.741 31.224-25.653l.171-.111c3.72-2.416 9.798.331 7.697 3.466-6.935 10.348-13.14 21.293-18.484 32.744z" fill="url(#SVGID_00000045590292514656336150000015951033138621988793_)"/><path d="m163.24 441.019v.008c-6.342 13.571-11.489 27.846-15.216 42.67-1.537 6.096-2.798 12.153-3.799 18.158-.785 4.711-4.887 8.145-9.664 8.145h-14.201c-5.571 0-10.096-4.636-9.805-10.199 1.259-24.092 11.944-48.014 32.077-69.22 0-.008 0 0 0-.008 8.661-9.124 19.069-17.741 31.224-25.653l.171-.111c3.72-2.416 9.798.331 7.697 3.466-6.935 10.348-13.14 21.293-18.484 32.744z" fill="url(#SVGID_00000120539187051849797480000000431253358465654674_)"/></g><path d="m130.451 510h-6.617c-5.449 0-9.867-4.418-9.867-9.867v-322.297h26.351v322.297c0 5.449-4.418 9.867-9.867 9.867z" fill="url(#SVGID_00000137123264482699805450000003874641907639619001_)"/><path d="m113.967 313.783h26.351v135.217h-26.351z" fill="url(#SVGID_00000094613748622388517520000010407880134530243006_)"/><g><path d="m65.966 408.192v.012c9.359 20.03 16.956 41.098 22.457 62.975 2.268 8.997 4.13 17.936 5.607 26.799 1.159 6.953 7.213 12.022 14.263 12.022h20.96c8.222 0 14.9-6.842 14.471-15.052-1.859-35.557-17.628-70.863-47.341-102.16 0-.012 0 0 0-.012-12.783-13.466-28.144-26.183-46.084-37.861-.084-.055-.168-.109-.252-.164-5.49-3.566-14.461.488-11.36 5.115 10.235 15.272 19.392 31.426 27.279 48.326z" fill="url(#SVGID_00000080166562711679041720000017831316154974450850_)"/><path d="m65.966 408.192v.012c9.359 20.03 16.956 41.098 22.457 62.975 2.268 8.997 4.13 17.936 5.607 26.799 1.159 6.953 7.213 12.022 14.263 12.022h20.96c8.222 0 14.9-6.842 14.471-15.052-1.859-35.557-17.628-70.863-47.341-102.16 0-.012 0 0 0-.012-12.783-13.466-28.144-26.183-46.084-37.861-.084-.055-.168-.109-.252-.164-5.49-3.566-14.461.488-11.36 5.115 10.235 15.272 19.392 31.426 27.279 48.326z" fill="url(#SVGID_00000022556291670357626040000004483529447811242372_)"/></g><g><path d="m151.712 140.25-.009-.01c-13.569-14.149-35.559-14.147-49.126.004l-.037.039c-51.626 53.851-51.641 141.176-.032 195.046l.028.029c13.587 14.182 35.619 14.184 49.208.004 51.639-53.882 51.625-141.248-.032-195.112z" fill="url(#SVGID_00000044159715203008209660000014855735530324772766_)"/><path d="m151.712 140.25-.009-.01c-13.569-14.149-35.559-14.147-49.126.004l-.037.039c-51.626 53.851-51.641 141.176-.032 195.046l.028.029c13.587 14.182 35.619 14.184 49.208.004 51.639-53.882 51.625-141.248-.032-195.112z" fill="url(#SVGID_00000152255911418521238360000015514762801266976166_)"/><g><path d="m210.043 165.443-.007-.011c-9.597-16.609-30.839-22.299-47.453-12.711l-.045.026c-63.225 36.488-84.899 117.322-48.41 180.546l.02.034c9.606 16.645 30.887 22.349 47.53 12.74 63.244-36.513 84.901-117.392 48.365-180.624z" fill="url(#SVGID_00000088103118926120170060000007120537561077183155_)"/><path d="m210.043 165.443-.007-.011c-9.597-16.609-30.839-22.299-47.453-12.711l-.045.026c-63.225 36.488-84.899 117.322-48.41 180.546l.02.034c9.606 16.645 30.887 22.349 47.53 12.74 63.244-36.513 84.901-117.392 48.365-180.624z" fill="url(#SVGID_00000093893441143105567400000013221695125825681037_)"/><path d="m199.93 154.388c-10.721-7.524-25.257-8.644-37.347-1.666l-.045.026c-27.559 15.905-47.219 40.236-57.614 67.86-4.151 36.111-.497 74.626 12.115 108.895l.015.042c3.311 8.997 8.411 15.361 14.187 18.641 3.43 1.384 7.065 2.225 10.764 2.471 4.079-.365 8.167-2.18 11.946-5.602 43.062-38.989 61.284-119.521 45.979-190.667z" fill="url(#SVGID_00000003097908429829474340000008402653450234055077_)"/><path d="m44.242 165.443.007-.011c9.597-16.609 30.839-22.299 47.453-12.711l.045.026c63.225 36.488 84.899 117.322 48.41 180.546l-.02.034c-9.606 16.645-30.887 22.349-47.53 12.74-63.245-36.513-84.901-117.392-48.365-180.624z" fill="url(#SVGID_00000015354226889373418600000016086096228492449691_)"/></g><path d="m27.073 243.898c3.888 41.177 26.986 79.914 65.534 102.17 11.06 6.386 24.166 6.001 34.535.144 10.369 5.857 23.475 6.241 34.535-.144 38.548-22.256 61.646-60.993 65.534-102.17z" fill="url(#SVGID_00000171712381362841816810000010267434123356128652_)"/><path d="m100.333 345.053c-43.061-38.987-61.283-119.519-45.978-190.665-4.012 2.815-7.493 6.521-10.106 11.044l-.007.011c-36.536 63.232-14.88 144.111 48.365 180.625 6.195 3.577 13.033 5.029 19.672 4.587-4.079-.364-8.167-2.179-11.946-5.602z" fill="url(#SVGID_00000151512504115971341460000002588977869611233175_)"/></g></g></g></svg>