<svg xmlns="http://www.w3.org/2000/svg" version="1.1" xmlns:xlink="http://www.w3.org/1999/xlink" width="512" height="512" x="0" y="0" viewBox="0 0 497 497" style="enable-background:new 0 0 512 512" xml:space="preserve" class=""><g><path fill="#eab14d" d="M382.833 413.912c-1.407 17.154-5.119 40.355-14.479 62.628-5.079 12.095-16.954 19.938-30.077 19.938H158.724c-13.122 0-24.997-7.843-30.077-19.938-9.36-22.273-13.072-45.474-14.48-62.628-1.297-15.857-.629-26.544-.629-26.544H383.46c.001 0 .67 10.687-.627 26.544z" opacity="0" data-original="#eab14d" class=""></path><path fill="#e49542" d="M209.467 496.478h-50.733c-13.122 0-24.997-7.843-30.087-19.938-18.012-42.86-15.108-89.172-15.108-89.172h76.29s-1.267 46.313 6.566 89.172c2.205 12.095 7.374 19.938 13.072 19.938z" opacity="0" data-original="#e49542" class=""></path><path fill="#e49542" d="M382.833 413.912a5823.692 5823.692 0 0 1-268.665 0c-1.297-15.857-.629-26.544-.629-26.544L248.5 350.302l134.961 37.066s.669 10.687-.628 26.544z" opacity="0" data-original="#e49542" class=""></path><path fill="#eab14d" d="M409.382 366.871c-2.455 12.005-13.023 20.666-25.277 20.956a5819.836 5819.836 0 0 1-196.908 1.256c-12.677-1.891-39.912-6.062-39.912-6.062s-27.972 4.008-34.389 4.805c-12.254-.289-22.822-8.951-25.277-20.956-2.165-10.588-2.255-21.176-.269-31.753l.269-1.377c2.455-12.015 13.023-20.676 25.277-20.966 90.4-2.095 180.81-2.095 271.21 0 12.254.289 22.822 8.951 25.277 20.966.09.439.18.878.259 1.317 1.995 10.599 1.905 21.206-.26 31.814z" opacity="0" data-original="#eab14d" class=""></path><g fill="#e49542"><path d="M189.299 389.104a5741.709 5741.709 0 0 1-76.399-1.277c-12.254-.289-22.822-8.951-25.277-20.956-2.265-11.047-2.265-22.094 0-33.13 2.455-12.015 13.023-20.676 25.277-20.966a5884.5 5884.5 0 0 1 76.329-1.267c-11.276 1.676-20.587 10.169-22.912 21.545-2.355 11.496-2.355 23.002 0 34.507 2.325 11.406 11.675 19.908 22.982 21.544z" fill="#e49542" opacity="0" data-original="#e49542" class=""></path><path d="M409.382 333.741c-2.455-12.015-13.023-20.676-25.277-20.966a5852.406 5852.406 0 0 0-271.21 0c-12.254.289-22.822 8.951-25.277 20.966l-.269 1.377a34.961 34.961 0 0 0 10.488 1.596 35.592 35.592 0 0 0 21.295-7.065v.1c0 14.719 9.231 28.48 23.93 33.55a35.364 35.364 0 0 0 11.585 1.956c10.747 0 20.976-4.92 27.692-13.272 3.523 14.051 15.497 25.077 30.745 26.664 1.257.14 2.505.21 3.742.21 6.846 0 13.332-1.976 18.83-5.429s10.009-8.392 12.943-14.32c5.888 11.845 18.082 19.719 31.753 19.719 1.247 0 2.515-.07 3.782-.2a35.287 35.287 0 0 0 19.768-8.682c5.339-4.71 9.221-10.977 10.977-18.012a35.601 35.601 0 0 0 27.662 13.242c3.852 0 7.764-.629 11.606-1.956 14.689-5.079 23.91-18.84 23.91-33.539v-.12a35.607 35.607 0 0 0 21.265 7.035c3.463 0 6.945-.499 10.318-1.537-.079-.439-.169-.878-.258-1.317z" fill="#e49542" opacity="0" data-original="#e49542" class=""></path></g><path fill="#9bd069" d="M213.084 366.947c-15.248-1.593-27.219-12.62-30.749-26.671-9.12 11.353-24.713 16.344-39.271 11.322-14.73-5.082-23.972-18.89-23.932-33.651-11.961 8.938-28.771 9.658-41.655.619-13.209-9.272-18.18-25.9-13.249-40.447-15.004 4.707-31.875-1.025-40.651-14.964-9.08-14.386-6.534-32.799 5.133-44.252C12.377 215.737.03 201.372 0 184.116c-.03-17.267 12.255-31.673 28.578-34.898-11.707-11.413-14.314-29.826-5.285-44.252 8.745-13.959 25.606-19.752 40.631-15.075-4.961-14.537-.031-31.185 13.158-40.488 12.864-9.069 29.684-8.39 41.665.538-.06-14.761 9.161-28.589 23.881-33.691 14.548-5.052 30.151-.081 39.291 11.261 3.5-14.061 15.471-25.109 30.709-26.722 15.177-1.613 29.126 6.584 35.548 19.488C254.567 7.363 268.506-.865 283.683.718c15.248 1.583 27.24 12.6 30.77 26.651 9.111-11.352 24.702-16.364 39.261-11.352 14.73 5.072 23.982 18.869 23.962 33.63 11.95-8.948 28.76-9.688 41.655-.659 13.209 9.252 18.2 25.879 13.29 40.427 14.993-4.727 31.864.984 40.671 14.903 9.09 14.376 6.583 32.778-5.063 44.252 16.333 3.135 28.7 17.48 28.771 34.736v.538c0 17.267-12.317 31.652-28.64 34.848 11.687 11.433 14.253 29.836 5.204 44.252-8.765 13.949-25.626 19.712-40.64 15.015 4.951 14.548 0 31.185-13.198 40.468-12.884 9.059-29.695 8.359-41.665-.568.051 14.751-9.181 28.568-23.912 33.661-14.548 5.032-30.15.051-39.271-11.291-3.52 14.061-15.491 25.088-30.739 26.701-15.177 1.603-29.116-6.604-35.538-19.519-5.864 11.849-18.078 19.742-31.774 19.742a36.718 36.718 0 0 1-3.743-.206z" opacity="1" data-original="#9bd069" class=""></path><path fill="#8bc852" d="M232.973 331.615v-.12a39.26 39.26 0 0 1-23.451 7.774 38.908 38.908 0 0 1-22.413-7.095c-10.847-7.614-16.645-19.719-16.645-32.023 0-4.201.679-8.432 2.056-12.504a38.874 38.874 0 0 1-11.646 1.776c-12.983 0-25.686-6.456-33.11-18.252-4.081-6.476-6.037-13.681-6.037-20.806 0-10.318 4.091-20.457 11.686-27.921-8.991-1.746-16.885-6.566-22.533-13.332s-9.061-15.467-9.071-24.967v-.08c0-18.98 13.522-34.807 31.464-38.349-7.664-7.464-11.785-17.643-11.785-28.011 0-7.085 1.926-14.26 5.967-20.706 7.415-11.845 20.148-18.351 33.17-18.351 3.872 0 7.764.579 11.556 1.756a39.016 39.016 0 0 1-2.086-12.584c0-12.284 5.778-24.379 16.575-32.003a38.901 38.901 0 0 1 22.483-7.135c8.322 0 16.575 2.654 23.391 7.734v-.14a39.22 39.22 0 0 1 9.121-25.107C235.169 4.593 226.178.591 216.428.591c-1.257 0-2.525.06-3.802.2-7.624.808-14.42 3.962-19.758 8.692a35.556 35.556 0 0 0-10.947 18.022 35.623 35.623 0 0 0-27.662-13.232c-3.862 0-7.784.639-11.636 1.976-14.669 5.079-23.88 18.84-23.88 33.549v.14c-6.187-4.61-13.681-7.025-21.245-7.025-7.065 0-14.2 2.106-20.417 6.486-9.809 6.915-15.058 17.902-15.058 29.069 0 3.842.629 7.704 1.896 11.426a35.123 35.123 0 0 0-10.498-1.597c-11.825 0-23.391 5.908-30.127 16.665-3.662 5.858-5.419 12.374-5.419 18.811 0 9.42 3.742 18.671 10.698 25.446-16.296 3.223-28.57 17.593-28.57 34.837v.06a35.27 35.27 0 0 0 8.243 22.672c5.129 6.147 12.304 10.538 20.467 12.115-6.905 6.776-10.618 15.996-10.618 25.367a35.267 35.267 0 0 0 5.478 18.89c6.756 10.707 18.281 16.575 30.067 16.575 3.553 0 7.115-.529 10.588-1.617a35.277 35.277 0 0 0-1.866 11.356c0 11.176 5.269 22.173 15.118 29.089 6.207 4.351 13.312 6.446 20.357 6.446a35.592 35.592 0 0 0 21.295-7.065v.1c0 14.729 9.231 28.48 23.93 33.55a35.466 35.466 0 0 0 11.595 1.956c10.737 0 20.966-4.91 27.672-13.272 3.532 14.051 15.507 25.077 30.755 26.674 1.257.13 2.505.2 3.742.2a35.338 35.338 0 0 0 18.821-5.429 35.781 35.781 0 0 0 6.376-5.109c-5.777-6.957-9.05-15.808-9.05-24.999z" opacity="1" data-original="#8bc852"></path><circle cx="172.467" cy="134.465" r="27.309" fill="#f4dd45" opacity="1" data-original="#f4dd45"></circle><path fill="#ecc32e" d="M182.42 159.901a27.023 27.023 0 0 1-9.949 1.876c-15.088 0-27.313-12.224-27.313-27.313 0-15.078 12.224-27.303 27.313-27.303 3.513 0 6.866.659 9.949 1.876-10.169 3.972-17.364 13.861-17.364 25.426 0 11.577 7.195 21.467 17.364 25.438z" opacity="1" data-original="#ecc32e"></path><circle cx="334.11" cy="219.33" r="27.309" fill="#f4dd45" opacity="1" data-original="#f4dd45"></circle><path fill="#ecc32e" d="M344.063 244.766a27.023 27.023 0 0 1-9.949 1.876c-15.088 0-27.313-12.224-27.313-27.313 0-15.078 12.224-27.303 27.313-27.303 3.513 0 6.866.659 9.949 1.876-10.169 3.972-17.363 13.861-17.363 25.426-.001 11.577 7.194 21.467 17.363 25.438z" opacity="1" data-original="#ecc32e"></path><circle cx="351.993" cy="107.154" r="27.309" fill="#f4dd45" opacity="1" data-original="#f4dd45"></circle><path fill="#ecc32e" d="M361.945 132.59a27.023 27.023 0 0 1-9.949 1.876c-15.088 0-27.313-12.224-27.313-27.313 0-15.078 12.224-27.303 27.313-27.303 3.512 0 6.866.659 9.949 1.876-10.169 3.972-17.363 13.861-17.363 25.426 0 11.578 7.195 21.467 17.363 25.438z" opacity="1" data-original="#ecc32e"></path><circle cx="120.918" cy="248.962" r="27.309" fill="#f4dd45" opacity="1" data-original="#f4dd45"></circle><path fill="#ecc32e" d="M130.871 274.399a27.023 27.023 0 0 1-9.949 1.876c-15.088 0-27.313-12.224-27.313-27.313 0-15.078 12.224-27.303 27.313-27.303 3.513 0 6.866.659 9.949 1.876-10.169 3.972-17.364 13.861-17.364 25.426 0 11.577 7.195 21.466 17.364 25.438z" opacity="1" data-original="#ecc32e"></path><circle cx="439.849" cy="284.255" r="27.309" fill="#f4dd45" opacity="1" data-original="#f4dd45"></circle><path fill="#ecc32e" d="M449.801 309.692a27.023 27.023 0 0 1-9.949 1.876c-15.088 0-27.313-12.224-27.313-27.313 0-15.078 12.224-27.303 27.313-27.303 3.513 0 6.866.659 9.949 1.876-10.169 3.972-17.364 13.861-17.364 25.427.001 11.576 7.196 21.465 17.364 25.437z" opacity="1" data-original="#ecc32e"></path><circle cx="62.045" cy="85.048" r="27.309" fill="#f4dd45" opacity="1" data-original="#f4dd45"></circle><path fill="#ecc32e" d="M71.998 110.485a27.023 27.023 0 0 1-9.949 1.876c-15.088 0-27.313-12.224-27.313-27.313 0-15.078 12.224-27.303 27.313-27.303 3.513 0 6.866.659 9.949 1.876-10.169 3.972-17.364 13.861-17.364 25.426 0 11.577 7.195 21.466 17.364 25.438z" opacity="1" data-original="#ecc32e"></path></g></svg>