<svg height="512pt" viewBox="0 0 512 512" width="512pt" xmlns="http://www.w3.org/2000/svg"><path d="m371.199219 128.808594-115.199219-128.808594v386.316406c85.34375 0 154.527344-69.183594 154.527344-154.527344 0-39.558593-14.875-75.644531-39.328125-102.980468zm0 0" fill="#00b2ff"/><path d="m379.621094 231.789062c0-39.558593-11.898438-75.644531-31.460938-102.980468l-92.160156-128.808594-115.199219 128.808594c-24.453125 27.335937-39.328125 63.421875-39.328125 102.980468 0 85.34375 69.183594 154.527344 154.527344 154.527344 68.273438 0 123.621094-69.183594 123.621094-154.527344zm0 0" fill="#80d8ff"/><path d="m512 479.035156c0-33.996094-27.816406-61.8125-61.8125-61.8125h-30.902344l61.765625 94.710938c17.265625-1.042969 30.949219-15.371094 30.949219-32.898438zm0 0" fill="#00b2ff"/><path d="m419.285156 417.222656h-357.472656c-33.996094 0-61.8125 27.816406-61.8125 61.8125 0 18.207032 14.757812 32.964844 32.964844 32.964844 9.882812 0 18.742187-4.351562 24.78125-11.238281 6.042968 6.886719 14.902344 11.238281 24.78125 11.238281 9.882812 0 18.742187-4.351562 24.785156-11.238281 6.039062 6.886719 14.898438 11.238281 24.78125 11.238281 9.878906 0 18.738281-4.351562 24.78125-11.238281 6.042969 6.886719 14.902344 11.238281 24.78125 11.238281 9.882812 0 18.742188-4.351562 24.78125-11.238281 6.042969 6.886719 14.902344 11.238281 24.785156 11.238281 9.878906 0 18.738282-4.351562 24.78125-11.238281 6.042969 6.886719 14.898438 11.238281 24.78125 11.238281 9.882813 0 18.738282-4.351562 24.78125-11.238281 6.042969 6.886719 14.902344 11.238281 24.78125 11.238281 9.882813 0 18.742188-4.351562 24.785156-11.238281 6.039063 6.886719 14.898438 11.238281 24.78125 11.238281 9.878907 0 18.738282-4.351562 24.78125-11.238281 6.042969 6.886719 14.902344 11.238281 24.78125 11.238281 9.882813 0 18.742188-4.351562 24.78125-11.238281 6.035157 6.886719 14.894532 11.238281 24.777344 11.238281.691406 0 1.378906-.027344 2.058594-.070312v-32.894532c0-33.996094-27.8125-61.8125-61.808594-61.8125zm0 0" fill="#80d8ff"/><path d="m256 301.304688c-13.171875 0-26.339844-5.011719-36.367188-15.042969-3.019531-3.015625-3.019531-7.90625 0-10.925781 3.015626-3.015626 7.910157-3.015626 10.925782 0 14.027344 14.03125 36.855468 14.03125 50.882812 0 3.019532-3.015626 7.910156-3.015626 10.925782 0 3.019531 3.019531 3.019531 7.910156 0 10.925781-10.023438 10.027343-23.199219 15.042969-36.367188 15.042969zm0 0" fill="#00b2ff"/><g fill="#007ce6"><path d="m302.359375 227.15625c-4.269531 0-7.726563-3.460938-7.726563-7.726562v-8.242188c0-4.265625 3.457032-7.726562 7.726563-7.726562h30.902344c4.269531 0 7.726562 3.460937 7.726562 7.726562s-3.457031 7.726562-7.726562 7.726562h-23.175781v.515626c0 4.265624-3.460938 7.726562-7.726563 7.726562zm0 0"/><path d="m209.640625 227.15625c-4.265625 0-7.726563-3.460938-7.726563-7.726562v-.515626h-23.175781c-4.269531 0-7.726562-3.460937-7.726562-7.726562s3.457031-7.726562 7.726562-7.726562h30.902344c4.269531 0 7.726563 3.460937 7.726563 7.726562v8.242188c0 4.265624-3.457032 7.726562-7.726563 7.726562zm0 0"/></g></svg>