<svg id="Capa_1" enable-background="new 0 0 512.001 512.001" height="512" viewBox="0 0 512.001 512.001" width="512" xmlns="http://www.w3.org/2000/svg"><g><path d="m253.508 493.109h-33.667c-28.886 0-54.112-19.543-61.329-47.512l-10.055-38.964c-6.851-26.548-36.212-39.64-59.778-28.287-3.008 1.449-6.492-.806-6.492-4.145v-28.548c0-1.82-1.149-3.439-2.871-4.027-11.685-3.99-55.818-20.849-72.222-52.815-1.445-2.815.579-6.214 3.743-6.209 10.723.016 21.603-2.576 28.704-4.698 3.327-.994 4.155-5.32 1.408-7.444-11.825-9.146-35.512-30.747-36.822-57.873-.139-2.878 2.516-5.066 5.31-4.365 17.365 4.355 37.621 1.751 48.588-3.613 3.235-1.582 3.13-6.249-.168-7.696-4.544-1.994-10.346-5.396-16.518-10.238-9.784-25.135-38.615-69.403-32.685-135.147 3.483-10.224 8.12-21.003 14.095-32.346 2.997-5.689 10.862-6.407 14.855-1.366 27.388 34.566 53.52 51.614 95.406 51.614 35.715 0 62.652-33.428 72.911-48.374 2.02-2.942 6.489-2.491 7.895.79l7.657 17.867c1.603 3.741 6.802 4.014 8.789.463l17.955-32.094c3.404-6.086 12.162-6.086 15.566 0l17.955 32.094c1.987 3.552 7.186 3.278 8.789-.463l7.657-17.867c1.406-3.28 5.876-3.732 7.895-.79 10.259 14.946 37.196 48.374 72.911 48.374 41.886 0 68.018-17.048 95.406-51.614 3.994-5.04 11.858-4.323 14.855 1.366 5.975 11.343 10.612 22.122 14.095 32.346 5.967 57.378-33.074 110.136-32.685 135.147-6.172 4.841-11.975 8.243-16.519 10.237-3.297 1.447-3.402 6.114-.168 7.697 10.967 5.364 31.223 7.968 48.588 3.613 2.795-.701 5.449 1.487 5.31 4.365-1.31 27.126-24.997 48.728-36.822 57.873-2.747 2.124-1.919 6.451 1.408 7.444 7.102 2.122 17.981 4.714 28.705 4.698 3.164-.005 5.188 3.394 3.743 6.209-16.404 31.966-60.537 48.826-72.222 52.815-1.722.588-2.871 2.207-2.871 4.027v28.547c0 3.339-3.484 5.594-6.492 4.145-23.566-11.352-52.927 1.739-59.778 28.287l-10.055 38.964c-7.218 27.969-32.444 47.512-61.33 47.512h-38.65z" fill="#918291"/><path d="m429.813 374.2v-28.548c0-1.82 1.149-3.439 2.871-4.027 11.685-3.99 55.818-20.849 72.222-52.815 1.445-2.815-.579-6.214-3.743-6.209-10.723.016-21.603-2.576-28.705-4.698-3.327-.994-4.155-5.32-1.408-7.444 11.825-9.145 35.512-30.747 36.822-57.873.139-2.878-2.516-5.066-5.31-4.365-17.365 4.355-37.621 1.751-48.588-3.613-3.235-1.582-3.129-6.249.168-7.697 4.544-1.994 10.347-5.396 16.519-10.237.643-33.041 34.19-67.573 32.685-135.147-3.483-10.224-8.12-21.003-14.095-32.346-2.997-5.689-10.862-6.406-14.855-1.366-27.388 34.566-53.52 51.614-95.406 51.614-2.18 0-4.327-.129-6.44-.366 64.517 75.015 92.022 187.151-6.051 274.674-61.655 55.023-41.792 119.722-72.311 149.329 28.03-.892 52.252-20.158 59.3-47.47l10.055-38.964c6.851-26.548 36.212-39.64 59.778-28.287 3.008 1.449 6.492-.806 6.492-4.145z" fill="#7a6d79"/><path d="m287.53 437.777h-63.06c-8.422 0-15.25 6.827-15.25 15.25v8.678c0 25.836 20.944 46.78 46.78 46.78s46.78-20.944 46.78-46.78v-8.678c0-8.423-6.827-15.25-15.25-15.25z" fill="#c68d7a"/><path d="m369.429 238.265c-43.737 4.222-66.958 38.452-68.456 60.802 40.116 7.29 78.632-14.718 75.327-55.151-.283-3.46-3.416-5.985-6.871-5.651z" fill="#ffefd2"/><path d="m316.196 308.182c-5.454 0-11.015-.497-16.605-1.513-3.867-.703-6.591-4.197-6.328-8.119 1.652-24.637 26.763-63.291 75.423-67.976 3.725-.359 7.509.811 10.38 3.212 2.878 2.407 4.63 5.781 4.934 9.5 1.516 18.545-4.881 35.314-18.012 47.215-12.661 11.476-30.535 17.681-49.792 17.681zm-6.239-15.709c17.843 1.487 34.511-3.323 45.654-13.421 9.264-8.396 13.773-19.76 13.092-32.94-21.696 2.484-35.755 12.803-43.78 21.122-8.259 8.559-12.897 17.764-14.966 25.239z" fill="#7a6d79"/><path d="m300.895 336.978c-4.268 0-7.727-3.459-7.727-7.727v-27.919c0-21.393 15.622-42.547 31.105-54.022 3.43-2.541 8.268-1.822 10.809 1.607 2.541 3.428 1.822 8.268-1.607 10.809-17.076 12.656-24.853 30.44-24.853 41.607v27.919c-.001 4.267-3.46 7.726-7.727 7.726z" fill="#7a6d79"/><path d="m142.572 238.265c43.737 4.222 66.958 38.452 68.456 60.802-40.116 7.29-78.632-14.718-75.327-55.151.283-3.46 3.416-5.985 6.871-5.651z" fill="#ffefd2"/><g fill="#7a6d79"><path d="m195.804 308.182c-19.259 0-37.129-6.204-49.792-17.68-13.132-11.902-19.528-28.67-18.012-47.215.304-3.719 2.055-7.093 4.934-9.5 2.87-2.401 6.653-3.572 10.38-3.212 48.66 4.691 73.771 43.339 75.423 67.976.263 3.922-2.461 7.416-6.328 8.119-5.588 1.014-11.152 1.512-16.605 1.512zm-52.506-62.071c-.68 13.181 3.828 24.544 13.092 32.94 11.143 10.099 27.811 14.911 45.654 13.421-2.07-7.474-6.708-16.679-14.966-25.24-8.025-8.318-22.084-18.638-43.78-21.121z"/><path d="m211.106 336.978c-4.268 0-7.727-3.459-7.727-7.727v-27.919c0-11.167-7.777-28.951-24.853-41.607-3.429-2.541-4.148-7.38-1.607-10.809s7.379-4.149 10.809-1.607c15.483 11.475 31.105 32.629 31.105 54.022v27.919c0 4.269-3.459 7.728-7.727 7.728z"/><path d="m329.341 124.216c-3.071-2.961-7.962-2.873-10.925.199l-10.92 11.324-43.189-25.741c-5.123-3.054-11.489-3.053-16.614.001l-43.188 25.74-10.92-11.324c-2.963-3.073-7.855-3.161-10.925-.199-3.072 2.962-3.161 7.854-.198 10.926l15.174 15.735c2.491 2.584 6.434 3.113 9.518 1.274l41.12-24.508v111.314c0 4.267 3.459 7.727 7.727 7.727s7.727-3.459 7.727-7.727v-111.314l41.12 24.508c1.229.733 2.597 1.09 3.953 1.09 2.045 0 4.068-.81 5.565-2.363l15.174-15.735c2.962-3.073 2.873-7.964-.199-10.927z"/></g><path d="m478.196 92.239c-11.502 9.287-25.92 15.25-35.066 26.865-12.121 15.393-11.427 39.456 1.562 54.124 6.63 7.487 16.081 12.086 25.969 13.447 25.348-19.881 56.869-64.088 32.67-135.142-3.761 15.815-12.473 30.481-25.135 40.706z" fill="#ffefd2"/><path d="m33.805 92.239c11.502 9.287 25.92 15.25 35.066 26.865 12.121 15.393 11.427 39.456-1.562 54.124-6.63 7.487-16.08 12.085-25.969 13.446-25.348-19.881-56.87-64.087-32.671-135.141 3.761 15.815 12.473 30.481 25.136 40.706z" fill="#ffefd2"/></g></svg>