<svg id="Capa_1" enable-background="new 0 0 512 512" height="512" viewBox="0 0 512 512" width="512" xmlns="http://www.w3.org/2000/svg"><g><path d="m180.47 236.056h-20.28c-74.927 0-135.667 60.74-135.667 135.667v122.207c0 9.979 8.09 18.069 18.069 18.069h52.51l160.898-10.301 162.899 10.302h50.509c9.979 0 18.069-8.09 18.069-18.069v-122.208c0-74.927-60.74-135.667-135.667-135.667z" fill="#ffcebf"/><path d="m351.81 236.056h-27.815c74.927 0 135.667 60.74 135.667 135.667v122.208c0 9.979-8.09 18.069-18.069 18.069h27.815c9.979 0 18.069-8.09 18.069-18.069v-122.208c.001-74.927-60.74-135.667-135.667-135.667z" fill="#ffb09e"/><path d="m375.321 330.681v-33.306l-119.321 95.228-117.32-93.632v31.71c-55.559 58.205-54.99 135.545-43.578 181.319h323.797c11.412-45.774 11.981-123.114-43.578-181.319z" fill="#918291"/><path d="m375.321 330.681v-33.306l-30.125 24.042v9.264c55.559 58.205 54.99 135.545 43.578 181.319h30.125c11.412-45.774 11.981-123.114-43.578-181.319z" fill="#7a6d79"/><path d="m495.356 348.875c-2.427-2.508-2.491-6.516-.203-9.152 5.431-6.256 5.966-17.688-6.09-26.71-3.289-2.461-3.612-7.289-.765-10.249 7.318-7.612 3.414-23.295-15.286-40.215-2.563-2.319-3.212-6.163-1.313-9.051 8.278-12.588-1.856-24.192-29.883-31.712-2.548-.684-4.406-2.798-4.963-5.376-4.43-20.496-29.943-27.935-63.505-24.033l-56.99 66.553 71.143 79.559c38.64 26.15 80.573 15.537 110.016 41.032 2.651 2.296 6.803.605 6.957-2.898.417-9.427-2.038-20.432-9.118-27.748z" fill="#c68d7a"/><path d="m495.153 339.722c5.431-6.256 5.966-17.688-6.09-26.71-3.289-2.461-3.612-7.289-.765-10.249 7.318-7.612 3.414-23.295-15.286-40.215-2.563-2.319-3.212-6.163-1.313-9.051 8.278-12.588-1.856-24.192-29.883-31.712-2.548-.684-4.406-2.798-4.963-5.376-4.43-20.496-29.943-27.935-63.505-24.033l-2.483 2.9c78.744 50.108 97.696 110.666 94.292 168.273 11.753 3.163 22.728 7.63 32.361 15.971 2.651 2.296 6.803.605 6.957-2.898.416-9.425-2.038-20.43-9.119-27.746-2.427-2.51-2.491-6.518-.203-9.154z" fill="#bc7c63"/><path d="m16.644 348.875c2.427-2.508 2.491-6.516.203-9.152-5.431-6.256-5.966-17.688 6.09-26.71 3.289-2.461 3.612-7.289.765-10.249-7.318-7.612-3.414-23.295 15.286-40.215 2.563-2.319 3.212-6.163 1.313-9.051-8.278-12.588 1.856-24.192 29.883-31.712 2.548-.684 4.406-2.798 4.963-5.376 4.43-20.496 29.943-27.935 63.505-24.033l56.99 66.553-71.143 79.559c-38.64 26.15-80.573 15.537-110.016 41.032-2.651 2.296-6.803.605-6.957-2.898-.417-9.427 2.038-20.432 9.118-27.748z" fill="#c68d7a"/><ellipse cx="383.204" cy="336.172" fill="#deecf1" rx="39.837" ry="39.837" transform="matrix(.383 -.924 .924 .383 -74.024 561.559)"/><ellipse cx="128.796" cy="336.172" fill="#deecf1" rx="39.837" ry="39.837" transform="matrix(.924 -.383 .383 .924 -118.843 74.878)"/><path d="m256 415.874c-13.678 0-24.767 11.088-24.767 24.767 0 10.236 13.871 26.263 20.852 33.681 2.126 2.259 5.704 2.259 7.83 0 6.981-7.418 20.852-23.445 20.852-33.681 0-13.678-11.089-24.767-24.767-24.767z" fill="#fe860a"/><path d="m401.279 236.081c-9.899-7.552-15.418-17.528-18.175-23.984-1.258-2.947.422-6.351 3.545-7.071 2.942-.679 6.724-2.117 10.712-5.107 2.394-1.795 2.802-5.277.827-7.525-15.597-17.753-31.512-62.615-36.297-89.331h-211.782c-4.786 26.716-20.7 71.578-36.297 89.331-1.975 2.248-1.567 5.73.827 7.525 3.988 2.99 7.77 4.429 10.712 5.107 3.123.721 4.803 4.124 3.545 7.071-2.757 6.456-8.276 16.432-18.175 23.984-2.464 1.88-2.788 5.426-.699 7.717 4.925 5.401 9.988 7.249 16.649 7.881 3.953.375 5.974 4.949 3.676 8.187l-4.313 6.077c-2.353 3.316-.153 7.927 3.905 8.184l56.694 3.581h138.733l56.694-3.581c4.058-.256 6.259-4.868 3.905-8.184l-4.313-6.077c-2.298-3.238-.276-7.812 3.676-8.187 6.66-.632 11.724-2.48 16.649-7.881 2.089-2.291 1.765-5.837-.698-7.717z" fill="#fe860a"/><path d="m385.966 265.942-4.313-6.077c-2.298-3.238-.276-7.812 3.676-8.187 6.66-.632 11.724-2.48 16.649-7.881 2.088-2.29 1.764-5.837-.699-7.716-9.899-7.552-15.418-17.528-18.175-23.984-1.259-2.947.422-6.351 3.545-7.071 2.942-.679 6.724-2.117 10.712-5.108 2.394-1.795 2.802-5.277.827-7.525-15.597-17.753-31.511-62.615-36.297-89.331h-44.357l19.536 88.316-11.306 31.43c0 25.662 13.577 41.268-2.438 54.9h2.04l56.694-3.581c4.059-.258 6.259-4.869 3.906-8.185z" fill="#f46700"/><path d="m159.891 107.335v112.164c0 6.474 2.519 12.693 7.025 17.341l46.332 47.801h85.504l46.332-47.801c4.505-4.648 7.025-10.868 7.025-17.341v-112.164z" fill="#ffcebf"/><g fill="#ffefd2"><path d="m190.76 45.349h-26.819c-16.473 0-31.22-10.212-37.015-25.632l-6.346-16.886c-1.424-3.789-6.791-3.769-8.187.03l-5.964 16.234c-11.547 31.433 3.76 66.379 34.693 79.205 17.964 7.449 38.373 6.101 55.202-3.644l26.281-15.218z"/><path d="m321.24 45.349h26.819c16.473 0 31.22-10.212 37.015-25.632l6.346-16.886c1.424-3.789 6.791-3.769 8.187.03l5.964 16.234c11.547 31.433-3.76 66.379-34.693 79.205-17.964 7.449-38.373 6.101-55.202-3.644l-26.281-15.218z"/></g><g fill="#c68d7a"><path d="m313.62 176.506c-4.142 0-7.5-3.358-7.5-7.5v-4.773c0-4.142 3.358-7.5 7.5-7.5s7.5 3.358 7.5 7.5v4.773c0 4.142-3.358 7.5-7.5 7.5z"/><path d="m198.38 176.506c-4.142 0-7.5-3.358-7.5-7.5v-4.773c0-4.142 3.358-7.5 7.5-7.5s7.5 3.358 7.5 7.5v4.773c0 4.142-3.358 7.5-7.5 7.5z"/></g><path d="m140.175 106.514v6.152c0 2.572 1.048 5.058 2.973 6.764 17.165 15.208 61.218 26.033 112.853 26.033s95.687-10.824 112.853-26.033c1.925-1.706 2.973-4.192 2.973-6.764v-6.152c0-52.16-42.284-94.444-94.444-94.444h-42.764c-52.161 0-94.444 42.284-94.444 94.444z" fill="#918291"/><path d="m279.704 12.1c55.445 32.402 77.798 83.225 50.1 124.945 17.473-4.518 31.128-10.598 39.049-17.616 1.925-1.706 2.973-4.192 2.973-6.764v-6.152c-.001-51.382-41.036-93.18-92.122-94.413z" fill="#7a6d79"/><path d="m241.602 10.52-10.217 126.927c-.287 3.57 1.258 7.042 4.103 9.219l15.358 11.75c3.042 2.327 7.266 2.327 10.307 0l15.358-11.75c2.845-2.176 4.39-5.649 4.103-9.219l-10.216-126.927c-.334-4.154-3.803-7.354-7.97-7.354h-12.856c-4.167 0-7.635 3.2-7.97 7.354z" fill="#7a6d79"/><path d="m337.07 284.641-23.396-19.738c-38.466 14.051-76.916 14.063-115.349 0l-23.396 19.738s13.356 18.054 44.566 26.956c-.061 6.049 2.907 11.4 7.489 14.632 2.583 1.822 3.04 5.442 1.237 8.038-1.65 2.376-2.618 5.262-2.618 8.376 0 4.494 2.014 8.512 5.189 11.21 2.346 1.993 2.922 5.433 1.087 7.904-1.678 2.26-2.634 5.086-2.528 8.143.245 7.023 6.296 12.46 13.323 12.46h26.651c7.027 0 13.078-5.436 13.323-12.459.107-3.057-.85-5.883-2.528-8.143-1.835-2.471-1.259-5.911 1.087-7.904 3.174-2.697 5.189-6.715 5.189-11.21 0-3.114-.968-5.999-2.618-8.376-1.803-2.596-1.346-6.217 1.237-8.038 4.582-3.232 7.55-8.582 7.489-14.632 31.21-8.903 44.566-26.957 44.566-26.957z" fill="#fe860a"/><path d="m282.649 369.899c.107-3.057-.85-5.883-2.528-8.143-1.835-2.471-1.259-5.911 1.087-7.904 3.174-2.697 5.189-6.715 5.189-11.21 0-3.114-.968-5.999-2.618-8.376-1.803-2.596-1.346-6.217 1.237-8.038 4.582-3.232 7.55-8.582 7.489-14.632 31.21-8.902 44.566-26.956 44.566-26.956l-11.041-9.315c-13.781 12.566-30.513 20.953-43.655 26.167-13.4 5.316-22.135 18.351-22.135 32.767v48.1h9.087c7.026 0 13.077-5.436 13.322-12.46z" fill="#f46700"/><path d="m356.733 282.032c-31.344-91.323-86.526-98.771-100.733-98.395-14.207-.376-69.388 7.071-100.733 98.395-7.664 22.331-12.034 32.162-18.588 38.716 86.032-3.277 88.984-92.853 119.321-92.853s33.289 89.576 119.321 92.853c-6.554-6.554-10.924-16.386-18.588-38.716z" fill="#fea95c"/><path d="m238.562 385.593v29.44c0 3.531 2.863 6.394 6.394 6.394h22.09c3.531 0 6.394-2.863 6.394-6.394v-29.44c0-3.531-2.863-6.394-6.394-6.394h-22.09c-3.532 0-6.394 2.863-6.394 6.394z" fill="#6ed5a1"/><path d="m260.239 416.243v26.987c0 6.93-3.931 13.261-10.142 16.335-2.869 1.42-5.95 2.002-8.963 1.854 3.838 5.111 8.007 9.773 10.951 12.902 2.126 2.259 5.705 2.259 7.83 0 6.981-7.417 20.852-23.445 20.852-33.681 0-12.231-8.871-22.385-20.528-24.397z" fill="#f46700"/><path d="m267.045 379.199h-6.806v42.227h6.806c3.531 0 6.394-2.863 6.394-6.394v-29.44c-.001-3.53-2.863-6.393-6.394-6.393z" fill="#00c27a"/></g></svg>