<svg id="Teleport" enable-background="new 0 0 64 64" viewBox="0 0 64 64" xmlns="http://www.w3.org/2000/svg"><g><g><path d="m57.34838 29.90885c2.30916 14.05293-9.36304 27.87172-23.45614 29.38064-12.17952 1.98972-24.70753-6.69236-27.03747-18.88559-2.23718-9.36956 2.665-19.58122 11.91684-22.77615 5.86015-2.07466 13.06077-1.4715 17.31382 3.63151 2.05098 2.58179 2.86101 6.01246 2.07171 9.21052-.72569 3.03574-3.89037 5.903-7.06461 5.13013-.5135-.10876-.62084-.84812-.17355-1.10453 2.73913-1.62412 3.49807-4.74124 2.5834-7.58585-1.64476-4.65758-7.84875-4.99823-12.12739-2.92367-7.74191 3.67744-8.26297 13.62615-3.81231 20.00941 7.42383 11.45155 24.92998 8.82224 32.71689-1.21522 2.91513-3.52884 4.87589-7.97333 5.66894-12.87121.08797-.7842 1.31036-.77359 1.39987.00001z" fill="#b687d4"/><path d="m51.50026 49.6199c-4.3885 5.2298-10.6971 8.92344-17.60915 9.67321-12.17823 1.99309-24.7039-6.69263-27.04453-18.88916-1.86518-7.78974 1.22511-16.18282 7.64342-20.60804-.16451 1.26172-.25603 2.54174-.25603 3.84007 0 2.65134.34743 5.19308 1.024 7.62511-1.1702 4.16908-.25592 9.05145 2.30402 12.7269 4.1875 6.4548 11.55659 8.44799 18.59665 7.14967 1.68225.32913 3.41942.51205 5.19308.51205 3.58404-.00001 7.00346-.71318 10.14854-2.02981z" opacity=".15"/></g><g><path d="m1.048 33.33608c-2.30931-14.05284 9.36311-27.87175 23.45606-29.38064 12.17954-1.98972 24.70757 6.69231 27.03747 18.88558 2.23727 9.36953-2.665 19.58124-11.91684 22.77615-5.86016 2.07465-13.06078 1.47151-17.31382-3.63153-2.05095-2.58179-2.86099-6.01242-2.07171-9.2105.72572-3.03575 3.89042-5.90302 7.06462-5.13014.51355.10876.62085.8481.17355 1.10454-2.73909 1.62423-3.49807 4.74121-2.5834 7.58585 1.64484 4.65751 7.84876 4.99828 12.12739 2.92368 7.74195-3.67751 8.26292-13.62605 3.81239-20.00942-7.42384-11.45155-24.93002-8.82222-32.71697 1.21522-2.91513 3.52884-4.87588 7.97331-5.66886 12.87121-.08804.78414-1.31031.77368-1.39988 0z" fill="#b687d4"/><path d="m21.60317 4.47247c-2.56005 2.77946-4.55313 6.10748-5.79654 9.80123-2.99888 1.48114-5.66864 3.58393-7.69833 6.19877-2.90748 3.52913-4.86395 7.97266-5.66853 12.85491-.07321.78627-1.29833.78627-1.38973 0-2.13951-13.07433 7.80793-25.94743 20.55313-28.85491z" opacity=".15"/></g><g fill="#ffdc6e"><path d="m5.44307 50.13861.48201 1.563c.39848 1.29214 1.41004 2.3037 2.70218 2.70218l1.563.48201c.25011.07713.25011.43117 0 .5083l-1.563.48201c-1.29214.39848-2.30369 1.41004-2.70218 2.70218l-.48201 1.563c-.07713.25011-.43117.25011-.5083 0l-.48201-1.563c-.39848-1.29214-1.41004-2.30369-2.70218-2.70218l-1.563-.48201c-.25011-.07713-.25011-.43117 0-.5083l1.563-.48201c1.29214-.39848 2.30369-1.41004 2.70218-2.70218l.48201-1.563c.07714-.25011.43117-.25011.5083 0z"/><path d="m47.72496 49.92644.38047 1.23374c.31454 1.01994 1.113 1.8184 2.13294 2.13294l1.23374.38047c.19742.06088.19742.34034 0 .40122l-1.23374.38047c-1.01994.31454-1.8184 1.113-2.13294 2.13294l-.38047 1.23374c-.06089.19742-.34034.19742-.40122 0l-.38047-1.23374c-.31454-1.01994-1.113-1.8184-2.13293-2.13294l-1.23374-.38047c-.19743-.06088-.19743-.34034 0-.40122l1.23374-.38047c1.01994-.31454 1.8184-1.113 2.13293-2.13294l.38047-1.23374c.06088-.19742.34034-.19742.40122 0z"/><path d="m59.5329 16.21527.43633 1.41487c.36072 1.16968 1.27641 2.08537 2.44609 2.44609l1.41487.43633c.22641.06982.22641.3903 0 .46013l-1.41487.43633c-1.16968.36072-2.08537 1.27641-2.44609 2.44609l-.43633 1.41487c-.06982.22641-.3903.22641-.46012 0l-.43634-1.41487c-.36072-1.16968-1.27641-2.08537-2.44609-2.44609l-1.41487-.43633c-.22641-.06982-.22641-.3903 0-.46013l1.41487-.43633c1.16968-.36072 2.08537-1.27641 2.44609-2.44609l.43634-1.41487c.06982-.22641.3903-.22641.46012 0z"/><path d="m8.27434 5.85203.44122 1.43071c.36476 1.18278 1.2907 2.10871 2.47347 2.47347l1.43071.44122c.22894.0706.22894.39467 0 .46528l-1.43071.44122c-1.18277.36476-2.10871 1.2907-2.47347 2.47347l-.44122 1.43071c-.0706.22894-.39467.22894-.46528 0l-.44122-1.43071c-.36476-1.18277-1.2907-2.10871-2.47347-2.47347l-1.43071-.44122c-.22894-.0706-.22894-.39467 0-.46528l1.43071-.44122c1.18277-.36476 2.10871-1.2907 2.47347-2.47347l.44122-1.43071c.0706-.22894.39467-.22894.46528 0z"/></g></g></svg>