<svg id="Capa_1" enable-background="new 0 0 496.875 496.875" height="512" viewBox="0 0 496.875 496.875" width="512" xmlns="http://www.w3.org/2000/svg"><g><g><path d="m72.05 77.362c-1.414-3.759 2.26-7.433 6.019-6.019l68.066 24.151 4.589-73.798c.137-4.034 4.963-6.026 7.906-3.265l57.136 51.493 28.917-67.18c1.658-3.658 6.854-3.658 8.512 0l28.917 67.885 57.564-51.616c2.949-2.755 7.77-.752 7.899 3.282l1.3 71.645 70.641-21.89c3.759-1.414 7.433 2.26 6.019 6.019l-27.125 72.766 76.772-.111c4.034.137 6.026 4.962 3.265 7.906l-53.309 58.95 68.996 27.102c3.658 1.658 3.658 6.854 0 8.512l-71.266 34.627 54.997 51.853c2.755 2.949.752 7.771-3.282 7.899 0 0-82.666.943-81.715 1.299s31.959 70.641 31.959 70.641c1.414 3.759-2.26 7.433-6.019 6.019l-71.27-27.907-1.385 77.554c-.137 4.034-4.963 6.026-7.906 3.265l-53.938-53.309-32.114 68.996c-1.658 3.658-6.854 3.658-8.512 0l-32.691-71.527-53.789 55.258c-2.949 2.755-7.77.752-7.899-3.282l-1.417-74.134-70.523 24.378c-3.759 1.414-7.433-2.26-6.019-6.019l29.517-71.27-79.164-1.385c-4.034-.137-6.026-4.962-3.265-7.906l52.198-52.42-67.887-33.631c-3.658-1.658-3.658-6.854 0-8.512l73.004-30.954-56.735-55.526c-2.755-2.949-.752-7.771 3.282-7.899l74.603-1.201z" fill="#fee97d"/></g><path d="m441.243 199.765c-4.364-17.34-11.007-33.771-19.589-48.964l-23.247.034 8.413-22.57c-11.476-15.101-25.059-28.51-40.316-39.789l-17.633 5.464-.314-17.289c-15.491-9.047-32.311-16.067-50.103-20.678l-16.344 14.656-8.262-19.397c-8.321-1.062-16.801-1.611-25.41-1.612-8.324-.001-16.527.518-24.584 1.511l-8.089 18.792-15.889-14.32c-18.732 4.704-36.407 12.069-52.608 21.668l-1.133 18.222-17.061-6.054c-14.768 11.106-27.933 24.225-39.102 38.944l6.926 19.717-20.307.327c-8.339 14.297-14.951 29.725-19.537 46.003l18.694 18.296-24.529 10.401c-1.054 8.288-1.598 16.735-1.598 25.31-.001 9.489.678 18.818 1.963 27.952l19.046 9.436-14.218 14.278c4.461 16.624 11.014 32.392 19.376 46.994l25.072.438-9.459 22.84c10.742 13.813 23.265 26.169 37.226 36.728l19.258-6.657.378 19.752c14.296 8.355 29.724 14.984 46.005 19.584l16.722-17.179 10.428 22.816c8.837 1.201 17.853 1.834 27.019 1.834 8.947 0 17.753-.601 26.387-1.746l9.483-20.374 15.569 15.387c16.716-4.465 32.568-11.044 47.242-19.45l.419-23.447 21.891 8.572c12.799-9.83 24.366-21.18 34.433-33.784-5.798-12.881-10.629-23.403-10.995-23.541-.374-.14 12.169-.371 27.532-.599 8.106-13.932 14.568-28.936 19.12-44.751l-16.653-15.701 22.344-10.857c1.339-9.317 2.046-18.838 2.046-28.526 0-7.67-.45-15.234-1.295-22.678l-20.825-8.18z" fill="#fedf30"/><path d="m415.514 248.437c0 92.274-74.803 167.077-167.077 167.077s-167.084-74.802-167.077-167.077c.008-92.277 74.839-167.087 167.077-167.077 92.275.01 167.077 74.803 167.077 167.077z" fill="#fed402"/><path d="m302.408 388.522c-92.274 0-167.077-74.803-167.077-167.077 0-54.582 26.186-103.056 66.666-133.546-69.674 20.125-120.637 84.384-120.637 160.538 0 92.274 74.803 167.077 167.077 167.077 37.693 0 72.476-12.492 100.43-33.547-14.747 4.26-30.34 6.555-46.459 6.555z" fill="#fac600"/><path d="m377.171 248.437c0 71.098-57.636 128.734-128.734 128.734s-128.74-57.636-128.734-128.734c.006-71.1 57.664-128.742 128.734-128.734 71.098.008 128.734 57.636 128.734 128.734z" fill="#fedf30"/><path d="m119.703 248.437c-.006 68.68 53.784 124.793 121.531 128.53-62.013-24.412-105.904-84.841-105.904-155.522 0-15.358 2.074-30.233 5.955-44.36-13.627 20.424-21.58 44.959-21.582 71.352z" fill="#fed402"/><path d="m213.031 164.42-29.853 75.271c-1.473 3.715 1.264 7.746 5.261 7.746h43.662c3.619 0 6.308 3.349 5.526 6.883l-18.734 84.64c-1.315 5.943 6.395 9.489 10.051 4.622l84.738-112.826c2.802-3.73.14-9.058-4.525-9.058h-20.559c-4.461 0-7.168-4.921-4.781-8.689l27.548-43.474c2.388-3.768-.32-8.689-4.781-8.689h-88.292c-2.32.001-4.405 1.417-5.261 3.574z" fill="#fff9e2"/></g></svg>