<svg xmlns="http://www.w3.org/2000/svg" version="1.1" xmlns:xlink="http://www.w3.org/1999/xlink" width="512" height="512" x="0" y="0" viewBox="0 0 512 512" style="enable-background:new 0 0 512 512" xml:space="preserve" class=""><g><path fill="#b075d1" fill-rule="evenodd" d="M90.838 152.803c57.031-28.223 23.258-22.087 81.138-24.395 43.293-1.724 48.449-41.838 51.729-54.225 1.318-4.938 1.64-9.466 1.113-13.527-3.076-24.775-36.732-33.365-63.329-28.369-17.224 3.243-37.611 7.187-47.658 21.123-4.657 6.486-4.599 26.616-16.96 27.609-20.446 1.607-23.844 19.224-30.961 40.873-6.766 20.51 4.102 41.224 24.928 30.911z" clip-rule="evenodd" opacity="1" data-original="#ffc344" class=""></path><path fill="#b5b5b5" fill-rule="evenodd" d="M157.653 111.725c-57.881 2.308-24.107-3.827-81.109 24.395-4.628 2.279-8.758 3.038-12.303 2.629 1.904 12.943 11.717 21.445 26.597 14.053 57.031-28.223 23.258-22.087 81.138-24.395 43.293-1.724 48.449-41.838 51.729-54.225 1.318-4.938 1.64-9.466 1.113-13.527-1.201-9.729-7.118-16.945-15.437-21.824a28.054 28.054 0 0 1 1.142 5.142c.498 4.061.176 8.56-1.142 13.527-.088.38-.205.76-.293 1.169-3.309 13.556-9.431 51.391-51.435 53.056z" clip-rule="evenodd" opacity="1" data-original="#feb237" class=""></path><path fill="#c6c4c1" fill-rule="evenodd" d="M318.758 171.91c15.349 28.544 52.637 10.956 64.53 46.191 9.666 28.632 41.419 27.317 64.647 26.937 7.762-.117 10.311-5.493 11.307-11.891 2.285-14.783-1.904-34.387-9.783-43.065-1.758-1.928-14.939-12.738-20.006-25.36-3.31-8.327-4.57-19.75-7.352-27.668-6.239-17.647-38.284-23.548-65.496-20.393-44.348 5.113-50.44 20.334-46.281 36.082 1.726 6.517 5.182 13.12 8.434 19.167z" clip-rule="evenodd" opacity="1" data-original="#fed2a4" class=""></path><path fill="#a09c99" fill-rule="evenodd" d="M398.959 138.224c2.783 7.888 4.042 19.312 7.382 27.638 5.038 12.651 18.249 23.431 19.977 25.36 7.879 8.677 12.098 28.281 9.783 43.065-.732 4.704-2.285 8.823-6.122 10.752 6.181.234 12.303.088 17.956 0 7.762-.117 10.311-5.493 11.307-11.891 2.285-14.783-1.904-34.387-9.783-43.065-1.758-1.928-14.939-12.738-20.006-25.36-3.31-8.327-4.57-19.75-7.352-27.668-6.239-17.647-38.284-23.548-65.496-20.393-1.26.146-2.461.292-3.632.438 21.293.965 41.211 7.597 45.986 21.124z" clip-rule="evenodd" opacity="1" data-original="#ffbd86" class=""></path><path fill="#c6c4c1" fill-rule="evenodd" d="M196.552 225.581c-1.23-12.125-9.315-20.071-23.375-24.571-8.231-2.629-12.801-2.308-24.224-2.746-49.503-1.899-37.816 27.083-57.939 46.132-14.91 14.082-39.28 19.867-47.658 39.705-8.407 19.896-11.248 29.012 11.834 31.787 22.027 2.629 34.506-11.716 67.195-6.165 21.412 3.623 24.019-7.684 36.615-19.195 13.738-12.534 29.878-31.729 34.154-43.795 2.9-8.151 3.984-15.163 3.398-21.152z" clip-rule="evenodd" opacity="1" data-original="#fed2a4" class=""></path><path fill="#a09c99" fill-rule="evenodd" d="M178.274 230.197c-4.277 12.066-20.446 31.261-34.154 43.795-12.595 11.511-12.42 20.013-33.832 16.39-32.69-5.551-47.951 11.599-70.007 8.969-.82-.088-1.64-.205-2.402-.321-2.373 9.817 1.025 14.9 17.311 16.858 22.027 2.629 34.506-11.716 67.195-6.165 21.412 3.623 24.019-7.684 36.615-19.195 13.738-12.534 29.878-31.729 34.154-43.795 2.9-8.151 3.984-15.163 3.398-21.152-.996-9.787-6.415-16.828-15.876-21.561.469 1.578.791 3.272.967 5.025.527 5.171-.205 11.073-2.255 17.822-.352 1.08-.704 2.19-1.114 3.33z" clip-rule="evenodd" opacity="1" data-original="#ffbd86" class=""></path><path fill="#b5b1af" d="M385.038 154.838c-14.326-9.441-30.95-14.43-48.09-14.43-29.763 0-56.084 14.991-71.866 37.817v-72.371c0-24.767-11.456-42.797-32.258-50.769-26.632-10.202-64.347-.645-84.071 21.312a7.749 7.749 0 0 0 .586 10.944 7.747 7.747 0 0 0 10.944-.586c15.529-17.285 46.208-25.159 66.994-17.196 14.591 5.592 22.304 18.142 22.304 36.295v135.994c-14.61-15.096-34.954-24.104-56.428-24.104-24.548 0-48.023 11.807-62.844 31.597-2.371 3.166-2.147 7.711.728 10.426a7.753 7.753 0 0 0 11.566-.985c11.902-15.991 30.8-25.538 50.55-25.538 23.755 0 45.79 13.759 56.428 35.127v75.825c0 4.243 3.27 7.944 7.511 8.071a7.75 7.75 0 0 0 7.989-7.747V227.889c0-39.691 32.239-71.981 71.866-71.981 14.16 0 27.893 4.14 39.715 11.974a7.75 7.75 0 0 0 11.215-2.996c1.783-3.526.46-7.875-2.839-10.048z" opacity="1" data-original="#f6a96c" class=""></path><path fill="#958f85" fill-rule="evenodd" d="M255.985 481.075h252.909c2.052 0 3.537-1.961 2.992-3.94-7.855-28.504-40.737-37.623-65.943-38.657-6.239-30.063-32.953-52.647-64.94-52.647-39.808 0-40.364-5.317-53.252-13.878-27.564-18.319-49.679-27.463-71.765-27.463s-44.172 9.145-71.736 27.463c-12.918 8.56-13.474 13.878-53.282 13.878-31.987 0-58.671 22.584-64.94 52.647-25.207 1.035-58.062 10.154-65.914 38.658-.545 1.979.94 3.94 2.992 3.94h252.879z" clip-rule="evenodd" opacity="1" data-original="#aa6a51" class=""></path><path fill="#b5b5b5" fill-rule="evenodd" d="M226.84 362.575c22.584 0 45.197 9.145 73.376 27.463 13.181 8.56 27.651 22.759 68.367 22.759 29.673 0 43.469 11.248 50.528 35.76 3.105 10.664 8.172 8.59 19.743 9.963 18.659 2.25 31.342 7.772 42.649 22.555h27.392c2.052 0 3.537-1.961 2.992-3.94-7.855-28.504-40.737-37.623-65.943-38.657-6.239-30.063-32.953-52.647-64.94-52.647-39.808 0-40.364-5.317-53.252-13.878-27.564-18.319-49.679-27.463-71.765-27.463s-44.172 9.145-71.736 27.463c-1.318.847-2.49 1.695-3.603 2.483 16.461-7.917 31.312-11.861 46.192-11.861z" clip-rule="evenodd" opacity="1" data-original="#935b44" class=""></path><path fill="#b5b5b5" d="M258.455 423.759c-5.677 1.758-10.854-2.824-10.156-8.375.441-3.505 3.323-6.341 6.836-6.713 4.662-.494 8.601 3.129 8.601 7.69v.029c0 3.334-2.098 6.383-5.281 7.369z" opacity="1" data-original="#935b44" class=""></path><path fill="#b075d1" fill-rule="evenodd" d="M181.526 355.271c-15.349 1.139-25.689 10.839-53.34 6.661-15.876-1.227-34.242 9.758-44.611 21.561-12.42 14.082-14.675 29.275-4.013 25.973.264-.088.557-.175.82-.263 46.896-14.257 42.473 15.66 77.155 13.819 61.044-3.243 63.915-39.559 47.57-57.673a35.369 35.369 0 0 0-4.042-3.798c-5.479-4.323-12.304-6.806-19.539-6.28zM317.938 365.701c-12.771 14.228-10.428 42.656 37.406 45.197 27.388 1.461 23.726-22.321 61.22-10.635 2.343.73 3.867.321 4.687-.877 2.08-3.097-.791-11.54-7.821-19.516-8.172-9.262-22.584-17.91-35.033-16.945-21.705 3.301-29.819-4.324-41.887-5.23-7.236-.525-13.915 2.806-18.572 8.006z" clip-rule="evenodd" opacity="1" data-original="#ffc344" class=""></path><path fill="#b5b5b5" fill-rule="evenodd" d="M322.185 374.758c5.038.38 9.344 1.899 14.265 3.331 6.913 2.016 14.939 3.827 27.651 1.899 7.059-.555 14.763 2.016 21.617 6.019 5.185 3.038 9.871 6.924 13.386 10.927a.378.378 0 0 1 .117.088c4.628.088 10.252 1.023 17.341 3.243 2.343.73 3.867.321 4.687-.877 2.08-3.097-.791-11.54-7.821-19.516-8.172-9.262-22.584-17.91-35.033-16.945-21.705 3.301-29.819-4.324-41.887-5.23-7.235-.526-13.914 2.805-18.571 8.005-2.783 3.068-4.833 6.837-5.858 10.868a20.781 20.781 0 0 1 10.106-1.812zM185.129 372.362c2.695 17.822-10.692 38.244-55.742 40.64a63.396 63.396 0 0 1-3.251.088c8.055 5.142 15.73 10.781 31.401 9.934 61.044-3.243 63.915-39.559 47.57-57.673a35.369 35.369 0 0 0-4.042-3.798c-5.478-4.324-12.303-6.807-19.538-6.281-1.406.088-2.812.292-4.159.526 3.837 4.412 6.561 9.875 7.616 15.66.057.291.115.612.145.904z" clip-rule="evenodd" opacity="1" data-original="#feb237" class=""></path></g></svg>